<?xml version="1.0" encoding="UTF-8" standalone="no"?>
<!-- Created with Inkscape (http://www.inkscape.org/) -->

<svg
   xmlns:dc="http://purl.org/dc/elements/1.1/"
   xmlns:cc="http://creativecommons.org/ns#"
   xmlns:rdf="http://www.w3.org/1999/02/22-rdf-syntax-ns#"
   xmlns:svg="http://www.w3.org/2000/svg"
   xmlns="http://www.w3.org/2000/svg"
   xmlns:sodipodi="http://sodipodi.sourceforge.net/DTD/sodipodi-0.dtd"
   xmlns:inkscape="http://www.inkscape.org/namespaces/inkscape"
   id="svg4166"
   version="1.1"
   inkscape:version="0.91 r13725"
   width="93.75"
   height="93.75"
   viewBox="0 0 93.75 93.75"
   sodipodi:docname="design_box.svg">
  <metadata
     id="metadata4172">
    <rdf:RDF>
      <cc:Work
         rdf:about="">
        <dc:format>image/svg+xml</dc:format>
        <dc:type
           rdf:resource="http://purl.org/dc/dcmitype/StillImage" />
        <dc:title></dc:title>
      </cc:Work>
    </rdf:RDF>
  </metadata>
  <defs
     id="defs4170" />
  <sodipodi:namedview
     pagecolor="#ffffff"
     bordercolor="#666666"
     borderopacity="1"
     objecttolerance="10"
     gridtolerance="10"
     guidetolerance="10"
     inkscape:pageopacity="0"
     inkscape:pageshadow="2"
     inkscape:window-width="2560"
     inkscape:window-height="1061"
     id="namedview4168"
     showgrid="false"
     inkscape:zoom="2.5173333"
     inkscape:cx="46.875"
     inkscape:cy="46.875"
     inkscape:window-x="-4"
     inkscape:window-y="-4"
     inkscape:window-maximized="1"
     inkscape:current-layer="svg4166" />
  <g
     id="g4716">
    <path
       style="fill:#fefefe"
       d="M 0,46.875 0,0 46.875,0 93.75,0 l 0,46.875 0,46.875 -46.875,0 L 0,93.75 0,46.875 Z"
       id="path4720"
       inkscape:connector-curvature="0" />
    <path
       style="fill:#8470f8"
       d="M 0,46.875 0,0 46.875,0 93.75,0 l 0,46.875 0,46.875 -46.875,0 L 0,93.75 0,46.875 Z m 91.875,0 0,-45 -45,0 -45,0 0,45 0,45 45,0 45,0 0,-45 z m -88.125,0 0,-43.125 43.125,0 L 90,3.75 90,46.875 90,90 46.875,90 3.75,90 l 0,-43.125 z m 24.375,23.90625 0,-6.09375 3.28125,0 3.28125,0 0,-5.15625 0,-5.15625 -9.84375,0 -9.84375,0 0,5.15625 0,5.15625 3.28125,0 3.28125,0 0,6.09375 0,6.09375 3.28125,0 3.28125,0 0,-6.09375 z m -4.6875,-0.9375 c 0,-3.958333 0.326705,-5.15625 1.40625,-5.15625 1.079545,0 1.40625,1.197917 1.40625,5.15625 C 26.25,73.802083 25.923295,75 24.84375,75 23.764205,75 23.4375,73.802083 23.4375,69.84375 Z m -6.5625,-10.3125 0,-3.28125 7.96875,0 7.96875,0 0,3.28125 0,3.28125 -7.96875,0 -7.96875,0 0,-3.28125 z m 53.4375,6.09375 0,-11.25 -4.6875,0 -4.6875,0 0,11.25 0,11.25 4.6875,0 4.6875,0 0,-11.25 z m -7.5,0 0,-9.375 2.8125,0 2.8125,0 0,9.375 0,9.375 -2.8125,0 -2.8125,0 0,-9.375 z m 18.75,0 0,-11.25 -4.6875,0 -4.6875,0 0,11.25 0,11.25 4.6875,0 4.6875,0 0,-11.25 z m -7.5,0 0,-9.375 2.8125,0 2.8125,0 0,9.375 0,9.375 -2.8125,0 -2.8125,0 0,-9.375 z M 48.75,67.96875 c 0,-1.875 0.46875,-2.34375 2.34375,-2.34375 1.289062,0 2.34375,-0.421875 2.34375,-0.9375 0,-0.515625 -1.054688,-0.9375 -2.34375,-0.9375 -1.875,0 -2.34375,-0.46875 -2.34375,-2.34375 0,-1.289063 -0.421875,-2.34375 -0.9375,-2.34375 -0.515625,0 -0.9375,1.054687 -0.9375,2.34375 0,1.875 -0.46875,2.34375 -2.34375,2.34375 -1.289063,0 -2.34375,0.421875 -2.34375,0.9375 0,0.515625 1.054687,0.9375 2.34375,0.9375 1.875,0 2.34375,0.46875 2.34375,2.34375 0,1.289062 0.421875,2.34375 0.9375,2.34375 0.515625,0 0.9375,-1.054688 0.9375,-2.34375 z m 16.611145,-28.7961 4.951355,-4.88985 0,-9.6414 0,-9.6414 -18.017395,0 -18.017395,0 -4.951355,4.88985 -4.951355,4.88985 0,9.6414 0,9.6414 18.017395,0 18.017395,0 4.951355,-4.88985 z M 26.25,39.84375 l 0,-2.34375 16.40625,0 16.40625,0 0,2.34375 0,2.34375 -16.40625,0 -16.40625,0 0,-2.34375 z m 34.6875,-6.650723 0,-7.5 3.75,-3.661777 3.75,-3.661778 0,7.5 0,7.5 -3.75,3.661778 -3.75,3.661777 0,-7.5 z M 26.25,33.75 c 0,-1.803572 0.625,-1.875 16.40625,-1.875 15.78125,0 16.40625,0.07143 16.40625,1.875 0,1.803572 -0.625,1.875 -16.40625,1.875 C 26.875,35.625 26.25,35.553572 26.25,33.75 Z m 0,-5.625 c 0,-1.803572 0.625,-1.875 16.40625,-1.875 15.78125,0 16.40625,0.07143 16.40625,1.875 0,1.803572 -0.625,1.875 -16.40625,1.875 C 26.875,30 26.25,29.928572 26.25,28.125 Z m 1.875,-4.043352 c 0,-0.161344 1.265625,-1.505898 2.8125,-2.987898 l 2.8125,-2.694546 0,2.987898 c 0,2.694887 -0.275811,2.987898 -2.8125,2.987898 -1.546875,0 -2.8125,-0.132008 -2.8125,-0.293352 z m 7.5,-0.644148 c 0,-0.578905 4.862193,-0.9375 12.711578,-0.9375 8.235658,0 12.507562,0.330107 12.132172,0.9375 -0.777183,1.257508 -24.84375,1.257508 -24.84375,0 z m 0,-4.6875 c 0,-1.799948 0.625,-1.875 15.614051,-1.875 15.554667,0 15.607597,0.0071 13.917199,1.875 -1.551686,1.714594 -2.887469,1.875 -15.614051,1.875 C 36.25,20.625 35.625,20.540797 35.625,18.75 Z"
       id="path4718"
       inkscape:connector-curvature="0" />
  </g>
</svg>
