<?xml version="1.0" encoding="UTF-8" standalone="no"?>
<!-- Created with Inkscape (http://www.inkscape.org/) -->

<svg
   xmlns:dc="http://purl.org/dc/elements/1.1/"
   xmlns:cc="http://creativecommons.org/ns#"
   xmlns:rdf="http://www.w3.org/1999/02/22-rdf-syntax-ns#"
   xmlns:svg="http://www.w3.org/2000/svg"
   xmlns="http://www.w3.org/2000/svg"
   xmlns:sodipodi="http://sodipodi.sourceforge.net/DTD/sodipodi-0.dtd"
   xmlns:inkscape="http://www.inkscape.org/namespaces/inkscape"
   id="svg4136"
   version="1.1"
   inkscape:version="0.91 r13725"
   width="1107.0959"
   height="1106.0292"
   viewBox="0 0 1107.0959 1106.0292"
   sodipodi:docname="draw.svg">
  <metadata
     id="metadata4142">
    <rdf:RDF>
      <cc:Work
         rdf:about="">
        <dc:format>image/svg+xml</dc:format>
        <dc:type
           rdf:resource="http://purl.org/dc/dcmitype/StillImage" />
        <dc:title></dc:title>
      </cc:Work>
    </rdf:RDF>
  </metadata>
  <defs
     id="defs4140" />
  <sodipodi:namedview
     pagecolor="#ffffff"
     bordercolor="#666666"
     borderopacity="1"
     objecttolerance="10"
     gridtolerance="10"
     guidetolerance="10"
     inkscape:pageopacity="0"
     inkscape:pageshadow="2"
     inkscape:window-width="2560"
     inkscape:window-height="1061"
     id="namedview4138"
     showgrid="false"
     fit-margin-top="0"
     fit-margin-left="0"
     fit-margin-right="0"
     fit-margin-bottom="0"
     inkscape:zoom="0.79466073"
     inkscape:cx="555.47499"
     inkscape:cy="555.625"
     inkscape:window-x="-4"
     inkscape:window-y="-4"
     inkscape:window-maximized="1"
     inkscape:current-layer="svg4136" />
  <g
     id="g4146"
     transform="translate(-7.0250077,-11.47086)">
    <path
       style="fill:#f5d99b"
       d="m 10.55393,1105.9375 c 2.307786,-6.3594 7.938446,-21.4062 12.512575,-33.4375 4.57413,-12.0312 21.876005,-58.1563 38.448614,-102.5 L 91.647132,889.375 495.00386,485.60371 C 716.85007,263.5295 914.24797,66.091996 933.66587,46.853707 L 968.97115,11.875 l 8.32692,0.108724 c 19.49106,0.254492 47.89343,18.497306 82.46123,52.964711 33.3422,33.245322 51.4064,60.669215 53.5647,81.318205 l 0.797,7.62574 -32.0605,32.14753 C 1064.4272,203.72106 1050,218.7392 1050,219.41355 1050,221.02598 970.98191,300 969.36859,300 968.68549,300 803.31374,464.78859 601.8758,666.19686 l -366.2508,366.19684 -82.5,30.8174 c -45.375,16.9496 -96.5625,36.0899 -113.75,42.5339 -17.1875,6.4441 -31.6475855,11.7252 -32.1335235,11.7358 -0.4859379,0.01 1.004666,-5.1839 3.3124535,-11.5433 z"
       id="path4170"
       inkscape:connector-curvature="0" />
    <path
       style="fill:#cbcbcb"
       d="m 10.561186,1105.9375 c 11.509886,-31.6621 19.652234,-52.6012 21.625466,-55.6127 1.203592,-1.8369 2.11511,-3.6458 2.025599,-4.0198 -0.08951,-0.374 0.388216,-2.0863 1.061619,-3.805 0.673404,-1.7188 1.406728,-3.9687 1.62961,-5 0.222884,-1.0313 0.518593,-2.0156 0.657131,-2.1875 0.138539,-0.1719 0.342134,-0.7344 0.452433,-1.25 0.1103,-0.5156 0.903528,-2.2031 1.76273,-3.75 0.859202,-1.5469 1.19227,-2.8125 0.74015,-2.8125 -0.45212,0 -0.121788,-0.8437 0.734076,-1.875 0.855861,-1.0313 1.193019,-1.875 0.74924,-1.875 -0.44378,0 0.0348,-1.2846 1.063518,-2.8546 1.028713,-1.57 2.053561,-3.9606 2.277436,-5.3125 0.223876,-1.3518 1.079711,-3.681 1.901855,-5.1759 0.822144,-1.495 1.665893,-3.745 1.875,-5 0.209106,-1.2551 1.052856,-3.5051 1.875,-5 0.822144,-1.49496 1.665893,-3.74496 1.875,-5.00004 0.209106,-1.25509 1.052856,-3.50509 1.875,-5 0.822144,-1.49492 1.665893,-3.74492 1.875,-5 0.209106,-1.25509 1.052856,-3.50509 1.875,-5 0.822144,-1.49492 1.693036,-3.74492 1.935316,-5 0.242279,-1.25509 1.14484,-3.96946 2.005691,-6.03196 0.860852,-2.0625 1.704148,-4.3125 1.873993,-5 0.169846,-0.6875 1.013596,-2.9375 1.875,-5 0.861405,-2.0625 1.748549,-4.59375 1.971431,-5.625 0.222884,-1.03125 0.518593,-2.01563 0.657131,-2.1875 0.138539,-0.17188 0.342134,-0.73438 0.452433,-1.25 0.1103,-0.51563 0.903529,-2.20313 1.76273,-3.75 0.859202,-1.54688 1.19227,-2.8125 0.74015,-2.8125 -0.45212,0 -0.121788,-0.84375 0.734076,-1.875 0.855861,-1.03125 1.193019,-1.875 0.74924,-1.875 -0.44378,0 0.0348,-1.28456 1.063518,-2.85458 1.028713,-1.57001 2.053561,-3.96063 2.277436,-5.3125 0.223876,-1.35186 1.079711,-3.68105 1.901855,-5.17596 0.822144,-1.49492 1.665894,-3.74492 1.875,-5 0.209106,-1.25509 1.052856,-3.50509 1.875,-5 0.822144,-1.49492 1.665894,-3.74492 1.875,-5 0.209106,-1.25509 1.052856,-3.50509 1.875,-5 0.822144,-1.49492 1.691954,-3.74492 1.932909,-5 1.879361,-9.7891 3.034683,-10.96871 371.653192,-379.4682 201.32994,-201.26492 365.5654,-366.09925 364.9677,-366.29847 -1.51542,-0.50515 142.54002,-142.524694 145.87142,-143.809855 4.27854,-1.650542 15.47054,0.171961 24.59264,4.004662 9.94739,4.179457 25.68549,14.270236 38.96769,24.984923 12.9606,10.455157 40.0422,37.612927 49.5737,49.713058 4.264,5.413057 8.435,10.662592 9.269,11.665642 9.6862,11.64998 19.2857,32.16472 20.5037,43.81792 l 0.797,7.62574 -32.0605,32.14753 C 1064.4272,203.72106 1050,218.7392 1050,219.41355 c 0,0.67435 -17.9626,19.1821 -39.9169,41.12834 -34.84571,34.83299 -40.16921,39.69276 -41.90358,38.25336 -1.6756,-1.39063 -1.87382,-1.35458 -1.26567,0.23024 0.49873,1.29966 -112.22181,114.57927 -365.55121,367.3643 -286.90888,286.29235 -367.34748,365.89611 -371.23447,367.38141 -2.7292,1.0429 -5.37452,2.3085 -5.87851,2.8125 -0.50397,0.504 -1.80695,0.9198 -2.8955,0.924 -1.08854,0 -3.48815,0.795 -5.33246,1.7572 -1.84431,0.9622 -5.07224,2.127 -7.17316,2.5885 -2.10093,0.4614 -4.14077,1.3582 -4.53298,1.9928 -0.39221,0.6346 -1.66429,1.1573 -2.82684,1.1615 -1.16255,0 -3.7249,0.848 -5.69411,1.875 -1.96921,1.027 -4.21921,1.8864 -5,1.9097 -0.78079,0.023 -3.66961,1.1293 -6.41961,2.4576 -2.75,1.3284 -5.63883,2.4343 -6.41961,2.4576 -0.78079,0.023 -3.03079,0.8827 -5,1.9097 -1.96922,1.027 -4.47102,1.8708 -5.55955,1.875 -1.08855,0 -2.40105,0.4296 -2.91668,0.9452 -0.51562,0.5156 -1.3125,0.9861 -1.77082,1.0455 -0.45834,0.059 -1.67709,0.4273 -2.70834,0.8175 -1.03125,0.3903 -3,1.1369 -4.375,1.6591 -1.375,0.5222 -2.875,0.9981 -3.33334,1.0574 -0.45832,0.059 -1.2552,0.5299 -1.77082,1.0455 -0.51563,0.5156 -1.82813,0.941 -2.91668,0.9452 -1.08854,0 -3.59034,0.848 -5.55955,1.875 -1.96921,1.027 -4.21921,1.8708 -5,1.875 -0.78079,0 -2.9286,0.795 -4.77291,1.7572 -1.84431,0.9622 -5.07224,2.127 -7.17316,2.5885 -2.10093,0.4614 -4.14077,1.3582 -4.53298,1.9928 -0.39221,0.6346 -1.66428,1.1729 -2.82683,1.1962 -1.16255,0.023 -4.36373,1.1293 -7.11373,2.4576 -2.75,1.3284 -5.63883,2.4343 -6.41962,2.4576 -0.78078,0.023 -3.03079,0.8827 -4.999996,1.9097 -1.969211,1.027 -4.531562,1.8708 -5.694113,1.875 -1.162551,0 -2.467044,0.5794 -2.898872,1.2781 -0.43183,0.6987 -1.269909,0.9708 -1.862399,0.6046 -0.59249,-0.3662 -1.430569,-0.094 -1.862399,0.6046 -0.431828,0.6987 -1.651311,1.2704 -2.709961,1.2704 -1.05865,0 -3.837953,0.8438 -6.176229,1.875 -2.338276,1.0313 -6.079536,2.6773 -8.313911,3.6578 -5.245685,2.3021 -61.6382899,23.2172 -62.5995923,23.2172 -0.4014751,0 1.1615003,-5.2031 3.4732783,-11.5625 z M 916.25,250.9241 c 0,-0.17924 -9.98438,-10.16361 -22.1875,-22.1875 l -22.1875,-21.8616 21.8616,22.1875 c 20.31101,20.61379 22.5134,22.75241 22.5134,21.8616 z M 865,199.56874 c 0,-0.2372 -1.26563,-1.50283 -2.8125,-2.8125 l -2.8125,-2.38124 2.38124,2.8125 c 2.23777,2.64305 3.24376,3.38155 3.24376,2.38124 z m -11.25,-12.42823 c 0,-0.19772 -2.95313,-3.15085 -6.5625,-6.5625 l -6.5625,-6.20301 6.20301,6.5625 c 5.76395,6.09799 6.92199,7.13575 6.92199,6.20301 z m -16.25,-17.5203 c 0,-0.20889 -2.10938,-2.31826 -4.6875,-4.6875 l -4.6875,-4.30771 4.30771,4.6875 c 4.00952,4.36302 5.06729,5.26224 5.06729,4.30771 z"
       id="path4168"
       inkscape:connector-curvature="0" />
    <path
       style="fill:#fdd066"
       d="m 7.5,1116.2019 c 0,-0.5408 5.292341,-14.9543 11.760759,-32.0301 6.468418,-17.0757 25.600602,-67.8906 42.515965,-112.9218 L 92.53193,889.375 458.45286,523.4373 c 201.25652,-201.26574 366.25271,-365.79699 366.65822,-365.625 0.40548,0.17199 7.43701,7.6204 15.6256,16.55202 21.83908,23.82081 76.39813,78.24254 103.32582,103.06578 12.89063,11.8832 23.4375,22.05656 23.4375,22.60746 0,0.5509 -164.78651,165.43969 -366.19224,366.41954 l -366.19224,365.4179 -82.87026,31.0662 c -45.57864,17.0864 -96.792135,36.2812 -113.80776,42.655 C 21.421875,1111.9701 7.5,1116.7426 7.5,1116.2019 Z M 1024.375,197.68034 C 1012,186.12854 991.17932,166.0341 978.10682,153.02604 955.37664,130.40789 911.61564,84.11291 907.75346,78.598885 905.9995,76.094744 907.34659,74.545814 937.63665,44.238266 L 969.35661,12.5 l 7.00101,0 c 19.98323,0 47.75788,17.735605 83.09058,53.057756 22.697,22.690222 37.9405,42.084294 46.4244,59.065144 4.9192,9.84595 5.8328,12.8729 6.3587,21.06812 l 0.6142,9.57022 -31.726,31.74437 c -17.4494,17.45942 -32.2927,31.72945 -32.9853,31.71119 -0.6926,-0.0182 -11.3842,-9.48466 -23.7592,-21.03646 z"
       id="path4166"
       inkscape:connector-curvature="0" />
    <path
       style="fill:#e5a77e"
       d="m 7.5,1116.2019 c 0,-0.5408 5.2928,-14.9543 11.761777,-32.0301 6.468978,-17.0757 24.745273,-65.6406 40.613989,-107.9218 25.625279,-68.27702 33.22023,-87.90946 30.756367,-79.5031 -1.44728,4.93791 -1.985489,20.18652 -0.775139,21.96133 1.406707,2.06275 6.731071,2.21204 36.884466,1.03433 L 145.35793,919.01545 504.922,559.453 864.48607,199.89055 l 34.44025,34.11722 c 18.94215,18.76448 42.16937,41.09904 51.61603,49.63238 L 967.7181,299.1553 601.71082,665.16417 C 379.29544,887.58054 234.21695,1031.7521 231.91427,1032.649 c -2.0841,0.8118 -5.47677,2.2287 -7.53927,3.1487 -2.0625,0.9199 -37.78125,14.3928 -79.375,29.9397 -41.59375,15.547 -89.546875,33.4828 -106.5625,39.8574 C 21.421875,1111.9695 7.5,1116.7426 7.5,1116.2019 Z M 1024.375,197.68034 C 1012,186.12854 991.17932,166.0341 978.10682,153.02604 955.37664,130.40789 911.61564,84.11291 907.75346,78.598885 905.9995,76.094744 907.34659,74.545814 937.63665,44.238266 L 969.35661,12.5 l 7.00101,0 c 19.98323,0 47.75788,17.735605 83.09058,53.057756 22.697,22.690222 37.9405,42.084294 46.4244,59.065144 4.9192,9.84595 5.8328,12.8729 6.3587,21.06812 l 0.6142,9.57022 -31.726,31.74437 c -17.4494,17.45942 -32.2927,31.72945 -32.9853,31.71119 -0.6926,-0.0182 -11.3842,-9.48466 -23.7592,-21.03646 z"
       id="path4164"
       inkscape:connector-curvature="0" />
    <path
       style="fill:#d98f8d"
       d="m 7.5,1116.2305 c 0,-0.751 19.376898,-53.3161 23.147195,-62.793 0.732087,-1.8401 2.585791,-2.1975 11.674041,-2.2502 L 53.125,1051.1245 96.78933,987.74976 140.45366,924.375 502.37239,562.22649 864.29112,200.07796 l 36.29194,35.9236 c 19.96057,19.75798 43.19249,42.09071 51.6265,49.6283 l 15.33456,13.70471 -366.58456,366.38902 -366.58456,366.38901 -55,20.4052 c -30.25,11.2228 -67.375,25.1214 -82.5,30.8856 C 32.028106,1108.117 7.5,1117.1261 7.5,1116.2305 Z M 1024.375,197.68034 C 1012,186.12854 991.17932,166.0341 978.10682,153.02604 955.37664,130.40789 911.61564,84.11291 907.75346,78.598885 905.9995,76.094744 907.34659,74.545814 937.63665,44.238266 L 969.35661,12.5 l 7.00101,0 c 19.98323,0 47.75788,17.735605 83.09058,53.057756 22.697,22.690222 37.9405,42.084294 46.4244,59.065144 4.9192,9.84595 5.8328,12.8729 6.3587,21.06812 l 0.6142,9.57022 -31.726,31.74437 c -17.4494,17.45942 -32.2927,31.72945 -32.9853,31.71119 -0.6926,-0.0182 -11.3842,-9.48466 -23.7592,-21.03646 z"
       id="path4162"
       inkscape:connector-curvature="0" />
    <path
       style="fill:#fdc233"
       d="m 8.1057161,1114.0625 c 0.4802534,-1.2031 5.9491769,-15.8281 12.1531609,-32.5 l 11.279974,-30.3125 10.793075,-0.063 10.793074,-0.063 43.66433,-63.37474 43.66433,-63.37476 361.91873,-362.14851 361.91873,-362.14853 36.29194,35.9236 c 19.96057,19.75798 43.19187,42.09015 51.62511,49.62705 l 15.33317,13.70345 -365.95817,365.96557 -365.95817,365.96557 -10,3.833 c -5.5,2.1082 -41.78125,15.6658 -80.625,30.128 -38.84375,14.4622 -72.3125,27.0502 -74.375,27.9733 -6.202646,2.776 -60.9106904,23.0525 -62.198072,23.0525 -0.65692,0 -0.8014654,-0.9844 -0.3212119,-2.1875 z M 1029.633,201.77014 c -22.5973,-20.72819 -83.383,-80.85788 -83.383,-82.48306 0,-0.64708 18.24117,-19.411209 40.53596,-41.698069 l 40.53594,-40.521565 4.7766,3.557154 c 10.154,7.56186 49.0812,47.875829 58.5399,60.6254 13.329,17.96644 20.7458,33.46041 21.5768,45.07447 l 0.6324,8.83923 -31.7037,31.79315 c -17.437,17.48624 -31.9996,31.78925 -32.3613,31.78448 -0.3617,-0.005 -8.979,-7.6418 -19.1496,-16.97119 z"
       id="path4160"
       inkscape:connector-curvature="0" />
    <path
       style="fill:#e19562"
       d="m 8.1057161,1114.0625 c 0.4802534,-1.2031 5.9491769,-15.8281 12.1531609,-32.5 l 11.279974,-30.3125 10.793075,-0.063 10.793074,-0.063 44.881127,-64.89133 c 24.684623,-35.69022 45.420893,-64.55772 46.080613,-64.15 1.47471,0.91143 0.5322,10.09217 -3.5251,34.33693 -3.81339,22.78715 -3.94782,29.26774 -0.64382,31.03599 3.9721,2.1258 17.59212,1.48702 41.70057,-1.95577 12.51613,-1.78736 25.59668,-3.01607 29.0679,-2.73049 l 6.31127,0.51925 358.3284,-357.58207 358.32841,-357.58201 16.90402,15.625 16.90401,15.625 -365.9187,365.94409 -365.9187,365.94411 -10,3.833 c -5.5,2.1082 -41.78125,15.6658 -80.625,30.128 -38.84375,14.4622 -72.3125,27.0502 -74.375,27.9733 -6.202646,2.776 -60.9106904,23.0525 -62.198072,23.0525 -0.65692,0 -0.8014654,-0.9844 -0.3212119,-2.1875 z M 1029.633,201.77014 c -22.5973,-20.72819 -83.383,-80.85788 -83.383,-82.48306 0,-0.64708 18.24117,-19.411209 40.53596,-41.698069 l 40.53594,-40.521565 4.7766,3.557154 c 10.154,7.56186 49.0812,47.875829 58.5399,60.6254 13.329,17.96644 20.7458,33.46041 21.5768,45.07447 l 0.6324,8.83923 -31.7037,31.79315 c -17.437,17.48624 -31.9996,31.78925 -32.3613,31.78448 -0.3617,-0.005 -8.979,-7.6418 -19.1496,-16.97119 z"
       id="path4158"
       inkscape:connector-curvature="0" />
    <path
       style="fill:#e1ae36"
       d="m 8.1057161,1114.0625 c 0.4802534,-1.2031 5.9571789,-15.8497 12.1709449,-32.5479 l 11.297758,-30.3605 10.150291,0.3605 10.15029,0.3604 -0.03772,5.625 c -0.02075,3.0938 -0.492064,8.0156 -1.047373,10.9375 l -1.009652,5.3125 12.798614,0 12.798615,0 70.123756,-44.4606 70.12376,-44.4606 359.1493,-358.3519 359.1493,-358.3519 5.14325,5.28171 c 2.82879,2.90495 10.37021,9.9362 16.75874,15.625 L 967.44107,299.375 601.57231,665.27402 C 400.3445,866.51849 234.27962,1031.734 232.53927,1032.4197 c -1.74035,0.6857 -38.7216,14.4665 -82.18055,30.624 -43.45895,16.1576 -80.02145,29.9508 -81.249998,30.6516 -2.914964,1.6627 -59.1231741,22.5547 -60.681794,22.5547 -0.65692,0 -0.8014654,-0.9844 -0.3212119,-2.1875 z M 148.51562,989.14611 c 0.90234,-0.36109 1.98047,-0.31668 2.39584,0.0986 0.41536,0.41536 -0.32292,0.7108 -1.64062,0.65652 -1.45619,-0.06 -1.75238,-0.35617 -0.75522,-0.7552 z m 15,-1.25 c 0.90234,-0.36109 1.98047,-0.31668 2.39584,0.0986 0.41537,0.41536 -0.32292,0.7108 -1.64062,0.65652 -1.45619,-0.06 -1.75238,-0.35617 -0.75522,-0.7552 z M 136.49369,981.875 c 0.0255,-2.0625 0.30562,-2.75492 0.62255,-1.53871 0.31692,1.21621 0.29608,2.90371 -0.0463,3.75 -0.34242,0.84629 -0.60172,-0.14879 -0.57624,-2.21129 z m 53.27193,2.27111 c 0.90234,-0.36109 1.98047,-0.31668 2.39584,0.0986 0.41537,0.41536 -0.32292,0.7108 -1.64062,0.65652 -1.45619,-0.06 -1.75238,-0.35617 -0.75522,-0.7552 z m 10,-1.25 c 0.90234,-0.36109 1.98047,-0.31668 2.39584,0.0986 0.41537,0.41536 -0.32292,0.7108 -1.64062,0.65652 -1.45619,-0.06 -1.75238,-0.35617 -0.75522,-0.7552 z M 144.06522,926.875 c 0.0139,-2.75 0.26987,-3.72781 0.56885,-2.17292 0.29899,1.55488 0.28764,3.80488 -0.0252,5 -0.31286,1.19511 -0.5575,-0.0771 -0.54362,-2.82708 z M 1029.633,201.77014 c -22.5973,-20.72819 -83.383,-80.85788 -83.383,-82.48306 0,-0.64708 18.24117,-19.411209 40.53596,-41.698069 l 40.53594,-40.521565 4.7766,3.557154 c 10.154,7.56186 49.0812,47.875829 58.5399,60.6254 13.329,17.96644 20.7458,33.46041 21.5768,45.07447 l 0.6324,8.83923 -31.7037,31.79315 c -17.437,17.48624 -31.9996,31.78925 -32.3613,31.78448 -0.3617,-0.005 -8.979,-7.6418 -19.1496,-16.97119 z"
       id="path4156"
       inkscape:connector-curvature="0" />
    <path
       style="fill:#d56e6d"
       d="m 8.1057161,1114.0625 c 0.4802534,-1.2031 5.9571789,-15.8497 12.1709449,-32.5479 l 11.297758,-30.3605 10.150291,0.3605 10.15029,0.3604 -0.03772,5.625 c -0.02075,3.0938 -0.492064,8.0156 -1.047373,10.9375 l -1.009652,5.3125 12.807474,0 12.807473,0 69.057888,-43.7434 c 37.98183,-24.0588 69.95541,-44.08775 71.0524,-44.5087 3.08498,-1.18383 2.56472,3.19261 -3.00549,25.2823 -2.75,10.9056 -5,20.8057 -5,22.0003 0,2.1838 2.28585,3.1014 9.34612,3.7517 2.57812,0.2375 -18.92348,8.7519 -70,27.7192 -40.54662,15.057 -75.12737,28.1247 -76.84612,29.0394 -3.861742,2.0551 -59.923338,22.9592 -61.573072,22.9592 -0.65692,0 -0.8014654,-0.9844 -0.3212119,-2.1875 z M 1029.633,201.77014 c -22.5973,-20.72819 -83.383,-80.85788 -83.383,-82.48306 0,-0.64708 18.24117,-19.411209 40.53596,-41.698069 l 40.53594,-40.521565 4.7766,3.557154 c 10.154,7.56186 49.0812,47.875829 58.5399,60.6254 13.329,17.96644 20.7458,33.46041 21.5768,45.07447 l 0.6324,8.83923 -31.7037,31.79315 c -17.437,17.48624 -31.9996,31.78925 -32.3613,31.78448 -0.3617,-0.005 -8.979,-7.6418 -19.1496,-16.97119 z"
       id="path4154"
       inkscape:connector-curvature="0" />
    <path
       style="fill:#cd7e4a"
       d="m 8.0989484,1114.0625 c 0.4765312,-1.2031 5.9826206,-15.8492 12.2357546,-32.5469 l 11.369335,-30.3594 10.085481,0.3594 10.085481,0.3594 -0.03772,5.625 c -0.02075,3.0938 -0.492064,8.0156 -1.047373,10.9375 l -1.009652,5.3125 12.807474,0 12.807473,0 69.057888,-43.7434 c 37.98183,-24.0588 69.95541,-44.08775 71.0524,-44.5087 3.08498,-1.18383 2.56472,3.19261 -3.00549,25.2823 -2.75,10.9056 -5,20.8057 -5,22.0003 0,2.1828 2.28385,3.1005 9.33691,3.7517 2.57503,0.2378 -19.43902,9.0114 -71.875,28.6453 -41.5728,15.5663 -89.020418,33.4257 -105.43915,39.6875 -16.418731,6.2617 -30.4007875,11.385 -31.0712355,11.385 -0.6704481,0 -0.8291074,-0.9844 -0.3525761,-2.1875 z M 1031.25,202.89685 c -8.5938,-7.97876 -15.7664,-14.85019 -15.9393,-15.26984 -0.1729,-0.41965 17.6371,-18.70792 39.5779,-40.64061 l 39.8922,-39.87762 4.7307,7.38311 c 6.7543,10.54126 11.6314,22.8664 12.5586,31.73788 l 0.8007,7.66067 -31.7153,31.80478 c -17.4434,17.49263 -32.2925,31.7831 -32.9979,31.75663 -0.7054,-0.0265 -8.3138,-6.57624 -16.9076,-14.555 z"
       id="path4152"
       inkscape:connector-curvature="0" />
    <path
       style="fill:#c75856"
       d="m 8.0989484,1114.0625 c 0.4765312,-1.2031 5.9255206,-15.6875 12.1088646,-32.1875 l 11.242442,-30 10.212372,0 10.212373,0 -0.1155,4.375 c -0.06353,2.4063 -0.567543,7.6494 -1.120041,11.6513 l -1.004543,7.2763 11.88572,-0.8724 c 8.547361,-0.6275 12.13928,-0.4622 12.788481,0.5882 0.49652,0.8034 -0.274327,5.336 -1.712993,10.0725 -2.605028,8.5765 -2.642637,8.6219 -9.168442,11.0738 -3.603977,1.3541 -17.183007,6.4554 -30.175623,11.3362 -12.992613,4.8807 -24.1621693,8.8741 -24.8212331,8.8741 -0.6590639,0 -0.8084088,-0.9844 -0.3318775,-2.1875 z M 1031.25,202.89685 c -8.5938,-7.97876 -15.7664,-14.85019 -15.9393,-15.26984 -0.1729,-0.41965 17.6371,-18.70792 39.5779,-40.64061 l 39.8922,-39.87762 4.7307,7.38311 c 6.7543,10.54126 11.6314,22.8664 12.5586,31.73788 l 0.8007,7.66067 -31.7153,31.80478 c -17.4434,17.49263 -32.2925,31.7831 -32.9979,31.75663 -0.7054,-0.0265 -8.3138,-6.57624 -16.9076,-14.555 z"
       id="path4150"
       inkscape:connector-curvature="0" />
    <path
       style="fill:#050404"
       d="m 8.8358995,1112.9552 c 0.7603839,-1.9691 5.5707435,-14.8302 10.6896865,-28.5802 5.118944,-13.75 9.919293,-26.5469 10.667443,-28.4375 1.332871,-3.3682 1.571246,-3.4375 11.833621,-3.4375 5.760342,0 10.472687,0.4219 10.471877,0.9375 -8.1e-4,0.5156 -0.802433,5.1375 -1.781386,10.2708 -0.978952,5.1334 -1.459394,9.852 -1.067646,10.4858 0.403664,0.6532 5.537935,0.8399 11.850057,0.4309 13.297153,-0.8614 13.552652,-0.5895 10.257067,10.918 l -2.285217,7.9794 -29.423201,10.9503 c -16.18276,6.0226 -30.1368148,11.2005 -31.0090094,11.5064 -1.2455431,0.4369 -1.2891632,-0.2119 -0.2032921,-3.0239 z"
       id="path4148"
       inkscape:connector-curvature="0" />
  </g>
</svg>
