<?xml version="1.0" encoding="UTF-8" standalone="no"?>
<!-- Created with Inkscape (http://www.inkscape.org/) -->

<svg
   xmlns:dc="http://purl.org/dc/elements/1.1/"
   xmlns:cc="http://creativecommons.org/ns#"
   xmlns:rdf="http://www.w3.org/1999/02/22-rdf-syntax-ns#"
   xmlns:svg="http://www.w3.org/2000/svg"
   xmlns="http://www.w3.org/2000/svg"
   xmlns:sodipodi="http://sodipodi.sourceforge.net/DTD/sodipodi-0.dtd"
   xmlns:inkscape="http://www.inkscape.org/namespaces/inkscape"
   id="svg4136"
   version="1.1"
   inkscape:version="0.91 r13725"
   width="93.75"
   height="93.75"
   viewBox="0 0 93.75 93.75"
   sodipodi:docname="garden_wheat.svg">
  <metadata
     id="metadata4142">
    <rdf:RDF>
      <cc:Work
         rdf:about="">
        <dc:format>image/svg+xml</dc:format>
        <dc:type
           rdf:resource="http://purl.org/dc/dcmitype/StillImage" />
        <dc:title></dc:title>
      </cc:Work>
    </rdf:RDF>
  </metadata>
  <defs
     id="defs4140" />
  <sodipodi:namedview
     pagecolor="#ffffff"
     bordercolor="#666666"
     borderopacity="1"
     objecttolerance="10"
     gridtolerance="10"
     guidetolerance="10"
     inkscape:pageopacity="0"
     inkscape:pageshadow="2"
     inkscape:window-width="2560"
     inkscape:window-height="1061"
     id="namedview4138"
     showgrid="false"
     inkscape:zoom="6.7354278"
     inkscape:cx="77.771424"
     inkscape:cy="38.808446"
     inkscape:window-x="-4"
     inkscape:window-y="-4"
     inkscape:window-maximized="1"
     inkscape:current-layer="svg4136" />
  <g
     id="g4146">
    <path
       style="fill:#ddbf3b"
       d="M 0,46.875 C 0,31.25 0,15.625 0,0 c 31.25,0 62.5,0 93.75,0 0,31.25 0,62.5 0,93.75 -31.25,0 -62.5,0 -93.75,0 C 0,78.125 0,62.5 0,46.875 Z"
       id="path4152"
       inkscape:connector-curvature="0" />
    <path
       style="fill:#8c715d"
       d="M 0,46.875 C 0,31.25 0,15.625 0,0 c 31.25,0 62.5,0 93.75,0 0,31.25 0,62.5 0,93.75 -31.25,0 -62.5,0 -93.75,0 C 0,78.125 0,62.5 0,46.875 Z M 16.875,75 C 17.450621,70.551669 8.6521052,70.379569 11.44006,75.663455 12.132936,78.341637 17.824059,78.819495 16.875,75 Z m 4.453125,2.221607 c 3.660387,-0.876591 2.558904,-8.343494 -1.696289,-5.222003 -3.120852,-0.03379 -2.536037,8.439039 1.696289,5.222003 z M 70.3125,75 c 0.575621,-4.448331 -8.222895,-4.620431 -5.43494,0.663455 0.692876,2.678182 6.383999,3.15604 5.43494,-0.663455 z m 4.453125,2.221607 c 3.660387,-0.876591 2.558904,-8.343494 -1.696289,-5.222003 -3.120852,-0.03379 -2.536037,8.439039 1.696289,5.222003 z M 16.875,68.4375 c 2.100938,-3.706205 -6.690272,-2.705246 -2.656475,-3.368749 5.837909,-0.702082 0.664657,-8.548788 -2.786532,-6.436401 0.323095,4.015475 -1.4768262,10.667096 2.830417,12.653851 1.74477,0.489223 2.761354,-1.349933 2.61259,-2.848701 z m 4.453125,2.221607 c 4.065464,-0.710929 0.987927,-6.376993 0.9375,-6.592495 3.154841,-3.157127 0.01345,-8.802841 -3.760971,-4.384231 -2.053194,2.156215 0.279567,5.71701 1.827377,5.409682 -3.585719,0.16481 -3.806284,8.53465 0.996094,5.567044 z M 70.3125,68.4375 c 2.100938,-3.706205 -6.690272,-2.705246 -2.656475,-3.368749 5.837909,-0.702082 0.664657,-8.548788 -2.786532,-6.436401 0.323095,4.015475 -1.476826,10.667095 2.830417,12.653851 1.744769,0.489223 2.761354,-1.349933 2.61259,-2.848701 z m 4.453125,2.221607 c 4.065464,-0.710929 0.987927,-6.376993 0.9375,-6.592495 3.154841,-3.157127 0.01345,-8.802841 -3.760971,-4.384231 -2.053194,2.156215 0.279567,5.71701 1.827377,5.409682 -3.585719,0.16481 -3.806284,8.53465 0.996094,5.567044 z M 17.8125,30 C 18.388121,25.551669 9.5896052,25.379569 12.37756,30.663455 13.070436,33.341637 18.761559,33.819495 17.8125,30 Z m 4.453125,2.221607 c 3.660387,-0.876591 2.558904,-8.343494 -1.696289,-5.222003 -3.120852,-0.03379 -2.536037,8.439039 1.696289,5.222003 z M 69.375,30 C 69.950621,25.551669 61.152105,25.379569 63.94006,30.663455 64.632936,33.341637 70.324059,33.819495 69.375,30 Z m 4.453125,2.221607 c 3.660387,-0.876591 2.558904,-8.343494 -1.696289,-5.222003 -3.120852,-0.03379 -2.536037,8.439039 1.696289,5.222003 z M 17.8125,23.4375 c 2.100938,-3.706205 -6.690272,-2.705246 -2.656475,-3.368749 5.837909,-0.702082 0.664657,-8.548788 -2.786532,-6.436401 0.323095,4.015475 -1.476826,10.667096 2.830417,12.653851 1.74477,0.489223 2.761354,-1.349933 2.61259,-2.848701 z m 4.453125,2.221607 c 4.065464,-0.710929 0.987927,-6.376993 0.9375,-6.592495 3.154841,-3.157127 0.01345,-8.802841 -3.760971,-4.384231 -2.053194,2.156215 0.279567,5.71701 1.827377,5.409682 -3.644261,0.130962 -3.711017,8.591991 0.996094,5.567044 z M 69.375,23.4375 c 2.100938,-3.706205 -6.690272,-2.705246 -2.656475,-3.368749 5.837909,-0.702082 0.664657,-8.548788 -2.786532,-6.436401 0.323095,4.015475 -1.476826,10.667095 2.830417,12.653851 1.744769,0.489223 2.761354,-1.349933 2.61259,-2.848701 z m 4.453125,2.221607 c 4.065464,-0.710929 0.987927,-6.376993 0.9375,-6.592495 3.154841,-3.157127 0.01345,-8.802841 -3.760971,-4.384231 -2.053194,2.156215 0.279567,5.71701 1.827377,5.409682 -3.644261,0.130962 -3.711017,8.591991 0.996094,5.567044 z"
       id="path4150"
       inkscape:connector-curvature="0" />
    <path
       style="fill:#6d5947"
       d="M 0,46.875 C 0,31.25 0,15.625 0,0 c 31.25,0 62.5,0 93.75,0 0,31.25 0,62.5 0,93.75 -31.25,0 -62.5,0 -93.75,0 C 0,78.125 0,62.5 0,46.875 Z m 90.9375,40.78125 c -0.389199,-1.282216 0.863363,-4.206193 -0.795495,-4.21875 -29.201384,-0.0667 -58.409639,0.02048 -87.5911005,1.211976 -1.460651,0.190135 -0.3159331,2.899842 -0.6759045,4.15441 0.00217,1.640252 -0.5515406,3.836387 1.8561554,3.071114 29.0687816,0 58.1375626,0 87.2063446,0 0,-1.40625 0,-2.8125 0,-4.21875 z m 0,-6.914063 c -0.08611,-2.090398 1.280654,-5.037047 0.90671,-6.679687 -4.725204,-0.148688 -9.532447,0.397046 -14.186514,-0.51068 -3.394417,-3.807062 4.935741,-2.371864 7.190045,-2.436496 2.34242,0.09081 4.684839,0.181626 7.027259,0.272439 0,-3.218513 0,-6.437026 0,-9.655539 -4.86321,0.02178 -9.814081,0.877842 -14.61017,-0.02814 0.01599,-2.734187 6.208779,-1.315863 8.70116,-1.704083 1.96967,0 3.93934,0 5.90901,0 0,-3.125 0,-6.25 0,-9.375 -30,0 -60,0 -90,0 0,2.8125 0,5.625 0,8.4375 3.0552983,0.219901 6.4681811,-0.63231 9.201627,0.937712 C 9.5149158,62.199045 5.9126731,61.501027 3.3442134,61.881881 0.99674414,61.322398 2.1296686,64.023647 1.875,65.424879 c 0,1.941707 0,3.883414 0,5.825121 3.0366863,0.203576 6.3171653,-0.553467 9.140625,0.738281 C 11.46306,75.116203 6.3771459,73.78184 4.1760145,74.0625 1.9289504,73.466324 1.5343292,74.722591 1.875,76.714151 c 0,1.616116 0,3.232233 0,4.848349 28.79518,-0.108136 57.59988,0.32839 86.38587,-0.536583 0.894296,-0.06546 1.802759,-0.04911 2.67663,-0.28373 z M 16.77566,74.921875 c 0.357388,-3.302178 -0.09118,-8.621743 -1.072535,-10.220019 1.833721,-0.773226 1.077847,-8.703984 2.071649,-3.084902 0.206343,5.305911 0.505188,10.70307 -0.349502,15.957774 -0.796756,-0.362076 -0.494009,-1.876605 -0.649612,-2.652853 z m 53.4375,0 c 0.357388,-3.302178 -0.09118,-8.621743 -1.072535,-10.220019 1.833721,-0.773226 1.077847,-8.703984 2.071649,-3.084902 0.206343,5.305911 0.505188,10.70307 -0.349502,15.957774 -0.796756,-0.362076 -0.494009,-1.876605 -0.649612,-2.652853 z m -46.986887,-2.5 c 2.719941,-2.767425 8.598633,-0.954219 12.617012,-1.460396 9.175554,0.246982 18.40764,-0.142189 27.538946,0.882066 3.397237,2.592962 -5.738209,1.956256 -7.677529,2.152705 -10.203408,-0.02694 -20.446343,0.419804 -30.622288,-0.396345 -0.702749,-0.138392 -1.685158,-0.329073 -1.856141,-1.17803 z m 0.210382,-11.71875 c 4.038748,-1.664533 8.959058,-0.662676 13.341832,-0.972551 9.176116,0.17795 18.411763,-0.0836 27.531671,1.042174 -2.394352,1.413361 -8.837941,0.712525 -12.674209,1.053385 -9.064508,-0.05172 -18.18455,0.406484 -27.20859,-0.559387 L 23.672004,61.012441 23.436655,60.703125 Z M 91.875,43.59375 c 0,-1.71875 0,-3.4375 0,-5.15625 -30,0 -60,0 -90,0 0,3.106859 0,6.213719 0,9.320578 29.993351,0.777265 59.999175,0.764307 90,0.991922 0,-1.71875 0,-3.4375 0,-5.15625 z m 0,-12.65625 c -0.18175,-1.469139 0.360744,-3.662521 -0.265165,-4.6875 -5.194154,-0.13327 -10.450643,0.351287 -15.590749,-0.440296 -0.805263,-3.421675 6.329885,-2.018242 8.782961,-2.372204 2.357651,0 4.715302,0 7.072953,0 0,-3.832887 0,-7.665773 0,-11.49866 C 61.953109,12.325932 32.030918,12.691266 2.109375,13.104227 1.6983671,16.524356 1.9392748,19.995053 1.875,23.4375 5.2211818,23.642519 8.7879178,22.883203 11.938477,24.16859 12.353727,27.301908 7.1341719,25.954194 4.9099296,26.25 3.2735397,26.243972 1.108232,25.709026 1.875,28.106155 c 0,2.506282 0,5.012563 0,7.518845 30,0 60,0 90,0 0,-1.5625 0,-3.125 0,-4.6875 z M 17.71316,29.921875 c 0.357388,-3.302178 -0.09118,-8.621744 -1.072535,-10.220019 1.832565,-0.880821 1.102522,-8.777068 2.090251,-2.953719 0.147989,5.263037 0.496674,10.619126 -0.368104,15.826591 -0.778462,-0.306839 -0.503336,-1.91561 -0.649612,-2.652853 z m 51.5625,0 c 0.357388,-3.302178 -0.09118,-8.621744 -1.072535,-10.220019 1.833721,-0.773226 1.077847,-8.703984 2.071649,-3.084902 0.206343,5.305911 0.505188,10.70307 -0.349502,15.957774 -0.778462,-0.306839 -0.503336,-1.91561 -0.649612,-2.652853 z M 24.035976,24.84375 c 3.872237,-2.165586 8.952745,-0.953422 13.312855,-1.387393 8.407618,0.120843 16.870885,-0.392302 25.239177,0.527226 3.150418,2.490534 -4.852323,2.046489 -6.646136,2.183235 C 45.76887,26.184625 35.562623,26.560286 25.411565,25.826187 25.089902,25.74226 23.690952,25.620191 24.035976,24.84375 Z M 91.875,6.09375 C 91.485801,4.8115343 92.738363,1.8875573 91.079505,1.875 c -29.734835,0 -59.46967,0 -89.204505,0 0,2.8125 0,5.625 0,8.4375 30,0 60,0 90,0 0,-1.40625 0,-2.8125 0,-4.21875 z"
       id="path4148"
       inkscape:connector-curvature="0" />
  </g>
</svg>
