<?xml version="1.0" encoding="UTF-8" standalone="no"?>
<!-- Created with Inkscape (http://www.inkscape.org/) -->

<svg
   xmlns:dc="http://purl.org/dc/elements/1.1/"
   xmlns:cc="http://creativecommons.org/ns#"
   xmlns:rdf="http://www.w3.org/1999/02/22-rdf-syntax-ns#"
   xmlns:svg="http://www.w3.org/2000/svg"
   xmlns="http://www.w3.org/2000/svg"
   xmlns:sodipodi="http://sodipodi.sourceforge.net/DTD/sodipodi-0.dtd"
   xmlns:inkscape="http://www.inkscape.org/namespaces/inkscape"
   id="svg4136"
   version="1.1"
   inkscape:version="0.91 r13725"
   width="552.78033"
   height="313.05875"
   viewBox="0 0 552.78034 313.05874"
   sodipodi:docname="hammer.svg">
  <metadata
     id="metadata4142">
    <rdf:RDF>
      <cc:Work
         rdf:about="">
        <dc:format>image/svg+xml</dc:format>
        <dc:type
           rdf:resource="http://purl.org/dc/dcmitype/StillImage" />
        <dc:title></dc:title>
      </cc:Work>
    </rdf:RDF>
  </metadata>
  <defs
     id="defs4140">
    <filter
       style="color-interpolation-filters:sRGB"
       inkscape:label="Drop Shadow"
       id="filter4252">
      <feFlood
         flood-opacity="0.498039"
         flood-color="rgb(0,0,0)"
         result="flood"
         id="feFlood4254" />
      <feComposite
         in="flood"
         in2="SourceGraphic"
         operator="in"
         result="composite1"
         id="feComposite4256" />
      <feGaussianBlur
         in="composite1"
         stdDeviation="3"
         result="blur"
         id="feGaussianBlur4258" />
      <feOffset
         dx="6"
         dy="6"
         result="offset"
         id="feOffset4260" />
      <feComposite
         in="SourceGraphic"
         in2="offset"
         operator="over"
         result="composite2"
         id="feComposite4262" />
    </filter>
  </defs>
  <sodipodi:namedview
     pagecolor="#ffffff"
     bordercolor="#666666"
     borderopacity="1"
     objecttolerance="10"
     gridtolerance="10"
     guidetolerance="10"
     inkscape:pageopacity="0"
     inkscape:pageshadow="2"
     inkscape:window-width="1278"
     inkscape:window-height="1056"
     id="namedview4138"
     showgrid="false"
     fit-margin-top="0"
     fit-margin-left="0"
     fit-margin-right="0"
     fit-margin-bottom="0"
     inkscape:zoom="2.402475"
     inkscape:cx="163.84147"
     inkscape:cy="170.5048"
     inkscape:window-x="-3"
     inkscape:window-y="0"
     inkscape:window-maximized="0"
     inkscape:current-layer="svg4136" />
  <g
     id="g4146"
     transform="translate(38.715278,-43.296053)"
     style="filter:url(#filter4252)">
    <path
       style="fill:#885734"
       d="M 140.94247,328.02421 C 115.07215,315.67368 91.571784,298.49677 68.122125,282.04391 51.225452,266.83078 30.431799,253.99621 18.23749,234.82218 14.515487,214.68841 8.933728,192.82142 9.2729655,173.3634 17.885234,151.57559 46.854121,153.44335 64.936798,143.25225 c 21.53861,-7.96111 41.201752,11.60717 60.809952,18.64921 19.32816,13.73955 38.92081,20.01883 59.54465,5.07391 61.31087,-25.91148 123.98849,-48.36161 186.70563,-70.524597 21.69315,-7.562621 41.15335,-21.882515 63.52874,-26.692032 21.73125,-6.436993 45.78458,25.599056 24.49551,39.719489 -37.71018,15.4711 -77.31702,27.18342 -112.07848,49.15442 -41.84953,23.33826 -88.04048,37.71831 -131.1571,58.37782 -0.78859,20.72863 0.85644,42.86445 0.56427,64.23954 -5.39602,14.70454 -17.55618,23.82906 -31.64327,29.86151 -14.22397,5.00934 -29.5594,22.53904 -44.76423,16.91269 z"
       id="path4160"
       inkscape:connector-curvature="0" />
    <path
       style="fill:#63554b"
       d="M 140.94247,328.02421 C 115.07215,315.67368 91.571784,298.49677 68.122125,282.04391 51.225452,266.83078 30.431799,253.99621 18.23749,234.82218 14.515487,214.68841 8.933728,192.82142 9.2729655,173.3634 17.488283,151.46352 46.912827,153.69574 64.723751,143.3251 c 21.603347,-8.17355 41.355329,11.5175 61.022999,18.57636 19.32816,13.73955 38.92081,20.01883 59.54465,5.07391 61.31087,-25.91148 123.98849,-48.36161 186.70563,-70.524597 21.69315,-7.562621 41.15335,-21.882515 63.52874,-26.692032 21.58504,-6.282888 45.69013,25.031221 24.56913,39.606819 -36.62974,15.34667 -75.22877,26.58839 -109.52875,47.23444 1.33131,-5.08058 26.43319,-14.56139 7.19932,-6.9025 -7.93321,4.05314 -15.43299,4.25925 -8.69791,7.73654 -8.2497,5.46064 -33.55849,19.99195 -20.70662,8.70191 5.97894,-2.30809 4.69456,-8.72343 -2.7952,-2.33595 0.66547,5.85788 -19.62463,5.79937 -10.81908,11.00806 -8.39209,6.12083 -34.38813,11.77869 -12.94891,4.41724 7.60846,-5.60377 18.34431,-18.96528 3.71711,-8.98537 13.47801,-5.65509 -9.35633,-3.00848 6.20933,-8.36818 -11.28424,0.23681 -7.54026,-1.60961 -4.5353,-5.04674 -10.32283,0.54823 0.88579,-10.74906 -11.68862,-3.03856 -8.85907,5.50924 -18.96513,6.62829 -17.80187,3.63528 -15.37094,1.65431 -23.17931,10.41128 -15.24394,11.26628 -12.83097,6.05891 -17.43107,0.48842 -28.94386,8.79978 0.86807,1.00454 7.44182,7.82507 -2.94268,10.34844 19.23452,-2.25533 -32.94381,15.31971 -5.00771,2.96381 -0.13459,-2.10287 -10.96004,-4.44258 -2.3602,-6.30001 0.85455,1.62972 19.00183,-5.91209 3.79828,-4.90282 -8.5792,4.01771 6.14556,-9.71062 -6.59309,0.51033 -1.90702,5.01175 -25.7866,-0.0261 -12.47832,8.34592 -12.12166,0.18941 -30.97267,6.81686 -17.66331,8.6466 7.32615,8.66708 18.98851,17.78641 28.41076,5.40464 -7.92534,5.07883 -14.96178,15.09898 -0.0565,12.05146 2.5515,-3.59012 -6.925,10.06169 -2.1435,17.21851 -1.56008,19.26032 4.21443,36.42276 -2.03825,54.51123 -7.4337,19.47817 -30.44279,23.63366 -46.27537,34.26557 -8.77289,2.96204 -17.55791,13.51499 -27.21819,7.47274 z m 173.538,-154.21171 c -3.48949,-2.86963 -6.75133,2.91179 0,0 z m 9.90717,-12.62485 c -4.90304,2.53884 -3.13941,3.86234 0,0 z M 342.45,159.3 c -4.13843,-3.20056 -0.0583,3.07421 0,0 z m -7.65,-0.84688 c -1.77572,-4.82239 -2.39202,3.18406 0,0 z M 308.7,153 c -2.29945,-3.22871 -2.29945,3.22871 0,0 z m 35.38417,-1.03473 c 10.14842,-10.49761 -13.11353,3.94779 0,0 z m 6.10198,-1.31907 c 2.06741,-4.94607 -6.62152,5.00382 0,0 z M 294.3,150.8463 c -2.71211,-2.96914 -2.74309,1.22175 0,0 z m 8.75625,-3.79005 c -3.3134,-1.02068 -1.65331,1.56743 0,0 z m 47.51756,-1.08243 c -3.91471,1.06903 -1.7398,2.54708 0,0 z m 10.08244,-1.61757 c -3.3134,-1.02068 -1.65331,1.56743 0,0 z M 227.7,210.98091 c 6.11741,-3.93512 7.43458,-0.98182 0,0 z m 6.75,-2.7947 c 6.20017,-3.62834 45.83212,-18.80165 21.23754,-7.94597 -6.37844,2.3254 -16.86806,7.47033 -21.23754,7.94597 z m -33.42857,-5.2362 c 7.89012,-4.61928 -2.6587,4.58718 0,0 z m 6.87857,0.45 c 2.29945,-3.22871 2.29945,3.22871 0,0 z m -4.97452,-4.139 c 2.68912,-6.60222 4.85075,5.083 0,0 z m 15.77452,-0.361 c 2.29945,-3.22871 2.29945,3.22871 0,0 z m -19.25558,-4.87152 c 7.14347,-10.08917 2.21879,3.61911 0,0 z M 269.1,193.57453 c 16.88256,-7.54689 -7.41888,5.36195 0,0 z m -61.75021,-1.48793 c 2.63632,-6.53333 2.19331,3.93771 0,0 z m 3.70021,-2.18659 c 2.76304,-2.99818 -0.0394,3.02633 0,0 z m 68.445,-0.79885 c 9.06403,-5.01438 1.91929,1.57515 0,0 z M 237.6,187.2963 c 7.29942,-7.24852 1.86301,4.25033 0,0 z M 253.35,187.2 c 2.76304,-2.99818 -0.0393,3.02633 0,0 z m 33.24702,-1.37863 c 10.08423,-4.83271 -4.15087,4.42089 0,0 z M 246.6,184.5 c 2.47137,-3.35968 0.81591,3.10427 0,0 z m -6.525,-0.9675 c 0.42,-5.36616 1.49307,-1.65455 0,0 z m 11.09328,-1.22205 c 9.37547,-5.83535 1.2431,2.9065 0,0 z M 264.15,181.8 c 5.94976,-5.13987 3.46045,2.24344 -1.08184,1.8 l 1.08184,-1.8 z m 19.35,0.45 c 9.67328,-4.50645 -4.89006,4.27742 0,0 z M 243,180.9 c 2.29945,-3.22871 2.29945,3.22871 0,0 z m 15.3,-0.81195 c 10.2392,-7.84976 5.23374,1.91314 0,0 z M 247.17453,176.85 c 4.50312,-5.01122 1.3226,3.90968 0,0 z M 267.75,177.3 c 2.76304,-2.99818 -0.0394,3.02633 0,0 z m 33.75,-2.7 c 2.29945,-3.22871 2.29945,3.22871 0,0 z m -37.8,-1.8 c 10.14807,-4.27214 -3.15279,3.4329 0,0 z m 16.2,-0.9 c 2.29945,-3.22871 2.29945,3.22871 0,0 z m 14.4,0 c 2.47137,-3.35968 0.81591,3.10427 0,0 z m -10.09175,-2.90121 c 19.51095,-11.43357 12.05121,0.72834 0,0 z m 14.7144,-0.61713 c 10.20189,-3.65956 -6.05109,5.81788 0,0 z m -28.46406,-0.0955 c -4.22488,-2.00729 3.94165,-2.32678 0,0 l 0,0 z m 5.84841,-0.0581 c 19.35619,-13.68697 6.16029,2.84358 0,0 z m -3.21848,-1.82752 c 4.7003,-7.25396 16.7609,-3.52302 2.11513,0.23007 l -1.26226,0.22217 -0.85287,-0.45224 z M 294.3,161.92831 c 10.17944,-11.16893 11.73718,0.19426 0,0 z m -7.125,-1.15169 c 9.45978,-3.73955 3.16843,1.42003 0,0 z M 293.4,158.4 c 2.47137,-3.35968 0.81591,3.10427 0,0 z"
       id="path4158"
       inkscape:connector-curvature="0" />
    <path
       style="fill:#634531"
       d="M 140.22541,327.23559 C 114.68472,314.72968 91.2904,297.77518 67.993156,281.46531 51.723543,267.95586 35.319816,254.44799 20.521406,239.32269 15.367767,217.37479 7.6095377,192.64495 10.874395,170.86101 21.547517,151.53333 49.076873,153.1467 67.013628,142.91408 c 20.489631,-6.19781 40.401692,12.97583 59.353382,19.71544 13.78283,3.08971 26.40041,22.75954 40.47296,12.46065 64.27852,-26.88485 129.37879,-51.68689 195.16436,-74.61157 23.80341,-8.582262 46.31045,-20.215766 69.46742,-30.290331 21.28997,-7.636854 48.66631,20.072801 30.27292,37.808831 -31.46941,14.00358 -65.16891,22.91211 -95.66123,39.35105 1.51908,-3.8936 -27.51715,10.30288 -17.81289,8.81707 -6.5954,3.82635 -15.38759,9.35397 -18.27804,5.38325 -6.10779,4.10107 -8.03295,7.24499 -17.45646,10.07405 -1.60893,5.26403 -7.79363,0.30107 1.2734,-4.25259 0.0245,-4.49092 -14.25633,9.9375 -3.04683,-1.02743 -13.82112,1.33806 11.16448,-8.36622 -6.85816,-4.92078 8.4687,-5.64788 -5.93728,-4.58488 -1.14234,-9.49486 -2.51056,-2.06357 -28.08006,12.64628 -25.06369,5.49487 -15.37094,1.65431 -23.17931,10.41128 -15.24394,11.26628 -12.45914,6.33176 -17.17265,-0.15436 -27.68184,8.94672 -5.91895,-1.31911 10.14901,7.79302 -3.05353,8.69948 13.54718,-1.74542 -14.1401,12.67229 -14.43204,7.90172 12.53283,-3.30156 7.79574,-4.30277 1.90412,-8.41924 3.93534,-3.464 14.11793,0.932 12.49138,-7.01905 -6.34607,1.08452 -11.02967,3.57804 -5.28075,-2.69555 -3.32956,9.93207 -30.27507,3.09162 -19.04737,12.21963 -11.97222,0.6264 -30.30586,7.03338 -17.00448,8.77798 5.26454,6.91657 17.57952,17.61416 22.725,8.80668 14.63856,-7.43575 -16.48691,8.09889 2.2888,13.83541 -0.24953,13.68764 1.14303,29.75862 0.54827,41.67297 4.82977,17.18885 -6.07378,40.98833 -26.85865,45.9929 -15.59201,5.66973 -32.02232,25.35743 -48.82799,19.82793 z m 1.50149,-2.11058 c -1.42344,-7.2173 -4.13788,-32.63543 -4.67684,-8.73834 -3.07282,5.7979 -5.37658,7.6242 4.67684,8.73834 z m 29.88163,-18.45 c 5.48542,-9.98583 -4.90925,-0.49586 0,0 z m 7.82493,-0.24583 c 0.11521,-3.81648 -5.50681,5.05878 0,0 z M 162.9,302.20715 c -4.73677,-2.61821 -4.73673,2.61822 0,0 z m -18.80674,-3.67388 c -3.6025,0.83943 1.96736,6.89832 0,0 z m 52.41461,-2.83743 c -0.89108,-3.65416 -2.57208,3.9664 0,0 z M 98.1,295.20001 c -2.471369,-3.35968 -0.815918,3.10427 0,0 z m 40.5,-0.45 c 7.14546,1.82764 7.42644,-4.40478 -1.78306,0.008 -0.27809,1.12352 1.93703,2.42792 1.78306,-0.008 z m 66.3148,-1.51875 c -1.54308,-1.54738 0.77702,5.0315 0,0 z m -57.96334,-4.97411 c -4.23245,-4.02775 -1.76217,4.11025 0,0 z m 4.12977,-3.94959 c 7.26365,-10.51665 -4.97871,-9.37186 -3.06761,3.60958 0.93363,1.2738 5.12068,-2.68219 3.06761,-3.60958 z m 8.55984,1.7162 c -8.97287,-3.14785 -5.31446,6.74256 0,0 z m -12.63326,-1.01595 c 0.72677,-3.28116 -7.06761,1.8032 0,0 l 0,0 z M 177.3,285.32825 c -2.44567,-1.82885 -3.28297,2.85472 0,0 z m -40.52002,-7.45324 c -6.01512,-33.65493 -0.31195,23.60198 0,0 z M 182.7,282.95372 c -3.29536,-1.804 -3.70866,3.42238 0,0 z m -37.8,-1.25371 c -2.29945,-3.22871 -2.29945,3.22871 0,0 z m -1.26271,-5.50693 c 2.73484,-14.27599 -3.39778,9.14593 6e-5,0 l -6e-5,0 z m 18.81271,2.80693 c 4.15508,-2.89542 -8.71237,2.92974 0,0 z m 31.5,-9.9 c -4.13843,-3.20056 -0.0583,3.07421 0,0 z m 15.3,-0.9 c 0.0394,-3.02633 -2.76304,2.99818 0,0 z m -68.43844,-0.83781 c -0.51494,-4.72577 -2.54738,2.9932 0,0 z m 56.06386,-2.98719 c -6.7813,-5.96622 -0.82296,4.84413 0,0 z m -63.78581,-4.34322 c -4.75683,-0.21737 3.45238,6.64677 0,0 z m 8.82519,1.69947 c -1.54308,-1.54738 0.77702,5.0315 0,0 z m 29.9852,1.06875 c -2.29945,-3.22871 -2.29945,3.22871 0,0 z m 6.3,-2.7 c -2.47137,-3.35968 -0.81591,3.10427 0,0 z m 22.65413,-0.58949 c 7.10219,-10.33789 -7.79319,5.90022 0,0 z m -56.94517,-0.8702 c 14.36049,-12.51077 -6.44498,-23.31582 -5.30898,-4.84031 -5.75441,-5.78412 -3.61004,14.07475 5.30898,4.84031 z m 41.31722,-3.51413 c -2.54707,1.73981 -1.06902,3.91472 0,0 z M 211.05,254.70001 c 0.0393,-3.02633 -2.76304,2.99818 0,0 z m -5.85,-2.7 c -2.29945,-3.22871 -2.29945,3.22871 0,0 z m -12.6,-3.6 c -2.07103,-3.12216 -3.28064,3.46337 0,0 z m -27.9,-1.65 c -1.63716,-4.68745 -3.3677,2.80485 0,0 z m 17.82618,-1.52382 c -2.54707,1.73981 -1.06902,3.91472 0,0 z M 123.3,245.30312 c -1.71962,-3.20352 -2.42096,1.60259 0,0 z m 4.2692,-4.18645 c 4.82503,-6.50562 -9.43235,7.77734 0,0 z m 47.34667,0.50833 c -7.37783,-8.18101 0.72409,4.61164 0,0 z m 10.71518,-12.34999 c -3.37247,-8.42335 -1.8452,4.09566 0,0 z m 22.81075,-6.7332 c -2.21257,-0.47136 -3.37538,7.9584 -0.98333,2.62499 l 0.98333,-2.62499 z m -7.43123,-1.63062 c -2.88362,-3.54413 0.98458,4.46229 0,0 z m 123.37707,-59.72354 c -4.90304,2.53884 -3.13941,3.86234 0,0 z M 334.8,158.45312 c -1.77572,-4.82239 -2.39202,3.18406 0,0 z M 308.7,153 c -2.29945,-3.22871 -2.29945,3.22871 0,0 z m 35.38417,-1.03473 c 10.14842,-10.49761 -13.11353,3.94779 0,0 z m 6.10198,-1.31907 c 2.06741,-4.94607 -6.62152,5.00382 0,0 z M 294.3,150.8463 c -2.71211,-2.96914 -2.74309,1.22175 0,0 z m 8.75625,-3.79005 c -3.3134,-1.02068 -1.65331,1.56743 0,0 z m 47.51756,-1.08243 c -3.91471,1.06903 -1.7398,2.54708 0,0 z m 10.08244,-1.61757 c -3.3134,-1.02068 -1.65331,1.56743 0,0 z m -159.63482,58.59376 c 7.89012,-4.61928 -2.6587,4.58718 0,0 z m 6.87857,0.45 c 2.29945,-3.22871 2.29945,3.22871 0,0 z m -4.97452,-4.139 c 2.68912,-6.60222 4.85075,5.083 0,0 z m 15.77452,-0.361 c 2.29945,-3.22871 2.29945,3.22871 0,0 z m -19.25558,-4.87152 c 7.14347,-10.08917 2.21879,3.61911 0,0 z m 7.90537,-1.94189 c 2.63632,-6.53333 2.19331,3.93771 0,0 z m 3.70021,-2.18659 c 2.76304,-2.99818 -0.0394,3.02633 0,0 z m 26.55,-2.60371 c 7.29942,-7.24852 1.86301,4.25033 0,0 z M 253.35,187.2 c 2.76304,-2.99818 -0.0393,3.02633 0,0 z m -6.75,-2.7 c 2.47137,-3.35968 0.81591,3.10427 0,0 z m -6.525,-0.9675 c 0.42,-5.36616 1.49307,-1.65455 0,0 z m 11.09328,-1.22205 c 9.37547,-5.83535 1.2431,2.9065 0,0 z M 264.15,181.8 c 5.94976,-5.13987 3.46045,2.24344 -1.08184,1.8 l 1.08184,-1.8 z m 19.35,0.45 c 9.67328,-4.50645 -4.89006,4.27742 0,0 z M 243,180.9 c 2.29945,-3.22871 2.29945,3.22871 0,0 z m 50.23125,0.28521 c 5.03148,-0.77694 -1.54746,1.54287 0,0 z M 258.3,180.08805 c 10.2392,-7.84976 5.23374,1.91314 0,0 z M 247.17453,176.85 c 4.50312,-5.01122 1.3226,3.90968 0,0 z M 267.75,177.3 c 2.76304,-2.99818 -0.0394,3.02633 0,0 z m 33.75,-2.7 c 2.29945,-3.22871 2.29945,3.22871 0,0 z m -37.8,-1.8 c 10.14807,-4.27214 -3.15279,3.4329 0,0 z m 16.2,-0.9 c 2.29945,-3.22871 2.29945,3.22871 0,0 z m 14.4,0 c 2.47137,-3.35968 0.81591,3.10427 0,0 z m -10.09175,-2.90121 c 19.51095,-11.43357 12.05121,0.72834 0,0 z m 14.7144,-0.61713 c 10.20189,-3.65956 -6.05109,5.81788 0,0 z m -28.46406,-0.0955 c -4.22488,-2.00729 3.94165,-2.32678 0,0 l 0,0 z m 5.84841,-0.0581 c 19.35619,-13.68697 6.16029,2.84358 0,0 z m 51.86312,0.0919 c 8.73435,-6.15064 16.35332,-5.82986 0,0 z m -55.0816,-1.91945 c 4.7003,-7.25396 16.7609,-3.52302 2.11513,0.23007 l -1.26226,0.22217 -0.85287,-0.45224 z m 55.17148,-0.9122 c 4.83195,-2.68142 -2.19303,2.76599 0,0 z m -33.96,-3.56004 c 10.17944,-11.16893 11.73718,0.19426 0,0 z m -7.125,-1.15169 c 9.45978,-3.73955 3.16843,1.42003 0,0 z M 293.4,158.4 c 2.47137,-3.35968 0.81591,3.10427 0,0 z m 59.4,-4.00377 c 7.2772,-5.44228 7.09548,-1.96508 0,0 z"
       id="path4156"
       inkscape:connector-curvature="0" />
    <path
       style="fill:#4d372c"
       d="M 140.22541,327.23559 C 115.67578,315.53162 93.5879,298.91733 71.008424,283.81725 53.636291,269.62021 36.084193,255.43426 20.492904,239.27582 14.30654,218.37011 10.746139,195.3302 9.3219399,174.12526 17.526179,151.87424 46.756987,153.98777 64.882947,143.84252 c 18.757478,-9.18648 37.330013,9.74027 54.928653,15.50788 14.03687,3.89579 27.25989,19.5032 41.07737,18.34186 68.10555,-28.84768 137.25849,-55.10008 207.21103,-79.103746 23.15357,-8.65448 44.53444,-22.158339 68.16439,-29.160816 23.86601,-6.733517 44.13526,32.770222 20.71062,40.324332 0.12157,-6.73821 -12.13687,11.53209 -20.16049,5.6672 2.74001,4.83735 -17.03818,-6.16254 -2.44812,-1.14469 12.53017,-1.14889 11.202,-5.9719 -1.5523,-3.57437 -4.52456,-0.14433 -17.93555,-0.45666 -22.62437,6.65002 -11.52908,0.2492 -14.85704,3.3962 -22.10944,6.68025 -1.37804,-0.0818 -14.41707,7.07772 -26.66493,13.82358 -7.38307,6.45239 -12.01202,4.25594 -16.34622,8.71911 1.12806,-4.60955 -6.95272,-2.47137 -11.76098,0.25663 8.11179,5.49559 -14.50593,17.40435 -18.36005,6.14249 0.73482,3.74893 24.63064,-11.29338 15.12688,-9.46323 4.88986,-6.21576 24.42264,-15.65854 25.0342,-14.63237 -17.1279,9.64717 30.48508,-4.30952 7.70286,-0.68538 -13.82041,-2.04488 9.22324,-7.07584 7.08794,-3.08851 9.75579,-4.77843 -2.48414,-3.42156 7.73006,-5.08528 1.64039,-3.69937 6.97738,-7.77319 -3.16788,-2.4347 -12.11518,-1.35493 -19.67646,9.12281 -21.91409,4.8833 -2.44706,7.3968 -28.08556,10.13381 -28.22655,11.17373 11.25345,-12.0395 -7.41018,9.09843 -15.84654,5.77626 5.89669,3.53388 -15.28728,8.79972 -1.575,1.41634 -8.67149,-1.21115 -14.89151,2.67416 -13.07826,4.95694 -14.61067,0.82411 -23.81047,4.08051 -35.97174,7.73547 -3.86758,-8.12746 -5.23855,10.61717 -9.43297,0.57287 -5.12519,-0.13146 -15.68336,10.49706 -15.86919,4.01837 -7.62467,5.32871 -9.92666,1.28719 -8.67284,7.25895 -9.57662,5.81179 -15.11847,6.15226 -27.75945,9.9588 1.12278,5.22365 -14.76425,4.29729 -2.14723,-1.51375 -13.59645,1.13615 -6.89835,11.99316 -18.57799,6.82959 -21.87872,2.22887 8.72609,12.49263 17.2094,20.44997 7.08739,9.57575 11.96104,7.30239 22.57768,18.18253 1.74257,10.78117 -4.22348,21.50197 0.0149,29.1084 -11.43995,9.13903 -13.4425,5.90282 -11.81053,-5.33733 -2.71857,0.59301 -3.39767,-5.85879 -10.54497,0.33055 4.48539,-7.92529 -1.75617,-7.50941 -11.2611,-3.12172 -6.33039,-1.5228 3.64715,-11.01911 -4.15351,-3.0082 -4.31603,4.31821 -16.5172,5.87681 -17.67256,2.14613 -7.0498,-0.96122 -8.52492,7.39643 -18.09027,3.38878 -9.37726,9.72352 -2.89458,15.0664 -0.57194,22.19761 -2.66883,4.31295 6.598,28.97091 -1.2015,23.08508 -3.01599,6.86133 8.39973,8.32997 0.70133,13.47969 4.34406,5.076 7.78649,-2.28766 5.11221,11.47694 0.26875,-5.16599 15.42655,-14.92387 8.87549,-2.86774 1.12514,2.95483 -17.77926,12.44657 -0.63878,5.86813 8.98432,-6.47501 10.42666,7.14896 5.07979,6.06863 -9.71274,-1.68451 -1.12374,13.67663 -18.7906,5.13849 z M 152.1,326.15372 c -3.29538,-1.80401 -3.70865,3.42239 0,0 z m -10.4656,-2.28353 c -1.62855,-7.68988 -4.34387,-30.44635 -4.40428,-9.32018 -3.89318,6.31419 -3.63249,13.7002 4.40428,9.32018 z m 11.84507,-3.4884 c 7.94817,-8.85532 -1.10065,-1.70327 -3.7357,1.75731 l 3.7357,-1.75731 0,0 z M 129.6,318.60001 c -2.29945,-3.22871 -2.29945,3.22871 0,0 z m 22.01634,-7.14553 c -2.08129,-2.84569 -3.63741,2.70002 0,0 z m -9.03995,-2.40076 c 4.18592,-5.54694 -6.51716,0.47215 0,0 z m 8.37986,-0.89746 c -3.31339,-1.02069 -1.65332,1.56743 0,0 z m 2.49375,-2.15625 c -0.90153,-3.16878 -3.76015,3.11357 0,0 z M 98.1,295.05 c -2.088751,-2.60514 -3.005567,2.90013 0,0 z m 40.635,-0.29999 c -2.58672,-4.58029 -2.50536,4.55661 0,0 z m -2.70362,-25.45291 c -6.36148,-24.30521 1.95806,17.34838 0.40282,15.18516 0.0794,-5.04383 1.51578,-10.32774 -0.40282,-15.18516 z m 3.89071,2.54806 c -3.78412,-7.07889 -3.38219,1.26389 0,0 z M 140.4,263.70001 c -2.29945,-3.22871 -2.29945,3.22871 0,0 z m 69.67122,-14.04431 c 5.61225,-4.23974 0.99694,-14.73005 0.32569,-15.50301 -0.54431,-1.5107 -6.9058,16.03385 -0.32569,15.50301 z m -85.33846,-6.20569 c 15.26911,-12.74654 -12.42211,6.63785 0,0 z M 135.9,245.30312 c -1.71962,-3.20352 -2.42096,1.60259 0,0 z m 29.7,-5.00311 c 8.52908,-5.04075 -7.60304,0.65786 0,0 z m 9.67487,-3.22513 c -4.13431,-1.45912 -0.94744,5.7333 0,0 z m 23.88795,1.17366 c 5.19546,-0.43765 -7.41569,-7.14649 4.60789,-1.42025 3.95209,-10.02841 -17.19993,-2.70249 -11.17069,-2.22392 6.50631,2.88507 -0.35447,4.83349 6.5628,3.64417 z m -26.57171,-3.54864 c -1.42648,-5.6641 -13.56787,4.56287 0,0 z M 207.9,234.90001 c -2.29945,-3.22871 -2.29945,3.22871 0,0 z m -22.48906,-3.6 c 9.91542,-10.09037 -14.03687,-1.86164 -2.07306,1.27508 l 2.07306,-1.27508 z M 180.9,229.99036 c 2.3488,-5.91294 6.52176,4.99566 0,0 z M 31.643107,229.69771 c -1.524553,-14.72719 -6.17711,4.67097 0,0 z m 162.770673,0.4773 c 9.08234,0.43412 2.16281,-6.25826 -0.94542,1.12506 l 0.94544,-1.125 -2e-5,-6e-5 z m 14.72962,-0.27175 c 0.0746,-3.78832 -2.67042,4.48763 0,0 z m -17.45718,-3.77825 c -2.93973,-9.39684 -4.60419,3.6399 0,0 z M 207,226.4463 c 6.92274,-8.12914 -7.65511,2.40572 0,0 l 0,0 z m 5.85,-0.39629 c -1.68517,-3.96189 -3.1688,5.1487 0,0 z m -73.35,-1.95 c -0.81591,-3.10427 -2.47137,3.35968 0,0 z m 59.9654,-2.60424 c 18.52224,-0.075 -16.96441,-3.60002 0,0 z m 15.6346,0.1505 c -1.93697,-8.10408 -9.29652,3.31123 0,0 z M 30.6,220.50001 c -0.815926,-3.10427 -2.47136,3.35968 0,0 z m 175.95,-3.6 c 0.0393,-3.02633 -2.76304,2.99818 0,0 z m 3.46425,-1.05001 c -9.0786,-7.51621 3.94038,7.03952 0,0 z M 203.4,211.10312 c -1.71962,-3.20352 -2.42096,1.60259 0,0 z M 27.9,207.90001 c -2.29945,-3.22871 -2.29945,3.22871 0,0 z m 166.5,0 c -2.47137,-3.35968 -0.81591,3.10427 0,0 z M 27,203.90312 c -1.719619,-3.20352 -2.420956,1.60259 0,0 z m 135.45,-12.20311 c 4.33041,-3.12822 -0.37346,-8.12958 0,0 z m 8.325,-0.225 c -3.65425,-6.39888 -1.84307,2.57414 0,0 z m -9.675,-3.41818 c -2.05287,-4.28918 -7.63577,5.14336 0,0 z m 56.28431,-19.81234 c 14.2713,-9.02786 -8.01469,-0.19406 0,0 z M 286.2,143.93196 c -3.73517,-1.51712 -3.44108,4.19066 0,0 z M 336.15,143.1 c -1.3649,-3.42779 -2.74821,2.84968 0,0 z m 15.34954,-5.8127 c 9.14203,-11.09542 -18.93955,8.47373 0,0 z m 7.09858,-2.20336 c -2.28465,-1.79152 -4.19368,2.70225 0,0 z m -40.24187,-0.62769 c -3.3134,-1.02068 -1.65331,1.56743 0,0 z M 364.95,133.2 c 0.0755,-3.44821 -4.11595,3.63184 0,0 z m -46.35,-0.39688 c -1.7196,-3.20353 -2.42097,1.60257 0,0 z M 375.05442,125.1 c 6.79014,-6.42805 -11.37146,6.65415 0,0 z m 6.09768,-2.01718 c -0.22286,-3.65947 -5.76892,2.99299 0,0 z m 3.63491,-1.64269 c 0.88131,-5.18671 -4.48423,4.47904 0,0 z M 389.7,115.2 c -0.81591,-3.10427 -2.47137,3.35968 0,0 z m 54,-0.35371 c -2.71212,-2.96913 -2.74308,1.22177 0,0 z M 396.45,111.6 c -4.76667,-3.28811 1.00897,3.10175 0,0 z m -7.65,-0.39688 c -1.6463,-2.99381 -4.36498,1.93999 0,0 z m 2.15729,-1.25311 c -1.24568,-2.86052 -2.43753,2.38368 0,0 z M 444.15,108.9 c -4.13843,-3.20056 -0.0583,3.07421 0,0 z m -3.65828,-0.8057 c -1.70797,-5.03733 -2.7557,2.7886 0,0 z M 447.3,107.1 c 3.0729,-3.13515 -7.26222,3.35486 0,0 z m -39.72215,-1.66741 c 11.68009,-4.45135 -2.09507,-3.04268 -3.79376,0.34232 0.806,3.40046 1.94783,-3.17386 3.79376,-0.34232 z M 462.6,105.3 c -2.47137,-3.35968 -0.81591,3.10427 0,0 z m -36.00064,-2.475 c -5.93101,-3.238737 -5.57633,2.67169 0,0 z M 164.49005,318.99599 c 2.8169,-9.69505 8.00721,4.79424 0,0 z m 4.29839,-3.03379 c 2.39602,1.87732 14.65806,-12.25729 7.57991,-9.47405 -0.0148,-5.0276 -10.28436,-4.91999 -9.83474,3.13544 -10.11834,1.83742 -0.0679,-4.46214 -2.41087,-9.53858 6.45835,2.12772 12.22252,-3.40307 6.65375,-4.62063 -2.14371,1.38133 14.20272,-17.37463 18.78581,-9.06014 1.52226,1.38237 -12.80066,-1.96857 -9.00135,6.20948 4.51342,3.95268 10.00766,-1.85741 6.93761,4.92121 5.06413,-4.77021 9.15964,-6.04652 12.93403,-9.08491 -1.39525,17.98755 10.791,0.34024 1.97502,-6.54286 4.44508,-13.07306 -10.75584,-6.12876 -7.80053,-0.62584 6.16974,-8.96203 7.43369,7.52291 2.26787,4.89061 1.3148,-2.63242 -12.33265,-1.41986 -6.56159,-9.79498 -8.46108,3.02249 -17.88647,13.68291 -13.67314,1.25585 -4.17867,0.56219 -26.41008,18.95241 -15.67424,13.96718 6.51191,5.54067 -19.15042,7.48255 -4.03556,-2.32374 13.65015,-7.07585 4.81016,-9.79196 -1.23047,-6.27938 8.48821,-0.79851 16.76751,-16.80312 9.49823,-6.54296 -2.76712,2.61697 -9.2374,-7.21057 -8.86823,-4.65396 -2.47602,-0.47006 -10.3746,10.65031 -12.82602,-2.24678 -6.40534,-7.39259 16.22714,-5.98139 6.79602,-10.33944 -2.4406,5.97885 -9.9513,0.88552 -1.4551,-6.31378 1.59882,-8.08282 8.923,-16.19282 13.52595,-5.40001 3.36353,5.49593 7.35429,8.93534 8.68227,2.7 10.92746,-8.13367 -9.61298,5.05114 -5.99124,-5.12237 5.22026,-0.28489 5.04022,-5.80444 11.81735,0.61076 1.23922,19.71945 -0.75027,-16.01655 7.09229,-1.99627 -5.96903,-2.14663 -2.28977,8.34083 -1.30643,8.7468 -1.5831,0.95825 12.07907,7.01981 8.55887,-1.88534 7.5243,3.94542 -5.64059,14.41035 -3.66772,12.01452 -10.32988,6.04259 8.28381,3.28054 -2.9066,6.1067 7.93466,11.90603 8.19738,-12.38801 8.33608,2.73947 4.03028,3.18447 5.77636,-11.92119 6.44542,0.039 3.73108,-3.70299 20.425,7.2644 10.32364,-3.9102 3.32274,-7.53637 -21.8805,-3.21536 -6.92872,-5.91702 7.70582,-2.25093 14.42945,-10.54316 10.37848,0.99755 3.60942,3.17965 -8.76343,2.44612 2.24974,8.14614 3.05509,12.64997 -11.68823,8.14394 -8.24689,3.49351 -6.178,13.36189 4.79038,4.07034 2.14945,14.09841 3.19664,1.45849 -1.12006,4.53853 -3.66638,9.26603 -6.89685,0.91138 -15.35178,12.05918 -27.2321,14.0841 -1.66481,2.58458 -6.67246,6.79337 -9.66987,4.25049 z M 184.05,306.90001 c -2.27062,-3.4514 -3.85685,2.92686 0,0 z m 3.15,-3.20312 c -1.37143,-3.45654 -2.31791,4.55706 0,0 z m -8.1,-2.8384 c -5.81451,-11.06438 -4.9458,5.87831 0,0 z m 3.3148,-0.42723 c -1.54308,-1.54738 0.77702,5.0315 0,0 z m 13.24183,0.53753 c -1.11392,-2.50142 -6.56204,0.70884 1.11833,-5.56273 -5.35284,-2.08007 -15.13871,8.38014 -1.11833,5.56273 z m -16.71913,-6.66878 c -3.39345,-13.47163 -0.27785,13.03249 0,0 z M 212.4,276.3963 c -7.29942,-7.24851 -1.86301,4.25033 0,0 z m -22.05,-1.89629 c 0.0394,-3.02633 -2.76304,2.99818 0,0 z m -5.85,-1.8 c -6.28445,-5.63022 -1.69106,5.03236 0,0 z m -9.14953,0.11146 c 1.96036,-4.13717 -5.8235,2.42601 0,0 z m -8.85402,-3.45161 c 9.08711,-4.38308 -7.19009,-1.81234 0,0 z m 9.64002,-2.98737 c -4.96267,-4.12883 -6.25985,4.22672 -0.16221,2.06656 l 0.16221,-2.06656 0,0 z m -19.93349,1.40614 c 5.10581,-3.92702 -11.26484,1.28018 0,0 z m 7.64171,-0.95173 c 8.87516,-6.55646 -12.46552,3.88742 0,0 z m 9.31687,-4.26534 c 4.77841,-13.67714 -10.07777,7.57297 0,0 z m 5.83196,-1.36479 c 6.5917,-2.32761 -7.75575,-0.93073 -0.96218,2.22156 0.30205,0.0803 0.29235,-3.76798 0.96218,-2.22156 z M 187.2,257.75372 c -1.94936,-7.92861 -7.43516,6.26922 0,0 z m 2.25,0.54629 c 0.0394,-3.02633 -2.76304,2.99818 0,0 z m -29.25,-0.51925 c -2.49462,-10.22022 -7.3552,3.05278 0,0 z m 15.55687,-3.99568 c -3.37721,-8.00191 -0.6042,8.32833 0,0 z m -9.03748,1.217 c -2.0114,-4.73756 -1.25558,1.88718 0,0 z m -8.86527,-5.85721 c -7.4443,0.95475 -5.25019,6.84954 0,0 z M 162,249.80312 c -1.71962,-3.20352 -2.42096,1.60259 0,0 z m -4.5,-3.65311 c -2.8719,-5.06856 -0.35876,4.93582 0,0 z m 15.75,-0.45 c -0.90162,-3.16877 -3.76009,3.11358 0,0 z m -8.42108,67.59872 c -2.2371,-3.94239 6.71032,2.47672 0,0 z m 4.73618,-2.19733 c 3.41558,-7.58146 2.3704,3.94281 0,0 z M 150.06,302.28833 c 4.83195,-2.68142 -2.19303,2.76599 0,0 z m -4.09759,-4.52804 c 6.17455,-8.2981 2.58876,6.08109 0,0 z m 20.21212,-0.31028 c -0.1136,-4.39581 2.59186,4.44622 0,0 z M 147.6,294.33167 c -8.48596,-4.57984 3.27218,-2.97391 3.36141,-2.62148 1.21919,1.08259 -2.61794,4.07713 -3.36141,2.62148 z m 15.79673,-1.75606 c 7.27725,-8.76445 14.22764,-8.46591 5.1621,-2.53271 -1.15729,1.22251 -3.2537,4.69316 -5.1621,2.53271 z m 17.95327,-0.0756 c 0.90162,-3.16877 3.76009,3.11358 0,0 z M 195,290.1 c -2.76376,-4.50103 3.56253,0.91841 0,0 z m -42.9,-2.94687 c 1.41658,-6.32468 1.40426,5.19873 0,0 z m 39.6,0.39688 c 2.84725,-5.35904 2.75886,4.99582 0,0 z m -45.39172,-0.3557 c 1.70793,-5.03729 2.75573,2.78855 0,0 z M 202.5,287.6463 c 2.71211,-2.96915 2.74309,1.22176 0,0 z m 10.8,-2.29317 c 1.92937,-4.82744 1.29604,3.1142 0,0 z m -68.4,-3.65312 c 2.47137,-3.35968 0.81591,3.10427 0,0 z m 3.15,0 c 4.13843,-3.20056 0.0583,3.07421 0,0 z M 146.7,279.066 c -13.45356,-7.39021 7.37919,2.06325 0,0 z m 61.93125,-9.68079 c 5.03148,-0.77695 -1.54746,1.54289 0,0 z M 205.5,266.8643 c 1.59615,-2.97261 3.41598,4.70968 0,0 z m 7.8,0.43571 c 2.47137,-3.35968 0.81591,3.10427 0,0 z m -14.85,-9 c 2.76304,-2.99818 -0.0393,3.02633 0,0 z m 1.42105,-5.025 c 0.57895,-3.46857 0.91301,4.09644 0,0 z M 184.2916,249.1484 c 5.69331,-2.46857 -0.54666,2.35565 0,0 z m 8.75447,0.14525 c 4.18532,-10.61362 4.71169,3.54877 0,0 z M 187.2,244.94942 c -9.08372,-11.87349 14.36741,0.54473 0,0 z m 10.35,-0.14941 c -0.0394,-3.02633 2.76304,2.99818 0,0 z m -25.95787,-3.10417 c 0.57185,-3.78747 3.64294,4.57564 0,0 z M 197.1,242.10001 c 2.29945,-3.22871 2.29945,3.22871 0,0 z m -13.86867,-50.2684 c 4.3293,-9.2022 7.17259,-6.41215 0.83983,0.68954 l -0.83983,-0.6896 0,6e-5 z M 227.7,191.19689 c 1.37143,-3.45655 2.31791,4.55705 0,0 z m -31.69289,-5.49017 c 4.7175,-5.02 5.07948,8.96923 0,0 z m -19.50007,-0.82712 c -4.57834,-11.75186 7.78249,7.02354 0,0 z m 15.02421,-0.0944 c 5.03148,-0.77694 -1.54746,1.54287 0,0 z M 265.26,181.68832 c 4.83195,-2.68143 -2.19304,2.766 0,0 z m -48.52875,-2.30311 c 5.03148,-0.77694 -1.54746,1.54287 0,0 z m 68.77232,-10.7015 c 6.73822,-3.99712 -4.04976,4.41391 0,0 z M 278.1,167.9463 c 2.89585,-3.01679 5.56765,2.03775 0,0 z M 329.4,167.4 c 7.02291,-3.22917 -2.77501,3.01512 0,0 z m -99.45,-2.7 c -0.0393,-3.02633 2.76304,2.99818 0,0 z m 3.33951,-1.25922 c 4.55389,-3.351 -2.12225,3.88408 0,0 z M 297.9,159.85497 c 4.79402,-3.14863 4.45942,1.67673 0,0 z m 9.73125,-1.16976 c 5.03148,-0.77694 -1.54746,1.54287 0,0 z M 310.95,158.4 c 2.76304,-2.99818 -0.0394,3.02633 0,0 z m -28.85298,-1.27652 c 8.52327,-4.13055 -3.91638,4.41844 0,0 z m -28.57256,-1.09901 c -0.42921,-5.28945 4.56318,1.95826 0,0 z m 54.44556,-0.21939 c 2.07252,-4.58129 8.58326,-0.78879 0,0 z M 287.1,155.3463 c 2.71211,-2.96914 2.74309,1.22175 0,0 z m -14.18061,-2.04422 c -2.46388,-4.36909 4.14852,0.77044 0,0 z M 306,151.65 c 9.67328,-4.50645 -4.89006,4.27742 0,0 z m -9.9,-0.45 c 2.47137,-3.35968 0.81591,3.10427 0,0 z m 10.28286,-3.49136 c 7.44428,-5.0645 2.44521,3.38274 0,0 z M 337.95,147.6 c 2.76304,-2.99818 -0.0394,3.02633 0,0 z M 324,146.27825 c 2.51364,-3.56017 2.44294,4.17695 0,0 z m -12.6,-0.48338 c 3.12355,-5.11825 11.54956,-1.91234 0,0 z M 369.9,144.9 c 13.31022,-6.49905 -8.9152,6.26527 0,0 z m -51.3,-1.64791 c 6.6819,-7.70047 7.54494,2.91884 0,0 z m 9,-2.87338 c -8.22123,-1.69123 29.09912,-15.2375 11.7,-6.41986 -3.82055,0.84576 -9.23913,6.93091 -11.7,6.41986 z m 86.85,-18.40099 c 9.30748,-7.80859 24.58212,-3.19569 7.98786,-0.44577 -1.52505,-1.61557 -14.98743,6.13237 -7.98786,0.44577 z m 9.45,-7.1746 c 2.3179,-4.55705 1.37146,3.45653 0,0 z M 417.6,113.4 c 2.47137,-3.35968 0.81591,3.10427 0,0 z m 16.99781,-2.50021 c 6.54181,-5.64052 -2.53195,5.46354 0,0 z"
       id="path4154"
       inkscape:connector-curvature="0" />
    <path
       style="fill:#4f2c15"
       d="M 137.33138,326.13969 C 114.38795,313.36219 92.055763,298.72111 71.014057,283.09029 57.794238,273.8736 38.986322,257.00518 24.923911,243.89914 11.295848,228.00522 15.882837,204.19644 9.6839136,185.02629 3.9518648,156.52479 41.067955,154.55563 59.404508,145.86314 c 19.637197,-11.80764 42.198652,4.72966 58.674532,14.16945 9.21103,2.51148 31.87102,12.83009 17.88614,10.58358 5.85593,7.4648 16.97368,3.02785 19.55283,9.58004 -12.9877,7.60264 16.28655,-2.44995 0.77242,7.78577 2.1182,8.28833 30.08004,5.56077 11.10957,-0.33198 10.35241,-0.73272 24.4166,17.40334 8.28982,5.75204 -5.83013,3.62988 14.64983,9.01772 1.95276,15.15448 6.97837,-2.39534 15.80329,0.53435 25.39948,2.79456 -4.77029,-6.03482 -12.06227,-6.12895 -15.17419,-12.97645 11.89793,9.03894 29.8462,14.55851 9.76941,19.33088 -5.23911,1.80788 -2.01968,-8.21438 -6.29214,-3.83206 -0.76854,14.86463 -33.10101,21.49822 -47.54774,27.02961 -9.46399,-0.17469 -2.49982,12.88631 -12.87751,17.97424 -1.46733,7.61386 4.62577,13.21542 3.92362,27.48272 9.19893,6.33131 -4.14588,12.66151 1.39546,22.87197 5.21336,13.75491 -8.2503,5.05555 -9.54998,8.02434 -10.85897,-2.73721 30.20749,16.6547 10.64239,8.88336 z M 135,315.15001 c -1.63716,-4.68744 -3.3677,2.80485 0,0 z m -17.55,-7.35 c -4.76667,-3.28811 1.00897,3.10175 0,0 z m 3.6,-0.9 c 0.0393,-3.02633 -2.76304,2.99818 0,0 z M 108.9,305.9591 c -11.487541,-5.67556 0.95275,-10.24518 -8.5014,-12.26248 0.8036,-2.56407 -24.236526,-4.67875 -9.330825,2.29031 5.183864,3.06213 12.509085,10.50858 17.832225,9.97217 z m -8.1,-9.01221 c 1.49022,-2.01076 2.25029,3.08183 0,0 z m 18.45,8.15312 c 0.0393,-3.02633 -2.76304,2.99818 0,0 z m -7.65,-9.35371 c -2.71211,-2.96915 -2.74309,1.22176 0,0 z m 1.26622,-5.27129 c -6.18989,-11.04287 -5.32629,4.266 0,0 z M 86.4,288.9963 c -3.466632,-4.72632 -1.900404,2.10666 0,0 z m 21.68363,-5.44461 c -3.10863,-9.09286 -2.90018,3.64779 0,0 z m -2.16997,-8.5933 c -7.229902,-8.86123 2.45857,5.86584 0,0 z M 74.811679,267.96 c -2.765984,-2.19302 2.681445,4.83197 0,0 z M 129.6,267.30001 c -3.28065,-3.46337 -2.07104,3.12215 0,0 z M 81,261.36523 c -6.23519,-3.68294 -4.71096,4.62918 0,0 z m -7.2,-0.7621 c -1.719603,-3.20354 -2.420971,1.60257 0,0 z m 8.1,-2.70001 c -2.754225,-4.02267 -1.914183,2.16523 0,0 z m 49.95,-2.30311 c -2.42718,-2.8729 -4.86095,1.11965 0,0 z m 1.94605,-2.025 c -1.56128,-0.291 0.94488,6.01369 0,0 z m -6.07105,-0.0297 c -3.85137,-4.22165 -4.27881,-0.71652 0,0 z m 1.34423,-3.90941 c -2.27548,-4.30976 6.17687,-3.85579 -1.62487,-7.27152 -5.29347,3.37715 15.52968,-7.87462 -2.86795,-3.30679 -4.39682,-4.36888 -23.42212,-12.89815 -12.3014,-4.70354 10.46498,3.33203 10.57557,11.09852 7.75415,12.70902 5.23165,-5.20941 1.96906,8.57233 9.04007,2.57283 z m 6.47452,-5.49217 c -3.20191,-0.80718 1.40162,5.25476 0,0 z m -80.334415,-0.95805 c -7.31886,-9.06193 2.223286,8.59496 0,0 z m 63.016135,1.16433 c -4.2869,-4.83683 1.15098,4.80195 0,0 z m -8.71067,-2.41875 c -1.54307,-1.54739 0.77702,5.03151 0,0 z M 25.2,241.20001 c -2.29945,-3.22871 -2.29945,3.22871 0,0 z m 78.3,-0.99869 c -0.89483,-4.24479 -9.205869,0.48091 0,0 l 0,0 z m 12.6,-0.85443 c -3.18931,-8.41389 -5.26106,3.2476 0,0 z m -64.292077,-5.41458 c -4.772825,-6.86873 2.788494,10.76026 0,0 z M 122.4,236.70001 c -5.43077,-1.94988 3.32448,4.09687 0,0 z m -88.2,-0.50312 c -1.57066,-3.4264 -1.060813,4.36083 0,0 z m 96.075,-0.74513 c -13.35111,-4.78528 5.80568,4.90584 0.0867,0.0315 l -0.0867,-0.0315 0,0 z m 14.625,0.34825 c -2.47137,-3.35968 -0.81591,3.10427 0,0 z m 4.82745,-3.14484 c -3.71214,-3.42611 0.23829,4.2364 0,0 z M 162.6,232.62502 c -2.19317,-3.59081 -2.5106,4.49915 0,0 z m -9.80625,-0.59375 c -3.4031,-4.86698 -0.7616,3.8381 0,0 z M 122.4,230.94758 c -8.32279,-9.07063 -4.72233,6.21824 0,0 z m 2.4148,-0.71632 c -1.54307,-1.54739 0.77702,5.03151 0,0 z m -92.229967,-2.09795 c 5.36999,-18.13214 -12.735517,9.50831 0,0 z m 17.935797,-1.92156 c -3.674822,-2.97265 1.623511,6.80488 0,0 z M 141.3,228.60001 c -0.81591,-3.10427 -2.47137,3.35968 0,0 z m -17.04698,-1.70067 c 7.45199,-8.45567 -10.70873,6.47769 0,0 z M 159.3,227.70001 c -0.81591,-3.10427 -2.47137,3.35968 0,0 z m -58.95,-0.9 c -7.221703,-1.67128 0.41437,-0.16056 0,0 z m 3.26168,-1.14001 c -2.76599,-2.19302 2.68143,4.83197 0,0 z m 10.23832,0.24001 c 0.0393,-3.02633 -2.76304,2.99818 0,0 z m 19.44019,-0.72367 c 2.30485,-9.56302 -8.59117,6.26881 0,0 z m 7.8205,-0.61873 c -5.58802,-5.54843 -5.3105,4.27717 0,0 z m -18.36729,-0.95435 c 0.0746,-3.78832 -2.67044,4.48762 0,0 z m -91.944421,-2.42825 c 0.08674,-11.91027 -6.773509,4.03945 0,0 z M 102.6,220.55312 c -1.51056,-4.51243 -1.96408,3.15434 0,0 z m 25.70298,-0.53173 c -9.43094,-4.95751 3.09071,5.27043 0,0 z M 111.6,219.60001 c -3.80561,-6.76381 -5.74041,1.49768 0,0 z M 33.179464,215.5582 c -11.074506,-8.09082 4.202622,8.8874 0,0 z M 99.45,217.80001 c -8.55853,-3.93743 -0.65878,3.41649 0,0 z m 67.05,0 c -2.47137,-3.35968 -0.81591,3.10427 0,0 z M 134.1664,216.37 c -1.70337,-3.58835 -5.0096,-8.23744 -4.74024,-0.71985 3.56596,-0.53939 1.07354,4.80659 4.74024,0.71985 z m -8.03668,-2.29971 c -3.40272,-3.4607 -7.05428,-0.43039 -11.52972,-3.05988 1.25301,2.63273 6.66084,8.11019 11.52972,3.05988 z m -33.032703,0.60834 c -12.650842,-4.96099 3.570595,4.80779 0,0 z m -12.811113,-1.76962 c 4.321754,2.92658 8.220085,-1.14858 -1.512391,-3.18951 -3.850889,0.69868 -2.188595,7.97165 1.512391,3.18951 z m 31.893516,-0.0537 c -1.1106,-6.75649 -2.20956,7.65417 0,0 z m -82.101825,-1.94117 c -2.976479,-10.99794 -6.348053,3.44201 0,0 l 0,0 z m 63.56367,-0.30661 c 12.108665,-2.30751 -16.471845,0.80695 0,0 z m 44.801195,-0.21 c 16.6736,1.32181 -4.24505,-8.77038 -1.69468,1.03084 l 1.69468,-1.03084 0,0 z m 36.68696,-3.85152 c 6.62131,-9.15608 -7.31331,1.84936 -3.67942,-5.06042 -10.98934,-8.70285 0.29277,13.45581 3.77186,7.04203 l -0.0924,-1.9816 -2e-5,-1e-5 z m -87.37942,3.154 c -1.364884,-3.4278 -2.748221,2.84968 0,0 z m 36.86156,0.0622 c -2.27362,-10.65513 -7.35775,-0.34269 0,0 z M 122.4,208.74689 c 1.49021,-2.01077 2.25029,3.08182 0,0 z m 5.5795,0.26295 c 1.82749,-3.1326 11.27257,-6.07447 -0.1795,-3.40074 -3.08991,0.71926 -0.6339,6.96521 0.1795,3.40074 z M 135,210.20312 c -1.71962,-3.20352 -2.42096,1.60259 0,0 z m -66.92151,-3.81439 c -0.68076,-0.90568 1.892294,-3.10986 -7.571093,-6.58872 0.498434,2.0328 11.522616,11.95512 7.571093,6.58872 z m 11.424791,0.74063 c 21.071599,-2.95093 -4.47765,-5.77716 -5.014499,1.13523 l 1.745762,-0.73995 3.268737,-0.39528 0,0 z M 119.25,207.00001 c -4.13843,-3.20056 -0.0583,3.07421 0,0 z m -92.460269,-4.15208 c -5.049239,-5.27773 2.348066,6.96103 0,0 z M 97.2,204.30001 c -8.183921,-7.94399 -7.440947,1.46021 0,0 z m 16.2,0 c -3.28065,-3.46337 -2.07104,3.12215 0,0 z m 9,-0.9 c -2.47137,-3.35968 -0.81591,3.10427 0,0 z m 2.7,0.50311 c -1.71962,-3.20352 -2.42096,1.60259 0,0 z m -82.902849,-4.16668 c -4.725855,-1.21488 2.136934,3.57657 0,0 z m 44.689858,0.90369 c -8.605235,-10.31699 -4.130788,2.32558 0,0 z M 114.3,200.24137 c -3.41469,-2.48233 -5.50819,3.06454 0,0 z m 5.15625,0.81488 c -3.3134,-1.0207 -1.6533,1.56746 0,0 z m -45.182435,-1.98243 c -3.914702,1.06902 -1.739827,2.54708 0,0 z M 102.825,198.7088 c 0.38326,-5.66041 -10.294198,4.92443 0,0 z m 28.575,0.7375 c -2.71211,-2.96915 -2.74309,1.22176 0,0 z m 6.78701,-1.38642 c -6.17304,-4.09192 0.6798,4.04949 0,0 z M 26.1,198.18001 c -4.901376,-9.11941 -2.706831,3.26833 0,0 z m 53.1,-0.18 c -7.571316,-3.08978 -3.753223,1.56127 0,0 z m 13.544694,-0.47312 c 17.254406,-10.98704 -13.9729,6.00311 0,0 z M 157.5,195.29133 c -4.76872,-6.20592 -4.50326,5.12639 0,0 z m 3.99172,1.00298 c -1.70788,-5.03726 -2.75576,2.78852 0,0 z m -53.15534,-1.41585 c -5.71981,-6.84295 -19.634521,2.53092 -2.40858,0.32304 l 2.27563,0.91099 0.13295,-1.23403 0,0 z m 18.31987,0.77779 c -3.3134,-1.0207 -1.6533,1.56746 0,0 z m 18.91784,-1.02726 c -3.87328,-3.96738 -5.55984,4.12848 0,0 z m -21.80028,-0.95517 c -3.9147,1.06903 -1.73981,2.54708 0,0 z M 92.7,192.04786 c -7.132575,-1.5146 -7.149077,2.55638 0,0 z m 60.74363,0.56245 c -0.6712,-2.10512 -3.80888,3.30022 0,0 z M 73.8,190.90001 c -5.815923,-3.88832 -2.426957,3.78818 0,0 z m 7.146832,-6.6e-4 c 1.209226,-4.76983 -10.970902,3.61737 0,0 z M 144.9,189.6391 c -7.02564,-1.4422 -2.26373,5.47726 0,0 z M 87.240118,189.413 c -4.789744,-6.53349 13.868142,-1.02555 7.066317,-4.1417 -13.94689,-8.96269 -13.038452,3.97065 -8.123856,4.21185 l 1.057537,-0.0701 2e-6,0 z m 11.24348,-0.76394 c 7.730002,-7.08024 -15.055972,6.85318 0,0 z m 1.641402,2.45489 c -5.600513,-0.8928 -0.0698,1.5572 0,0 z m 33.075,-2.10394 c -7.02291,-3.22918 2.775,3.0151 0,0 z m 20.7,0 c -0.81591,-3.10427 -2.47137,3.35968 0,0 z m -49.92599,-3.56115 c -13.401661,-9.97913 1.60996,9.3254 0,0 z m 21.87707,2.77222 c 0.58344,-4.76549 -6.7335,3.28964 0,0 z M 119.4,186.56613 c -1.93627,-3.32218 -5.65005,5.26194 0,0 z m -73.5,-2.46301 c -1.719601,-3.20353 -2.420971,1.60257 0,0 z M 76.95,183.6 c 0.03933,-3.02633 -2.763022,2.99818 0,0 z m 53.52394,-4.46484 c 3.80496,-4.36196 -6.73434,3.5271 0,0 z M 142.2,178.2 c 1.44181,-3.40465 -6.52062,2.65317 0,0 z m -73.35,-0.9 c -0.901603,-3.16877 -3.760097,3.11358 0,0 z m 42.3,0 c -0.90162,-3.16877 -3.76009,3.11358 0,0 z m 13.10917,-0.0317 c 5.05122,-10.44234 -16.25655,1.49598 0,0 z m 12.07782,-0.97991 c 9.95841,-7.94455 -15.09723,4.97803 0,0 z M 98.55,174.6 c 0.03934,-3.02633 -2.763031,2.99818 0,0 z M 26.1,173.59504 c -4.325986,-4.89164 -9.12553,0.39008 0,0 z M 101.25,173.7 c 0.0393,-3.02633 -2.763035,2.99818 0,0 z m 10.20046,0.11147 c 7.44735,-9.43128 -24.172791,-3.56363 -4.82707,-0.15453 l 2.05162,0.89653 2.77546,-0.742 -10e-6,0 z m 9.65145,-4.30253 c 6.5539,-7.2641 -13.14331,5.62549 -1.83584,1.47052 l 1.83584,-1.47052 z M 52.2,168.8463 c -2.998259,-2.78615 -5.483842,1.62174 0,0 z m 57.6,-3.6963 c -3.78441,-5.80169 -2.89493,5.29265 0,0 z m 10.8,1.0102 c -4.32316,-6.01319 -2.02519,1.79291 0,0 z m 9,-0.0571 c -1.7196,-3.20353 -2.42097,1.60257 0,0 z m -81,-6.3 c -1.646267,-2.99378 -4.365009,1.93996 0,0 z m -8.1,-0.9 c -1.719603,-3.20353 -2.420969,1.60257 0,0 z m 148.70357,70.97604 c 6.36642,-4.5115 -3.98152,4.29326 0,0 z m 3.47143,-2.43383 c 4.69681,-5.54486 4.90868,1.75385 0,0 z m 4.425,-2.44534 c 3.11039,-3.84619 5.31815,3.51601 0,0 z m 4.95,-1.8 c 7.82873,-7.8453 11.12605,0.19301 0,0 z m -18.81867,-31.3684 c 4.3293,-9.2022 7.17259,-6.41215 0.83983,0.68954 l -0.83983,-0.6896 0,6e-5 z m -5.93956,-5.99151 c -1.12519,-4.62749 5.27218,3.03272 0,0 z M 166.5,175.5 c 7.02291,-3.22917 -2.77501,3.01512 0,0 z m 11.7,-0.9 c 2.29945,-3.22871 2.29945,3.22871 0,0 z m -7.65,-0.69564 c 15.78586,-8.4191 10.12534,-0.23629 0,0 z m 27.45,-0.1437 c 4.79401,-6.17016 1.96009,-5.55561 13.1067,-5.18221 -2.24296,2.9534 -9.81312,6.75566 -13.1067,5.18221 z m 7.2,-0.11377 c 1.4902,-2.01078 2.25031,3.08181 0,0 z m -60.74363,-0.83658 c 0.67119,-2.10512 3.80889,3.30019 0,0 z M 188.1,169.32796 c 6.44252,-6.46423 2.78468,1.61463 0,0 z m 26.775,0.17599 c 5.60051,-0.8928 0.0698,1.5572 0,0 z m 70.62857,-0.82024 c 6.72582,-4.02475 -4.09425,4.51439 0,0 z M 198,167.56332 c 2.05858,-4.50436 2.88594,1.00923 0,0 z m 80.1,0.38298 c 2.89585,-3.01679 5.56765,2.03775 0,0 z m -73.17556,-1.16438 c 3.89798,-2.8125 9.74334,-10.84496 19.50103,-10.63192 11.53197,-15.18847 16.47157,5.27538 8.03879,2.25 -4.92825,-4.61531 -23.08224,3.19985 -13.86336,5.96942 -1.79624,-0.91243 -8.46131,3.30191 -13.67646,2.4125 z M 214.2,162.9 c -2.29945,-3.22871 -2.29945,3.22871 0,0 z m 6.75,-4.5 c -1.3649,-3.42779 -2.74821,2.84968 0,0 z m 15.07838,-4.60141 c -10.12883,-4.72238 -0.0465,8.8112 0,0 z M 200.25,163.8 c 10.67335,-5.15611 -2.66442,3.67434 0,0 z m 6.39271,-1.64999 c 1.24568,-2.86052 2.43753,2.38368 0,0 z M 225.9,159.8463 c 3.70862,-3.42237 3.29541,1.80397 0,0 z m 72,0.009 c 4.79401,-3.14866 4.45944,1.67674 0,0 z M 208.8,158.4 c 7.02291,-3.22917 -2.77501,3.01512 0,0 z m 98.83125,0.28521 c 5.03148,-0.77694 -1.54746,1.54287 0,0 z M 310.95,158.4 c 2.76304,-2.99818 -0.0394,3.02633 0,0 z m 12.24529,-1.08186 c -8.19417,-2.14545 -12.32113,-5.73862 -1.44529,-5.02254 12.17423,-7.90111 14.23874,-9.6838 8.325,-8.82938 8.79299,-14.07496 15.97456,2.2893 24.13556,-7.77465 6.72099,-0.85793 3.3567,-3.3112 15.61137,-7.88379 -11.31286,0.0713 -16.10178,-2.04082 -1.12397,-5.14156 -3.4414,6.77176 12.132,-3.1736 2.88724,-1.46696 6.11809,0.56892 7.4359,-4.62574 9.79129,-6.18052 -7.07992,1.01022 -29.38789,8.12619 -26.3215,8.27578 -0.72437,-0.0544 -22.52329,8.93613 -31.95499,12.87599 14.17831,-11.29201 -3.69292,-4.84316 -4.09552,1.60289 -10.6109,0.98378 -28.69351,4.00312 -25.24245,7.99334 -11.00956,-3.19304 -17.72237,2.13079 -24.40017,2.65085 -3.89134,-13.15419 -6.82244,8.72208 -7.05528,-5.82103 -1.3975,10.35869 -15.23331,-3.74209 0.0174,-1.67893 -5.21868,-6.92998 15.1429,-5.50627 13.18264,-7.94266 5.17176,-1.75103 11.96848,-4.52546 21.49342,-8.88419 18.94755,-5.6812 36.81096,-12.4227 55.39828,-18.80611 27.1617,-10.216583 53.0188,-23.729135 79.70592,-35.117594 24.60896,-10.880467 43.69108,28.332717 31.32435,35.704754 2.59609,-10.218205 -16.94729,11.7654 -17.06785,4.35386 -7.0211,7.60549 -5.87879,-4.38226 -13.85623,1.46239 -5.78946,-3.74412 -17.91318,1.30889 -22.50259,5.22797 -11.08544,0.22584 -17.53848,5.98389 -20.75188,5.96991 -5.71836,3.39316 -16.9266,8.58576 -30.37997,16.40535 -7.56683,5.9168 -9.53424,2.85641 -15.5761,7.89819 5.32042,-7.91021 -8.11971,-1.74631 -10.09606,0.49896 10.172,0.76595 -10.73682,10.4094 -10.00258,9.62968 z m -48.03851,-13.9385 c -3.72872,-4.60595 -10.36979,1.60966 0,0 z m 3.67637,-0.59418 c 1.21941,-2.48685 -6.47876,1.06908 0,0 z m -1.31976,-2.49884 c 13.02944,-7.91479 -9.64765,1.81064 -2.79016,-3.64583 -7.10755,0.17188 -0.33944,5.86307 2.79016,3.64583 z M 269.1,139.05 c 1.31312,-5.11214 -4.8304,4.29311 0,0 z m -2.94375,-0.0937 c -3.3134,-1.02068 -1.65331,1.56743 0,0 z m 44.67218,-4.15296 c -3.8575,-1.93358 0.60156,6.2076 0,0 z M 319.5,134.11392 c -3.32257,-6.62822 -4.41603,5.26036 0,0 z M 364.95,133.2 c 0.0755,-3.44821 -4.11595,3.63184 0,0 z m 4.5,-2.7 c 0.0755,-3.44821 -4.11595,3.63184 0,0 z m 5.60442,-5.4 c 6.79014,-6.42805 -11.37146,6.65415 0,0 z m 6.09768,-2.01718 c -0.22286,-3.65947 -5.76892,2.99299 0,0 z m 3.63491,-1.64269 c 0.88131,-5.18671 -4.48423,4.47904 0,0 z M 389.7,115.2 c -0.81591,-3.10427 -2.47137,3.35968 0,0 z m 6.75,-3.6 c -4.76667,-3.28811 1.00897,3.10175 0,0 z m -6.975,-0.56726 c 6.84686,-5.19908 -10.12708,1.80693 0,0 z M 444.15,108.9 c -4.13843,-3.20056 -0.0583,3.07421 0,0 z m -3.65828,-0.8057 c -1.70797,-5.03733 -2.7557,2.7886 0,0 z m 9.09529,-0.15417 c 1.30294,-4.26501 -4.47688,3.63676 0,0 z M 447.3,107.1 c 3.0729,-3.13515 -7.26222,3.35486 0,0 z m -39.72215,-1.66741 c 17.21438,-7.889161 -12.03719,2.58078 -1.15253,-5.28873 -4.26472,-3.050632 -1.48836,-6.477008 -4.40344,-0.257636 -5.55726,2.751566 -1.57923,-1.721374 -9.72269,2.315346 -6.76627,2.65208 13.44207,1.58031 15.27866,3.23102 l 0,0 z M 408.15,104.4 c 4.13843,-3.20056 0.0583,3.07421 0,0 z m 44.55,1.8 c -0.81591,-3.10427 -2.47137,3.35968 0,0 z m -26.10064,-3.375 c -5.93101,-3.238737 -5.57633,2.67169 0,0 z m -15.69714,-4.640505 c -9.80186,-1.581624 -1.3734,2.815095 0,0 z m 12.75403,-5.128245 c -3.31338,-1.020708 -1.65333,1.567426 0,0 z M 417.6,90.000002 c -0.81591,-3.104272 -2.47137,3.359685 0,0 z M 282.09702,157.12348 c 8.52327,-4.13055 -3.91638,4.41844 0,0 z m -40.60994,-2.3306 c 4.15371,-8.8226 -0.0605,6.10971 0,0 z M 254.25,155.7 c 2.76304,-2.99818 -0.0394,3.02633 0,0 z m 53.72002,0.10508 c 2.07252,-4.58129 8.58326,-0.78879 0,0 z M 287.1,155.3463 c 2.71211,-2.96914 2.74309,1.22175 0,0 z m -29.45082,-3.26919 c 4.58956,-7.43765 4.35852,4.52226 0,0 z M 306,151.65 c 9.67328,-4.50645 -4.89006,4.27742 0,0 z m -65.7,-1.52792 c -4.67382,-4.75366 5.3403,0.49909 8.7306,-5.8943 10.06294,-1.79637 -3.34605,10.8346 -8.7306,5.8943 z m 23.87532,0.49812 c 8.11377,-2.50492 0.76528,3.57518 0,0 z M 296.1,151.2 c 2.47137,-3.35968 0.81591,3.10427 0,0 z m -10.72895,-4.12499 c 0.57895,-3.46858 0.91301,4.09644 0,0 z m 21.01181,0.63363 c 7.44428,-5.0645 2.44521,3.38274 0,0 z M 337.95,147.6 c 2.76304,-2.99818 -0.0394,3.02633 0,0 z M 324,146.27825 c 2.51364,-3.56017 2.44294,4.17695 0,0 z m -12.6,-0.48338 c 3.12355,-5.11825 11.54956,-1.91234 0,0 z m -8.1061,-2.35209 c 14.15525,-7.52822 -0.0899,3.88085 -1.22062,0.89837 l 1.02327,-0.75312 0.19735,-0.14525 z M 318.6,143.25209 c 6.6819,-7.70047 7.54494,2.91884 0,0 z M 255.15,140.4 c -2.08471,-5.10419 5.54393,5.26782 0,0 z m 72.45,-0.0213 c -8.22121,-1.69121 29.09912,-15.23755 11.7,-6.41982 -3.82051,0.84565 -9.23923,6.9311 -11.7,6.41982 z m 21.89868,-8.59849 c 10.96732,-13.78822 3.92341,3.65331 0,0 z m 66.88856,-11.22745 c 11.8169,-6.30912 4.76726,2.235 5e-5,0 l -5e-5,0 z m 9.98776,-3.24878 c 5.60051,-0.8928 0.0698,1.5572 0,0 z m -2.475,-2.50083 c 2.3179,-4.55705 1.37146,3.45653 0,0 z m 8.1,-0.0531 c -10.30059,-3.02866 8.63755,0.58004 0,0 z M 417.6,113.4 c 2.47137,-3.35968 0.81591,3.10427 0,0 z m 18.54271,0.15001 c 1.24568,-2.86052 2.43753,2.38368 0,0 z m -1.54491,-2.65022 c 6.54182,-5.64052 -2.53193,5.46353 0,0 z"
       id="path4152"
       inkscape:connector-curvature="0" />
    <path
       style="fill:#2f2b28"
       d="M 137.33138,326.13969 C 114.38795,313.36219 92.055763,298.72111 71.014057,283.09029 57.794238,273.8736 38.986322,257.00518 24.923911,243.89914 11.295848,228.00522 15.882837,204.19644 9.6839136,185.02629 3.9518648,156.52479 41.067955,154.55563 59.404508,145.86314 c 14.389696,-10.68429 32.833324,0.12413 43.384392,6.97128 10.87279,1.50195 36.83281,17.67453 36.7111,17.91961 -8.79711,-1.74034 8.50447,8.10132 11.16993,5.5164 10.00491,5.86443 -5.21396,7.38058 8.74011,9.80742 -5.43495,8.80727 15.20806,5.03369 18.84308,11.92214 8.88875,6.86287 -5.81876,9.76071 3.99688,10.80003 5.24074,-7.4044 33.85019,9.02417 10.95233,8.71768 7.46614,-5.33723 -8.11272,-7.22657 -0.14548,2.05644 -7.02548,3.42635 -32.683,18.72252 -29.25685,10.67592 -4.0357,6.63971 -11.65817,9.26927 -20.68622,10.72492 -7.36948,1.86503 -7.14825,14.61218 -12.0315,21.97084 -0.17134,0.56858 2.48878,18.1359 6.39196,26.12215 -0.004,5.8576 -3.57823,17.41899 -0.1734,28.4934 -11.33067,-1.56724 -17.66046,-2.70879 -2.64616,5.56247 3.50338,1.62829 14.33449,8.38125 2.6767,3.01585 z M 135,315.15001 c -1.63716,-4.68744 -3.3677,2.80485 0,0 z m -17.55,-7.35 c -4.76667,-3.28811 1.00897,3.10175 0,0 z m 3.6,-0.9 c 0.0393,-3.02633 -2.76304,2.99818 0,0 z M 108.9,305.9591 c -11.487541,-5.67556 0.95275,-10.24518 -8.5014,-12.26248 0.8036,-2.56407 -24.236526,-4.67875 -9.330825,2.29031 5.183864,3.06213 12.509085,10.50858 17.832225,9.97217 z m -8.1,-9.01221 c 1.49022,-2.01076 2.25029,3.08183 0,0 z m 18.45,8.15312 c 0.0393,-3.02633 -2.76304,2.99818 0,0 z m -7.65,-9.35371 c -2.71211,-2.96915 -2.74309,1.22176 0,0 z m 1.26622,-5.27129 c -6.18989,-11.04287 -5.32629,4.266 0,0 z M 86.4,288.9963 c -3.466632,-4.72632 -1.900404,2.10666 0,0 z m 21.68363,-5.44461 c -3.10863,-9.09286 -2.90018,3.64779 0,0 z m -2.16997,-8.5933 c -7.229902,-8.86123 2.45857,5.86584 0,0 z M 74.811679,267.96 c -2.765984,-2.19302 2.681445,4.83197 0,0 z M 129.6,267.30001 c -3.28065,-3.46337 -2.07104,3.12215 0,0 z M 81,261.36523 c -6.23519,-3.68294 -4.71096,4.62918 0,0 z m 24.3,1.9379 c -1.7196,-3.20353 -2.42097,1.60257 0,0 z m -31.5,-2.7 c -1.719603,-3.20354 -2.420971,1.60257 0,0 z m 8.1,-2.70001 c -2.754225,-4.02267 -1.914183,2.16523 0,0 z m 52.18622,-3.62097 c -4.77624,-3.57617 -8.39418,5.56946 0,0 z m -6.36122,-0.73682 c -3.85138,-4.22168 -4.2788,-0.71647 0,0 z m 1.42915,-4.25839 c 6.77938,-9.61713 -12.2645,-4.23402 3.36897,-9.74297 -6.08009,4.85707 -28.52755,-17.00076 -21.82312,-5.54398 8.85821,1.37418 -2.16523,7.43968 9.02487,5.4 7.94567,2.19001 -7.32284,10.5049 4.31399,7.32657 -5.26363,2.41668 4.91641,6.24064 5.11529,2.56038 z m 6.3896,-5.14319 c -3.20192,-0.80718 1.40162,5.25477 0,0 z M 55.209335,243.1857 c -5.159045,-7.04524 0.666043,6.89261 0,0 z m 63.042835,1.23389 c -5.82676,-6.41238 0.87514,4.52173 0,0 z m -8.04061,-1.35739 c -0.51494,-4.72578 -2.54738,2.9932 0,0 z M 25.2,241.20001 c -2.29945,-3.22871 -2.29945,3.22871 0,0 z m 77.85,-0.68878 c 3.48241,-7.6334 -11.012069,0.74564 0,0 l 0,0 z m -51.242077,-6.57892 c -4.772824,-6.86873 2.788493,10.76026 0,0 z M 122.4,236.70001 c -5.43077,-1.94988 3.32448,4.09687 0,0 z m -88.2,-0.50312 c -1.57066,-3.4264 -1.060813,4.36083 0,0 z m 96.075,-0.74513 c -13.35111,-4.78528 5.80568,4.90584 0.0867,0.0315 l -0.0867,-0.0315 0,0 z m 14.625,0.34825 c -2.47137,-3.35968 -0.81591,3.10427 0,0 z m -6.75637,-0.8897 c -0.67119,-2.10512 -3.80888,3.30022 0,0 z m 11.58382,-2.25514 c -3.71214,-3.42611 0.23829,4.2364 0,0 z m 3.0663,-0.62391 c -3.4031,-4.86698 -0.76161,3.83809 0,0 z m -30.03712,-1.10003 c -7.21274,-6.63399 -5.37818,4.12367 0,0 z m 2.05817,-0.69997 c -1.54307,-1.54739 0.77702,5.03151 0,0 z m -92.229967,-2.09795 c 5.36999,-18.13214 -12.735517,9.50831 0,0 z m 72.977657,1.96329 c -6.906431,-2.61632 -5.42282,2.09302 0,0 z m -55.04186,-3.88485 c -3.674822,-2.97265 1.623511,6.80488 0,0 z M 141.3,228.60001 c -0.81591,-3.10427 -2.47137,3.35968 0,0 z m -17.04698,-1.70067 c 7.45199,-8.45567 -10.70873,6.47769 0,0 z M 159.3,227.70001 c -0.81591,-3.10427 -2.47137,3.35968 0,0 z m -55.17093,-1.26279 c -10.081486,-4.3114 -8.253471,4.68767 0,0 z m 9.72093,-0.53721 c 0.0393,-3.02633 -2.76304,2.99818 0,0 z m 19.44019,-0.72367 c 2.30485,-9.56302 -8.59117,6.26881 0,0 z m -50.164727,-0.62633 c 0.113607,-4.39581 -2.591849,4.44622 0,0 l 0,0 z m 57.985227,0.007 c -5.58802,-5.54843 -5.31051,4.27714 0,0 z m -31.76069,-0.457 c 0.0393,-3.02633 -2.76304,2.99818 0,0 z m 13.3934,-0.49675 c 0.0746,-3.78832 -2.67044,4.48762 0,0 z M 102.6,220.95001 c -2.675374,-6.0607 -0.94284,5.483 0,0 z m -71.607892,0.54367 c 0.243551,-11.75354 -7.371754,3.03552 0,0 z m 97.310872,-1.47229 c -9.43094,-4.95751 3.09071,5.27043 0,0 z M 111.6,219.60001 c -3.80561,-6.76381 -5.74041,1.49768 0,0 z M 33.179464,215.5582 c -11.074506,-8.09082 4.202622,8.8874 0,0 z M 99.45,217.80001 c -8.55853,-3.93743 -0.65878,3.41649 0,0 z m 67.05,0 c -2.47137,-3.35968 -0.81591,3.10427 0,0 z M 134.1664,216.37 c -1.32534,-3.10168 -5.80044,-8.35067 -4.74024,-0.71976 3.56597,-0.53946 1.07347,4.80661 4.74024,0.71976 z m -8.03668,-2.29971 c -3.40272,-3.4607 -7.05428,-0.43039 -11.52972,-3.05988 1.25301,2.63273 6.66084,8.11019 11.52972,3.05988 z m -33.032703,0.60834 c -12.650842,-4.96099 3.570595,4.80779 0,0 z m -12.811113,-1.76962 c 4.321754,2.92658 8.220085,-1.14858 -1.512391,-3.18951 -3.850889,0.69868 -2.188595,7.97165 1.512391,3.18951 z m 31.893516,-0.0537 c -1.1106,-6.75649 -2.20956,7.65417 0,0 z m -82.09066,-1.97027 c -2.740073,-11.06971 -6.503759,3.51373 0,0 z m 64.402996,-0.0943 c 6.065754,-3.16632 -17.381062,-1.90696 -4.05,0.71613 l 1.74316,-0.66969 2.30684,-0.0464 0,-5e-5 z m 43.950704,-0.39322 c 16.6736,1.32181 -4.24505,-8.77038 -1.69468,1.03084 l 1.69468,-1.03084 0,0 z m 36.68696,-3.85152 c 7.11915,-9.67522 -7.0389,2.15675 -3.67942,-5.06047 -10.98933,-8.70282 0.29275,13.4558 3.77186,7.04204 l -0.0924,-1.9816 -2e-5,3e-5 z m -50.51786,3.21617 c -2.27372,-10.65531 -7.35766,-0.34245 0,0 z M 122.4,208.74689 c 1.49021,-2.01077 2.25029,3.08182 0,0 z m 5.5795,0.26295 c 1.82749,-3.1326 11.27257,-6.07447 -0.1795,-3.40074 -3.08991,0.71926 -0.6339,6.96521 0.1795,3.40074 z M 135,210.20312 c -1.71962,-3.20352 -2.42096,1.60259 0,0 z m -66.92151,-3.81439 c -0.68076,-0.90568 1.892294,-3.10986 -7.571093,-6.58872 0.498434,2.0328 11.522616,11.95512 7.571093,6.58872 z m 9.598425,0.95269 c 23.837125,-1.96008 -1.726494,-7.22348 -3.107914,0.73973 l 1.197573,-0.72031 1.910341,-0.0194 0,0 z M 119.25,207.00001 c -4.13843,-3.20056 -0.0583,3.07421 0,0 z m -92.460269,-4.15208 c -5.049239,-5.27773 2.348066,6.96103 0,0 z M 97.2,204.30001 c -8.183921,-7.94399 -7.440947,1.46021 0,0 z m 16.2,0 c -3.28065,-3.46337 -2.07104,3.12215 0,0 z m 9,-0.9 c -2.47137,-3.35968 -0.81591,3.10427 0,0 z m 2.7,0.50311 c -1.71962,-3.20352 -2.42096,1.60259 0,0 z m -82.902849,-4.16668 c -4.725855,-1.21488 2.136934,3.57657 0,0 z m 44.689858,0.90369 c -8.605235,-10.31699 -4.130788,2.32558 0,0 z M 114.3,200.24137 c -3.41469,-2.48233 -5.50819,3.06454 0,0 z m 5.15625,0.81488 c -3.3134,-1.0207 -1.6533,1.56746 0,0 z m -45.182435,-1.98243 c -3.914702,1.06902 -1.739827,2.54708 0,0 z M 102.825,198.7088 c 0.38326,-5.66041 -10.294198,4.92443 0,0 z m 28.575,0.7375 c -2.71211,-2.96915 -2.74309,1.22176 0,0 z m 6.78701,-1.38642 c -6.17304,-4.09192 0.6798,4.04949 0,0 z M 26.1,198.18001 c -4.901376,-9.11941 -2.706831,3.26833 0,0 z m 53.1,-0.18 c -8.169038,-2.64471 -5.540255,1.0698 0,0 z m 17.953011,-2.00892 c 17.507759,0.11671 8.511729,-3.09307 -0.626988,-6.28873 16.415857,-6.23944 -4.08357,-3.98143 -9.226023,-6.84184 -11.425202,-2.5716 -1.025424,12.47195 3.021543,6.57928 3.631316,-3.21601 -10.213441,14.9271 6.831468,6.55129 z m -4.381956,-1.88207 c 3.132096,-7.14144 3.406294,5.17463 0,0 z m -4.699408,-6.67249 c -4.821915,-7.49517 9.420047,0.8033 0,0 z m -1.18464,7.92335 c -4.476879,-3.63675 1.302955,4.26501 0,0 z M 158.4,195.29137 c -4.97429,-6.30455 -6.39897,5.36663 0,0 z m 3.09172,1.00294 c -1.70788,-5.03726 -2.75576,2.78852 0,0 z M 76.5,194.82101 c -8.703934,-3.67132 11.167684,-3.88001 2.742049,-5.32035 -5.403126,-1.76245 -12.912278,1.80313 -3.103606,6.64538 L 76.5,194.82101 l 0,0 z m 4.5,0.479 c -10.148121,-4.27218 3.152801,3.43289 0,0 z m 45.65625,0.35624 c -3.3134,-1.0207 -1.6533,1.56746 0,0 z m 18.91784,-1.02726 c -3.87327,-3.96738 -5.55983,4.12849 0,0 z m -21.80028,-0.95517 c -3.9147,1.06903 -1.73981,2.54708 0,0 z M 67.5,194.0463 c -3.708646,-3.42239 -3.295383,1.80401 0,0 z m 85.94363,-1.43599 c -0.6712,-2.10512 -3.80888,3.30022 0,0 z M 144.9,189.6391 c -7.02564,-1.4422 -2.26373,5.47726 0,0 z m -11.7,-0.63909 c -7.02291,-3.22918 2.775,3.0151 0,0 z m 20.7,0 c -0.81591,-3.10427 -2.47137,3.35968 0,0 z m -89.556371,-0.8897 c -0.671142,-2.10514 -3.808911,3.30022 0,0 z m 61.507451,0.10077 c 0.58344,-4.76549 -6.7335,3.28964 0,0 z M 119.4,186.56613 c -1.93627,-3.32218 -5.65005,5.26194 0,0 z m -73.5,-2.46301 c -1.719601,-3.20353 -2.420971,1.60257 0,0 z M 76.95,183.6 c 0.03933,-3.02633 -2.763022,2.99818 0,0 z m 53.52394,-4.46484 c 3.80496,-4.36196 -6.73434,3.5271 0,0 z M 142.2,178.2 c 1.44181,-3.40465 -6.52062,2.65317 0,0 z m -73.35,-0.9 c -0.901603,-3.16877 -3.760097,3.11358 0,0 z m 42.3,0 c -0.90162,-3.16877 -3.76009,3.11358 0,0 z m 13.10917,-0.0317 c 5.05122,-10.44234 -16.25655,1.49598 0,0 z m 12.07782,-0.97991 c 9.95841,-7.94455 -15.09723,4.97803 0,0 z M 100.35,174.12288 c 3.42749,-0.83322 16.3958,-0.75177 9.75706,-5.20173 -3.44274,-2.58472 -19.653575,6.51968 -9.75706,5.20173 z M 26.1,173.7963 c -4.168511,-5.16424 -8.711281,0.87764 0,0 z M 92.7,172.8 c -2.29945,-3.22871 -2.29945,3.22871 0,0 z m 28.40191,-3.29106 c 6.5539,-7.2641 -13.14331,5.62549 -1.83584,1.47052 l 1.83584,-1.47052 z M 52.2,168.8463 c -2.998259,-2.78615 -5.483842,1.62174 0,0 z m 45.9,-1.7 c -7.218831,-6.7134 -4.504701,5.92688 0,0 z m 11.7,-1.9963 c -3.78441,-5.80169 -2.89493,5.29265 0,0 z m 10.8,1.0102 c -4.32316,-6.01319 -2.02519,1.79291 0,0 z m 9,-0.0571 c -1.7196,-3.20353 -2.42097,1.60257 0,0 z M 119.7,160.2 c -7.02291,-3.22917 2.77501,3.01512 0,0 z m -71.1,-0.39688 c -1.560814,-3.20293 -4.535528,2.19553 0,0 z m -8.1,-0.9 c -1.719601,-3.20353 -2.420971,1.60257 0,0 z M 108.45,156.6 c -0.0615,-3.4112 -5.95874,3.76208 0,0 z m -18.067356,-7.30899 c -4.635061,-1.38442 -0.973106,4.27761 0,0 z M 80.1,147.20312 c -1.719601,-3.20353 -2.420971,1.60257 0,0 z m 5.4,-1.8 c -1.560844,-3.20293 -4.535498,2.19552 0,0 z m 103.70357,84.47604 c 6.36642,-4.5115 -3.98151,4.29327 0,0 z m 3.47143,-2.43383 c 4.69682,-5.54487 4.90867,1.75388 0,0 z m 4.425,-2.44532 c 3.11039,-3.84619 5.31815,3.51601 0,0 z m 5.85,-1.8 c 10.43201,-9.68501 6.41842,2.08559 0,0 z m -20.22052,-26.75556 c -2.3639,-4.67872 6.77292,4.54886 0,0 z M 176.85,192.60001 c -4.17265,-2.94431 6.68588,2.42689 0,0 z m -9.45,-5.4 c 2.07103,-3.12216 3.28064,3.46337 0,0 z M 166.5,175.5 c 7.02291,-3.22917 -2.77501,3.01512 0,0 z m 11.7,-0.9 c 2.47137,-3.35968 0.81591,3.10427 0,0 z m -7.44,-1.01168 c 4.83195,-2.68143 -2.19304,2.766 0,0 z m -26.30363,-0.77801 c 0.67119,-2.10512 3.80889,3.30019 0,0 z M 177.3,171 c 7.02291,-3.22917 -2.77501,3.01512 0,0 z m 25.3725,-0.0675 c 4.09357,-4.32394 6.02506,2.93868 0,0 z M 200.25,163.8 c 10.67335,-5.15611 -2.66442,3.67434 0,0 z m 6.39271,-1.64999 c 1.24568,-2.86052 2.43753,2.38368 0,0 z M 213.3,158.85 c 4.04648,-4.69645 3.61658,3.57595 0,0 z m -4.5,-0.45 c 7.02291,-3.22917 -2.77501,3.01512 0,0 z m 72,-15.12871 c 4.20071,-5.22949 2.32352,2.71475 0,0 z M 255.15,140.4 c -2.08471,-5.10419 5.54393,5.26782 0,0 z m 5.77757,-2.78448 c 10.61779,-0.40944 -5.59204,2.62119 0,0 z M 266.4,137.7 c 2.47137,-3.35968 0.81591,3.10427 0,0 z m 23.85,-0.9 c 2.76304,-2.99818 -0.0394,3.02633 0,0 z m -21.15,-2.15371 c 2.71212,-2.96913 2.74308,1.22177 0,0 z M 272.7,134.1 c 2.47137,-3.35968 0.81591,3.10427 0,0 z m 8.39719,0.24725 c -5.40051,-2.07062 0.99341,-4.03601 5.07544,-5.1781 -5.18765,4.04492 12.34967,0.35389 -3.94527,5.41806 l -1.14031,0.29678 0.0101,-0.53674 0,0 z m 11.75585,-4.36314 c 1.50944,-11.8301 2.37122,7.00787 0,0 z m 2.01709,0.0545 c 0.0557,-8.16167 17.47613,-7.51396 28.22986,-14.95592 9.06151,-1.59227 29.65811,-8.11187 10.93776,1.76126 4.92454,5.34294 -19.48161,-0.9101 -20.01276,7.35612 2.75677,5.74564 -18.16178,-2.40571 -16.91598,6.53228 l -1.40531,-5.4e-4 -0.83358,-0.69319 1e-5,-1e-5 z M 343.8,112.05 c 5.67614,-10.4448 28.49532,-12.183751 40.60046,-20.152245 21.78689,-6.668242 41.90629,-28.009618 65.86958,-20.092819 11.20502,5.03747 21.08622,14.705474 3.33,7.493113 -6.23239,-8.604942 -21.79648,5.747057 -31.78634,4.542984 -7.79137,3.386518 -28.87606,17.355437 -26.66239,9.039985 -4.77896,2.916806 -15.50853,4.355661 -18.89512,8.749162 -4.1268,-0.0935 -22.75964,3.93894 -27.07255,9.98653 -2.90448,-1.73109 -4.61217,3.89512 -5.38364,0.43329 z m 9.0665,0.0801 c -1.96571,-6.17537 4.35993,4.33509 0,0 z m 25.63101,-7.65326 c 0.28795,-4.40437 4.06818,1.71214 0,0 z M 390.6,99.900003 c 2.29944,-3.228705 2.29946,3.228697 0,0 z m 37.91738,-4.307391 c -12.94768,-7.860415 7.85234,-12.427867 0,0 z M 411.3,93.600003 c 3.89425,-3.467457 4.39236,3.668554 0,0 z m 21.6,-2.753119 c 1.49021,-2.010769 2.25029,3.081822 0,0 z m 32.60086,-2.421882 c 0.95521,-8.043506 1.85041,9.853185 0,0 z M 459,84.571756 c 4.82926,-6.430829 5.49043,4.274473 0,0 z m -21.15,-1.771754 c 2.76304,-2.998176 -0.0394,3.026333 0,0 z"
       id="path4150"
       inkscape:connector-curvature="0" />
    <path
       style="fill:#2d241a"
       d="m 131.46329,323.03001 c -11.12276,-6.72206 -32.441866,-19.40677 -36.939999,-24.07437 10.021749,6.97842 45.814709,27.27015 41.642399,26.49464 l -2.13806,-1.06132 -2.56434,-1.35895 z m -25.70692,-28.7197 c 0.6712,-2.10512 3.80888,3.30022 0,0 z M 119.1,293.8896 c 1.34313,-3.28473 0.67789,4.04585 0,0 z m -35.002983,-0.98925 c -4.426561,-3.96317 6.552232,4.11995 0,0 z m 31.693123,0.009 c 4.13566,-3.32754 0.70747,3.48721 0,0 z m -20.378791,-0.38328 c -1.523289,-2.91677 5.276871,2.30431 0,0 z m 11.036111,-0.97696 c -10.170903,-3.36261 1.70474,-6.96476 1.3112,-0.40102 4.78168,3.38956 -0.6087,2.81251 -1.3112,0.40102 z m 11.00254,-0.8491 c -0.0393,-3.02633 2.76304,2.99818 0,0 z m -22.878945,-1.425 c 0.578955,-3.46856 0.912976,4.09642 0,0 z m 2.241495,0.62621 c 1.555611,-7.62398 5.29279,-1.46834 0,0 z m -19.527349,-1.67621 c -2.780226,-4.05175 5.023148,4.79079 0,0 z m 36.518209,0 C 107.42046,274.08291 101.2583,282.19011 100.35,282 c -6.430905,1.20761 -1.233118,-4.15499 -1.804302,-3.37762 -5.791736,-11.7483 22.124192,10.39782 6.235732,-6.14392 0.72409,-8.95912 -12.893716,12.68837 -10.713072,0.89714 1.15172,-0.0498 0.216085,-12.04739 -1.324861,-10.60248 2.760632,-9.7019 -3.432684,4.99543 -4.932494,-9.16381 -3.57258,-5.40573 -6.448783,-12.04101 -9.970995,-15.41005 -5.652625,5.15283 0.249951,-5.40786 -10.221646,-9.67658 -7.591705,-1.37084 -6.568706,5.05397 -11.526687,-6.29975 -9.037465,0.13909 -11.965007,-14.13278 -17.330063,-9.71846 -3.882957,5.02009 9.519221,0.77355 2.05339,8.89554 -5.818978,2.85354 4.89757,9.28772 1.860071,-0.60329 11.382593,-1.56121 1.460918,10.43746 8.303863,19.04187 4.44944,9.20318 3.163907,8.02183 -5.147059,6.63415 -2.539412,3.9285 -5.269634,-16.01245 -1.022104,-13.1477 -3.684938,-4.18314 -8.097573,-10.2561 -4.718871,4.85659 -2.211567,16.06561 -13.709201,1.13647 -14.417255,2.7723 -9.088215,-4.30427 8.793797,6.51391 8.706232,10.2469 7.288447,6.21293 25.802332,23.67327 8.376483,8.8657 -8.934847,-7.88837 -22.574961,-18.43975 -23.166301,-25.68339 -4.11737,-20.14242 -12.286815,-43.12564 -8.608741,-63.3351 10.557834,-19.44108 38.232044,-17.65938 56.028183,-28.02198 18.636688,-6.07567 33.527447,11.16799 50.926987,15.50418 10.23,5.57106 16.52494,7.23523 1.93754,3.29973 -2.15687,2.32367 -23.786237,-5.24537 -14.32773,3.89062 5.88725,4.66134 -19.10955,1.81449 -6.219106,6.81507 -5.547116,3.34852 -17.275658,6.08782 -11.72324,0.93937 -6.822946,-2.59227 12.346504,-0.33199 4.376053,-4.09502 -15.768355,-3.31086 4.605533,-3.20857 12.430863,-1.17702 -11.845378,-3.87015 7.33832,-20.40661 -5.664105,-13.38921 3.746805,8.39473 -12.460381,5.20212 -0.8703,5.16127 -5.276057,-10.30179 -16.876324,-3.39375 -24.460095,-1.2941 9.646747,-12.32179 -29.59354,-5.448 -5.016361,-2.99521 0.833627,5.62608 1.526596,9.44391 -3.803116,3.61429 -8.522988,5.94849 -19.291161,10.34535 -9.921884,2.48588 -15.894979,4.36125 7.395255,-4.43391 -7.581676,-3.29021 -15.09972,-6.05235 -10.945184,5.8288 -6.082869,9.23344 -0.830335,-1.01334 -15.172842,-2.11793 -6.810459,5.86705 -4.121221,2.9175 6.69823,0.1271 3.599996,4.76189 1.79367,-0.23886 8.579624,-2.712 14.880211,2.82031 1.409304,-6.20532 16.421111,-2.04549 23.040988,-2.32975 -0.464802,-2.18341 -15.3541,-1.75244 -6.258893,-10.00208 -10.31433,-1.44755 2.122092,-4.77238 8.15673,-0.005 6.813935,-7.84922 2.622267,4.0885 -2.59507,6.65817 20.267238,8.24522 -8.985295,6.59264 -8.826577,7.56707 0.598079,0.18211 -7.517194,8.50441 0.852605,5.03314 0.366643,-9.20185 19.247632,4.23112 7.172566,0.0402 -14.977598,4.45684 9.700113,3.12287 11.444508,7.47496 7.249588,-3.77153 2.343985,7.2356 -7.14712,-1.21538 -9.792499,-2.49132 -1.527156,3.33624 -8.561885,6.98653 14.680331,-0.91855 -0.402133,9.76637 -2.208423,-0.34252 -7.211389,-2.637 -23.385416,-11.27074 -9.607219,-1.38452 6.924141,3.77578 10.473213,16.36161 18.281122,7.45846 -1.663022,5.08614 3.793615,18.52523 2.177994,6.54534 4.413432,1.9926 18.024377,-0.16496 21.392771,7.0324 -0.152337,8.2107 -10.027937,1.57418 0.749791,10.10093 -0.11574,-17.0841 4.3602,-8.2511 10.74444,-6.36138 -4.80012,-5.39962 -15.716138,-11.3418 -20.967703,-12.63119 12.583633,1.68296 -0.543787,-6.05537 11.016233,0.30029 0.0722,-7.47745 5.13205,12.68676 12.55656,8.39968 -5.05512,8.07916 5.36834,9.14262 8.72928,14.91571 -5.54063,3.37169 -11.66509,-13.87657 -14.71205,-4.19081 -15.247901,-3.8797 6.84048,4.68165 7.11616,9.34581 9.17914,-2.30359 4.66948,10.59112 0.0231,2.56245 4.3581,7.73348 7.36917,2.83817 12.54984,10.42727 0.83569,-6.85382 7.23876,2.23 1.6847,2.03115 13.20399,3.50592 -16.29785,-2.92147 -3.73698,7.81027 7.946,5.07219 4.92304,3.36917 -0.262,3.09174 9.69409,4.05454 7.42104,14.3732 1.95615,3.50236 0.79545,8.4472 9.93983,10.95974 -3.94613,6.98254 -6.07517,-2.32844 1.01394,7.78751 -6.07299,6.00962 3.49671,1.55645 -4.56187,1.8291 -2.20145,6.80784 l -1.41788,-1.575 -1e-5,2e-5 z m -0.85341,-5.625 c 8.05599,-9.41233 -4.19412,-4.33511 0,0 z m 12.725,-7.875 c -4.29946,-8.39247 -4.87542,3.17699 0,0 z M 117,270.85683 c -1.91514,-5.33736 -3.50645,5.62695 0,0 z m -15.0081,-0.18182 c -2.312699,-10.62419 -3.959387,2.63742 0,0 z m 10.5081,-1.0061 c -3.92812,-14.64964 -2.68626,8.76442 0,0 z m 7.78112,-4.31063 c -5.73704,-3.08132 -9.9071,-12.85568 -13.22612,-3.44449 6.43104,4.87938 -1.41816,-8.92605 6.79502,2.68622 -4.45216,1.36743 5.41772,5.27478 6.4311,0.75827 z M 107.1,265.575 c -4.15918,-12.07765 -9.355457,2.55371 0,0 z m 11.15567,-6.74628 c 4.49252,-5.81529 -3.39632,1.92043 0,0 z m -7.2302,-1.87871 c 0.24765,-9.56675 -14.471822,-1.17197 -0.75118,0.4893 l 0.90199,0.82062 -0.15081,-1.30992 0,0 z M 94.725,255.90395 c -5.600517,-0.89282 -0.06979,1.55723 0,0 z m 6.38055,-1.93273 c -10.565354,-11.96926 -1.928728,7.53778 0,0 z M 115.2,251.2102 c 3.00742,-8.45355 -21.607689,-20.57063 -15.568281,-9.60759 7.651731,-8.81206 14.183821,16.19273 15.568281,9.60759 z m 9,2.19292 c -1.71962,-3.20352 -2.42096,1.60259 0,0 z m -13.5,-2.30311 c -2.07106,-3.12214 -3.28066,3.46338 0,0 z m 10.22547,-0.45 c -3.97517,-4.83842 -0.66006,4.56367 0,0 z m -31.22547,-1.8 c -1.82873,-4.70678 -1.82873,4.70678 0,0 z m 6.03453,0.63683 c -1.876176,-2.75487 -4.918601,1.08413 0,0 z m 8.12538,0.1732 c 3.65187,-10.12516 -9.257991,-1.07999 0,0 z M 108.9,246.60001 c -2.29945,-3.22871 -2.29945,3.22871 0,0 z m -22.125105,-2.12119 c -4.222117,-5.30634 1.41674,5.84654 0,0 z m 5.979915,1.27906 c 12.53669,0.45816 -4.0278,-3.65639 -2.156094,-0.1813 l 1.234623,-0.63172 0.921471,0.81302 0,0 z M 36.165,241.905 c -3.195909,-1.93169 2.238687,4.6691 0,0 z m 69.135,1.59812 c -1.71962,-3.20352 -2.42096,1.60259 0,0 z m -21.000213,-2.68731 c 3.775986,-9.36888 -2.338203,2.46962 0,0 z M 89.1,241.20001 c -2.47136,-3.35968 -0.815926,3.10427 0,0 z m 7.653933,-0.90636 c -7.476151,-12.62854 -14.560087,-10.37701 -1.944157,0.66102 l 0.483997,0.24534 1.46016,-0.90636 0,0 z m -59.128701,-2.61934 c -7.5301,-0.54297 3.049453,-10.18465 -5.385981,-1.52195 0.823371,1.62948 4.486072,4.65752 5.385981,1.52195 z M 27.45,237.60001 c -0.901603,-3.16877 -3.760097,3.11358 0,0 z m 19.8,0 c -4.766657,-3.28811 1.008961,3.10174 0,0 z m 35.73,-1.98 c 7.439817,-4.98287 -16.504469,-1.22676 0.6,1.08 l -0.6,-1.08 0,0 z m -50.250032,-4.20515 c 8.745541,-8.82913 -5.490031,-14.91847 -4.659057,-0.46993 l 1.088275,0.74652 3.570782,-0.27659 0,0 z M 84.6,227.75562 c -3.112738,-15.18947 -5.432492,3.85172 0,0 z m 21.27212,-1.41116 c -10.706313,-2.56231 8.71255,4.68322 0,0 z M 62.55,225.90001 c -3.760096,-3.11358 -0.901604,3.16877 0,0 z m 5.479557,-2.47045 c -3.349601,-0.20664 1.61254,6.73407 0,0 z M 79.65,225.00001 c 0.03933,-3.02633 -2.763022,2.99818 0,0 z m 27.90299,0.005 c -9.671785,-9.58204 0.24578,4.97678 0,0 z m -42.467269,-2.0295 c -3.131756,-12.55096 -1.433995,7.69619 0,0 z m 32.830976,0.26593 c -4.44926,-4.88244 2.157213,5.27194 0,0 z m -68.334828,-0.82042 c 0.182805,-9.04351 7.913639,-1.01928 0.835625,-11.49703 0.07835,-3.51551 -7.190077,-19.96877 -6.311588,-11.17007 5.18465,6.8691 -0.131858,22.07186 5.475963,22.6666 l 0,5e-4 z M 59.4,218.19574 c -4.605756,-4.65544 -2.834945,8.35312 0,0 z m 29.191715,2.39857 c -1.707925,-5.03736 -2.755732,2.78859 0,0 z M 68.4,218.70001 c -2.29945,-3.22871 -2.29945,3.22871 0,0 z m -42.341253,-2.77709 c -4.655618,-5.09341 2.560038,6.09214 0,0 z M 56.7,215.10001 c 3.07291,-3.13517 -7.262218,3.35485 0,0 z m 8.455918,-0.675 c 7.30719,0.70709 -10.469756,-7.31126 -1.80549,1.00437 0.634915,0.16512 2.93568,-3.96196 1.80549,-1.00437 z M 48.653237,206.8431 c -3.953217,-2.8479 0.731827,9.49039 0,0 z M 60.3,209.73 c -4.657664,-7.06062 -4.708306,1.73327 0,0 z m -27.20625,-1.99874 c -4.086601,-4.91144 -0.531082,3.7769 0,0 z M 38.7,207.90001 c -2.071049,-3.12215 -3.280635,3.46337 0,0 z m 5.175661,-5.54015 c -3.884308,-12.83815 -14.990704,5.23645 -3.847518,-0.96506 1.322769,0.80682 5.311703,7.11744 3.847518,0.96506 z M 54.111679,200.46 c -2.991243,-2.32941 2.845937,4.90904 0,0 z M 34.70355,195.95804 c -8.141536,-11.25795 3.59444,10.88506 0,0 z m 28.087584,2.04197 c -8.348306,-7.82933 3.93954,7.07331 0,0 z m -33.665671,-2.25 c -4.286897,-4.83683 1.151009,4.80196 0,0 z m 37.230589,-2.3327 c -15.724297,-6.66651 0.438878,3.02801 0,0 z M 29.025,192.37501 c -5.47991,-6.26653 -5.122391,4.13666 0,0 z m 15.462812,-1.67562 c 1.997958,-5.98313 -3.843458,1.61886 0,0 z m 11.968438,0.45686 c -3.313403,-1.0207 -1.6533,1.56746 0,0 z m 15.3,-3.6 c -3.313403,-1.0207 -1.6533,1.56746 0,0 z m -19.367961,-3.39627 c -7.354321,-10.91338 -13.111151,1.27818 -1.560127,-0.18177 -8.097873,-1.66663 -1.0583,4.77731 1.560127,0.18177 z M 61.2,183.39352 c -2.88552,-0.6784 -2.887904,4.0996 0,0 z m -1.875,-1.33884 c -3.950274,-0.82351 -3.792732,4.84194 0,0 z M 10.965,176.205 c -3.4940829,-2.45853 2.187366,5.58399 0,0 z m 17.278401,-1.20174 C 25.574628,168.19033 24.885107,172.87645 18,168.75 c 2.189874,2.98082 7.612601,8.67835 10.243401,6.25326 z m 3.508056,-2.46039 c -1.246708,-4.95122 -4.986979,4.5377 0,0 z m 41.91963,-0.54414 c 2.237087,-3.9424 -6.710333,2.47671 0,0 z M 30.593839,164.25 c -6.431849,-6.73057 -1.671447,5.06422 0,0 z m 86.684511,-4.17088 c -5.87981,-8.55989 -9.08725,3.73789 0,0 z M 58.5,159.36599 c 5.925828,-4.72664 -7.856835,2.26388 0,0 z m 52.2,-0.53867 c -4.19571,-9.29187 -7.70532,3.19862 0,0 z M 33.3,157.5 c -0.815926,-3.10427 -2.47136,3.35968 0,0 z m 21.047351,-2.86608 c -6.460816,-3.30489 -8.247847,6.21157 0,0 z m 27.957806,-1.56136 c -0.297065,-5.60193 -12.648675,-1.58633 0,0 z m 7.171235,0.28115 c 2.632652,-7.27621 -12.726094,1.23805 0,0 l 0,0 z M 75.15,150.3 c -4.766661,-3.28812 1.008973,3.10176 0,0 z m 15.232644,-1.00899 c -4.635061,-1.38442 -0.973106,4.27761 0,0 z m -10.400653,-1.99882 c 1.227306,-6.84596 -5.69003,5.01126 0,0 z m 5.020502,-2.46906 c -4.068189,-1.71214 -0.287955,4.40439 0,0 z M 120.05371,288.3764 c -1.19791,-13.94075 4.12422,8.96897 0,0 z m -32.192824,-0.86196 c 0.01612,-8.38902 6.883384,2.86719 0,0 z M 103.26,285.18833 c 4.83195,-2.68145 -2.19302,2.76599 0,0 z M 83.7,283.78481 c -7.460951,-3.63944 10.614912,2.34499 0,0 z m 41.06702,0.48268 c -5.34426,-7.30183 15.64643,-2.61129 1.23296,-1.76377 2.29737,1.32051 2.19969,4.29237 -1.23296,1.76377 z M 130.5,283.50001 c 2.47137,-3.35968 0.81591,3.10427 0,0 z m -43.2,-2.25 c -9.260989,3.54432 -4.584469,-15.44058 0.494623,-12.44178 -7.34476,-5.62752 -10.604312,-10.83084 -0.494623,-4.41467 5.575037,4.14913 0.0071,13.3662 0,16.85645 z m 2.584318,-0.675 c -1.039046,-4.93318 5.553518,5.34504 0,0 z m -27.796849,-3.95999 c -15.634512,-12.78183 -0.100438,-2.5091 5.325001,3.67252 l -1.724075,-0.91895 -3.600925,-2.75357 -1e-6,0 z m 17.977175,-6.20761 c -7.102535,-3.34575 -13.449594,-10.10817 -11.175261,-1.67776 -5.301396,-7.13406 0.347464,-6.52374 -7.347575,-15.18347 -5.928651,-7.20001 -15.496266,-26.46868 -5.369603,-29.97044 -2.725644,3.8259 7.118713,11.54089 6.238288,10.5784 6.345859,8.38738 -1.912679,0.0509 -3.800288,5.24587 -0.313685,10.15817 4.21437,-7.58661 4.473927,5.80439 -2.303529,7.13382 9.356628,7.29867 1.37209,8.59556 4.418517,8.4198 11.305745,8.51552 16.543786,13.13428 2.150116,1.00747 2.782961,7.47542 -0.935364,3.47317 z M 56.7,237.60001 c -0.815926,-3.10427 -2.47136,3.35968 0,0 z m 3.6,-2.15371 c -3.708646,-3.42239 -3.295383,1.80401 0,0 z m -5.4,-10.44629 c -0.815926,-3.10427 -2.47136,3.35968 0,0 z m 36,40.5 c 2.29945,-3.22871 2.29945,3.22871 0,0 z M 57.3,264.9 c -2.788885,-5.12108 3.840504,1.85912 0,0 z m 70.725,-1.80697 c -8.23229,-13.25126 9.47494,5.46854 0,0 z m -42.084073,-2.1077 c -6.635634,-2.46209 6.657815,1.69261 0,0 z M 58.5,259.20001 c 2.47136,-3.35968 0.815926,3.10427 0,0 z m -6.716336,-0.95447 c 5.173817,-3.06633 2.48707,2.87338 0,0 z m 30.29179,-2.19553 c 0.404687,-5.13242 0.872117,5.55726 0,0 z m -23.952656,-0.13483 c -9.596762,-4.45461 8.012018,-1.31024 0,0 l 0,0 z m 9.331338,0.0796 c 1.597064,-8.67501 9.993809,-0.18503 3.013767,-0.0948 0.774068,1.87124 -3.191687,1.21739 -3.013767,0.0948 z m 11.21434,0.2126 c -1.189624,-7.68383 4.602059,3.42595 0,0 z m 5.663621,-3.00735 c 2.250342,-3.75166 1.149772,4.0877 0,0 z m 49.048133,-0.72529 c -4.32091,-12.22813 2.12157,-3.16168 3.6683,-7.55576 0.10455,2.03554 -0.36881,14.56813 -3.6683,7.55576 z M 135.9,251.10001 c -2.47137,-3.35968 -0.81591,3.10427 0,0 z m -89.587007,0.84012 c 0.55785,-5.98048 20.140292,0.21104 0,0 z M 72.9,252.00001 c -5.355054,-6.14846 -13.040871,-2.51066 -1.623468,-6.67004 -0.596117,-8.12887 8.048618,9.02713 3.482233,6.29086 1.79073,0.87205 -1.480765,3.02685 -1.858765,0.37918 z m -0.45,-4.5 c 0.03933,-3.02633 -2.763022,2.99818 0,0 z m 3.595007,-2.70552 c -3.952545,-7.01219 6.369239,5.55857 0,0 l 0,0 z M 66.6,244.00623 c 2.641035,-5.211 1.93856,2.39817 0,0 z m -2.510484,-1.547 c -2.122262,-3.88408 4.553864,3.35098 0,0 z M 133.2,243.00001 c -2.57766,-3.25494 5.00259,2.94782 0,0 z m -62.775,-2.72805 c -7.232693,-5.66051 8.288054,2.84289 0,0 z m 63.16321,-1.49179 c -1.21333,-9.2116 -4.64658,-8.58313 8.07079,-4.40867 -11.90178,1.11662 -1.9538,9.48831 -8.07079,4.40867 z m 4.5988,-3.94004 c 1.11451,-4.92683 -4.63663,4.33016 0,0 z m -0.037,5.45988 c 1.219,-3.64396 4.86627,3.82873 0,0 z M 145.5,240.6 c -0.068,-7.35252 16.66775,-3.57508 1.1295,0.49479 L 145.5,240.6 Z m -4.32302,-1.83267 c -1.7256,-4.31216 6.55455,1.32981 0,0 z M 123.3,238.50001 c 5.99893,-5.63128 3.47397,1.432 0,0 z m 6.75,-0.9 c 4.13843,-3.20056 0.0583,3.07421 0,0 z m 24.99254,-0.54254 c -3.2e-4,-6.41931 7.61128,-4.4937 -6.65291,-8.78091 -5.16091,-1.66061 -24.91195,3.4765 -8.95904,-1.89064 10.7504,-5.90958 20.75955,8.62667 26.18707,-1.91054 5.379,-1.7383 -9.15032,-2.23116 -5.59794,1.39602 -12.84332,-2.74314 5.68153,-4.44669 -6.68579,-8.7053 7.69481,8.07572 23.92275,3.48805 18.08441,0.28743 -2.6185,0.0414 5.92214,-8.26477 -5.63392,-8.48747 7.47722,1.80749 10.21282,2.36331 14.71902,1.33875 -5.32456,3.34348 16.74337,-7.79172 8.35329,2.00699 -19.99907,0.54885 18.40577,6.41402 -3.1067,10.8265 -10.71947,6.06995 -20.20023,9.95465 -25.00916,8.55826 -0.27695,1.57902 -3.98295,8.48197 -5.69833,5.36091 z m 2.90746,-2.15746 c 0.0755,-3.44821 -4.11595,3.63184 0,0 z m 14.0798,-8.325 c 14.97057,-0.68154 -11.21245,-1.91074 0,0 z M 180.9,220.1463 c -3.70865,-3.42239 -3.29538,1.80401 0,0 z m -4.08844,-1.3841 c -1.15215,-5.83407 -2.32469,3.85023 0,0 z m 6.33844,-0.96219 c -10.67333,-5.15613 2.66441,3.67435 0,0 z m -6.75,-3.09689 c -1.71962,-3.20352 -2.42096,1.60259 0,0 z M 67.571052,233.47501 c 0.579002,-3.46858 0.912881,4.0964 0,0 z M 127.8,233.49689 c -4.02881,-3.07343 -6.61474,-8.93606 0.5464,-1.66813 0.11102,0.76127 0.33631,5.40405 -0.5464,1.66813 z m 16.21286,0.13026 c 4.32051,-1.65031 0.21085,3.15098 0,0 z M 65.4,233.4 c -2.763755,-4.50103 3.562534,0.91841 0,0 z m 76.35,-1.61526 c 6.15283,-7.87105 12.1717,3.12725 -1.22833,1.13321 l 1.22833,-1.13321 0,0 z M 48.6,229.44689 c 1.490212,-2.01077 2.250293,3.08182 0,0 z m 15.3,-0.39688 c 0.358709,-4.93586 2.87196,5.06862 0,0 z m 55.35,-2.25 c 2.27062,-3.4514 3.85685,2.92686 0,0 z m 73.35,0.55496 c 6.43421,-3.72076 1.93271,1.76381 0,0 z m 4.5,-2.40808 c 1.49021,-2.01077 2.25029,3.08182 0,0 z m -82.35,-0.84688 c 6.85963,-3.54711 2.23425,3.53994 0,0 z m 31.6953,-0.26558 c -4.47522,-6.76855 4.37491,-1.77678 0,0 z m -7.32794,-0.52543 c -0.0184,-4.0569 5.78854,1.03939 0,0 z m -4.61516,-0.93166 c -2.12141,-9.03448 9.36119,-3.84218 0,0 z M 123.06,216.78832 c 4.83195,-2.68143 -2.19304,2.766 0,0 z m 71.60892,-0.26184 c 13.67859,-9.0187 8.03925,2.611 0,0 z M 97.65,216.00001 c 3.7601,-3.11358 0.901595,3.16877 0,0 z m 64.28667,0.0595 c 1.24258,-7.5063 -5.64036,-8.74261 5.9305,-1.85031 5.51293,2.52773 -6.17383,3.49434 -5.9305,1.85031 z M 158.85,213.86276 c -7.87608,-7.55291 10.92036,4.6708 0,0 z m 36.13278,-0.77759 c 8.11138,-4.62558 2.38247,3.33387 0,0 z M 84.746879,211.56804 c -14.319908,-5.59599 9.784645,-7.03636 2.553121,-0.96803 4.403681,0.3765 -0.321824,6.06467 -2.553121,0.96803 z M 125.55,212.47568 c -9.92836,-2.80858 11.4881,0.98862 0,0 z m 22.05,-1.01785 c 5.15678,-3.70082 9.40599,3.61778 0,0 z m -44.1,-1.75782 c 2.47137,-3.35968 0.81591,3.10427 0,0 z m -32.887007,-0.95988 c 0.614305,-5.39655 5.30211,3.31782 0,0 z M 90.45,207.90001 c 1.219003,-3.64396 4.86626,3.82873 0,0 z m 7.2,0 c -0.03934,-3.02633 2.76303,2.99818 0,0 z M 162,207.02825 c 2.44567,-1.82885 3.28297,2.85472 0,0 z m -24.54,-1.03993 c 4.83195,-2.68143 -2.19304,2.766 0,0 z M 105.3,205.7463 c 2.71211,-2.96915 2.74309,1.22176 0,0 z m -17.1,-1.34133 c 5.336895,-4.93768 2.588613,3.38705 0,0 z m 90.45637,-0.0947 c -0.99892,-3.06658 3.98847,-4.8095 1.78871,0.86111 l -1.78871,-0.86109 0,-2e-5 z M 100.62,203.22001 c 5.63788,-2.13726 -0.11811,4.05704 0,0 z m 52.83,0.18 c 4.13843,-3.20056 0.0583,3.07421 0,0 z m 10.125,-1.25285 c -4.4206,-5.15322 2.03567,-2.49601 1.71548,1.07215 L 163.575,202.14716 Z M 139.5,201.48291 c -0.18535,-2.09745 20.8346,-9.52984 11.47886,-3.63866 -1.17925,2.74255 -8.27673,5.82424 -11.47886,3.63866 z m 4.95,-1.6829 c 0.0394,-3.02633 -2.76304,2.99818 0,0 z m -70.06875,-0.0438 c 9.224058,-5.32236 -6.467133,5.78009 0,-1e-5 l 0,1e-5 z m 4.279232,-1.85635 c 5.99113,-5.54453 8.07606,8.2437 0,0 z M 90.9,199.80001 c 5.794667,-3.93706 4.711909,3.65615 0,0 z m 27.9,-0.98426 c 4.60469,-5.67487 5.38472,0.58795 0,0 z m 40.05637,0.0946 c 0.67119,-2.10512 3.80888,3.30022 0,0 z m -60.975763,-1.50823 c 1.037311,-4.70875 2.313143,2.54246 0,0 z M 168.75,197.10001 c -4.54009,-6.50293 9.99281,1.86987 0,0 z m 14.13951,-0.54447 c -1.96188,-4.41729 5.71722,3.33139 0,0 z M 136.8,196.20001 c 2.47137,-3.35968 0.81591,3.10427 0,0 z m -44.1,-2.18572 c 2.794949,-7.51012 1.885902,5.85482 0,0 l 0,0 z m 36.9,1.28572 c -3.07291,-3.13517 7.26222,3.35485 0,0 z m -20.30222,-0.9845 c 11.08376,-10.83248 10.66903,-1.31224 0,0 z M 126,194.5395 c 3.15418,-8.46206 16.38868,-0.69632 1.66984,-0.4717 l -1.2063,0.80312 L 126,194.5395 Z m 35.10702,0.0662 c 6.14326,-5.3081 5.88574,-0.17209 0,0 z M 84.6,193.50001 c 2.47136,-3.35968 0.815926,3.10427 0,0 z m 72.45,0 c 0.90153,-3.16878 3.76015,3.11357 0,0 z M 117,192.98949 c 5.04432,-7.3436 6.3376,0.56949 0,0 z m 60.3,-0.38948 c -2.57767,-3.25498 5.00258,2.94784 0,0 z m -71.1,-0.70371 c 4.56404,-3.09291 6.10396,2.38328 0,0 z m 45,-0.19629 c 2.29945,-3.22871 2.29945,3.22871 0,0 z M 147.3,191.1 c -2.24473,-5.0865 4.56818,1.92449 0,0 z m -11.83369,-1.17361 c 4.18639,-6.19005 8.45915,3.64622 0,0 z m -46.183006,-1.86732 c -2.497621,-5.49205 4.612358,5.02142 0,0 z M 104.85,189.00001 c 2.76304,-2.99818 -0.0393,3.02633 0,0 z m 2.25,-0.0531 c 1.4902,-2.01078 2.25031,3.08181 0,0 z m -27,-1.25013 c -5.496684,-6.52396 6.908218,2.24198 0,0 z m 62.1,0.40323 c 2.29945,-3.22871 2.29945,3.22871 0,0 z m 3.825,-1.53516 c -6.13137,-3.9052 9.02646,-0.78106 0,0 z m -40.275,-0.92336 c 9.09609,-4.89474 -2.35338,2.99115 0,0 z m 29.78799,-0.004 c -1.69998,-4.90771 6.23284,0.93854 0,0 z M 92.925,183.00395 c -6.812381,-8.98038 7.70542,1.95603 0,0 z m 39.6,-0.0675 c -2.47818,-3.42586 -22.17359,-0.64326 -4.725,-2.79802 8.84231,-0.54677 31.72876,-2.93383 26.49062,0.66546 -6.34605,1.50131 -14.53923,2.35944 -21.76562,2.13256 z m 4.93125,-2.58023 c -3.3134,-1.0207 -1.6533,1.56746 0,0 z m -51.049667,0.53805 c 8.036195,-3.17003 -6.010301,5.75536 0,3e-5 l 0,-3e-5 z m 10.438277,-0.14778 c 5.17969,-3.05077 -0.545153,-7.2611 7.96923,-5.7583 -4.60247,4.58581 2.02853,7.6914 -7.96923,5.7583 z M 106.2,180.9 c 2.29945,-3.22871 2.29945,3.22871 0,0 z m 2.7,-0.10752 c 7.69867,-7.14301 0.42277,-1.00338 7.65587,-1.33454 0.80928,2.62482 -6.39129,2.51983 -7.65587,1.33454 z m -24.46875,-2.30727 c 5.03148,-0.77694 -1.547458,1.54287 0,0 z M 42.63453,176.1357 c 9.802457,-3.47308 11.048286,1.43285 0,0 l 0,0 z M 94.5,176.4 c 2.29945,-3.22871 2.29945,3.22871 0,0 z m -39.6,-1.88425 c 4.302063,-2.69569 3.415617,1.7459 0,0 z m 5.675559,-1.39495 c -2.744337,-5.96896 5.611325,0.90494 0,0 z M 82.5,173.10001 c -1.924463,-4.56816 5.086511,2.24474 0,0 z m 31.83557,-0.25897 c 0.71119,-2.81149 6.8618,1.7599 0,0 z m 88.33693,-1.90853 c 4.09354,-4.32392 6.02509,2.93865 0,0 z M 43.5776,169.98286 c -0.890901,-2.78573 7.58026,2.68147 0,0 z M 56.374537,169.65 c 3.511866,-5.67297 17.501111,-6.51257 1.922248,1.17508 l -1.151495,-0.0857 -0.770753,-1.08937 0,0 z M 137.7,169.2 c -2.57766,-3.25495 5.00259,2.94784 0,0 z m -47.38752,-4.05122 c -2.555763,-8.40897 9.486218,2.77105 0,0 z m 5.415966,0.25455 c 3.840168,-2.76764 5.578774,3.11507 0,0 z M 79.2,162.7752 c 7.465261,-9.65636 22.961,-3.83362 0,0 z m -39.872011,-1.34721 c 0.392822,-5.03721 12.471197,2.03537 0,0 z M 63.45,161.1 c 3.760096,-3.11358 0.901604,3.16877 0,0 z m 149.85,-1.85311 c 1.4902,-2.01078 2.25031,3.08181 0,0 z m 67.5,-15.9756 c 4.20071,-5.22949 2.32352,2.71475 0,0 z M 290.25,136.8 c 2.76304,-2.99818 -0.0394,3.02633 0,0 z m -9.17925,-3.02707 c 6.5296,-6.59201 14.32388,0.0329 0,-1.5e-4 l 0,1.5e-4 z m 11.97554,-2.89654 c 5.25155,-12.13598 27.46046,-10.4935 39.71865,-17.47639 17.90923,-6.29241 3.85833,1.59016 -0.14456,5.13239 6.06561,1.81643 -27.05405,-1.42707 -17.62038,8.36761 -10.5505,-4.64216 -16.64713,4.0846 -19.98635,1.45929 6.38823,-1.60609 -4.31238,2.12424 -1.96736,2.5171 z M 343.8,112.05 c 6.18401,-7.86585 5.28032,3.59819 0,0 l 0,0 z m 9.0665,0.0801 c -1.96571,-6.17537 4.35993,4.33509 0,0 z m -3.30768,-5.25512 c 16.74238,-4.41779 27.77439,-11.629137 44.64147,-18.578715 9.5011,-4.003246 20.53354,-9.644905 32.15907,-15.898561 10.85726,-10.108248 38.51977,5.792474 36.44971,8.923028 -8.59961,-7.00379 -23.66746,-4.938856 -30.118,0.916768 -9.87697,-2.287631 -38.78652,19.35161 -35.84507,11.01439 -7.44986,-0.143891 -12.13866,5.242414 -20.21143,6.567966 -4.71412,1.534654 -3.18412,1.025414 -9.24467,4.467514 -5.84394,0.22112 -12.45815,5.3908 -17.83108,2.58761 z m 28.93869,-2.39814 c 0.28795,-4.40437 4.06818,1.71214 0,0 z M 390.6,99.900003 c 2.29944,-3.228705 2.29946,3.228697 0,0 z m 37.91738,-4.307391 c -12.94768,-7.860415 7.85234,-12.427867 0,0 z M 411.3,93.600003 c 3.89425,-3.467457 4.39236,3.668554 0,0 z m 21.6,-2.753119 c 1.49021,-2.010769 2.25029,3.081822 0,0 z m 32.60086,-2.421882 c 0.95521,-8.043506 1.85041,9.853185 0,0 z M 459,84.571756 c 4.82926,-6.430829 5.49043,4.274473 0,0 z m -21.15,-1.771754 c 2.76304,-2.998176 -0.0394,3.026333 0,0 z"
       id="path4148"
       inkscape:connector-curvature="0" />
  </g>
</svg>
