<?xml version="1.0" encoding="UTF-8" standalone="no"?>
<!-- Created with Inkscape (http://www.inkscape.org/) -->

<svg
   xmlns:dc="http://purl.org/dc/elements/1.1/"
   xmlns:cc="http://creativecommons.org/ns#"
   xmlns:rdf="http://www.w3.org/1999/02/22-rdf-syntax-ns#"
   xmlns:svg="http://www.w3.org/2000/svg"
   xmlns="http://www.w3.org/2000/svg"
   xmlns:sodipodi="http://sodipodi.sourceforge.net/DTD/sodipodi-0.dtd"
   xmlns:inkscape="http://www.inkscape.org/namespaces/inkscape"
   id="svg4136"
   version="1.1"
   inkscape:version="0.91 r13725"
   width="69.811783"
   height="139.27925"
   viewBox="0 0 69.811783 139.27925"
   sodipodi:docname="home.svg">
  <metadata
     id="metadata4142">
    <rdf:RDF>
      <cc:Work
         rdf:about="">
        <dc:format>image/svg+xml</dc:format>
        <dc:type
           rdf:resource="http://purl.org/dc/dcmitype/StillImage" />
        <dc:title />
      </cc:Work>
    </rdf:RDF>
  </metadata>
  <defs
     id="defs4140">
    <filter
       style="color-interpolation-filters:sRGB"
       inkscape:label="Drop Shadow"
       id="filter4906">
      <feFlood
         flood-opacity="0.498039"
         flood-color="rgb(0,0,0)"
         result="flood"
         id="feFlood4908" />
      <feComposite
         in="flood"
         in2="SourceGraphic"
         operator="in"
         result="composite1"
         id="feComposite4910" />
      <feGaussianBlur
         in="composite1"
         stdDeviation="4.2"
         result="blur"
         id="feGaussianBlur4912" />
      <feOffset
         dx="4.4"
         dy="6.2"
         result="offset"
         id="feOffset4914" />
      <feComposite
         in="SourceGraphic"
         in2="offset"
         operator="over"
         result="composite2"
         id="feComposite4916" />
    </filter>
  </defs>
  <sodipodi:namedview
     pagecolor="#ffffff"
     bordercolor="#666666"
     borderopacity="1"
     objecttolerance="10"
     gridtolerance="10"
     guidetolerance="10"
     inkscape:pageopacity="0"
     inkscape:pageshadow="2"
     inkscape:window-width="684"
     inkscape:window-height="404"
     id="namedview4138"
     showgrid="false"
     inkscape:zoom="5.3455776"
     inkscape:cx="6.758673"
     inkscape:cy="63.945038"
     inkscape:window-x="503"
     inkscape:window-y="145"
     inkscape:window-maximized="0"
     inkscape:current-layer="svg4136"
     fit-margin-top="0"
     fit-margin-left="0"
     fit-margin-right="0"
     fit-margin-bottom="0" />
  <g
     id="g4402"
     style="filter:url(#filter4906)"
     transform="translate(5.8691295,11.422649)">
    <path
       style="fill:#c9d9ea"
       d="m 23.4375,115.3125 c -5.113644,-1.47278 -10.733518,-0.76429 -16.0810383,-0.9375 -2.4521539,0 -4.9043078,0 -7.3564617,0 C 0,86.248246 0,58.121491 0,29.994737 9.6629663,20.044414 19.066753,9.8279199 29.049688,0.19937114 33.749578,2.8112432 37.141189,7.3995346 41.075829,11.035114 46.81688,16.940707 52.447037,22.952586 58.125,28.918569 c 0,28.485477 0,56.970954 0,85.456431 -7.427352,0.18943 -14.958327,-0.52426 -22.298584,0.73273 -3.450132,1.77331 -8.79177,1.48425 -12.388916,0.20477 z"
       id="path4448"
       inkscape:connector-curvature="0" />
    <path
       style="fill:#abc3de"
       d="m 23.4375,115.3125 c -5.113644,-1.47278 -10.733518,-0.76429 -16.0810383,-0.9375 -2.4521539,0 -4.9043078,0 -7.3564617,0 C 0,86.248246 0,58.121491 0,29.994737 9.6629663,20.044414 19.066753,9.8279199 29.049688,0.19937114 33.749578,2.8112432 37.141189,7.3995346 41.075829,11.035114 46.81688,16.940707 52.447037,22.952586 58.125,28.918569 c 0,28.485477 0,56.970954 0,85.456431 -7.427352,0.18943 -14.958327,-0.52426 -22.298584,0.73273 -3.450132,1.77331 -8.79177,1.48425 -12.388916,0.20477 z M 13.125,98.90625 c 4.371485,-4.629001 -2.14858,0.228071 -2.670589,2.34375 1.040887,-0.5958 1.842881,-1.497228 2.670589,-2.34375 z m 33.75,0 c 4.371485,-4.629001 -2.14858,0.228071 -2.670589,2.34375 1.040887,-0.5958 1.842881,-1.497228 2.670589,-2.34375 z M 11.777727,95.390625 c 0.73689,-0.87177 4.099302,-4.369062 1.597641,-2.002281 -1.562442,1.136622 -7.08773,6.831786 -3.184674,3.702758 0.539297,-0.557115 1.066957,-1.125409 1.587033,-1.700477 z m 33.75,0 c 0.73689,-0.87177 4.099302,-4.369062 1.597641,-2.002281 -1.562442,1.136623 -7.08773,6.831786 -3.184673,3.702758 0.539296,-0.557116 1.066956,-1.125409 1.587032,-1.700477 z"
       id="path4446"
       inkscape:connector-curvature="0" />
    <path
       style="fill:#a2bddb"
       d="m 23.4375,115.3125 c -5.113644,-1.47278 -10.733518,-0.76429 -16.0810383,-0.9375 -2.4521539,0 -4.9043078,0 -7.3564617,0 C 0,86.248246 0,58.121491 0,29.994737 9.6629663,20.044414 19.066753,9.8279199 29.049688,0.19937114 33.749578,2.8112432 37.141189,7.3995346 41.075829,11.035114 46.81688,16.940707 52.447037,22.952586 58.125,28.918569 c 0,28.485477 0,56.970954 0,85.456431 -7.427352,0.18943 -14.958327,-0.52426 -22.298584,0.73273 -3.450132,1.77331 -8.79177,1.48425 -12.388916,0.20477 z M 13.598951,99.369253 c 4.507054,-5.57432 -6.2002248,0.497744 -2.306521,1.790437 0.926975,-0.3699 1.643363,-1.07572 2.306521,-1.790437 z m 33.75,0 c 4.507054,-5.57432 -6.200225,0.497744 -2.306521,1.790437 0.926975,-0.3699 1.643363,-1.07572 2.306521,-1.790437 z M 12.184028,96.097444 C 17.59658,90.203948 6.5048574,95.643957 9.0391083,98.418411 10.345055,98.123658 11.259713,96.97507 12.184028,96.097444 Z m 33.749999,0 c 5.412554,-5.893495 -5.679169,-0.453488 -3.144919,2.320967 1.305947,-0.294753 2.220604,-1.443341 3.144919,-2.320967 z"
       id="path4444"
       inkscape:connector-curvature="0" />
    <path
       style="fill:#9fbbda"
       d="m 23.4375,115.3125 c -5.113644,-1.47278 -10.733518,-0.76429 -16.0810383,-0.9375 -2.4521539,0 -4.9043078,0 -7.3564617,0 C 0,86.248246 0,58.121491 0,29.994737 9.6629663,20.044414 19.066753,9.8279199 29.049688,0.19937114 33.749578,2.8112432 37.141189,7.3995346 41.075829,11.035114 46.81688,16.940707 52.447037,22.952586 58.125,28.918569 c 0,28.485477 0,56.970954 0,85.456431 -7.427352,0.18943 -14.958327,-0.52426 -22.298584,0.73273 -3.450132,1.77331 -8.79177,1.48425 -12.388916,0.20477 z M 13.514642,99.711844 c 1.957277,-0.372405 3.017441,-4.092195 -0.11149,-2.669457 -3.753444,1.348574 -4.0014888,7.974913 0.11149,2.669457 z m 34.576,-0.845438 c 3.734781,-6.908909 -9.493505,5.166744 -1.968672,2.168784 0.75798,-0.62235 1.388752,-1.382887 1.968672,-2.168784 z m -34.31429,-5.715054 c -3.680846,-0.671195 -7.7220725,9.240298 -2.340054,3.657542 0.865321,-1.061041 2.36089,-2.175143 2.340054,-3.657542 z m 33.75,0 c -3.680846,-0.671195 -7.722072,9.240298 -2.340054,3.657542 0.865321,-1.061041 2.36089,-2.175143 2.340054,-3.657542 z M 32.558594,66.933593 c -3.453666,-1.054846 -1.457609,1.699252 0,0 z"
       id="path4442"
       inkscape:connector-curvature="0" />
    <path
       style="fill:#f4c400"
       d="m 23.4375,115.3125 c -5.113644,-1.47278 -10.733518,-0.76429 -16.0810383,-0.9375 -2.4521539,0 -4.9043078,0 -7.3564617,0 C 0,86.248246 0,58.121491 0,29.994737 9.6629663,20.044414 19.066753,9.8279199 29.049688,0.19937114 33.749578,2.8112432 37.141189,7.3995346 41.075829,11.035114 46.81688,16.940707 52.447037,22.952586 58.125,28.918569 c 0,28.485477 0,56.970954 0,85.456431 -7.427352,0.18943 -14.958327,-0.52426 -22.298584,0.73273 -3.450132,1.77331 -8.79177,1.48425 -12.388916,0.20477 z m -7.5,-18.28125 c -0.385597,-1.540881 0.792147,-4.645103 -0.623184,-5.15625 -2.292272,0 -4.584544,0 -6.876816,0 0,3.4375 0,6.875 0,10.3125 2.5,0 5,0 7.5,0 0,-1.71875 0,-3.4375 0,-5.15625 z m 33.75,0 c -0.385597,-1.540881 0.792147,-4.645103 -0.623184,-5.15625 -2.292272,0 -4.584544,0 -6.876816,0 0,3.4375 0,6.875 0,10.3125 2.5,0 5,0 7.5,0 0,-1.71875 0,-3.4375 0,-5.15625 z M 28.125,73.59375 c -5.032036,-5.762669 -3.061059,5.213732 0,0 z m 5.026524,0 c -0.659489,-4.54725 -5.751022,2.745675 -0.764735,0.993164 l 0.45216,-0.447144 0.312575,-0.54602 z M 28.125,68.4375 c -3.453553,-7.420813 -5.25177,7.692989 0,0 z m 5.625,1.482925 c 0.602287,-5.040463 -6.427874,-2.923783 -2.695312,0.274887 0.871292,0.155128 1.919496,0.24658 2.695312,-0.274887 z"
       id="path4440"
       inkscape:connector-curvature="0" />
    <path
       style="fill:#ecbd00"
       d="m 23.4375,115.3125 c -5.113644,-1.47278 -10.733518,-0.76429 -16.0810383,-0.9375 -2.4521539,0 -4.9043078,0 -7.3564617,0 0,-8.44391 0,-16.887819 0,-25.331729 1.972218,-3.253698 5.2133146,-6.100264 5.6389409,-9.99521 -1.9938247,-2.977972 -7.2848941,4.787075 -3.953153,-1.117853 0.8999269,-1.390006 5.9386414,-6.090624 2.4643161,-5.282312 1.6449461,-2.991215 3.7241828,-4.116956 3.3733105,0.184128 0.8059027,5.971684 4.6577465,-2.824021 6.8645265,-4.062998 3.784309,-4.983831 8.009345,-9.841954 10.695601,-15.507041 1.606996,-1.716321 4.372952,-3.224703 3.591843,-6.477276 1.249847,-2.720034 -0.45648,-4.582195 0.893195,-7.349271 0.997103,-3.968284 0.154794,-7.631547 -0.874752,-11.405371 1.616443,-4.099036 1.291897,-7.616343 0.744057,-11.725959 -2.221593,-3.195714 2.17441,-7.5115723 0.215575,-10.5696818 0.865376,-1.3712028 -0.0829,-5.27049739 0.452884,-4.9741904 7.478411,6.0661482 13.792021,13.4689612 20.514684,20.3633302 2.501324,2.634543 5.002648,5.269085 7.503972,7.903627 0,28.449269 0,56.898538 0,85.347807 -7.427352,0.18943 -14.958327,-0.52426 -22.298584,0.73273 -3.450132,1.77331 -8.79177,1.48425 -12.388916,0.20477 z m -7.5,-18.28125 c -0.385597,-1.540881 0.792147,-4.645103 -0.623184,-5.15625 -2.292272,0 -4.584544,0 -6.876816,0 0,3.4375 0,6.875 0,10.3125 2.5,0 5,0 7.5,0 0,-1.71875 0,-3.4375 0,-5.15625 z m 33.75,0 c -0.385597,-1.540881 0.792147,-4.645103 -0.623184,-5.15625 -2.292272,0 -4.584544,0 -6.876816,0 0,3.4375 0,6.875 0,10.3125 2.5,0 5,0 7.5,0 0,-1.71875 0,-3.4375 0,-5.15625 z M 28.125,73.59375 c -5.032036,-5.762669 -3.061059,5.213732 0,0 z m 5.026524,0 c -0.659489,-4.54725 -5.751022,2.745675 -0.764735,0.993164 l 0.45216,-0.447144 0.312575,-0.54602 z M 28.125,68.4375 c -3.453553,-7.420813 -5.25177,7.692989 0,0 z m 5.625,1.482925 c 0.602287,-5.040463 -6.427874,-2.923783 -2.695312,0.274887 0.871292,0.155128 1.919496,0.24658 2.695312,-0.274887 z m -29.4003672,-0.7798 c 0.9260127,-1.621617 9.2405242,-8.783947 4.7581109,-3.917744 -0.869585,0.921088 -8.8679971,9.435381 -4.7581109,3.917744 z m 5.9729722,-2.180331 c 1.645842,-2.565127 6.706952,-8.88815 7.895503,-8.018993 -2.152924,2.875731 -4.570062,6.894423 -7.895503,8.018993 z M 6.4091522,61.5625 C 7.2569465,59.421329 15.309127,55.225032 10.937082,59.815808 7.3995228,59.554179 6.9966162,65.941982 3.5057076,65.304443 4.1505206,63.843944 5.3445917,62.716082 6.4091522,61.5625 Z M 15,65.271042 c 1.495957,-2.092343 4.192675,-3.322724 1.16625,-0.318303 -0.01239,0.07288 -1.20221,1.242986 -1.16625,0.318303 z M 8.163086,54.609375 c 2.508306,-2.5232 4.959017,-7.454508 1.7048571,-8.71102 4.7104509,-0.482091 4.4641559,-6.476203 7.0702329,-9.335855 2.795528,-1.878051 -3.197587,-1.234297 0.651216,-2.410609 2.316644,-0.560278 9.758063,-6.202664 4.792385,-0.845421 -0.822736,1.411812 -6.942997,7.507071 -2.914331,6.3198 -1.218169,3.010259 -8.546266,8.734895 -5.66958,10.146158 0.550527,-3.295687 5.732844,-4.778133 2.289412,-0.437333 -2.838031,4.234351 -5.846897,6.342978 -9.8675765,9.541764 -2.4595112,0.863278 1.9296002,-4.080526 1.9433845,-4.267484 z m 11.121314,2.68435 c 0.27243,-3.52959 3.252575,-2.095552 0.891134,0.714009 L 19.782881,57.94385 19.2844,57.293725 Z M 4.2064406,53.685802 C 5.6819104,51.795703 5.808939,46.526771 8.3440841,49.140082 13.711184,45.669988 4.295844,57.998638 3.5164425,55.098112 L 3.7996313,54.493967 4.2064406,53.685802 Z M 18.186274,51.328125 c -0.334595,-0.08463 5.817132,-2.900578 2.043834,0.174934 -0.556119,1.027469 -1.700518,1.21366 -2.043834,-0.174934 z M 22.5,45.46875 c 1.512098,-1.864892 5.072549,-4.717888 1.793658,-0.736383 -1.18777,2.452171 -6.545671,5.943657 -2.414411,1.395516 L 22.5,45.46875 l 0,0 z M 1.875,47.212728 C 5.5726824,44.421055 2.9584992,39.468883 7.7715941,36.724467 13.311891,34.044415 3.1584335,43.175675 9.321629,40.439115 7.9842129,42.723739 4.5973598,48.854622 1.875,47.212728 Z m 18.18494,-4.468831 c 0.543128,-2.679545 4.04298,-7.807718 6.087811,-6.983383 -2.414968,2.788804 -1.633314,6.156378 -5.23774,8.419038 -2.350906,2.548979 -0.929922,0.412401 -0.850071,-1.435655 z m 3.37756,-2.646491 c -1.940497,-1.04053 -4.10528,3.904339 -0.413086,0.830859 l 0.302124,-0.418639 0.110962,-0.41222 z M 3.5421278,36.473866 C 7.0256505,33.809268 3.8602984,28.683185 0.85809643,32.8125 0.63791258,29.354223 5.3206637,23.454387 8.9209515,24.160574 7.1812878,27.415599 7.0967822,33.926926 7.5,35.346949 5.8504968,34.110282 0.44529726,40.269331 2.2286325,37.969703 2.6664643,37.471091 3.104296,36.972478 3.5421278,36.473866 Z M 2.0925683,34.6875 c 3.2215855,-4.181861 1.7961638,0.788413 -0.8395634,1.875 0.015566,-0.717686 0.5395491,-1.269173 0.8395634,-1.875 z M 14.7818,33.634451 c 1.08463,-2.275974 0.38753,-6.718398 3.914543,-6.859155 -1.331742,2.759433 -3.21659,4.812984 0.210798,1.543447 4.612967,-4.504802 -3.481853,-3.141022 -4.828433,0.491056 -1.55003,1.988858 -5.0148257,3.932134 -2.465582,0.15593 2.540336,-4.884251 6.419097,-8.406822 9.218378,-13.021997 1.671138,-1.35693 5.611434,-6.9976648 7.056053,-5.118575 -1.371565,5.038709 -6.850466,6.315016 -9.369575,10.481789 -3.821451,4.953821 4.84271,-2.20688 2.231053,2.848277 2.12198,0.601245 6.860614,-8.250583 6.789829,-3.582554 -2.891884,2.804018 1.624014,0.517422 -1.168327,3.633052 C 23.366603,28.01341 18.846628,30.271697 15.407276,33.75 14.638883,34.661479 13.314915,35.049341 14.7818,33.634451 Z m -4.4693,-7.273794 c 2.31697,-5.634208 2.176952,2.488463 0,0 z m 2.8125,-6.348672 c -0.225186,-3.496609 5.604846,-4.693842 1.852893,-0.773228 -0.351466,0.130995 -1.456026,1.524651 -1.852893,0.773228 z m 5.420835,-7.656337 c 0.828836,-1.901711 5.489083,-9.0218513 6.221614,-6.129886 -1.179184,3.377296 -5.216259,3.7212242 -6.414896,7.751731 -0.715681,0.202916 0.319804,-1.57 0.193282,-1.621845 z"
       id="path4438"
       inkscape:connector-curvature="0" />
    <path
       style="fill:#c9b200"
       d="m 23.4375,115.3125 c -5.113644,-1.47278 -10.733518,-0.76429 -16.0810383,-0.9375 -2.4521539,0 -4.9043078,0 -7.3564617,0 0,-8.44033 0,-16.880662 0,-25.320993 8.6756548,-13.005232 18.74347,-25.026401 27.248823,-38.141404 3.147059,-3.7188 0.854163,-7.483121 2.466028,-11.003589 0.145967,-3.904148 0.817515,-7.623853 -1.120115,-11.234875 1.324493,-4.106596 1.724724,-7.729138 0.879211,-11.694644 C 27.566345,13.517215 30.743829,9.536891 30,6.09375 29.685392,4.826212 30.013747,0.53844908 30.106344,0.7602358 37.584755,6.826384 43.898365,14.229197 50.621028,21.123566 c 2.501324,2.634543 5.002648,5.269085 7.503972,7.903627 0,28.449269 0,56.898538 0,85.347807 -7.427352,0.18943 -14.958327,-0.52426 -22.298584,0.73273 -3.450132,1.77331 -8.79177,1.48425 -12.388916,0.20477 z m -7.5,-18.28125 c -0.385597,-1.540881 0.792147,-4.645103 -0.623184,-5.15625 -2.292272,0 -4.584544,0 -6.876816,0 0,3.4375 0,6.875 0,10.3125 2.5,0 5,0 7.5,0 0,-1.71875 0,-3.4375 0,-5.15625 z m 33.75,0 c -0.385597,-1.540881 0.792147,-4.645103 -0.623184,-5.15625 -2.292272,0 -4.584544,0 -6.876816,0 0,3.4375 0,6.875 0,10.3125 2.5,0 5,0 7.5,0 0,-1.71875 0,-3.4375 0,-5.15625 z M 28.125,73.59375 c -5.032036,-5.762669 -3.061059,5.213732 0,0 z m 5.026524,0 c -0.659489,-4.54725 -5.751022,2.745675 -0.764735,0.993164 l 0.45216,-0.447144 0.312575,-0.54602 z M 28.125,68.4375 c -3.453553,-7.420813 -5.25177,7.692989 0,0 z m 5.625,1.482925 c 0.602287,-5.040463 -6.427874,-2.923783 -2.695312,0.274887 0.871292,0.155128 1.919496,0.24658 2.695312,-0.274887 z"
       id="path4436"
       inkscape:connector-curvature="0" />
    <path
       style="fill:#af7d4a"
       d="m 23.4375,115.3125 c -5.113644,-1.47278 -10.733518,-0.76429 -16.0810383,-0.9375 -2.4521539,0 -4.9043078,0 -7.3564617,0 0,-8.44033 0,-16.880662 0,-25.320993 9.1875333,-13.401588 19.071834,-26.303203 28.799725,-39.312581 5.43126,7.143627 10.288417,14.789437 16.560967,21.238531 2.1865,0.848726 6.867294,4.87821 4.24941,0.02899 5.581368,-2.328905 3.567251,5.882238 7.898541,7.458639 2.94323,5.121834 -6.524839,-1.218025 -3.032863,3.720973 2.326252,2.223147 -2.606778,-0.551586 0.153862,2.632373 4.768258,3.762265 3.114813,10.267767 3.494555,15.571152 0.0018,4.66097 3.22e-4,9.32195 8.03e-4,13.98292 -7.427352,0.18943 -14.958327,-0.52426 -22.298584,0.73273 -3.330658,1.76549 -8.905333,1.48294 -12.388916,0.20477 z m -7.5,-18.28125 c -0.385597,-1.540881 0.792147,-4.645103 -0.623184,-5.15625 -2.292272,0 -4.584544,0 -6.876816,0 0,3.4375 0,6.875 0,10.3125 2.5,0 5,0 7.5,0 0,-1.71875 0,-3.4375 0,-5.15625 z m 33.75,0 c -0.385597,-1.540881 0.792147,-4.645103 -0.623184,-5.15625 -2.292272,0 -4.584544,0 -6.876816,0 0,3.4375 0,6.875 0,10.3125 2.5,0 5,0 7.5,0 0,-1.71875 0,-3.4375 0,-5.15625 z M 28.125,73.59375 c -5.032036,-5.762669 -3.061059,5.213732 0,0 z m 5.026524,0 c -0.659489,-4.54725 -5.751022,2.745675 -0.764735,0.993164 l 0.45216,-0.447144 0.312575,-0.54602 z M 28.125,68.4375 c -3.453553,-7.420813 -5.25177,7.692989 0,0 z m 5.625,1.482925 c 0.602287,-5.040463 -6.427874,-2.923783 -2.695312,0.274887 0.871292,0.155128 1.919496,0.24658 2.695312,-0.274887 z m 19.419643,-0.277568 c -1.350896,-1.711286 -3.497859,1.997013 -3.248796,-2.187721 -0.699559,-1.450348 -6.51646,-8.652342 -2.860911,-5.244634 1.523309,2.432837 6.821449,4.283777 2.539018,0.575369 -4.758653,-4.95309 -9.824307,-9.597619 -14.97164,-14.141369 3.080424,6.806078 8.759274,11.867429 12.784566,18.044736 1.325413,3.99222 -6.430723,-6.594128 -4.106029,-1.298613 1.559946,1.529545 3.861344,6.06935 0.650125,1.940678 -1.811098,-2.290691 -5.513474,-5.531299 -1.815343,-4.380602 -3.961084,-3.084437 -4.607883,-8.50594 -9.131389,-10.580032 -1.467292,-2.393271 -0.667572,-4.874245 1.951969,-4.888717 -0.251689,-1.835567 -6.16779,-8.471371 -1.483626,-4.534417 1.210476,1.916419 8.996895,8.410351 5.088322,2.910079 -3.465207,-3.348081 -6.992588,-7.970104 -7.695507,-11.86492 2.634371,-1.848308 5.342811,0.312156 3.814755,2.710636 3.439981,2.219326 3.899622,10.895861 7.650266,8.490464 -3.11454,-1.834451 -2.981233,-5.903461 -4.177626,-8.411568 -2.448896,3.739802 -0.287094,-3.260838 -3.204915,-4.266957 -2.538186,-1.680871 -4.773379,-7.908955 -0.23866,-3.520158 0.215794,2.949962 5.888301,4.893717 2.180209,0.96549 -2.984977,-3.22788 -7.365683,-6.44055 -6.747412,-11.38778 -0.109239,-2.258442 2.729533,2.251994 3.848406,2.720235 1.942946,2.939134 3.743199,-1.070472 5.693072,1.500863 -1.590669,-2.022623 -4.39456,-5.849154 -3.761983,-1.601867 C 32.59366,19.070507 32.131105,14.090638 30,11.135208 c 1.945446,-3.1510432 7.17734,4.082055 9.210938,6.490364 1.440764,4.10151 7.18803,4.758569 8.216421,9.213355 0.635573,3.300195 2.272227,8.243975 6.09966,9.19072 5.070572,3.838281 1.006629,-3.211782 -0.793469,-2.759758 1.85593,5.438096 -3.463748,-2.011759 -2.478573,-4.3756 -0.432173,-2.61535 -6.326965,-7.451941 -0.194052,-5.684342 1.394665,-1.321994 -3.534461,-5.326115 0.528416,-1.92747 1.514133,1.607115 6.110658,5.059243 3.61017,4.928694 1.657244,1.525037 5.871256,9.528945 1.063684,5.125435 -3.799764,-1.034771 5.900549,7.251937 0.97622,7.309768 -4.461588,-4.170386 -3.501963,2.164121 -1.077345,3.729511 -1.191717,2.094696 4.795217,9.582224 0.04561,5.534288 -5.240116,-0.77489 -5.615562,-7.19683 -7.218072,-10.892218 3.13796,-2.379188 -3.439815,-8.554404 -4.459557,-7.26464 2.504048,2.64719 0.769279,1.801317 -1.342556,1.842915 0.989633,2.316904 4.761832,5.529036 0.350243,2.444566 -0.05545,3.132109 -4.604892,-1.846374 -1.845567,1.365985 0.814746,1.190147 3.444963,3.421363 1.669291,0.405965 2.469849,2.005213 0.24085,8.957643 4.452475,7.815229 -1.071343,3.07935 5.391021,2.892314 6.17875,6.542708 0.593212,1.351326 1.890686,5.575038 3.046414,4.727697 -2.463849,-2.45061 -1.227072,-2.978096 0.373484,-0.416113 1.610488,3.569949 -6.003486,0.81825 -2.496018,4.5888 2.830255,3.766635 0.124951,1.266861 -1.80159,0.793452 -0.318206,2.942897 7.558645,8.24304 0.679279,6.223369 -0.0856,1.571004 4.484156,7.421982 0.375382,3.554969 z M 46.856197,55.758594 c -5.23806,-3.792949 2.706578,4.25259 0,0 z m -3.439473,-3.545029 c -1.185762,-0.570117 -4.688645,1.933531 -0.735836,1.553505 0.610053,-0.188266 1.139856,-0.940869 0.735836,-1.553505 z m 5.6723,-0.182315 c -2.638185,-3.962844 -1.30864,1.978263 0.285781,0.993164 L 49.089024,52.03125 Z M 42.1875,49.342439 c -2.806624,-1.22395 -6.750352,2.033153 -1.920066,1.31008 0.671674,-0.279978 1.696581,-0.493026 1.920066,-1.31008 z m -5.625,-8.415888 c -0.877539,-1.185073 -6.08689,-5.716801 -2.809365,-2.230662 0.623411,0.482809 2.184403,3.218352 2.809365,2.230662 z M 55.97836,69.375 c -0.190449,-4.032978 3.164368,0.01947 0.74039,1.875 -0.423945,-0.543638 -0.539425,-1.236902 -0.74039,-1.875 z M 43.102858,19.512186 c -3.992064,-1.559712 0.726353,-6.423779 -2.736379,-6.963312 -1.175408,2.721185 -5.683572,-4.0644332 -6.990625,-5.5559571 -0.981121,-2.5235982 -0.83109,-6.38317768 1.227004,-2.4404681 3.395376,2.9199293 3.945994,7.5761442 8.110321,8.7261532 2.67979,1.938022 3.559284,3.780246 2.012086,5.45956 0.804304,0.776286 3.891219,3.551965 0.917873,3.289196 -0.937085,-0.741729 -1.728246,-1.64415 -2.54028,-2.515172 z"
       id="path4434"
       inkscape:connector-curvature="0" />
    <path
       style="fill:#c4ac00"
       d="m 23.4375,115.3125 c -5.113644,-1.47278 -10.733518,-0.76429 -16.0810383,-0.9375 -2.4521539,0 -4.9043078,0 -7.3564617,0 0,-8.44033 0,-16.880662 0,-25.320993 9.1875333,-13.401588 19.071834,-26.303203 28.799725,-39.312581 5.43126,7.143627 10.288417,14.789437 16.560967,21.238531 2.1865,0.848726 6.867294,4.87821 4.24941,0.02899 5.581368,-2.328905 3.567251,5.882238 7.898541,7.458639 2.94323,5.121834 -6.524839,-1.218025 -3.032863,3.720973 2.326252,2.223147 -2.606778,-0.551586 0.153862,2.632373 4.768258,3.762265 3.114813,10.267767 3.494555,15.571152 0.0018,4.66097 3.22e-4,9.32195 8.03e-4,13.98292 -7.427352,0.18943 -14.958327,-0.52426 -22.298584,0.73273 -3.330658,1.76549 -8.905333,1.48294 -12.388916,0.20477 z m 11.061334,-14.29687 c -0.06289,-2.578127 -0.125778,-5.156253 -0.188667,-7.73438 -0.212415,4.810557 -0.42483,9.62111 -0.637245,14.43167 -2.943058,0.23303 -5.886115,0.46607 -8.829172,0.69911 3.28125,0.11266 6.5625,0.22532 9.84375,0.33797 -0.06289,-2.57812 -0.125777,-5.15625 -0.188666,-7.73437 z M 15.9375,97.03125 c -0.385597,-1.540881 0.792147,-4.645103 -0.623184,-5.15625 -2.292272,0 -4.584544,0 -6.876816,0 0,3.4375 0,6.875 0,10.3125 2.5,0 5,0 7.5,0 0,-1.71875 0,-3.4375 0,-5.15625 z m 33.75,0 c -0.385597,-1.540881 0.792147,-4.645103 -0.623184,-5.15625 -2.292272,0 -4.584544,0 -6.876816,0 0,3.4375 0,6.875 0,10.3125 2.5,0 5,0 7.5,0 0,-1.71875 0,-3.4375 0,-5.15625 z M 28.125,73.59375 c -5.032036,-5.762669 -3.061059,5.213732 0,0 z m 5.026524,0 c -0.659489,-4.54725 -5.751022,2.745675 -0.764735,0.993164 l 0.45216,-0.447144 0.312575,-0.54602 z M 28.125,68.4375 c -3.453553,-7.420813 -5.25177,7.692989 0,0 z m 5.625,1.482925 c 0.602287,-5.040463 -6.427874,-2.923783 -2.695312,0.274887 0.871292,0.155128 1.919496,0.24658 2.695312,-0.274887 z m 19.419643,-0.277568 c -1.350896,-1.711286 -3.497859,1.997013 -3.248796,-2.187721 -0.699559,-1.450348 -6.51646,-8.652342 -2.860911,-5.244634 1.523309,2.432837 6.821449,4.283777 2.539018,0.575369 -4.758653,-4.95309 -9.824307,-9.597619 -14.97164,-14.141369 3.080424,6.806078 8.759274,11.867429 12.784566,18.044736 1.325413,3.99222 -6.430723,-6.594128 -4.106029,-1.298613 1.559946,1.529545 3.861344,6.06935 0.650125,1.940678 -1.811098,-2.290691 -5.513474,-5.531299 -1.815343,-4.380602 -3.961084,-3.084437 -4.607883,-8.50594 -9.131389,-10.580032 -1.467292,-2.393271 -0.667572,-4.874245 1.951969,-4.888717 -0.251689,-1.835567 -6.16779,-8.471371 -1.483626,-4.534417 1.210476,1.916419 8.996895,8.410351 5.088322,2.910079 -3.465207,-3.348081 -6.992588,-7.970104 -7.695507,-11.86492 2.634371,-1.848308 5.342811,0.312156 3.814755,2.710636 3.439981,2.219326 3.899622,10.895861 7.650266,8.490464 -3.11454,-1.834451 -2.981233,-5.903461 -4.177626,-8.411568 -2.448896,3.739802 -0.287094,-3.260838 -3.204915,-4.266957 -2.538186,-1.680871 -4.773379,-7.908955 -0.23866,-3.520158 0.215794,2.949962 5.888301,4.893717 2.180209,0.96549 -2.984977,-3.22788 -7.365683,-6.44055 -6.747412,-11.38778 -0.109239,-2.258442 2.729533,2.251994 3.848406,2.720235 1.942946,2.939134 3.743199,-1.070472 5.693072,1.500863 -1.590669,-2.022623 -4.39456,-5.849154 -3.761983,-1.601867 C 32.59366,19.070507 32.131105,14.090638 30,11.135208 c 1.945446,-3.1510432 7.17734,4.082055 9.210938,6.490364 1.440764,4.10151 7.18803,4.758569 8.216421,9.213355 0.635573,3.300195 2.272227,8.243975 6.09966,9.19072 5.070572,3.838281 1.006629,-3.211782 -0.793469,-2.759758 1.85593,5.438096 -3.463748,-2.011759 -2.478573,-4.3756 -0.432173,-2.61535 -6.326965,-7.451941 -0.194052,-5.684342 1.394665,-1.321994 -3.534461,-5.326115 0.528416,-1.92747 1.514133,1.607115 6.110658,5.059243 3.61017,4.928694 1.657244,1.525037 5.871256,9.528945 1.063684,5.125435 -3.799764,-1.034771 5.900549,7.251937 0.97622,7.309768 -4.461588,-4.170386 -3.501963,2.164121 -1.077345,3.729511 -1.191717,2.094696 4.795217,9.582224 0.04561,5.534288 -5.240116,-0.77489 -5.615562,-7.19683 -7.218072,-10.892218 3.13796,-2.379188 -3.439815,-8.554404 -4.459557,-7.26464 2.504048,2.64719 0.769279,1.801317 -1.342556,1.842915 0.989633,2.316904 4.761832,5.529036 0.350243,2.444566 -0.05545,3.132109 -4.604892,-1.846374 -1.845567,1.365985 0.814746,1.190147 3.444963,3.421363 1.669291,0.405965 2.469849,2.005213 0.24085,8.957643 4.452475,7.815229 -1.071343,3.07935 5.391021,2.892314 6.17875,6.542708 0.593212,1.351326 1.890686,5.575038 3.046414,4.727697 -2.463849,-2.45061 -1.227072,-2.978096 0.373484,-0.416113 1.610488,3.569949 -6.003486,0.81825 -2.496018,4.5888 2.830255,3.766635 0.124951,1.266861 -1.80159,0.793452 -0.318206,2.942897 7.558645,8.24304 0.679279,6.223369 -0.0856,1.571004 4.484156,7.421982 0.375382,3.554969 z M 46.856197,55.758594 c -5.23806,-3.792949 2.706578,4.25259 0,0 z m -3.439473,-3.545029 c -1.185762,-0.570117 -4.688645,1.933531 -0.735836,1.553505 0.610053,-0.188266 1.139856,-0.940869 0.735836,-1.553505 z m 5.6723,-0.182315 c -2.638185,-3.962844 -1.30864,1.978263 0.285781,0.993164 L 49.089024,52.03125 Z M 42.1875,49.342439 c -2.806624,-1.22395 -6.750352,2.033153 -1.920066,1.31008 0.671674,-0.279978 1.696581,-0.493026 1.920066,-1.31008 z m -5.625,-8.415888 c -0.877539,-1.185073 -6.08689,-5.716801 -2.809365,-2.230662 0.623411,0.482809 2.184403,3.218352 2.809365,2.230662 z M 55.97836,69.375 c -0.190449,-4.032978 3.164368,0.01947 0.74039,1.875 -0.423945,-0.543638 -0.539425,-1.236902 -0.74039,-1.875 z M 43.102858,19.512186 c -3.992064,-1.559712 0.726353,-6.423779 -2.736379,-6.963312 -1.175408,2.721185 -5.683572,-4.0644332 -6.990625,-5.5559571 -0.981121,-2.5235982 -0.83109,-6.38317768 1.227004,-2.4404681 3.395376,2.9199293 3.945994,7.5761442 8.110321,8.7261532 2.67979,1.938022 3.559284,3.780246 2.012086,5.45956 0.804304,0.776286 3.891219,3.551965 0.917873,3.289196 -0.937085,-0.741729 -1.728246,-1.64415 -2.54028,-2.515172 z"
       id="path4432"
       inkscape:connector-curvature="0" />
    <path
       style="fill:#b0783f"
       d="m 23.4375,115.3125 c -5.113644,-1.47278 -10.733518,-0.76429 -16.0810383,-0.9375 -2.4521539,0 -4.9043078,0 -7.3564617,0 0,-8.44033 0,-16.880662 0,-25.320993 9.198381,-13.417046 19.094708,-26.333258 28.833758,-39.357863 7.154797,9.459305 13.607954,19.5178 21.707623,28.207633 1.24129,1.883841 3.133828,6.099475 5.570782,8.557135 1.349295,1.443995 2.507149,2.954515 2.012837,5.039165 0,7.624974 0,15.249953 0,22.874923 -7.427352,0.18943 -14.958327,-0.52426 -22.298584,0.73273 -3.330658,1.76549 -8.905333,1.48294 -12.388916,0.20477 z m 11.061334,-14.29687 c -0.06289,-2.578127 -0.125778,-5.156253 -0.188667,-7.73438 -0.212415,4.810557 -0.42483,9.62111 -0.637245,14.43167 -2.943058,0.23303 -5.886115,0.46607 -8.829172,0.69911 3.28125,0.11266 6.5625,0.22532 9.84375,0.33797 -0.06289,-2.57812 -0.125777,-5.15625 -0.188666,-7.73437 z M 15.9375,97.03125 c -0.385597,-1.540881 0.792147,-4.645103 -0.623184,-5.15625 -2.292272,0 -4.584544,0 -6.876816,0 0,3.4375 0,6.875 0,10.3125 2.5,0 5,0 7.5,0 0,-1.71875 0,-3.4375 0,-5.15625 z m 33.75,0 c -0.385597,-1.540881 0.792147,-4.645103 -0.623184,-5.15625 -2.292272,0 -4.584544,0 -6.876816,0 0,3.4375 0,6.875 0,10.3125 2.5,0 5,0 7.5,0 0,-1.71875 0,-3.4375 0,-5.15625 z M 28.125,73.59375 c -5.032036,-5.762669 -3.061059,5.213732 0,0 z m 5.026524,0 c -0.659489,-4.54725 -5.751022,2.745675 -0.764735,0.993164 l 0.45216,-0.447144 0.312575,-0.54602 z M 28.125,68.4375 c -3.453553,-7.420813 -5.25177,7.692989 0,0 z m 5.625,1.482925 c 0.602287,-5.040463 -6.427874,-2.923783 -2.695312,0.274887 0.871292,0.155128 1.919496,0.24658 2.695312,-0.274887 z m 19.213549,6.011327 c -3.34674,-4.36437 1.917246,-0.80861 1.994317,1.790074 -0.847422,-0.363207 -1.347403,-1.185789 -1.994317,-1.790074 z M 42.08407,61.640625 c -2.26134,-4.769968 6.177148,5.473501 0.50116,0.819031 l -0.50116,-0.819031 0,0 z m 8.033631,-4.515498 c -1.81745,-3.899165 4.531743,2.123416 0.729289,0.70616 l -0.729289,-0.70616 z M 46.90215,53.474119 c -3.055952,-4.146082 4.681724,2.68405 0,0 l 0,0 z m 5.478267,-9.177244 c -2.558434,-3.81137 5.15863,4.889546 0,0 z m -1.353632,-4.088691 c 0.47956,-3.560501 4.351467,3.679914 0.354074,1.177189 l -0.258964,-0.529996 -0.09511,-0.647193 z M 40.692176,39.140625 c -2.716715,-2.962769 -0.851825,-1.395938 1.14248,0.395515 2.177635,1.56872 0.712433,2.275428 -0.55608,0.28113 l -0.5864,-0.676645 z M 37.499242,28.124093 c -0.647438,-1.92509 -8.131833,-5.793384 -3.383238,-4.833218 2.1022,2.356761 7.92323,7.970525 7.321082,9.15168 -1.414166,-1.34197 -2.676254,-2.835358 -3.937844,-4.318462 z M 52.96875,28.125 c -3.445147,-3.100283 -0.871918,-3.284786 1.314588,-0.564972 1.701288,1.117574 3.867312,5.266684 0.349928,2.134644 C 54.050895,29.201674 53.497015,28.675436 52.96875,28.125 Z M 42.116544,26.567578 c -3.0497,-2.715025 1.497549,-0.429405 -0.528997,-3.804675 1.987513,0.454817 3.055171,6.550922 2.717713,5.932748 -0.791252,-0.642468 -1.498851,-1.38036 -2.188716,-2.128073 z M 32.631649,14.296875 c -1.905625,-1.667423 -2.827335,-4.742635 0.03586,-1.699602 1.988002,1.163579 4.51393,5.273102 0.443895,2.202193 l -0.479751,-0.502591 -4e-6,0 z"
       id="path4430"
       inkscape:connector-curvature="0" />
    <path
       style="fill:#bda600"
       d="m 23.4375,115.3125 c -5.113644,-1.47278 -10.733518,-0.76429 -16.0810383,-0.9375 -2.4521539,0 -4.9043078,0 -7.3564617,0 0,-8.44033 0,-16.880662 0,-25.320993 9.198381,-13.417046 19.094708,-26.333258 28.833758,-39.357863 7.154797,9.459305 13.607954,19.5178 21.707623,28.207633 1.24129,1.883841 3.133828,6.099475 5.570782,8.557135 1.349295,1.443995 2.507149,2.954515 2.012837,5.039165 0,7.624974 0,15.249953 0,22.874923 -7.427352,0.18943 -14.958327,-0.52426 -22.298584,0.73273 -3.330658,1.76549 -8.905333,1.48294 -12.388916,0.20477 z m 11.25,-14.0625 c 0.344825,-2.254049 -0.657809,-11.353217 -1.981804,-4.69059 -0.150223,1.413538 -0.126514,6.23223 -0.402889,2.362433 1.370224,-4.174908 -4.825597,-7.881282 -6.092247,-3.039169 -0.141797,4.292806 -0.39444,8.580656 -0.659849,12.867326 3.045596,0 6.091193,0 9.136789,0 0,-2.5 0,-5 0,-7.5 z m -5.683137,5.10119 c 2.192919,-0.17174 4.941011,-4.06281 2.636402,-0.2836 -0.829618,0.69834 -7.790359,1.06382 -2.636402,0.2836 z m -1.113738,-4.78458 c 3.855391,-0.80728 2.163645,1.36185 -0.270081,0.1836 l 0.270081,-0.1836 z M 15.9375,97.03125 c -0.385597,-1.540881 0.792147,-4.645103 -0.623184,-5.15625 -2.292272,0 -4.584544,0 -6.876816,0 0,3.4375 0,6.875 0,10.3125 2.5,0 5,0 7.5,0 0,-1.71875 0,-3.4375 0,-5.15625 z m 33.75,0 c -0.385597,-1.540881 0.792147,-4.645103 -0.623184,-5.15625 -2.292272,0 -4.584544,0 -6.876816,0 0,3.4375 0,6.875 0,10.3125 2.5,0 5,0 7.5,0 0,-1.71875 0,-3.4375 0,-5.15625 z M 28.125,73.59375 c -5.032036,-5.762669 -3.061059,5.213732 0,0 z m 5.026524,0 c -0.659489,-4.54725 -5.751022,2.745675 -0.764735,0.993164 l 0.45216,-0.447144 0.312575,-0.54602 z M 28.125,68.4375 c -3.453553,-7.420813 -5.25177,7.692989 0,0 z m 5.625,1.482925 c 0.602287,-5.040463 -6.427874,-2.923783 -2.695312,0.274887 0.871292,0.155128 1.919496,0.24658 2.695312,-0.274887 z m 19.213549,6.011327 c -3.34674,-4.36437 1.917246,-0.80861 1.994317,1.790074 -0.847422,-0.363207 -1.347403,-1.185789 -1.994317,-1.790074 z M 42.08407,61.640625 c -2.26134,-4.769968 6.177148,5.473501 0.50116,0.819031 l -0.50116,-0.819031 0,0 z m 8.033631,-4.515498 c -1.81745,-3.899165 4.531743,2.123416 0.729289,0.70616 l -0.729289,-0.70616 z M 46.90215,53.474119 c -3.055952,-4.146082 4.681724,2.68405 0,0 l 0,0 z m 5.478267,-9.177244 c -2.558434,-3.81137 5.15863,4.889546 0,0 z m -1.353632,-4.088691 c 0.47956,-3.560501 4.351467,3.679914 0.354074,1.177189 l -0.258964,-0.529996 -0.09511,-0.647193 z M 40.692176,39.140625 c -2.716715,-2.962769 -0.851825,-1.395938 1.14248,0.395515 2.177635,1.56872 0.712433,2.275428 -0.55608,0.28113 l -0.5864,-0.676645 z M 37.499242,28.124093 c -0.647438,-1.92509 -8.131833,-5.793384 -3.383238,-4.833218 2.1022,2.356761 7.92323,7.970525 7.321082,9.15168 -1.414166,-1.34197 -2.676254,-2.835358 -3.937844,-4.318462 z M 52.96875,28.125 c -3.445147,-3.100283 -0.871918,-3.284786 1.314588,-0.564972 1.701288,1.117574 3.867312,5.266684 0.349928,2.134644 C 54.050895,29.201674 53.497015,28.675436 52.96875,28.125 Z M 42.116544,26.567578 c -3.0497,-2.715025 1.497549,-0.429405 -0.528997,-3.804675 1.987513,0.454817 3.055171,6.550922 2.717713,5.932748 -0.791252,-0.642468 -1.498851,-1.38036 -2.188716,-2.128073 z M 32.631649,14.296875 c -1.905625,-1.667423 -2.827335,-4.742635 0.03586,-1.699602 1.988002,1.163579 4.51393,5.273102 0.443895,2.202193 l -0.479751,-0.502591 -4e-6,0 z"
       id="path4428"
       inkscape:connector-curvature="0" />
    <path
       style="fill:#926967"
       d="m 23.4375,115.3125 c -5.113644,-1.47278 -10.733518,-0.76429 -16.0810383,-0.9375 -2.4521539,0 -4.9043078,0 -7.3564617,0 0,-8.44033 0,-16.880662 0,-25.320993 9.191955,-13.407889 19.081159,-26.315454 28.813598,-39.331039 9.488313,12.810749 18.786126,25.804043 28.60238,38.340141 1.141361,8.714861 0.566578,17.542541 0.709022,26.311891 -7.427352,0.18943 -14.958327,-0.52426 -22.298584,0.73273 -3.450132,1.77331 -8.79177,1.48425 -12.388916,0.20477 z m 11.25,-14.0625 c 0.344825,-2.254049 -0.657809,-11.353217 -1.981804,-4.69059 -0.150223,1.413538 -0.126514,6.23223 -0.402889,2.362433 1.370224,-4.174908 -4.825597,-7.881282 -6.092247,-3.039169 -0.141797,4.292806 -0.39444,8.580656 -0.659849,12.867326 3.045596,0 6.091193,0 9.136789,0 0,-2.5 0,-5 0,-7.5 z m -5.683137,5.10119 c 2.192919,-0.17174 4.941011,-4.06281 2.636402,-0.2836 -0.829618,0.69834 -7.790359,1.06382 -2.636402,0.2836 z m -1.113738,-4.78458 c 3.855391,-0.80728 2.163645,1.36185 -0.270081,0.1836 l 0.270081,-0.1836 z M 15.9375,97.03125 c -0.385597,-1.540881 0.792147,-4.645103 -0.623184,-5.15625 -2.292272,0 -4.584544,0 -6.876816,0 0,3.4375 0,6.875 0,10.3125 2.5,0 5,0 7.5,0 0,-1.71875 0,-3.4375 0,-5.15625 z m 33.75,0 c -0.385597,-1.540881 0.792147,-4.645103 -0.623184,-5.15625 -2.292272,0 -4.584544,0 -6.876816,0 0,3.4375 0,6.875 0,10.3125 2.5,0 5,0 7.5,0 0,-1.71875 0,-3.4375 0,-5.15625 z M 28.125,73.59375 c -5.032036,-5.762669 -3.061059,5.213732 0,0 z m 5.026524,0 c -0.659489,-4.54725 -5.751022,2.745675 -0.764735,0.993164 l 0.45216,-0.447144 0.312575,-0.54602 z M 28.125,68.4375 c -3.453553,-7.420813 -5.25177,7.692989 0,0 z m 5.625,1.482925 c 0.602287,-5.040463 -6.427874,-2.923783 -2.695312,0.274887 0.871292,0.155128 1.919496,0.24658 2.695312,-0.274887 z"
       id="path4426"
       inkscape:connector-curvature="0" />
    <path
       style="fill:#9b6e40"
       d="M 0,101.7145 C 0.12028152,97.428202 -0.23952885,92.991306 0.17797238,88.798243 9.3152732,75.478896 19.144712,62.656381 28.813598,49.722968 c 9.488313,12.810749 18.786126,25.804043 28.60238,38.340141 1.141361,8.714861 0.566578,17.542541 0.709022,26.311891 -19.375,0 -38.75,0 -58.125,0 0,-4.22017 0,-8.44033 0,-12.6605 z M 34.6875,112.5 c -2.582242,-1.2986 -8.927125,-1.6205 -9.90564,0.36402 3.133502,0.69944 7.00501,1.10171 9.90564,-0.36402 z m 0,-10.3125 c 0.280887,-2.230668 -0.460101,-12.52482 -1.981804,-5.62809 -0.150223,1.413538 -0.126514,6.23223 -0.402889,2.362433 1.170578,-3.928261 -4.085337,-7.763993 -5.960049,-3.353923 -1.819275,4.221573 -0.169226,14.17715 5.836825,8.94496 1.545875,-0.33857 -2.027494,3.11148 -4.075802,1.90616 -4.499127,-0.93536 -4.32662,6.31789 0.542845,4.20297 1.900045,-0.21108 4.657664,0.42414 6.040874,-0.3086 0,-2.70864 0,-5.41727 0,-8.12591 z m -6.796875,-0.62089 c 3.855391,-0.80728 2.163645,1.36185 -0.270081,0.1836 l 0.270081,-0.1836 z M 15.9375,97.03125 c -0.385597,-1.540881 0.792147,-4.645103 -0.623184,-5.15625 -2.292272,0 -4.584544,0 -6.876816,0 0,3.4375 0,6.875 0,10.3125 2.5,0 5,0 7.5,0 0,-1.71875 0,-3.4375 0,-5.15625 z m 33.75,0 c -0.385597,-1.540881 0.792147,-4.645103 -0.623184,-5.15625 -2.292272,0 -4.584544,0 -6.876816,0 0,3.4375 0,6.875 0,10.3125 2.5,0 5,0 7.5,0 0,-1.71875 0,-3.4375 0,-5.15625 z M 28.125,73.59375 c -5.032036,-5.762669 -3.061059,5.213732 0,0 z m 5.026524,0 c -0.659489,-4.54725 -5.751022,2.745675 -0.764735,0.993164 l 0.45216,-0.447144 0.312575,-0.54602 z M 28.125,68.4375 c -3.453553,-7.420813 -5.25177,7.692989 0,0 z m 5.625,1.482925 c 0.602287,-5.040463 -6.427874,-2.923783 -2.695312,0.274887 0.871292,0.155128 1.919496,0.24658 2.695312,-0.274887 z"
       id="path4424"
       inkscape:connector-curvature="0" />
    <path
       style="fill:#965757"
       d="M 0,101.7145 C 0.12028152,97.428202 -0.23952885,92.991306 0.17797238,88.798243 9.3152732,75.478896 19.144712,62.656381 28.813598,49.722968 c 9.488313,12.810749 18.786126,25.804043 28.60238,38.340141 1.141361,8.714861 0.566578,17.542541 0.709022,26.311891 -19.375,0 -38.75,0 -58.125,0 0,-4.22017 0,-8.44033 0,-12.6605 z M 34.6875,112.5 c -2.582242,-1.2986 -8.927125,-1.6205 -9.90564,0.36402 3.133502,0.69944 7.00501,1.10171 9.90564,-0.36402 z m 5.83e-4,-10.54687 c 1.94e-4,-2.890627 3.88e-4,-5.781253 5.82e-4,-8.67188 -3.131596,0.216989 -6.263191,0.433979 -9.394787,0.650972 0.04215,5.575079 0.580077,11.296548 -1.122143,16.692778 3.505255,0 7.01051,0 10.515765,0 1.94e-4,-2.89062 3.89e-4,-5.78125 5.83e-4,-8.67187 z M 15.9375,97.03125 c -0.385597,-1.540881 0.792147,-4.645103 -0.623184,-5.15625 -2.292272,0 -4.584544,0 -6.876816,0 0,3.4375 0,6.875 0,10.3125 2.5,0 5,0 7.5,0 0,-1.71875 0,-3.4375 0,-5.15625 z m 33.75,0 c -0.385597,-1.540881 0.792147,-4.645103 -0.623184,-5.15625 -2.292272,0 -4.584544,0 -6.876816,0 0,3.4375 0,6.875 0,10.3125 2.5,0 5,0 7.5,0 0,-1.71875 0,-3.4375 0,-5.15625 z M 28.125,73.59375 c -5.032036,-5.762669 -3.061059,5.213732 0,0 z m 5.026524,0 c -0.659489,-4.54725 -5.751022,2.745675 -0.764735,0.993164 l 0.45216,-0.447144 0.312575,-0.54602 z M 28.125,68.4375 c -3.453553,-7.420813 -5.25177,7.692989 0,0 z m 5.625,1.482925 c 0.602287,-5.040463 -6.427874,-2.923783 -2.695312,0.274887 0.871292,0.155128 1.919496,0.24658 2.695312,-0.274887 z"
       id="path4422"
       inkscape:connector-curvature="0" />
    <path
       style="fill:#9b6734"
       d="M 0.20863444,101.01563 C 0.29533963,96.562503 0.38204481,92.109377 0.46875,87.65625 19.375,87.490835 38.28125,87.325421 57.1875,87.160007 c 0,9.071664 0,18.143333 0,27.214993 -19.07966,0 -38.159321,0 -57.23898112,0 0.08670519,-4.45312 0.17341037,-8.90625 0.26011556,-13.35937 z M 56.046251,100.54688 c -0.06792,-4.296877 -0.135832,-8.593753 -0.203748,-12.89063 -0.195341,7.96875 -0.390681,15.9375 -0.586022,23.90625 -17.545249,0.15008 -35.118007,-0.42946 -52.6384316,0.63211 -2.61657066,1.09809 5.5319064,0.89921 7.1885649,1.06084 15.4789687,0.31112 30.9622987,0.13565 46.4433857,0.18205 -0.06792,-4.29687 -0.135833,-8.59375 -0.203749,-12.89062 z m -21.358168,1.40625 c 1.94e-4,-2.890627 3.88e-4,-5.781253 5.82e-4,-8.67188 -3.131596,0.216989 -6.263191,0.433979 -9.394787,0.650972 0.04215,5.575079 0.580077,11.296548 -1.122143,16.692778 3.505255,0 7.01051,0 10.515765,0 1.94e-4,-2.89062 3.89e-4,-5.78125 5.83e-4,-8.67187 z M 15.9375,97.5 c 0,-1.875 0,-3.75 0,-5.625 -2.5,0 -5,0 -7.5,0 0,3.75 0,7.5 0,11.25 2.5,0 5,0 7.5,0 0,-1.875 0,-3.75 0,-5.625 z m 33.75,0 c 0,-1.875 0,-3.75 0,-5.625 -2.5,0 -5,0 -7.5,0 0,3.75 0,7.5 0,11.25 2.5,0 5,0 7.5,0 0,-1.875 0,-3.75 0,-5.625 z M 2.8125,84.944519 C 11.220175,73.004893 20.11451,61.411978 28.784145,49.660374 37.27624,61.27666 45.970712,72.750387 54.21875,84.541067 42.822878,85.694536 31.267647,85.188275 19.80422,85.290077 14.142838,85.197822 8.4614293,85.328094 2.8125,84.944519 Z M 29.190171,73.828125 c 0.228984,-4.793613 -0.03288,2.461338 2.746378,2.18683 2.559881,-2.058301 1.615544,-6.054985 -2.395269,-5.224087 1.217623,-4.529178 -5.859491,-5.986164 -4.63921,-0.872097 3.267673,1.135779 3.252507,1.115069 -0.13321,1.333877 -2.459058,1.78447 4.08062,7.791507 4.421311,2.575477 z M 33.75,69.920425 c 0.602287,-5.040463 -6.427874,-2.923783 -2.695312,0.274887 0.871292,0.155128 1.919496,0.24658 2.695312,-0.274887 z"
       id="path4420"
       inkscape:connector-curvature="0" />
    <path
       style="fill:#734343"
       d="M 0.20863444,101.01563 C 0.29533963,96.562503 0.38204481,92.109377 0.46875,87.65625 19.375,87.490835 38.28125,87.325421 57.1875,87.160007 c 0,9.071664 0,18.143333 0,27.214993 -19.07966,0 -38.159321,0 -57.23898112,0 0.08670519,-4.45312 0.17341037,-8.90625 0.26011556,-13.35937 z M 56.046251,100.54688 c -0.06792,-4.296877 -0.135832,-8.593753 -0.203748,-12.89063 -0.195341,7.96875 -0.390681,15.9375 -0.586022,23.90625 -17.545249,0.15008 -35.118007,-0.42946 -52.6384316,0.63211 -2.61657066,1.09809 5.5319064,0.89921 7.1885649,1.06084 15.4789687,0.31112 30.9622987,0.13565 46.4433857,0.18205 -0.06792,-4.29687 -0.135833,-8.59375 -0.203749,-12.89062 z m -21.357473,0.9375 c 4.33e-4,-3.046877 8.67e-4,-6.093753 0.0013,-9.14063 -3.438363,0.214095 -6.876727,0.428189 -10.31509,0.64228 0,5.879657 0,11.75931 0,17.63897 3.4375,0 6.875,0 10.3125,0 4.27e-4,-3.04687 8.8e-4,-6.09377 0.0013,-9.14062 z M 15.9375,97.5 c 0,-1.875 0,-3.75 0,-5.625 -2.5,0 -5,0 -7.5,0 0,3.75 0,7.5 0,11.25 2.5,0 5,0 7.5,0 0,-1.875 0,-3.75 0,-5.625 z m 33.75,0 c 0,-1.875 0,-3.75 0,-5.625 -2.5,0 -5,0 -7.5,0 0,3.75 0,7.5 0,11.25 2.5,0 5,0 7.5,0 0,-1.875 0,-3.75 0,-5.625 z M 2.8125,84.944519 C 11.220175,73.004893 20.11451,61.411978 28.784145,49.660374 37.27624,61.27666 45.970712,72.750387 54.21875,84.541067 42.822878,85.694536 31.267647,85.188275 19.80422,85.290077 14.142838,85.197822 8.4614293,85.328094 2.8125,84.944519 Z M 29.190171,73.828125 c 0.228984,-4.793613 -0.03288,2.461338 2.746378,2.18683 2.559881,-2.058301 1.615544,-6.054985 -2.395269,-5.224087 1.217623,-4.529178 -5.859491,-5.986164 -4.63921,-0.872097 3.267673,1.135779 3.252507,1.115069 -0.13321,1.333877 -2.459058,1.78447 4.08062,7.791507 4.421311,2.575477 z M 33.75,69.920425 c 0.602287,-5.040463 -6.427874,-2.923783 -2.695312,0.274887 0.871292,0.155128 1.919496,0.24658 2.695312,-0.274887 z"
       id="path4418"
       inkscape:connector-curvature="0" />
    <path
       style="fill:#73452f"
       d="M 0.20863444,101.01563 C 0.29533963,96.562503 0.38204481,92.109377 0.46875,87.65625 19.375,87.490835 38.28125,87.325421 57.1875,87.160007 c 0,9.071664 0,18.143333 0,27.214993 -19.07966,0 -38.159321,0 -57.23898112,0 0.08670519,-4.45312 0.17341037,-8.90625 0.26011556,-13.35937 z M 56.046251,100.54688 c -0.06792,-4.296877 -0.135832,-8.593753 -0.203748,-12.89063 -0.195341,7.96875 -0.390681,15.9375 -0.586022,23.90625 -17.545249,0.15008 -35.118007,-0.42946 -52.6384316,0.63211 -2.61657066,1.09809 5.5319064,0.89921 7.1885649,1.06084 15.4789687,0.31112 30.9622987,0.13565 46.4433857,0.18205 -0.06792,-4.29687 -0.135833,-8.59375 -0.203749,-12.89062 z M 6.5625,100.3125 C 6.3130141,98.109744 7.0112783,89.864788 5.2695308,90.817196 4.6298423,97.156717 4.1816695,103.71115 5.3125,110 c 2.45911,0.69994 0.6797248,-7.94341 1.25,-9.6875 z m 2.9762878,6.32813 c 0.091308,-1.49476 0.1139248,-5.80753 0.3314963,-2.12237 -0.302772,2.91643 1.8806659,9.09289 2.4300679,2.92274 0.148236,-1.15648 0.122031,-6.71733 0.354481,-3.23307 -0.272168,2.88877 1.806712,9.56497 2.458019,3.23307 0.148236,-1.15648 0.122031,-6.71733 0.354481,-3.23307 -0.215385,2.55496 1.688153,9.65447 2.09071,3.44729 0.262538,-5.80292 0.662262,-11.748999 -0.479629,-17.468453 -1.434841,0.384295 -1.340743,2.632015 -3.06557,-0.138885 -1.140693,3.715822 -2.929536,-2.358339 -4.3826293,1.653305 -1.8034376,-4.383175 -1.6294589,4.902687 -1.7775214,6.546485 0.280068,3.612918 -0.8902139,9.919068 1.0052902,12.062938 0.5169455,-1.14856 0.6057165,-2.43086 0.6808043,-3.66998 z M 20.625,100.3125 c -0.299624,-2.286311 0.533398,-10.209727 -1.323686,-9.580079 -0.741273,6.508081 -0.954872,13.246879 0.182772,19.705809 1.681585,-1.95818 0.808838,-7.17183 1.140914,-10.12573 z m 2.8125,0 C 23.188014,98.109744 23.886279,89.864788 22.144531,90.817196 21.504842,97.156717 21.056669,103.71115 22.1875,110 c 2.459109,0.69994 0.679725,-7.94341 1.25,-9.6875 z m 11.25,0 C 34.164893,97.665048 35.686034,90.770176 33.075266,90.413086 33.98431,94.21761 28.571422,92.412118 26.228749,92.8125 23.400258,91.952157 24.62,95.140048 24.375,96.863196 c 0,4.587264 0,9.174534 0,13.761804 3.4375,0 6.875,0 10.3125,0 0,-3.4375 0,-6.875 0,-10.3125 z m 2.8125,0 C 37.200376,98.026189 38.033398,90.102773 36.176314,90.732421 35.435041,97.240502 35.221442,103.9793 36.359086,110.43823 38.040671,108.48005 37.167924,103.2664 37.5,100.3125 Z m 2.8125,0 c -0.299624,-2.286311 0.533398,-10.209727 -1.323686,-9.580079 -0.741273,6.508081 -0.954872,13.246879 0.182772,19.705809 1.681585,-1.95818 0.808838,-7.17183 1.140914,-10.12573 z m 3.609193,6.51563 c -0.362432,4.95412 2.577544,2.46567 2.267681,-0.89063 0.423747,-6.778031 0.596549,10.12012 2.586843,2.25018 0.265198,-0.96869 0.167758,-7.15557 0.413165,-4.29009 -0.108825,2.08315 1.272505,9.76404 2.05638,4.41619 0.351345,-6.01739 0.73633,-12.189056 -0.417348,-18.127013 -1.434841,0.384295 -1.340743,2.632015 -3.06557,-0.138885 -1.140693,3.715822 -2.929536,-2.358339 -4.382629,1.653305 -1.837363,-4.449238 -1.380976,5.02877 -1.558181,6.732427 0.227391,2.905286 -0.626865,10.793236 0.752372,11.145486 0.543299,-1.36407 0.985271,-6.82126 1.227502,-6.30002 0.03993,1.18302 0.07986,2.36603 0.119785,3.54905 z M 54.375,99.788419 c -0.277685,-2.134852 0.494791,-9.846697 -1.323814,-9.052538 -0.761504,6.27384 -0.845557,12.719339 -0.01474,18.986669 1.757212,-0.54401 1.063425,-7.54101 1.338549,-9.934131 z M 26.25,90.9375 c -2.524235,-3.778111 -2.209365,3.650056 0,0 z m 2.8125,0 c -2.524235,-3.778111 -2.209365,3.650056 0,0 z m 2.8125,0 c -2.524235,-3.778111 -2.209365,3.650056 0,0 z M 2.8125,84.959411 C 11.232468,72.977807 20.158673,61.35632 28.85126,49.570146 c 0.715118,1.546752 4.441213,4.868079 2.687618,5.339349 -0.614573,4.859432 -1.645616,10.832215 -0.662659,15.348044 5.510335,0.529252 -0.530233,1.436581 -1.671818,0.681521 0.173874,-5.345717 1.14974,-10.746945 0.487915,-16.058649 -2.360918,1.518136 -1.490291,6.395864 -1.793645,9.461709 0.0233,3.340717 -0.178849,2.302874 -0.466793,-0.401196 0.03062,-2.662545 -1.583224,-7.278227 -2.018993,-1.978505 -0.550405,3.127014 -1.271333,9.009531 1.791912,9.079903 -6.852876,2.975125 -0.517244,-10.687031 -4.100227,-7.762379 -1.145572,7.435156 -0.732505,15.001344 -1.002785,22.501307 -0.394338,-6.475546 0.157643,-13.109644 -1.313986,-19.444547 -1.71894,3.210558 -1.043501,8.114119 -1.337084,12.0712 -0.04959,2.457783 -0.09919,4.915565 -0.148781,7.373347 -0.397084,-5.234607 0.135319,-10.660863 -1.329882,-15.722725 -1.743223,2.736747 -1.050261,7.077618 -1.34026,10.535702 -0.05685,1.176493 -0.07087,5.441163 -0.156204,4.56467 -0.316539,-3.715941 -0.02722,-7.547883 -1.137004,-11.14274 -2.391694,0.946995 -0.893653,9.060287 -1.769847,9.571274 0.369402,-2.263883 -1.411576,-9.203001 -2.313088,-3.570615 -0.327208,0.903335 0.04238,7.428629 -0.504198,4.54375 C 10.356688,83.089038 9.9883158,79.975371 9.577193,79.521741 9.1243123,83.260829 7.3021917,86.459469 2.8125,84.959411 Z M 24.555637,80.4673 c 0.115147,-2.320759 -1.805618,-12.086161 0.476065,-5.399417 0.298006,3.57135 -0.159398,7.144174 -0.295428,10.713367 -0.06021,-1.771317 -0.120425,-3.542633 -0.180637,-5.31395 z m 2.912798,0.1577 c -0.09302,-7.009488 1.263998,1.965667 0.114725,2.884277 -0.111334,-0.95754 -0.108724,-1.922178 -0.114725,-2.884277 z m 2.695353,1.289062 c -0.135022,-3.419937 -0.567252,-6.816656 -1.094936,-10.195312 1.798096,4.473742 1.915911,9.337908 1.258724,14.0625 -0.0546,-1.289063 -0.109192,-2.578125 -0.163788,-3.867188 z m 2.956343,-2.695312 c -0.203921,-2.344547 0.369258,-5.592874 0.490115,-1.414027 0.346708,2.377619 -0.483369,8.346915 -0.483955,2.670534 l -0.005,-0.603699 -0.0012,-0.652808 6e-6,0 z m 2.708618,-6.442917 C 36.40709,69.297697 34.367512,62.56907 37.03125,60.9375 c 3.070578,2.017478 -1.366319,1.587328 -0.322914,5.00433 -0.481774,6.601663 -0.468727,13.225807 -0.675839,19.83942 -0.06792,-4.335139 -0.135832,-8.670278 -0.203748,-13.005417 z m 2.807859,1.989792 c 0.377675,-3.085206 -0.969985,-9.505263 0.782792,-10.549676 3.214296,1.999392 -1.360504,3.910797 -0.138098,7.70442 -0.198419,4.618484 -0.296055,9.240634 -0.445587,13.860881 -0.06637,-3.671875 -0.132738,-7.34375 -0.199107,-11.015625 z m 2.806175,1.875 c -0.513064,-3.511343 0.04638,-12.259405 1.953565,-6.649391 -2.130151,2.201608 -1.097119,6.802826 -1.542494,10.045352 -0.07276,1.914888 -0.145525,3.829776 -0.218288,5.744664 -0.06426,-3.046875 -0.128522,-6.09375 -0.192783,-9.140625 z M 44.0625,78.28125 c -0.322737,-2.722076 0.75415,-10.281471 1.000644,-3.394385 -0.09031,2.90359 0.323511,8.583755 -0.758506,9.916529 C 44.067843,82.639637 44.08011,80.455328 44.0625,78.28125 Z m 2.937762,3.12355 c 0.109231,-2.740023 -2.131377,-11.060283 1.065222,-4.310219 0.137101,2.924404 -0.592387,5.796623 -0.93996,8.686669 -0.04175,-1.458817 -0.08351,-2.917633 -0.125262,-4.37645 z m 2.780688,1.875 c -0.426656,-2.64698 -1.327547,-6.616967 1.616386,-2.670338 2.547764,1.782244 2.454605,6.69507 0.473622,1.886299 -0.777662,-3.09341 -1.226127,1.617451 -1.826398,2.729454 -0.322609,1.679628 -0.169545,-1.753119 -0.26361,-1.945415 z M 32.989766,62.463333 c -0.80817,-2.776062 0.480883,-8.22241 2.474662,-3.517561 -2.881103,-0.189228 -1.613072,5.532289 -2.172474,7.964734 -0.151407,3.731817 -0.170627,-0.08796 -0.227758,-1.741946 -0.02481,-0.901742 -0.04962,-1.803485 -0.07443,-2.705227 z"
       id="path4416"
       inkscape:connector-curvature="0" />
    <path
       style="fill:#673b3b"
       d="M 0.20863444,101.01563 C 0.29533963,96.562503 0.38204481,92.109377 0.46875,87.65625 19.375,87.490835 38.28125,87.325421 57.1875,87.160007 c 0,9.071664 0,18.143333 0,27.214993 -19.07966,0 -38.159321,0 -57.23898112,0 0.08670519,-4.45312 0.17341037,-8.90625 0.26011556,-13.35937 z M 56.046251,100.54688 c -0.06792,-4.296877 -0.135832,-8.593753 -0.203748,-12.89063 -0.195341,7.96875 -0.390681,15.9375 -0.586022,23.90625 -17.545249,0.15008 -35.118007,-0.42946 -52.6384316,0.63211 -2.61657066,1.09809 5.5319064,0.89921 7.1885649,1.06084 15.4789687,0.31112 30.9622987,0.13565 46.4433857,0.18205 -0.06792,-4.29687 -0.135833,-8.59375 -0.203749,-12.89062 z M 6.5625,100.3125 C 6.3130141,98.109744 7.0112783,89.864788 5.2695308,90.817196 4.6298423,97.156717 4.1816695,103.71115 5.3125,110 c 2.45911,0.69994 0.6797248,-7.94341 1.25,-9.6875 z m 2.9762878,6.32813 c 0.091308,-1.49476 0.1139248,-5.80753 0.3314963,-2.12237 -0.302772,2.91643 1.8806659,9.09289 2.4300679,2.92274 0.148236,-1.15648 0.122031,-6.71733 0.354481,-3.23307 -0.272168,2.88877 1.806712,9.56497 2.458019,3.23307 0.148236,-1.15648 0.122031,-6.71733 0.354481,-3.23307 -0.215385,2.55496 1.688153,9.65447 2.09071,3.44729 0.262538,-5.80292 0.662262,-11.748999 -0.479629,-17.468453 -1.434841,0.384295 -1.340743,2.632015 -3.06557,-0.138885 -1.140693,3.715822 -2.929536,-2.358339 -4.3826293,1.653305 -1.8034376,-4.383175 -1.6294589,4.902687 -1.7775214,6.546485 0.280068,3.612918 -0.8902139,9.919068 1.0052902,12.062938 0.5169455,-1.14856 0.6057165,-2.43086 0.6808043,-3.66998 z M 20.625,100.3125 c -0.299624,-2.286311 0.533398,-10.209727 -1.323686,-9.580079 -0.741273,6.508081 -0.954872,13.246879 0.182772,19.705809 1.681585,-1.95818 0.808838,-7.17183 1.140914,-10.12573 z m 3.735644,9.14063 c 2.417033,2.02176 6.178864,0.88592 9.221302,1.17187 2.216347,0.28987 0.625976,-3.22698 1.105554,-4.67388 -0.111381,-5.2542 0.379927,-10.604634 -0.734086,-15.764353 -1.434841,0.384295 -1.340743,2.632015 -3.06557,-0.138885 -1.140693,3.715822 -2.929536,-2.358339 -4.382629,1.653305 -2.440549,-4.713373 -2.173427,5.60825 -2.326424,7.439438 -0.0654,3.046875 -0.130807,6.093745 -0.19621,9.140625 -0.395811,-5.99865 0.129192,-12.163185 -1.337067,-18.013638 -1.839774,4.286785 -0.862054,10.310738 -0.975233,15.295788 0.09321,2.15746 0.125913,6.51038 2.690363,3.88973 z M 37.5,100.3125 C 37.200376,98.026189 38.033398,90.102773 36.176314,90.732421 35.435041,97.240502 35.221442,103.9793 36.359086,110.43823 38.040671,108.48005 37.167924,103.2664 37.5,100.3125 Z m 2.8125,0 c -0.299624,-2.286311 0.533398,-10.209727 -1.323686,-9.580079 -0.741273,6.508081 -0.954872,13.246879 0.182772,19.705809 1.681585,-1.95818 0.808838,-7.17183 1.140914,-10.12573 z m 3.609193,6.51563 c -0.362432,4.95412 2.577544,2.46567 2.267681,-0.89063 0.423747,-6.778031 0.596549,10.12012 2.586843,2.25018 0.265198,-0.96869 0.167758,-7.15557 0.413165,-4.29009 -0.108825,2.08315 1.272505,9.76404 2.05638,4.41619 0.351345,-6.01739 0.73633,-12.189056 -0.417348,-18.127013 -1.434841,0.384295 -1.340743,2.632015 -3.06557,-0.138885 -1.140693,3.715822 -2.929536,-2.358339 -4.382629,1.653305 -1.837363,-4.449238 -1.380976,5.02877 -1.558181,6.732427 0.227391,2.905286 -0.626865,10.793236 0.752372,11.145486 0.543299,-1.36407 0.985271,-6.82126 1.227502,-6.30002 0.03993,1.18302 0.07986,2.36603 0.119785,3.54905 z M 54.375,99.788419 c -0.277685,-2.134852 0.494791,-9.846697 -1.323814,-9.052538 -0.761504,6.27384 -0.845557,12.719339 -0.01474,18.986669 1.757212,-0.54401 1.063425,-7.54101 1.338549,-9.934131 z M 2.8125,84.959411 C 11.232468,72.977807 20.158673,61.35632 28.85126,49.570146 c 0.715118,1.546752 4.441213,4.868079 2.687618,5.339349 -0.614573,4.859432 -1.645616,10.832215 -0.662659,15.348044 5.510335,0.529252 -0.530233,1.436581 -1.671818,0.681521 0.173874,-5.345717 1.14974,-10.746945 0.487915,-16.058649 -2.360918,1.518136 -1.490291,6.395864 -1.793645,9.461709 0.0233,3.340717 -0.178849,2.302874 -0.466793,-0.401196 0.03062,-2.662545 -1.583224,-7.278227 -2.018993,-1.978505 -0.550405,3.127014 -1.271333,9.009531 1.791912,9.079903 -6.852876,2.975125 -0.517244,-10.687031 -4.100227,-7.762379 -1.145572,7.435156 -0.732505,15.001344 -1.002785,22.501307 -0.394338,-6.475546 0.157643,-13.109644 -1.313986,-19.444547 -1.71894,3.210558 -1.043501,8.114119 -1.337084,12.0712 -0.04959,2.457783 -0.09919,4.915565 -0.148781,7.373347 -0.397084,-5.234607 0.135319,-10.660863 -1.329882,-15.722725 -1.743223,2.736747 -1.050261,7.077618 -1.34026,10.535702 -0.05685,1.176493 -0.07087,5.441163 -0.156204,4.56467 -0.316539,-3.715941 -0.02722,-7.547883 -1.137004,-11.14274 -2.391694,0.946995 -0.893653,9.060287 -1.769847,9.571274 0.369402,-2.263883 -1.411576,-9.203001 -2.313088,-3.570615 -0.327208,0.903335 0.04238,7.428629 -0.504198,4.54375 C 10.356688,83.089038 9.9883158,79.975371 9.577193,79.521741 9.1243123,83.260829 7.3021917,86.459469 2.8125,84.959411 Z M 24.555637,80.4673 c 0.115147,-2.320759 -1.805618,-12.086161 0.476065,-5.399417 0.298006,3.57135 -0.159398,7.144174 -0.295428,10.713367 -0.06021,-1.771317 -0.120425,-3.542633 -0.180637,-5.31395 z m 2.912798,0.1577 c -0.09302,-7.009488 1.263998,1.965667 0.114725,2.884277 -0.111334,-0.95754 -0.108724,-1.922178 -0.114725,-2.884277 z m 2.695353,1.289062 c -0.135022,-3.419937 -0.567252,-6.816656 -1.094936,-10.195312 1.798096,4.473742 1.915911,9.337908 1.258724,14.0625 -0.0546,-1.289063 -0.109192,-2.578125 -0.163788,-3.867188 z m 2.956343,-2.695312 c -0.203921,-2.344547 0.369258,-5.592874 0.490115,-1.414027 0.346708,2.377619 -0.483369,8.346915 -0.483955,2.670534 l -0.005,-0.603699 -0.0012,-0.652808 6e-6,0 z m 2.708618,-6.442917 C 36.40709,69.297697 34.367512,62.56907 37.03125,60.9375 c 3.070578,2.017478 -1.366319,1.587328 -0.322914,5.00433 -0.481774,6.601663 -0.468727,13.225807 -0.675839,19.83942 -0.06792,-4.335139 -0.135832,-8.670278 -0.203748,-13.005417 z m 2.807859,1.989792 c 0.377675,-3.085206 -0.969985,-9.505263 0.782792,-10.549676 3.214296,1.999392 -1.360504,3.910797 -0.138098,7.70442 -0.198419,4.618484 -0.296055,9.240634 -0.445587,13.860881 -0.06637,-3.671875 -0.132738,-7.34375 -0.199107,-11.015625 z m 2.806175,1.875 c -0.513064,-3.511343 0.04638,-12.259405 1.953565,-6.649391 -2.130151,2.201608 -1.097119,6.802826 -1.542494,10.045352 -0.07276,1.914888 -0.145525,3.829776 -0.218288,5.744664 -0.06426,-3.046875 -0.128522,-6.09375 -0.192783,-9.140625 z M 44.0625,78.28125 c -0.322737,-2.722076 0.75415,-10.281471 1.000644,-3.394385 -0.09031,2.90359 0.323511,8.583755 -0.758506,9.916529 C 44.067843,82.639637 44.08011,80.455328 44.0625,78.28125 Z m 2.937762,3.12355 c 0.109231,-2.740023 -2.131377,-11.060283 1.065222,-4.310219 0.137101,2.924404 -0.592387,5.796623 -0.93996,8.686669 -0.04175,-1.458817 -0.08351,-2.917633 -0.125262,-4.37645 z m 2.780688,1.875 c -0.426656,-2.64698 -1.327547,-6.616967 1.616386,-2.670338 2.547764,1.782244 2.454605,6.69507 0.473622,1.886299 -0.777662,-3.09341 -1.226127,1.617451 -1.826398,2.729454 -0.322609,1.679628 -0.169545,-1.753119 -0.26361,-1.945415 z M 32.989766,62.463333 c -0.80817,-2.776062 0.480883,-8.22241 2.474662,-3.517561 -2.881103,-0.189228 -1.613072,5.532289 -2.172474,7.964734 -0.151407,3.731817 -0.170627,-0.08796 -0.227758,-1.741946 -0.02481,-0.901742 -0.04962,-1.803485 -0.07443,-2.705227 z"
       id="path4414"
       inkscape:connector-curvature="0" />
    <path
       style="fill:#553231"
       d="M 0.20863444,101.01563 C 0.29533963,96.562503 0.38204481,92.109377 0.46875,87.65625 19.375,87.490835 38.28125,87.325421 57.1875,87.160007 c 0,9.071664 0,18.143333 0,27.214993 -19.07966,0 -38.159321,0 -57.23898112,0 0.08670519,-4.45312 0.17341037,-8.90625 0.26011556,-13.35937 z M 56.058597,100.54688 c -0.0638,-4.296877 -0.127601,-8.593753 -0.191402,-12.89063 -0.369797,8.125 -0.739593,16.25 -1.10939,24.375 -0.310731,-7.58233 0.263952,-15.27761 -1.114712,-22.758438 -1.789025,2.878112 -1.021339,8.542206 -1.367797,12.520238 -0.06024,3.41274 -0.120475,6.82547 -0.180712,10.2382 -0.363078,-7.58 0.09554,-15.266857 -1.304068,-22.74538 -1.762688,-0.623483 -1.004132,4.966127 -1.984281,0.780231 -1.998094,-3.660968 -2.147929,4.815302 -2.8125,0 -2.14992,-3.542032 -2.154766,5.112789 -2.936842,-0.464088 -2.731991,0.107125 -0.392546,8.090212 -1.200211,11.230147 -0.120833,1.84992 -0.62089,9.71514 -1.282739,7.78776 -0.365813,-6.4379 0.314226,-13.004995 -0.993566,-19.349091 -1.789021,2.886192 -1.021023,8.542218 -1.367581,12.522221 -0.06024,3.41274 -0.120475,6.82547 -0.180712,10.2382 -0.317757,-7.37637 -0.0082,-14.815505 -1.133025,-22.128627 -1.856735,0.129676 -0.999099,7.955253 -1.274059,11.033057 0,3.54228 0,7.08455 0,10.62682 -3.86385,-0.15835 -7.839233,0.41272 -11.609474,-0.50548 -1.921569,-3.82238 4.584175,0.99949 7.151809,-0.43202 1.917767,0.0173 4.423539,0.62267 3.520165,-2.18114 -0.163803,-6.39074 0.487848,-12.8895 -0.733377,-19.187268 -1.838926,-0.538058 -1.024521,4.962338 -2.022888,0.809509 -1.998094,-3.660968 -2.147929,4.815302 -2.8125,0 -1.999509,-3.65104 -2.200161,4.875324 -2.787224,-0.0775 -2.344749,-2.639359 -1.868386,5.907517 -2.134904,7.883663 -0.07779,3.469543 -0.143951,6.939343 -0.21704,10.408983 -0.356989,-6.34162 0.05948,-12.799653 -1.323038,-19.024834 -1.694812,3.099545 -0.991749,8.754998 -1.324232,12.848184 -0.0584,3.30888 -0.116809,6.61777 -0.175213,9.92665 -0.363077,-7.58 0.09553,-15.266857 -1.304068,-22.74538 -1.710106,2.970014 -0.998177,8.758331 -1.333219,12.81873 -0.0584,3.30888 -0.116809,6.61777 -0.175213,9.92665 -0.363077,-7.58 0.09553,-15.266857 -1.304068,-22.74538 -1.762688,-0.623482 -1.004132,4.966127 -1.984281,0.780231 -1.998094,-3.660968 -2.147929,4.815302 -2.8125,0 -2.14992,-3.542032 -2.154767,5.112789 -2.9368424,-0.464088 -2.73199,0.107125 -0.3925455,8.090212 -1.2002119,11.230147 -0.1208334,1.84992 -0.6208879,9.71514 -1.2827375,7.78776 -0.3658137,-6.4379 0.314226,-13.004995 -0.9935661,-19.349091 -1.7866681,2.886088 -1.0097511,8.542844 -1.3519046,12.522251 -0.056035,3.41272 -0.1120693,6.82545 -0.1681039,10.23817 -0.3735791,-7.5 -0.7471581,-15 -1.1207372,-22.5 -0.3264234,7.445519 0.31109,15.02403 -1.2437313,22.34523 2.067213,2.62169 9.7004519,0.83946 13.7090049,1.51499 13.531499,0.083 27.063402,0.0317 40.595095,0.046 -0.0638,-4.29687 -0.127602,-8.59375 -0.191403,-12.89062 z m -46.4154589,6.79687 c -0.073673,-6.38346 1.2985159,2.44379 0.1098088,2.6947 -0.1077605,-0.89434 -0.1071749,-1.79575 -0.1098088,-2.6947 z m 2.8124999,0 c -0.0737,-6.38346 1.298531,2.44379 0.109809,2.6947 -0.107761,-0.89434 -0.107175,-1.79575 -0.109809,-2.6947 z m 2.8125,0 c -0.0737,-6.38346 1.298531,2.44379 0.109809,2.6947 -0.107761,-0.89434 -0.107175,-1.79575 -0.109809,-2.6947 z m 28.125,0 c -0.0737,-6.38346 1.298531,2.44379 0.109809,2.6947 -0.107761,-0.89434 -0.107175,-1.79575 -0.109809,-2.6947 z m 2.8125,0 c -0.0737,-6.38346 1.298531,2.44379 0.109809,2.6947 -0.107761,-0.89434 -0.107175,-1.79575 -0.109809,-2.6947 z m 2.8125,0 c -0.0737,-6.38346 1.298531,2.44379 0.109809,2.6947 -0.107761,-0.89434 -0.107175,-1.79575 -0.109809,-2.6947 z M 2.8125,84.944519 c 8.430088,-11.96969 17.346729,-23.592709 26.03876,-35.374373 0.715118,1.546752 4.441213,4.868079 2.687618,5.339349 -0.614573,4.859432 -1.645616,10.832215 -0.662659,15.348044 5.513572,0.524037 -0.491076,1.43902 -1.644888,0.681422 0.167695,-5.649974 1.123437,-11.35201 0.458782,-16.969282 -2.34394,1.48738 -1.483046,6.49803 -1.786217,9.59227 -0.04335,1.939286 -0.03697,4.980692 -0.333773,1.302446 -0.28549,-1.650079 -0.530403,-8.941231 -1.898066,-5.287517 -0.429574,3.623376 -2.086737,10.885674 1.539976,11.465555 -6.670693,1.715296 -0.907229,-7.789394 -3.628338,-9.726536 -1.754562,5.375107 -1.069519,11.293674 -1.357555,16.929226 -0.04231,2.512042 -0.08462,5.024085 -0.126933,7.536127 -0.391185,-6.786358 0.160054,-13.723131 -1.31068,-20.375047 -1.720053,3.349677 -1.042349,8.425363 -1.337932,12.532983 -0.05074,2.614022 -0.101491,5.228043 -0.152236,7.842064 -0.393201,-5.545644 0.138643,-11.270948 -1.325445,-16.653145 -1.743411,2.879943 -1.050652,7.38737 -1.341167,10.997433 -0.0431,1.885237 -0.0862,3.770475 -0.129304,5.655712 -0.390138,-4.307962 0.09994,-8.827331 -1.345643,-12.931715 -2.134757,2.120398 -0.744758,10.25588 -1.589885,10.604095 0.374882,-2.411574 -1.351064,-10.380253 -2.326212,-4.110411 -0.104156,2.256403 -0.311092,7.360763 -0.888884,2.217097 C 7.7455756,77.163644 9.6001504,87.93696 6.49132,83.881693 5.8834834,84.820279 3.6326515,86.095995 2.8125,84.944519 Z M 24.555637,80.4673 c 0.115147,-2.320759 -1.805618,-12.086161 0.476065,-5.399417 0.298006,3.57135 -0.159398,7.144174 -0.295428,10.713367 -0.06021,-1.771317 -0.120425,-3.542633 -0.180637,-5.31395 z m 2.912798,0.1577 c -0.09302,-7.009488 1.263998,1.965667 0.114725,2.884277 -0.111334,-0.95754 -0.108724,-1.922178 -0.114725,-2.884277 z m 2.695353,1.289062 c -0.135022,-3.419937 -0.567252,-6.816656 -1.094936,-10.195312 1.798096,4.473742 1.915911,9.337908 1.258724,14.0625 -0.0546,-1.289063 -0.109192,-2.578125 -0.163788,-3.867188 z m 2.956343,-2.695312 c -0.203921,-2.344547 0.369258,-5.592874 0.490115,-1.414027 0.346708,2.377619 -0.483369,8.346915 -0.483955,2.670534 l -0.005,-0.603699 -0.0012,-0.652808 6e-6,0 z m 2.708618,-6.442917 C 36.40709,69.297697 34.367512,62.56907 37.03125,60.9375 c 3.070578,2.017478 -1.366319,1.587328 -0.322914,5.00433 -0.481774,6.601663 -0.468727,13.225807 -0.675839,19.83942 -0.06792,-4.335139 -0.135832,-8.670278 -0.203748,-13.005417 z m 2.807859,1.989792 c 0.377675,-3.085206 -0.969985,-9.505263 0.782792,-10.549676 3.214296,1.999392 -1.360504,3.910797 -0.138098,7.70442 -0.198419,4.618484 -0.296055,9.240634 -0.445587,13.860881 -0.06637,-3.671875 -0.132738,-7.34375 -0.199107,-11.015625 z m 2.806175,1.875 c -0.513064,-3.511343 0.04638,-12.259405 1.953565,-6.649391 -2.130151,2.201608 -1.097119,6.802826 -1.542494,10.045352 -0.07276,1.914888 -0.145525,3.829776 -0.218288,5.744664 -0.06426,-3.046875 -0.128522,-6.09375 -0.192783,-9.140625 z M 44.0625,78.28125 c -0.322737,-2.722076 0.75415,-10.281471 1.000644,-3.394385 -0.09031,2.90359 0.323511,8.583755 -0.758506,9.916529 C 44.067843,82.639637 44.08011,80.455328 44.0625,78.28125 Z m 2.664897,1.518958 c -0.646436,-2.196284 0.661173,-7.665298 1.08702,-2.222165 0.552329,2.387219 -0.485423,11.285998 -0.93872,4.392463 l -0.07768,-1.041283 -0.07062,-1.129015 -10e-7,0 z m 2.805551,1.826538 c -0.43463,-6.69457 2.921442,1.478613 0.615363,3.685754 -0.415212,-1.185859 -0.469504,-2.449829 -0.615363,-3.685754 z m 2.681401,1.757175 c -0.114061,-4.464099 3.233102,4.445798 0.198388,0.709304 L 52.214349,83.383921 Z M 32.989766,62.463333 c -0.80817,-2.776062 0.480883,-8.22241 2.474662,-3.517561 -2.881103,-0.189228 -1.613072,5.532289 -2.172474,7.964734 -0.151407,3.731817 -0.170627,-0.08796 -0.227758,-1.741946 -0.02481,-0.901742 -0.04962,-1.803485 -0.07443,-2.705227 z"
       id="path4412"
       inkscape:connector-curvature="0" />
    <path
       style="fill:#6d3c0b"
       d="M 0.20863444,101.01563 C 0.29533963,96.562503 0.38204481,92.109377 0.46875,87.65625 19.375,87.490835 38.28125,87.325421 57.1875,87.160007 c 0,9.071664 0,18.143333 0,27.214993 -7.34375,-0.1336 -14.6875,-0.2672 -22.03125,-0.40079 7.03125,-0.19937 14.0625,-0.39875 21.09375,-0.59812 -0.127602,-8.57328 -0.255204,-17.14656 -0.382805,-25.71984 -0.369797,8.125 -0.739593,16.25 -1.10939,24.375 -0.296716,-7.8904 0.232607,-15.877213 -1.097373,-23.678387 -1.710128,3.019367 -1.074034,8.841598 -1.427967,12.971257 -0.08749,3.56905 -0.174979,7.13809 -0.262468,10.70713 -0.287096,-7.88677 0.180151,-15.857076 -1.099844,-23.663428 -1.911125,-0.372882 -1.775412,6.668746 -1.992482,1.866553 -0.921398,-6.28866 -3.083879,4.270026 -2.760129,0.865284 0.04398,-5.691376 -3.050325,-0.383357 -2.756026,0.933068 0.477908,-2.181749 -1.862674,-6.210354 -1.6944,-1.421694 0.31811,6.3264 0.511952,12.759987 -0.894082,18.981177 -0.803365,-6.96939 0.262977,-14.218263 -1.189313,-21.155305 -1.715295,2.913487 -1.037645,8.346822 -1.398485,12.264225 -0.09258,3.7767 -0.185159,7.55341 -0.277739,11.33012 -0.304563,-7.89039 0.215671,-15.877819 -1.122009,-23.678039 -1.710168,3.017897 -1.074095,8.841605 -1.428023,12.970909 -0.08749,3.56905 -0.174979,7.13809 -0.262468,10.70713 -0.287096,-7.88677 0.180151,-15.857076 -1.099844,-23.663428 -1.911125,-0.372882 -1.775412,6.668746 -1.992482,1.866553 -0.921398,-6.28866 -3.083879,4.270026 -2.760129,0.865284 0.04398,-5.691376 -3.050325,-0.383357 -2.756026,0.933068 0.444156,-2.666703 -1.949123,-5.899642 -1.872952,-0.987618 -0.599789,5.724854 -0.550415,11.489741 -0.777849,17.236141 -0.336741,-6.6436 0.291918,-13.450112 -1.139072,-19.953488 -1.644653,3.790463 -1.09453,8.703709 -1.401678,12.996358 -0.08749,3.56905 -0.174978,7.13809 -0.262467,10.70713 -0.304563,-7.89039 0.215669,-15.877819 -1.12201,-23.678039 -1.710168,3.017897 -1.074095,8.841605 -1.428023,12.970909 -0.08749,3.56905 -0.174978,7.13809 -0.262467,10.70713 -0.287097,-7.88677 0.180149,-15.857076 -1.099845,-23.663428 -1.911125,-0.372882 -1.775412,6.668746 -1.992482,1.866553 -0.921398,-6.28866 -3.083879,4.270026 -2.760129,0.865284 0.04398,-5.691376 -3.0503254,-0.383357 -2.7560256,0.933068 0.4779066,-2.181749 -1.8626733,-6.210354 -1.6943998,-1.421694 0.3181108,6.3264 0.5119551,12.759987 -0.8940829,18.981177 -0.8002174,-7.00205 0.2603836,-14.281153 -1.192021,-21.251557 -1.7708736,2.922961 -1.0152198,8.629661 -1.348402,12.672137 -0.05839,3.67282 -0.1167807,7.34564 -0.175171,11.01846 -0.3716265,-7.8125 -0.7432529,-15.625 -1.1148794,-23.4375 -0.2833783,7.533816 0.1937089,15.14565 -1.0144981,22.60581 -0.1922288,3.34958 8.2286418,1.43722 11.2546128,2.3368 3.491192,0.15286 6.982383,0.30572 10.473575,0.45858 -7.98591,0.12669 -15.9718207,0.25337 -23.95773112,0.38006 0.08670519,-4.45312 0.17341037,-8.90625 0.26011556,-13.35937 z m 9.43450366,6.32812 c -0.073673,-6.38346 1.2985159,2.44379 0.1098088,2.6947 -0.1077605,-0.89434 -0.1071749,-1.79575 -0.1098088,-2.6947 z m 2.8124999,0 c -0.0737,-6.38346 1.298531,2.44379 0.109809,2.6947 -0.107761,-0.89434 -0.107175,-1.79575 -0.109809,-2.6947 z m 2.8125,0 c -0.0737,-6.38346 1.298531,2.44379 0.109809,2.6947 -0.107761,-0.89434 -0.107175,-1.79575 -0.109809,-2.6947 z m 8.243375,2.73438 c 1.003832,-3.55314 0.482092,4.18869 0,0 z m 19.881625,-2.73438 c -0.0737,-6.38346 1.298531,2.44379 0.109809,2.6947 -0.107761,-0.89434 -0.107175,-1.79575 -0.109809,-2.6947 z m 2.8125,0 c -0.0737,-6.38346 1.298531,2.44379 0.109809,2.6947 -0.107761,-0.89434 -0.107175,-1.79575 -0.109809,-2.6947 z m 2.8125,0 c -0.0737,-6.38346 1.298531,2.44379 0.109809,2.6947 -0.107761,-0.89434 -0.107175,-1.79575 -0.109809,-2.6947 z M 4.521716,84.346398 c 0.8130202,-3.181887 4.717478,-10.879072 7.443339,-9.376765 -1.057321,2.639194 -0.630826,8.151605 -1.191469,9.124785 0.53872,-2.55859 -2.0949192,-7.34495 -2.3871653,-2.067448 0.2417365,4.756068 -0.9831599,1.488829 -1.5703048,-0.93322 -0.5560868,0.740262 -1.2495067,4.9401 -2.2943999,3.252648 z m 8.767072,-5.417351 c 0.257455,-2.357638 -0.431159,-6.099362 -1.57527,-6.542785 3.3465,-4.546737 1.959254,5.652308 2.214521,7.555368 -0.340578,5.902365 -0.613747,2.206796 -0.639251,-1.012583 z m 2.843283,-1.875 c 0.448328,-3.001484 -0.758783,-7.453133 -1.29888,-8.781887 1.316809,-2.331704 5.524576,-6.806762 4.738761,-1.018788 -0.01637,6.176432 -0.173216,12.351911 -0.25509,18.527878 -0.487547,-6.285391 -0.206304,-12.703709 -1.532194,-18.867316 -1.422664,3.527305 -0.931398,8.132384 -1.239158,12.141056 -0.07296,2.242087 -0.145913,4.484173 -0.218869,6.72626 -0.06486,-2.909068 -0.129713,-5.818135 -0.19457,-8.727203 z M 21.935057,72.1875 c -0.0836,-2.222123 0.119988,-12.149037 0.381932,-5.292801 0.06479,3.750751 0.245253,11.710332 -0.286891,12.896805 -0.0955,-2.53333 -0.08875,-5.069291 -0.09504,-7.604004 z m 2.62058,8.2798 c 0.115147,-2.320759 -1.805618,-12.086161 0.476065,-5.399417 0.298006,3.57135 -0.159398,7.144174 -0.295428,10.713367 -0.06021,-1.771317 -0.120425,-3.542633 -0.180637,-5.31395 z m 2.912798,0.1577 c -0.09302,-7.009488 1.263998,1.965667 0.114725,2.884277 -0.111334,-0.95754 -0.108724,-1.922178 -0.114725,-2.884277 z m 2.695353,1.289062 c -0.135022,-3.419937 -0.567252,-6.816656 -1.094936,-10.195312 1.798096,4.473742 1.915911,9.337908 1.258724,14.0625 -0.0546,-1.289063 -0.109192,-2.578125 -0.163788,-3.867188 z m 2.956343,-2.695312 c -0.203921,-2.344547 0.369258,-5.592874 0.490115,-1.414027 0.346708,2.377619 -0.483369,8.346915 -0.483955,2.670534 l -0.005,-0.603699 -0.0012,-0.652808 6e-6,0 z m 2.708618,-6.442917 C 36.40709,69.297697 34.367512,62.56907 37.03125,60.9375 c 3.070578,2.017478 -1.366319,1.587328 -0.322914,5.00433 -0.481774,6.601663 -0.468727,13.225807 -0.675839,19.83942 -0.06792,-4.335139 -0.135832,-8.670278 -0.203748,-13.005417 z m 2.807859,1.989792 c 0.377675,-3.085206 -0.969985,-9.505263 0.782792,-10.549676 3.214296,1.999392 -1.360504,3.910797 -0.138098,7.70442 -0.198419,4.618484 -0.296055,9.240634 -0.445587,13.860881 -0.06637,-3.671875 -0.132738,-7.34375 -0.199107,-11.015625 z m 2.806175,1.875 c -0.513064,-3.511343 0.04638,-12.259405 1.953565,-6.649391 -2.130151,2.201608 -1.097119,6.802826 -1.542494,10.045352 -0.07276,1.914888 -0.145525,3.829776 -0.218288,5.744664 -0.06426,-3.046875 -0.128522,-6.09375 -0.192783,-9.140625 z M 44.0625,78.28125 c -0.322737,-2.722076 0.75415,-10.281471 1.000644,-3.394385 -0.09031,2.90359 0.323511,8.583755 -0.758506,9.916529 C 44.067843,82.639637 44.08011,80.455328 44.0625,78.28125 Z m 2.664897,1.518958 c -0.646436,-2.196284 0.661173,-7.665298 1.08702,-2.222165 0.552329,2.387219 -0.485423,11.285998 -0.93872,4.392463 l -0.07768,-1.041283 -0.07062,-1.129015 -10e-7,0 z m 2.805551,1.826538 c -0.43463,-6.69457 2.921442,1.478613 0.615363,3.685754 -0.415212,-1.185859 -0.469504,-2.449829 -0.615363,-3.685754 z m 2.681401,1.757175 c -0.114061,-4.464099 3.233102,4.445798 0.198388,0.709304 L 52.214349,83.383921 Z M 24.119713,63.984375 c -0.02909,-2.5692 0.990769,-12.044834 0.998059,-4.512991 0.09904,3.72689 -1.239017,10.774504 2.108521,11.571483 -2.782211,0.739266 -4.21212,0.04424 -3.335648,-2.904061 0.07636,-1.384811 0.152712,-2.769621 0.229068,-4.154431 z m 5.635005,-2.085045 c 0.694203,-3.657534 -0.103062,-10.041595 -0.970272,-11.976549 2.479117,2.660302 4.247359,4.439904 2.213279,7.109618 0.715466,4.660648 -2.936081,13.517684 2.060268,14.009278 -2.21627,0.247257 -4.831894,0.846663 -3.681376,-2.280637 0.126034,-2.287237 0.252067,-4.574473 0.378101,-6.86171 z m 3.235048,0.564003 c -0.80817,-2.776062 0.480883,-8.22241 2.474662,-3.517561 -2.881103,-0.189228 -1.613072,5.532289 -2.172474,7.964734 -0.151407,3.731817 -0.170627,-0.08796 -0.227758,-1.741946 -0.02481,-0.901742 -0.04962,-1.803485 -0.07443,-2.705227 z M 27.515076,59.0625 c -0.139886,-2.303768 0.283531,-7.28983 0.469891,-2.122925 0.327423,2.737291 -0.433839,10.346301 -0.462566,3.642357 l -0.0055,-0.728345 -0.0019,-0.791087 z"
       id="path4410"
       inkscape:connector-curvature="0" />
    <path
       style="fill:#492a29"
       d="M 0.20863444,101.01563 C 0.29533963,96.562503 0.38204481,92.109377 0.46875,87.65625 19.375,87.490835 38.28125,87.325421 57.1875,87.160007 c 0,9.071664 0,18.143333 0,27.214993 -7.34375,-0.1336 -14.6875,-0.2672 -22.03125,-0.40079 7.03125,-0.19937 14.0625,-0.39875 21.09375,-0.59812 -0.127602,-8.57328 -0.255204,-17.14656 -0.382805,-25.71984 -0.369797,8.125 -0.739593,16.25 -1.10939,24.375 -0.296716,-7.8904 0.232607,-15.877213 -1.097373,-23.678387 -1.710128,3.019367 -1.074034,8.841598 -1.427967,12.971257 -0.08749,3.56905 -0.174979,7.13809 -0.262468,10.70713 -0.287096,-7.88677 0.180151,-15.857076 -1.099844,-23.663428 -1.911125,-0.372882 -1.775412,6.668746 -1.992482,1.866553 -0.921398,-6.28866 -3.083879,4.270026 -2.760129,0.865284 0.04398,-5.691376 -3.050325,-0.383357 -2.756026,0.933068 0.477908,-2.181749 -1.862674,-6.210354 -1.6944,-1.421694 0.31811,6.3264 0.511952,12.759987 -0.894082,18.981177 -0.803365,-6.96939 0.262977,-14.218263 -1.189313,-21.155305 -1.715295,2.913487 -1.037645,8.346822 -1.398485,12.264225 -0.09258,3.7767 -0.185159,7.55341 -0.277739,11.33012 -0.304563,-7.89039 0.215671,-15.877819 -1.122009,-23.678039 -1.710168,3.017897 -1.074095,8.841605 -1.428023,12.970909 -0.08749,3.56905 -0.174979,7.13809 -0.262468,10.70713 -0.287096,-7.88677 0.180151,-15.857076 -1.099844,-23.663428 -1.911125,-0.372882 -1.775412,6.668746 -1.992482,1.866553 -0.921398,-6.28866 -3.083879,4.270026 -2.760129,0.865284 0.04398,-5.691376 -3.050325,-0.383357 -2.756026,0.933068 0.616105,-4.044502 -2.680906,-4.656728 -2.682052,-0.268511 0.130742,1.081371 -1.127668,-7.012716 -1.84297,-1.675712 -0.807486,7.284032 -0.671922,14.627146 -0.928996,21.942746 -0.304563,-7.89039 0.215669,-15.877819 -1.12201,-23.678039 -1.710168,3.017897 -1.074095,8.841605 -1.428023,12.970909 -0.08749,3.56905 -0.174978,7.13809 -0.262467,10.70713 -0.287097,-7.88677 0.180149,-15.857076 -1.099845,-23.663428 -1.911125,-0.372882 -1.775412,6.668746 -1.992482,1.866553 -0.921398,-6.28866 -3.083879,4.270026 -2.760129,0.865284 0.04398,-5.691376 -3.0503254,-0.383357 -2.7560256,0.933068 0.4779066,-2.181749 -1.8626733,-6.210354 -1.6943998,-1.421694 0.3181108,6.3264 0.5119551,12.759987 -0.8940829,18.981177 -0.8002174,-7.00205 0.2603836,-14.281153 -1.192021,-21.251557 -1.7708736,2.922961 -1.0152198,8.629661 -1.348402,12.672137 -0.05839,3.67282 -0.1167807,7.34564 -0.175171,11.01846 -0.3716265,-7.8125 -0.7432529,-15.625 -1.1148794,-23.4375 -0.2833783,7.533816 0.1937089,15.14565 -1.0144981,22.60581 -0.1922288,3.34958 8.2286418,1.43722 11.2546128,2.3368 3.491192,0.15286 6.982383,0.30572 10.473575,0.45858 -7.98591,0.12669 -15.9718207,0.25337 -23.95773112,0.38006 0.08670519,-4.45312 0.17341037,-8.90625 0.26011556,-13.35937 z m 9.43450366,6.32812 c -0.073673,-6.38346 1.2985159,2.44379 0.1098088,2.6947 -0.1077605,-0.89434 -0.1071749,-1.79575 -0.1098088,-2.6947 z m 2.8124999,0 c -0.0737,-6.38346 1.298531,2.44379 0.109809,2.6947 -0.107761,-0.89434 -0.107175,-1.79575 -0.109809,-2.6947 z m 2.8125,0 c -0.0737,-6.38346 1.298531,2.44379 0.109809,2.6947 -0.107761,-0.89434 -0.107175,-1.79575 -0.109809,-2.6947 z m 8.243375,2.73438 c 1.003832,-3.55314 0.482092,4.18869 0,0 z m 19.881625,-2.73438 c -0.0737,-6.38346 1.298531,2.44379 0.109809,2.6947 -0.107761,-0.89434 -0.107175,-1.79575 -0.109809,-2.6947 z m 2.8125,0 c -0.0737,-6.38346 1.298531,2.44379 0.109809,2.6947 -0.107761,-0.89434 -0.107175,-1.79575 -0.109809,-2.6947 z m 2.8125,0 c -0.0737,-6.38346 1.298531,2.44379 0.109809,2.6947 -0.107761,-0.89434 -0.107175,-1.79575 -0.109809,-2.6947 z M 4.5175461,84.333888 c 0.7662917,-3.548138 4.7288624,-9.84854 7.5682259,-9.682769 -1.216047,2.707581 -0.730078,8.371935 -1.312186,9.443299 0.53872,-2.55859 -2.0949193,-7.34495 -2.3871653,-2.067448 0.2417365,4.756068 -0.9831599,1.488829 -1.5703048,-0.93322 -0.560418,0.741986 -1.2459858,4.959818 -2.2985698,3.240138 z m 8.4471449,-6.145025 c -0.452462,-2.250999 0.390004,-11.359611 0.977303,-4.574375 0.0665,3.287926 0.459066,9.803528 -0.451764,11.135912 -0.319392,-2.171944 -0.416157,-4.37107 -0.525539,-6.561537 z m 2.967968,-1.496985 c -0.17631,-4.360021 -1.159849,-9.559717 2.662623,-12.716751 1.797774,-2.895712 0.840528,1.446148 1.027158,2.78299 -0.101858,6.341044 -0.203718,12.682089 -0.305578,19.023133 -0.487768,-6.287389 -0.205768,-12.707932 -1.534529,-18.873197 -1.407535,3.535847 -0.902514,8.136462 -1.193309,12.147199 -0.06415,2.241999 -0.128304,4.483999 -0.192456,6.725998 -0.154636,-3.029791 -0.309273,-6.059581 -0.463909,-9.089372 z M 21.935057,72.1875 c -0.0836,-2.222123 0.119988,-12.149037 0.381932,-5.292801 0.06479,3.750751 0.245253,11.710332 -0.286891,12.896805 -0.0955,-2.53333 -0.08875,-5.069291 -0.09504,-7.604004 z m 2.62058,8.2798 c 0.115147,-2.320759 -1.805618,-12.086161 0.476065,-5.399417 0.298006,3.57135 -0.159398,7.144174 -0.295428,10.713367 -0.06021,-1.771317 -0.120425,-3.542633 -0.180637,-5.31395 z m 2.912798,0.1577 c -0.09302,-7.009488 1.263998,1.965667 0.114725,2.884277 -0.111334,-0.95754 -0.108724,-1.922178 -0.114725,-2.884277 z m 2.695353,1.289062 c -0.135022,-3.419937 -0.567252,-6.816656 -1.094936,-10.195312 1.798096,4.473742 1.915911,9.337908 1.258724,14.0625 -0.0546,-1.289063 -0.109192,-2.578125 -0.163788,-3.867188 z m 2.956343,-2.695312 c -0.203921,-2.344547 0.369258,-5.592874 0.490115,-1.414027 0.346708,2.377619 -0.483369,8.346915 -0.483955,2.670534 l -0.005,-0.603699 -0.0012,-0.652808 6e-6,0 z m 2.874766,-6.5625 c -0.09176,-2.286582 0.139499,-11.603969 0.385516,-4.7852 0.06324,3.465586 0.246911,11.512542 -0.291299,12.207893 -0.09437,-2.47293 -0.08871,-4.948412 -0.09422,-7.422693 z m 2.800507,1.875 c -0.142575,-2.76236 0.246242,-9.941013 0.420926,-3.363816 0.05004,2.912089 0.191653,9.153259 -0.324288,9.736424 -0.09741,-2.122542 -0.09042,-4.248409 -0.09664,-6.372608 z m 2.797,1.875 c -0.141585,-2.933796 0.301902,-8.289182 0.456362,-2.149524 0.243509,2.63139 -0.302943,11.831708 -0.441874,4.729752 -0.0112,-0.860027 -0.01479,-1.720145 -0.01449,-2.580228 z m 2.79148,1.875 c -0.167059,-2.561957 0.332626,-6.486809 0.477179,-1.658714 0.337436,2.680633 -0.466608,9.579201 -0.47096,3.094057 l -0.005,-0.689446 -0.0013,-0.745897 1.3e-5,0 z m 2.781618,1.875 c -0.201353,-4.264443 0.69774,-2.962454 0.542607,0.35477 -0.0146,4.071666 -0.677106,4.116754 -0.542607,-0.35477 z m 2.75842,1.875 c 0.612218,-6.40014 0.510755,7.065946 -10e-7,0 l 10e-7,0 z m 2.650091,1.796875 c 1.003834,-3.553133 0.48209,4.188698 0,0 z m -28.4543,-19.84375 c -0.02909,-2.5692 0.990769,-12.044834 0.998059,-4.512991 0.09904,3.72689 -1.239017,10.774504 2.108521,11.571483 -2.782211,0.739266 -4.21212,0.04424 -3.335648,-2.904061 0.07636,-1.384811 0.152712,-2.769621 0.229068,-4.154431 z m 5.625508,-2.34375 c 0.279776,-2.803173 0.251241,-8.632357 1.110066,-9.505539 0.39916,5.851786 -0.848634,11.766907 -0.01863,17.569544 3.674933,1.776137 1.041461,1.310147 -1.597191,1.54537 0.168584,-3.203125 0.337169,-6.40625 0.505753,-9.609375 z m 3.37491,0.703125 c -0.203921,-2.344547 0.369258,-5.592874 0.490115,-1.414027 0.346708,2.377619 -0.483369,8.346915 -0.483955,2.670534 l -0.005,-0.603699 -0.0012,-0.652808 6e-6,0 z M 27.515076,59.0625 c -0.139886,-2.303768 0.283531,-7.28983 0.469891,-2.122925 0.327423,2.737291 -0.433839,10.346301 -0.462566,3.642357 l -0.0055,-0.728345 -0.0019,-0.791087 z"
       id="path4408"
       inkscape:connector-curvature="0" />
    <path
       style="fill:#341e1e"
       d="m 2.2392563,99.84375 c -0.098798,-2.073104 0.1465148,-10.808807 0.3911229,-4.422571 0.064182,3.207969 0.2499914,10.707221 -0.2957507,11.320251 -0.096103,-2.29773 -0.08909,-4.59842 -0.095372,-6.89768 z m 1.8749999,0 c -0.098798,-2.073104 0.1465149,-10.808807 0.391123,-4.422571 0.064182,3.207969 0.2499914,10.707221 -0.2957508,11.320251 -0.096103,-2.29773 -0.08909,-4.59842 -0.095372,-6.89768 z m 2.8125,0 c -0.098798,-2.073104 0.1465149,-10.808807 0.391123,-4.422571 0.064182,3.207969 0.2499914,10.707221 -0.2957508,11.320251 -0.096103,-2.29773 -0.08909,-4.59842 -0.095372,-6.89768 z m 2.7163819,7.5 c -0.073673,-6.38346 1.2985159,2.44379 0.1098088,2.6947 -0.1077605,-0.89434 -0.1071749,-1.79575 -0.1098088,-2.6947 z m 2.8124999,0 c -0.0737,-6.38346 1.298531,2.44379 0.109809,2.6947 -0.107761,-0.89434 -0.107175,-1.79575 -0.109809,-2.6947 z m 2.8125,0 c -0.0737,-6.38346 1.298531,2.44379 0.109809,2.6947 -0.107761,-0.89434 -0.107175,-1.79575 -0.109809,-2.6947 z m 2.908618,-7.5 c -0.09883,-2.073106 0.14651,-10.808808 0.391123,-4.422571 0.0642,3.20797 0.249958,10.707221 -0.295754,11.320251 -0.0961,-2.29777 -0.08909,-4.59838 -0.09537,-6.89768 z m 2.8125,0 c -0.09883,-2.073106 0.14651,-10.808808 0.391123,-4.422571 0.0642,3.20797 0.249958,10.707221 -0.295754,11.320251 -0.0961,-2.29777 -0.08909,-4.59838 -0.09537,-6.89768 z m 2.522257,10.23438 c 1.003832,-3.55314 0.482092,4.18869 0,0 z M 35.051756,99.84375 c -0.09883,-2.073106 0.14651,-10.808808 0.391123,-4.422571 0.0642,3.20797 0.249958,10.707221 -0.295754,11.320251 -0.0961,-2.29777 -0.08909,-4.59838 -0.09537,-6.89768 z m 2.8125,0 c -0.09883,-2.073106 0.14651,-10.808808 0.391123,-4.422571 0.0642,3.20797 0.249958,10.707221 -0.295754,11.320251 -0.0961,-2.29777 -0.08909,-4.59838 -0.09537,-6.89768 z m 2.8125,0 c -0.09883,-2.073106 0.14651,-10.808808 0.391123,-4.422571 0.0642,3.20797 0.249958,10.707221 -0.295754,11.320251 -0.0961,-2.29777 -0.08909,-4.59838 -0.09537,-6.89768 z m 2.716382,7.5 c -0.0737,-6.38346 1.298531,2.44379 0.109809,2.6947 -0.107761,-0.89434 -0.107175,-1.79575 -0.109809,-2.6947 z m 2.8125,0 c -0.0737,-6.38346 1.298531,2.44379 0.109809,2.6947 -0.107761,-0.89434 -0.107175,-1.79575 -0.109809,-2.6947 z m 2.8125,0 c -0.0737,-6.38346 1.298531,2.44379 0.109809,2.6947 -0.107761,-0.89434 -0.107175,-1.79575 -0.109809,-2.6947 z m 2.908618,-7.5 c -0.09883,-2.073106 0.14651,-10.808808 0.391123,-4.422571 0.0642,3.20797 0.249958,10.707221 -0.295754,11.320251 -0.0961,-2.29777 -0.08909,-4.59838 -0.09537,-6.89768 z m 2.8125,0 c -0.09883,-2.073106 0.14651,-10.808808 0.391123,-4.422571 0.0642,3.20797 0.249958,10.707221 -0.295754,11.320251 -0.0961,-2.29777 -0.08909,-4.59838 -0.09537,-6.89768 z M 9.5230266,90 c 0.2089269,-4.188821 1.1151594,3.014465 0.037312,0.817566 L 9.5230266,90 Z m 2.8125004,0 c 0.575791,-4.437535 0.575792,4.437535 0,0 l 0,0 z m 2.8125,0 c 0.575791,-4.437535 0.575792,4.437535 0,0 l 0,0 z m 8.4375,0 c 0.208927,-4.188821 1.115158,3.014464 0.03731,0.817566 L 23.585527,90 Z m 2.8125,0 c 0.208927,-4.188821 1.115158,3.014464 0.03731,0.817566 L 26.398027,90 Z m 2.8125,0 c 0.208927,-4.188821 1.115158,3.014464 0.03731,0.817566 L 29.210527,90 Z m 2.8125,0 c 0.208927,-4.188821 1.115158,3.014464 0.03731,0.817566 L 32.023027,90 Z m 11.25,0 c 0.208927,-4.188821 1.115158,3.014464 0.03731,0.817566 L 43.273027,90 Z m 2.8125,0 c 0.208927,-4.188821 1.115158,3.014464 0.03731,0.817566 L 46.085527,90 Z m 2.8125,0 c 0.208927,-4.188821 1.115158,3.014464 0.03731,0.817566 L 48.898027,90 Z M 4.8355263,83.4375 c 0.2089272,-4.188821 1.1151602,3.014465 0.037312,0.817566 L 4.8355263,83.4375 Z m 2.919815,-1.875 c 0.6318814,-8.589633 0.523581,8.287716 0,0 z m 2.8572277,-1.875 c -0.251261,-3.108124 0.526632,-4.842829 0.524338,-0.824204 0.268156,2.161302 -0.553669,6.783735 -0.516621,1.986122 l -0.0077,-1.161918 z m 2.840007,-1.875 c -0.139886,-2.303768 0.283531,-7.28983 0.469891,-2.122925 0.327423,2.737291 -0.433839,10.346301 -0.462566,3.642357 l -0.0055,-0.728345 -0.0019,-0.791087 z m 2.831766,-1.875 c -0.134416,-2.834881 0.271652,-9.005802 0.450847,-2.622437 0.02382,2.416466 0.164923,7.578484 -0.349702,8.128784 -0.101823,-1.833338 -0.09374,-3.670867 -0.101145,-5.506347 z m 2.826932,-1.875 c -0.134393,-2.636894 0.221738,-10.613611 0.416515,-3.857374 0.03634,2.992932 0.212442,9.633617 -0.318741,10.41255 -0.09885,-2.183437 -0.09037,-4.370054 -0.09777,-6.555176 z m 2.823783,-1.875 c -0.0836,-2.222123 0.119988,-12.149037 0.381932,-5.292801 0.06479,3.750751 0.245253,11.710332 -0.286891,12.896805 -0.0955,-2.53333 -0.08875,-5.069291 -0.09504,-7.604004 z m 2.720878,8.4375 c -0.09302,-7.009488 1.263998,1.965667 0.114725,2.884277 -0.111334,-0.95754 -0.108724,-1.922178 -0.114725,-2.884277 z m 2.8125,0 c -0.09302,-7.009488 1.263998,1.965667 0.114725,2.884277 -0.111334,-0.95754 -0.108724,-1.922178 -0.114725,-2.884277 z m 2.8125,0 c -0.09302,-7.009488 1.263998,1.965667 0.114725,2.884277 -0.111334,-0.95754 -0.108724,-1.922178 -0.114725,-2.884277 z m 2.839196,-1.40625 c -0.203921,-2.344547 0.369258,-5.592874 0.490115,-1.414027 0.346708,2.377619 -0.483369,8.346915 -0.483955,2.670534 l -0.005,-0.603699 -0.0012,-0.652808 6e-6,0 z m 2.874766,-6.5625 c -0.09176,-2.286582 0.139499,-11.603969 0.385516,-4.7852 0.06324,3.465586 0.246911,11.512542 -0.291299,12.207893 -0.09437,-2.47293 -0.08871,-4.948412 -0.09422,-7.422693 z m 2.800507,1.875 c -0.142575,-2.76236 0.246242,-9.941013 0.420926,-3.363816 0.05004,2.912089 0.191653,9.153259 -0.324288,9.736424 -0.09741,-2.122542 -0.09042,-4.248409 -0.09664,-6.372608 z m 2.797,1.875 c -0.141585,-2.933796 0.301902,-8.289182 0.456362,-2.149524 0.243509,2.63139 -0.302944,11.831708 -0.441875,4.729752 -0.0112,-0.860026 -0.0148,-1.720144 -0.01449,-2.580228 z m 2.79148,1.875 c -0.167059,-2.561957 0.332626,-6.486809 0.477179,-1.658714 0.337436,2.680633 -0.466608,9.579201 -0.47096,3.094057 l -0.005,-0.689446 -0.0013,-0.745897 1.3e-5,0 z m 2.781618,1.875 c -0.201353,-4.264443 0.69774,-2.962454 0.542607,0.35477 -0.0146,4.071666 -0.677106,4.116754 -0.542607,-0.35477 z m 2.75842,1.875 c 0.612218,-6.40014 0.510755,7.065946 -10e-7,0 l 10e-7,0 z m 2.650091,1.796875 c 1.003834,-3.553133 0.48209,4.188698 0,0 z M 33.120131,62.34375 c -0.203921,-2.344547 0.369258,-5.592874 0.490115,-1.414027 0.346708,2.377619 -0.483369,8.346915 -0.483955,2.670534 l -0.005,-0.603699 -0.0012,-0.652808 6e-6,0 z M 24.675069,60.9375 c -0.251261,-3.108124 0.526632,-4.842829 0.524338,-0.824204 0.268156,2.161302 -0.553669,6.783735 -0.516621,1.986122 l -0.0077,-1.161918 z m 2.840007,-1.875 c -0.139886,-2.303768 0.283531,-7.28983 0.469891,-2.122925 0.327423,2.737291 -0.433839,10.346301 -0.462566,3.642357 l -0.0055,-0.728345 -0.0019,-0.791087 z m 2.8125,0 c -0.139886,-2.303768 0.283531,-7.28983 0.469891,-2.122925 0.327423,2.737291 -0.433839,10.346301 -0.462566,3.642357 l -0.0055,-0.728345 -0.0019,-0.791087 z"
       id="path4406"
       inkscape:connector-curvature="0" />
    <path
       style="fill:#281717"
       d="m 2.2392563,99.84375 c -0.098798,-2.073104 0.1465148,-10.808807 0.3911229,-4.422571 0.064182,3.207969 0.2499914,10.707221 -0.2957507,11.320251 -0.096103,-2.29773 -0.08909,-4.59842 -0.095372,-6.89768 z m 2.59627,-16.40625 c 0.2089272,-4.188821 1.1151602,3.014465 0.037312,0.817566 L 4.8355263,83.4375 Z m 2.8472381,-3.28125 c 0.710366,-4.933455 0.5302407,5.625528 0,0 l 0,0 z m 2.8125006,-3.75 c 0.710364,-4.933454 0.530248,5.625529 4e-6,0 l -4e-6,0 z m 2.8125,-3.75 c 0.710364,-4.933454 0.530248,5.625529 4e-6,0 l -4e-6,0 z m 2.8125,-3.75 c 0.710364,-4.933454 0.530248,5.625529 4e-6,0 l -4e-6,0 z m 2.8125,-3.75 c 0.710364,-4.933454 0.530248,5.625529 4e-6,0 l -4e-6,0 z m 2.8125,-3.75 c 0.710364,-4.933454 0.530248,5.625529 4e-6,0 l -4e-6,0 z m 2.8125,-3.75 c 0.710364,-4.933454 0.530248,5.625529 4e-6,0 l -4e-6,0 z m 2.8125,-3.75 c 0.710364,-4.933454 0.530248,5.625529 4e-6,0 l -4e-6,0 z"
       id="path4404"
       inkscape:connector-curvature="0" />
  </g>
</svg>
