<?xml version="1.0" encoding="UTF-8" standalone="no"?>
<!-- Created with Inkscape (http://www.inkscape.org/) -->

<svg
   xmlns:dc="http://purl.org/dc/elements/1.1/"
   xmlns:cc="http://creativecommons.org/ns#"
   xmlns:rdf="http://www.w3.org/1999/02/22-rdf-syntax-ns#"
   xmlns:svg="http://www.w3.org/2000/svg"
   xmlns="http://www.w3.org/2000/svg"
   xmlns:sodipodi="http://sodipodi.sourceforge.net/DTD/sodipodi-0.dtd"
   xmlns:inkscape="http://www.inkscape.org/namespaces/inkscape"
   id="svg4136"
   version="1.1"
   inkscape:version="0.91 r13725"
   width="93.847755"
   height="93.847755"
   viewBox="0 0 93.847755 93.847755"
   sodipodi:docname="market.svg">
  <metadata
     id="metadata4142">
    <rdf:RDF>
      <cc:Work
         rdf:about="">
        <dc:format>image/svg+xml</dc:format>
        <dc:type
           rdf:resource="http://purl.org/dc/dcmitype/StillImage" />
        <dc:title></dc:title>
      </cc:Work>
    </rdf:RDF>
  </metadata>
  <defs
     id="defs4140" />
  <sodipodi:namedview
     pagecolor="#ffffff"
     bordercolor="#666666"
     borderopacity="1"
     objecttolerance="10"
     gridtolerance="10"
     guidetolerance="10"
     inkscape:pageopacity="0"
     inkscape:pageshadow="2"
     inkscape:window-width="2560"
     inkscape:window-height="1061"
     id="namedview4138"
     showgrid="false"
     inkscape:zoom="4.7577057"
     inkscape:cx="100.80425"
     inkscape:cy="33.394007"
     inkscape:window-x="-4"
     inkscape:window-y="-4"
     inkscape:window-maximized="1"
     inkscape:current-layer="svg4136" />
  <g
     id="g4146">
    <path
       style="fill:#fdfdfd"
       d="M 0,46.923878 0,0 l 46.923878,0 46.923877,0 0,46.923878 0,46.923877 -46.923877,0 -46.923878,0 0,-46.923877 z"
       id="path4180"
       inkscape:connector-curvature="0" />
    <path
       style="fill:#f7b9c5"
       d="M 0,46.923878 0,0 4.9675527,0 C 9.7581225,0 9.9670961,0.10830577 10.833037,3.0399324 12.583519,8.9661568 20.996565,8.8075777 22.192919,2.825808 22.748997,0.04541913 22.852356,0 28.623565,0 c 5.771209,0 5.874568,0.04541913 6.430646,2.825808 1.196355,5.9817697 9.609401,6.1403488 11.359883,0.2141244 C 47.299126,0.04366976 47.39408,0 53.023982,0 58.653883,0 58.748837,0.04366976 59.633869,3.0399324 61.384352,8.9661568 69.797397,8.8075777 70.993752,2.825808 71.551248,0.03832691 71.640059,0 77.541708,0 c 5.357142,0 5.982794,0.19628289 5.982794,1.8769551 0,3.2828692 3.527991,5.9131121 7.14423,5.3262774 l 3.179023,-0.5158845 0,43.580204 0,43.580203 -46.923877,0 -46.923878,0 0,-46.923877 z m 61.939518,27.347304 c 0,-9.775755 -0.09577,-10.263723 -2.346194,-11.953716 -1.920346,-1.44212 -2.346193,-2.563131 -2.346193,-6.176174 0,-2.42784 -0.422315,-4.675259 -0.938478,-4.994266 -0.579072,-0.357885 -0.938478,1.263904 -0.938478,4.234798 0,6.572269 -1.156673,7.496172 -9.384775,7.496172 -8.084725,0 -9.384776,-0.973425 -9.384776,-7.026933 0,-2.658069 -0.364436,-4.120336 -0.938477,-3.765559 -0.516163,0.319006 -0.938478,2.263543 -0.938478,4.321194 0,2.73929 -0.628312,4.369494 -2.346194,6.087375 -2.118304,2.118304 -2.346193,3.088211 -2.346193,9.985489 0,6.551815 0.290478,7.948497 2.040544,9.811357 1.954999,2.081001 2.623848,2.172061 15.954119,2.172061 l 13.913573,0 0,-10.191798 z M 48.800833,46.979264 c 0,-1.348157 -1.536683,-2.004008 -3.199982,-1.365741 -2.291403,0.879294 -1.771447,2.248832 0.853788,2.248832 1.290406,0 2.346194,-0.397391 2.346194,-0.883091 z M 42.054907,34.969066 c -0.471127,-2.446364 -3.577327,-2.719193 -3.577327,-0.31421 0,1.343055 0.602713,1.945768 1.945768,1.945768 1.343054,0 1.84844,-0.505385 1.631559,-1.631558 z m -2.63885,-0.245397 c 0,-0.516162 0.422315,-0.938477 0.938478,-0.938477 0.516162,0 0.938477,0.422315 0.938477,0.938477 0,0.516163 -0.422315,0.938478 -0.938477,0.938478 -0.516163,0 -0.938478,-0.422315 -0.938478,-0.938478 z m 13.138686,-0.06881 c 0,-1.343058 -0.505385,-1.848444 -1.631558,-1.631563 -2.446365,0.471127 -2.719193,3.577327 -0.31421,3.577327 1.343054,0 1.945768,-0.602713 1.945768,-1.945768 z m -2.815433,0.06881 c 0,-0.516162 0.422315,-0.938477 0.938478,-0.938477 0.516162,0 0.938477,0.422315 0.938477,0.938477 0,0.516163 -0.422315,0.938478 -0.938477,0.938478 -0.516163,0 -0.938478,-0.422315 -0.938478,-0.938478 z"
       id="path4178"
       inkscape:connector-curvature="0" />
    <path
       style="fill:#a8cdc0"
       d="M 0,46.923878 0,0 5.1616265,0 c 4.789111,0 5.1616265,0.15882774 5.1616265,2.2007415 0,2.9436366 2.789225,5.3070789 6.263167,5.3070789 3.238295,0 5.937041,-2.4865122 5.937041,-5.4701423 C 22.523461,0.15541828 22.98873,0 28.623565,0 c 5.773614,0 6.100104,0.11778827 6.100104,2.2007415 0,2.9436366 2.789225,5.3070789 6.263168,5.3070789 3.238294,0 5.937041,-2.4865122 5.937041,-5.4701423 C 46.923878,0.15541828 47.389147,0 53.023982,0 c 5.773613,0 6.100104,0.11778827 6.100104,2.2007415 0,2.9436366 2.789224,5.3070789 6.263167,5.3070789 3.238295,0 5.937041,-2.4865122 5.937041,-5.4701423 C 71.324294,0.15541828 71.789563,0 77.424398,0 c 5.773613,0 6.100104,0.11778827 6.100104,2.2007415 0,3.3484533 3.059654,5.5934795 6.996714,5.13385 l 3.326539,-0.3883547 0,43.4507592 0,43.450759 -46.923877,0 -46.923878,0 0,-46.923877 z m 29.092804,38.108747 c 0,-3.336268 -5.779706,-4.919529 -6.938175,-1.900607 -1.272998,3.31738 -0.636348,4.146394 3.184265,4.146394 3.333764,0 3.75391,-0.251353 3.75391,-2.245787 z m 37.539102,0.368832 c 0,-0.516163 1.478102,-0.938477 3.284671,-0.938477 1.80657,0 3.284672,-0.422315 3.284672,-0.938478 0,-0.516163 -1.900417,-0.938478 -4.223149,-0.938478 -3.597497,0 -4.223149,0.278068 -4.223149,1.876956 0,1.032325 0.422315,1.876955 0.938478,1.876955 0.516162,0 0.938477,-0.422315 0.938477,-0.938478 z M 61.939518,74.300111 c 0,-9.806613 -0.09506,-10.292115 -2.346194,-11.982645 -1.920346,-1.44212 -2.346193,-2.563131 -2.346193,-6.176174 0,-2.42784 -0.422315,-4.675259 -0.938478,-4.994266 -0.579072,-0.357885 -0.938478,1.263904 -0.938478,4.234798 0,6.572269 -1.156673,7.496172 -9.384775,7.496172 -8.084725,0 -9.384776,-0.973425 -9.384776,-7.026933 0,-2.658069 -0.364436,-4.120336 -0.938477,-3.765559 -0.516163,0.319006 -0.938478,2.263543 -0.938478,4.321194 0,2.73929 -0.628312,4.369494 -2.346194,6.087375 -2.127159,2.127161 -2.346193,3.076198 -2.346193,10.165684 0,6.016745 0.345518,8.106243 1.498701,9.063301 1.360615,1.12921 1.338998,1.302919 -0.234619,1.885321 -0.953327,0.35283 5.551611,0.702474 14.455417,0.776986 l 16.188737,0.135474 0,-10.220728 z M 52.650577,50.435594 c 1.753861,-1.165533 4.133571,-3.988955 5.288245,-6.274272 1.848004,-3.657545 1.936019,-4.335664 0.73499,-5.662786 -0.75043,-0.829217 -1.649054,-3.929457 -1.99694,-6.889424 -0.600754,-5.111486 -0.713342,-5.298023 -2.241904,-3.714412 -0.885161,0.917038 -1.446242,2.111172 -1.246845,2.65363 0.206482,0.561734 -1.063732,1.026717 -2.950853,1.080209 -1.822366,0.05166 -3.313392,-0.286594 -3.313392,-0.751668 0,-0.465074 -0.633473,-0.845589 -1.407717,-0.845589 -0.774244,0 -1.407716,0.36818 -1.407716,0.818179 0,0.449998 -1.691623,0.773824 -3.759161,0.719611 -4.057781,-0.1064 -4.556309,-1.581708 -0.863649,-2.555822 2.142842,-0.565276 2.166326,-0.641017 0.399661,-1.289015 -1.032325,-0.378647 -2.350703,-0.825061 -2.92973,-0.99203 -0.641586,-0.18501 -1.295201,1.759094 -1.673466,4.977541 -0.341381,2.904618 -1.234682,5.959573 -1.985112,6.78879 -1.20103,1.327122 -1.113014,2.005241 0.73499,5.662786 2.578478,5.103291 7.26409,8.393421 11.953422,8.393421 2.04166,0 4.792367,-0.874569 6.665177,-2.119149 z M 39.181438,44.771001 c -3.178569,-2.636616 -3.251543,-3.477989 -0.301654,-3.477989 3.199232,0 5.228661,-2.393684 5.228661,-6.167138 0,-4.628957 2.607067,-4.366236 2.993401,0.301654 0.283534,3.42582 0.386635,3.51628 3.881868,3.405921 3.421603,-0.108033 3.561604,0.0022 2.974604,2.340944 -0.922755,3.676545 -2.244305,4.803815 -5.499538,4.691051 -1.61844,-0.05606 -3.787249,0.156426 -4.819574,0.4722 -1.21629,0.372047 -2.785369,-0.179392 -4.457768,-1.566643 z m 0.234619,-10.047332 c 0,-0.516162 0.422315,-0.938477 0.938478,-0.938477 0.516162,0 0.938477,0.422315 0.938477,0.938477 0,0.516163 -0.422315,0.938478 -0.938477,0.938478 -0.516163,0 -0.938478,-0.422315 -0.938478,-0.938478 z m 10.323253,0 c 0,-0.516162 0.422315,-0.938477 0.938478,-0.938477 0.516162,0 0.938477,0.422315 0.938477,0.938477 0,0.516163 -0.422315,0.938478 -0.938477,0.938478 -0.516163,0 -0.938478,-0.422315 -0.938478,-0.938478 z"
       id="path4176"
       inkscape:connector-curvature="0" />
    <path
       style="fill:#e39997"
       d="M 0,46.923878 0,0 5.1616265,0 c 4.8396005,0 5.1616265,0.14219357 5.1616265,2.2791597 0,3.1815532 2.388292,5.2286607 6.100104,5.2286607 3.711812,0 6.100104,-2.0471075 6.100104,-5.2286607 C 22.523461,0.09969176 22.790284,0 28.623565,0 c 5.833282,0 6.100104,0.09969176 6.100104,2.2791597 0,3.1815532 2.388292,5.2286607 6.100104,5.2286607 3.711812,0 6.100105,-2.0471075 6.100105,-5.2286607 C 46.923878,0.09969176 47.1907,0 53.023982,0 c 5.833281,0 6.100104,0.09969176 6.100104,2.2791597 0,3.1815532 2.388292,5.2286607 6.100104,5.2286607 3.711812,0 6.100104,-2.0471075 6.100104,-5.2286607 C 71.324294,0.09969176 71.591116,0 77.424398,0 c 5.833282,0 6.100104,0.09969176 6.100104,2.2791597 0,3.5430025 2.539008,5.4521689 6.720532,5.0533965 l 3.602721,-0.3435747 0,43.4293865 0,43.429387 -46.923877,0 -46.923878,0 0,-46.923877 z m 29.092804,38.108747 c 0,-3.336268 -5.779706,-4.919529 -6.938175,-1.900607 -1.272998,3.31738 -0.636348,4.146394 3.184265,4.146394 3.333764,0 3.75391,-0.251353 3.75391,-2.245787 z m 37.539102,0.368832 c 0,-0.516163 1.478102,-0.938477 3.284671,-0.938477 1.80657,0 3.284672,-0.422315 3.284672,-0.938478 0,-0.516163 -1.900417,-0.938478 -4.223149,-0.938478 -3.597497,0 -4.223149,0.278068 -4.223149,1.876956 0,1.032325 0.422315,1.876955 0.938478,1.876955 0.516162,0 0.938477,-0.422315 0.938477,-0.938478 z m -3.489289,-2.787511 c 0.273975,-1.047682 1.171146,-1.904877 1.993712,-1.904877 0.822568,0 1.495577,-0.685182 1.495577,-1.522628 0,-1.31514 -0.223801,-1.347111 -1.642336,-0.234619 -1.489588,1.168216 -1.52215,1.134788 -0.350106,-0.359413 0.912529,-1.163354 1.096838,-2.817887 0.627256,-5.630865 -0.365734,-2.190894 -1.018116,-6.39319 -1.449737,-9.338434 -0.657563,-4.487009 -1.405728,-5.98219 -4.615785,-9.22449 -2.511645,-2.536871 -3.831023,-3.354536 -3.831023,-2.374221 0,1.92334 -5.597481,7.036247 -7.742439,7.072177 -1.030317,0.01726 -1.689962,0.814391 -1.77014,2.139084 L 45.729792,63.347235 45.3289,61.28003 c -0.220491,-1.136961 -1.192757,-2.318531 -2.160592,-2.62571 -0.967834,-0.307178 -3.01042,-1.982999 -4.53908,-3.724047 l -2.77938,-3.16554 -1.829423,2.037341 c -5.47893,6.10162 -11.027641,23.153085 -7.534237,23.153085 0.631013,0 0.159269,0.69204 -1.048317,1.537866 l -2.195612,1.537868 3.62913,1.263435 c 4.45841,1.552139 4.363685,1.548933 3.504369,0.118599 -0.430539,-0.716632 -0.05151,-0.642537 0.974076,0.190423 1.609694,1.307352 1.60745,1.389979 -0.05447,2.005836 -0.953327,0.353274 5.710228,0.702464 14.807897,0.775977 15.889705,0.128396 16.56084,0.05864 17.039356,-1.771217 z M 41.12205,53.602118 c -1.762033,-1.581017 -3.273674,-2.342265 -3.482201,-1.753605 -0.202671,0.572126 1.041574,2.300123 2.764988,3.839993 1.765301,1.577296 3.285744,2.342977 3.482201,1.753605 0.191797,-0.575389 -1.052448,-2.303386 -2.764988,-3.839993 z m 10.677482,2.061716 c 3.694199,-3.539268 3.476356,-5.863236 -0.255271,-2.723277 -1.588091,1.33629 -3.277351,2.429618 -3.753911,2.429618 -0.476559,0 -0.866472,0.633473 -0.866472,1.407717 0,2.136305 1.947471,1.691319 4.875654,-1.114058 z m 0.851045,-5.22824 c 1.753861,-1.165533 4.133571,-3.988955 5.288245,-6.274272 1.848004,-3.657545 1.936019,-4.335664 0.73499,-5.662786 -0.75043,-0.829217 -1.649054,-3.929457 -1.99694,-6.889424 -0.600754,-5.111486 -0.713342,-5.298023 -2.241904,-3.714412 -0.885161,0.917038 -1.446242,2.111172 -1.246845,2.65363 0.206482,0.561734 -1.063732,1.026717 -2.950853,1.080209 -1.822366,0.05166 -3.313392,-0.286594 -3.313392,-0.751668 0,-0.465074 -0.633473,-0.845589 -1.407717,-0.845589 -0.774244,0 -1.407716,0.36818 -1.407716,0.818179 0,0.449998 -1.691623,0.773824 -3.759161,0.719611 -4.057781,-0.1064 -4.556309,-1.581708 -0.863649,-2.555822 2.142842,-0.565276 2.166326,-0.641017 0.399661,-1.289015 -1.032325,-0.378647 -2.350703,-0.825061 -2.92973,-0.99203 -0.641586,-0.18501 -1.295201,1.759094 -1.673466,4.977541 -0.341381,2.904618 -1.234682,5.959573 -1.985112,6.78879 -1.20103,1.327122 -1.113014,2.005241 0.73499,5.662786 2.578478,5.103291 7.26409,8.393421 11.953422,8.393421 2.04166,0 4.792367,-0.874569 6.665177,-2.119149 z M 39.181438,44.771001 c -3.178569,-2.636616 -3.251543,-3.477989 -0.301654,-3.477989 3.199232,0 5.228661,-2.393684 5.228661,-6.167138 0,-4.628957 2.607067,-4.366236 2.993401,0.301654 0.283534,3.42582 0.386635,3.51628 3.881868,3.405921 3.421603,-0.108033 3.561604,0.0022 2.974604,2.340944 -0.922755,3.676545 -2.244305,4.803815 -5.499538,4.691051 -1.61844,-0.05606 -3.787249,0.156426 -4.819574,0.4722 -1.21629,0.372047 -2.785369,-0.179392 -4.457768,-1.566643 z m 0.234619,-10.047332 c 0,-0.516162 0.422315,-0.938477 0.938478,-0.938477 0.516162,0 0.938477,0.422315 0.938477,0.938477 0,0.516163 -0.422315,0.938478 -0.938477,0.938478 -0.516163,0 -0.938478,-0.422315 -0.938478,-0.938478 z m 10.323253,0 c 0,-0.516162 0.422315,-0.938477 0.938478,-0.938477 0.516162,0 0.938477,0.422315 0.938477,0.938477 0,0.516163 -0.422315,0.938478 -0.938477,0.938478 -0.516163,0 -0.938478,-0.422315 -0.938478,-0.938478 z"
       id="path4174"
       inkscape:connector-curvature="0" />
    <path
       style="fill:#e7cc2b"
       d="M 0,46.923878 0,0 5.1616265,0 c 4.8396005,0 5.1616265,0.14219357 5.1616265,2.2791597 0,3.1815532 2.388292,5.2286607 6.100104,5.2286607 3.711812,0 6.100104,-2.0471075 6.100104,-5.2286607 C 22.523461,0.09969176 22.790284,0 28.623565,0 c 5.833282,0 6.100104,0.09969176 6.100104,2.2791597 0,3.1815532 2.388292,5.2286607 6.100104,5.2286607 3.711812,0 6.100105,-2.0471075 6.100105,-5.2286607 C 46.923878,0.09969176 47.1907,0 53.023982,0 c 5.833281,0 6.100104,0.09969176 6.100104,2.2791597 0,3.1815532 2.388292,5.2286607 6.100104,5.2286607 3.711812,0 6.100104,-2.0471075 6.100104,-5.2286607 C 71.324294,0.09969176 71.591116,0 77.424398,0 c 5.833282,0 6.100104,0.09969176 6.100104,2.2791597 0,3.5430025 2.539008,5.4521689 6.720532,5.0533965 l 3.602721,-0.3435747 0,43.4293865 0,43.429387 -46.923877,0 -46.923878,0 0,-46.923877 z m 29.759359,39.416057 c 0.466928,-1.785536 1.280098,-1.876955 16.69528,-1.876955 15.415181,0 16.228352,-0.09142 16.69528,-1.876956 0.269958,-1.032325 1.163844,-1.876955 1.98641,-1.876955 0.822568,0 1.495577,-0.685182 1.495577,-1.522628 0,-1.31514 -0.223801,-1.347111 -1.642336,-0.234619 -1.489588,1.168216 -1.52215,1.134788 -0.350106,-0.359413 0.912529,-1.163354 1.096838,-2.817887 0.627256,-5.630865 -0.365734,-2.190894 -1.018116,-6.39319 -1.449737,-9.338434 -0.657563,-4.487009 -1.405728,-5.98219 -4.615785,-9.22449 -2.511645,-2.536871 -3.831023,-3.354536 -3.831023,-2.374221 0,1.92334 -5.597481,7.036247 -7.742439,7.072177 -1.030317,0.01726 -1.689962,0.814391 -1.77014,2.139084 L 45.729792,63.347235 45.3289,61.28003 c -0.220491,-1.136961 -1.192757,-2.318531 -2.160592,-2.62571 -0.967834,-0.307178 -3.01042,-1.982999 -4.53908,-3.724047 l -2.77938,-3.16554 -1.829423,2.037341 c -3.239014,3.607133 -8.681531,15.920919 -8.681531,19.642107 0,1.931038 0.380083,3.510978 0.84463,3.510978 0.464546,0 -0.591241,1.435871 -2.346194,3.190824 -2.981317,2.981317 -4.018564,5.991863 -2.565172,7.445255 0.344108,0.344108 2.284062,0.625652 4.311008,0.625652 2.896094,0 3.790476,-0.401973 4.176193,-1.876955 z m 37.341786,0 c 0.319006,-0.516163 2.064155,-0.938478 3.878109,-0.938478 2.634203,0 3.23532,-0.330596 2.986225,-1.642336 -0.431905,-2.274425 -8.9545,-2.932283 -9.789745,-0.755669 -1.104478,2.878224 1.425384,5.763576 2.925411,3.336483 z M 41.12205,53.602118 c -1.762033,-1.581017 -3.273674,-2.342265 -3.482201,-1.753605 -0.202671,0.572126 1.041574,2.300123 2.764988,3.839993 1.765301,1.577296 3.285744,2.342977 3.482201,1.753605 0.191797,-0.575389 -1.052448,-2.303386 -2.764988,-3.839993 z m 6.333635,0.82958 c 2.259695,0 9.055094,-6.816516 10.869352,-10.903131 0.94362,-2.125502 2.354062,-4.394366 3.134316,-5.041919 1.855972,-1.540319 1.813439,-5.082458 -0.07989,-6.653787 -1.264431,-1.049385 -1.639973,-0.990948 -2.403872,0.374065 -1.346455,2.405974 -2.666935,0.987686 -2.666935,-2.86447 0,-3.328881 -0.03316,-3.359094 -1.741535,-1.58695 -0.957845,0.993596 -1.578392,2.250366 -1.378995,2.792824 0.206482,0.561734 -1.063732,1.026717 -2.950853,1.080209 -1.822366,0.05166 -3.313392,-0.286594 -3.313392,-0.751668 0,-0.465074 -0.633473,-0.845589 -1.407717,-0.845589 -0.774244,0 -1.407716,0.36818 -1.407716,0.818179 0,0.449998 -1.691623,0.773824 -3.759161,0.719611 -4.057781,-0.1064 -4.556309,-1.581708 -0.863649,-2.555822 1.923704,-0.507467 2.022028,-0.693329 0.63428,-1.198983 -4.375071,-1.594146 -4.457768,-1.562204 -4.457768,1.721844 0,3.683725 -1.345822,5.031506 -2.666931,2.670815 -0.763899,-1.365013 -1.139441,-1.42345 -2.403873,-0.374065 -1.910883,1.585892 -1.93021,5.118163 -0.0366,6.689718 0.804065,0.667314 2.091,2.72502 2.859855,4.57268 1.557307,3.742414 8.537436,11.336439 10.420007,11.336439 0.666775,0 1.269829,0.950208 1.340121,2.111574 l 0.127804,2.111575 0.406707,-2.111575 c 0.223689,-1.161366 1.009591,-2.111574 1.746448,-2.111574 z m -8.472191,-9.818532 c -1.528316,-1.264239 -2.516292,-2.56108 -2.195501,-2.881872 0.320792,-0.32079 2.62702,-0.693199 5.124951,-0.827574 2.497933,-0.134375 5.175167,-0.488797 5.949411,-0.787606 0.774244,-0.298809 2.620098,-0.810569 4.101897,-1.137245 2.565647,-0.565619 2.662786,-0.468872 2.036126,2.02794 -0.965713,3.84771 -2.248839,4.972699 -5.541598,4.858635 -1.61844,-0.05606 -3.787249,0.156426 -4.819574,0.4722 -1.234811,0.377712 -2.827623,-0.212266 -4.655712,-1.724478 z m 0.432563,-9.889497 c 0,-0.516162 0.422315,-0.938477 0.938478,-0.938477 0.516162,0 0.938477,0.422315 0.938477,0.938477 0,0.516163 -0.422315,0.938478 -0.938477,0.938478 -0.516163,0 -0.938478,-0.422315 -0.938478,-0.938478 z m 10.323253,0 c 0,-0.516162 0.422315,-0.938477 0.938478,-0.938477 0.516162,0 0.938477,0.422315 0.938477,0.938477 0,0.516163 -0.422315,0.938478 -0.938477,0.938478 -0.516163,0 -0.938478,-0.422315 -0.938478,-0.938478 z m 2.060222,20.940165 c 3.694199,-3.539268 3.476356,-5.863236 -0.255271,-2.723277 -1.588091,1.33629 -3.277351,2.429618 -3.753911,2.429618 -0.476559,0 -0.866472,0.633473 -0.866472,1.407717 0,2.136305 1.947471,1.691319 4.875654,-1.114058 z"
       id="path4172"
       inkscape:connector-curvature="0" />
    <path
       style="fill:#86a096"
       d="M 0,46.923878 0,0 5.1616265,0 c 4.8396005,0 5.1616265,0.14219357 5.1616265,2.2791597 0,3.1815532 2.388292,5.2286607 6.100104,5.2286607 3.711812,0 6.100104,-2.0471075 6.100104,-5.2286607 C 22.523461,0.09969176 22.790284,0 28.623565,0 c 5.833282,0 6.100104,0.09969176 6.100104,2.2791597 0,3.1815532 2.388292,5.2286607 6.100104,5.2286607 3.711812,0 6.100105,-2.0471075 6.100105,-5.2286607 C 46.923878,0.09969176 47.1907,0 53.023982,0 c 5.833281,0 6.100104,0.09969176 6.100104,2.2791597 0,3.1815532 2.388292,5.2286607 6.100104,5.2286607 3.711812,0 6.100104,-2.0471075 6.100104,-5.2286607 C 71.324294,0.09969176 71.591116,0 77.424398,0 c 5.833282,0 6.100104,0.09969176 6.100104,2.2791597 0,3.5430025 2.539008,5.4521689 6.720532,5.0533965 l 3.602721,-0.3435747 0,43.4293865 0,43.429387 -46.923877,0 -46.923878,0 0,-46.923877 z m 29.759359,39.416057 c 0.466928,-1.785536 1.280098,-1.876955 16.69528,-1.876955 15.415181,0 16.228352,-0.09142 16.69528,-1.876956 0.269958,-1.032325 1.163844,-1.876955 1.98641,-1.876955 0.822568,0 1.495577,-0.685182 1.495577,-1.522628 0,-1.31514 -0.223801,-1.347111 -1.642336,-0.234619 -1.489588,1.168216 -1.52215,1.134788 -0.350106,-0.359413 0.912529,-1.163354 1.096838,-2.817887 0.627256,-5.630865 -0.365734,-2.190894 -1.018116,-6.39319 -1.449737,-9.338434 -0.657563,-4.487009 -1.405728,-5.98219 -4.615785,-9.22449 -2.511645,-2.536871 -3.831023,-3.354536 -3.831023,-2.374221 0,1.92334 -5.597481,7.036247 -7.742439,7.072177 -1.030317,0.01726 -1.689962,0.814391 -1.77014,2.139084 L 45.729792,63.347235 45.3289,61.28003 c -0.220491,-1.136961 -1.192757,-2.318531 -2.160592,-2.62571 -0.967834,-0.307178 -3.01042,-1.982999 -4.53908,-3.724047 l -2.77938,-3.16554 -1.829423,2.037341 c -3.239014,3.607133 -8.681531,15.920919 -8.681531,19.642107 0,1.931038 0.380083,3.510978 0.84463,3.510978 0.464546,0 -0.591241,1.435871 -2.346194,3.190824 -2.981317,2.981317 -4.018564,5.991863 -2.565172,7.445255 0.344108,0.344108 2.284062,0.625652 4.311008,0.625652 2.896094,0 3.790476,-0.401973 4.176193,-1.876955 z m 37.341786,0 c 0.319006,-0.516163 2.064155,-0.938478 3.878109,-0.938478 2.634203,0 3.23532,-0.330596 2.986225,-1.642336 -0.431905,-2.274425 -8.9545,-2.932283 -9.789745,-0.755669 -1.104478,2.878224 1.425384,5.763576 2.925411,3.336483 z M 41.12205,53.602118 c -1.762033,-1.581017 -3.273674,-2.342265 -3.482201,-1.753605 -0.202671,0.572126 1.041574,2.300123 2.764988,3.839993 1.765301,1.577296 3.285744,2.342977 3.482201,1.753605 0.191797,-0.575389 -1.052448,-2.303386 -2.764988,-3.839993 z m 6.357307,0.82958 c 2.204979,0 9.616056,-7.424232 10.868493,-10.887786 1.035926,-2.864801 1.516135,-3.189377 4.718675,-3.189377 1.96096,0 3.565381,-0.422315 3.565381,-0.938478 0,-0.516163 -1.042533,-0.938477 -2.31674,-0.938477 -1.673758,0 -2.166817,-0.390694 -1.776548,-1.407717 0.330703,-0.861799 1.753581,-1.407716 3.66907,-1.407716 1.720883,0 3.412646,-0.459146 3.759472,-1.020323 0.412467,-0.667384 -0.326856,-0.919892 -2.137335,-0.729985 -1.554288,0.163035 -3.923367,-0.466732 -5.40311,-1.436298 -2.416769,-1.583527 -2.706514,-1.599172 -3.495823,-0.188754 -1.306437,2.334473 -2.622239,0.85705 -2.622239,-2.944331 0,-3.328881 -0.03316,-3.359094 -1.741535,-1.58695 -0.957845,0.993596 -1.578392,2.250366 -1.378995,2.792824 0.206482,0.561734 -1.063732,1.026717 -2.950853,1.080209 -1.822366,0.05166 -3.313392,-0.286594 -3.313392,-0.751668 0,-0.465074 -0.633473,-0.845589 -1.407717,-0.845589 -0.774244,0 -1.407716,0.36818 -1.407716,0.818179 0,0.449998 -1.691623,0.773824 -3.759161,0.719611 -4.057781,-0.1064 -4.556309,-1.581708 -0.863649,-2.555822 1.923704,-0.507467 2.022028,-0.693329 0.63428,-1.198983 -4.375071,-1.594146 -4.457768,-1.562204 -4.457768,1.721844 0,3.683725 -1.345822,5.031506 -2.666931,2.670815 -0.763899,-1.365013 -1.139441,-1.42345 -2.403873,-0.374065 -1.910883,1.585892 -1.93021,5.118163 -0.0366,6.689718 0.804065,0.667314 2.091,2.72502 2.859855,4.57268 1.557307,3.742414 8.537436,11.336439 10.420007,11.336439 0.666775,0 1.269829,0.950208 1.340121,2.111574 l 0.127804,2.111575 0.406707,-2.111575 c 0.223689,-1.161366 1.020242,-2.111574 1.77012,-2.111574 z m -8.495863,-9.818532 c -1.528316,-1.264239 -2.516292,-2.56108 -2.195501,-2.881872 0.320792,-0.32079 2.62702,-0.693199 5.124951,-0.827574 2.497933,-0.134375 5.175167,-0.488797 5.949411,-0.787606 0.774244,-0.298809 2.620098,-0.810569 4.101897,-1.137245 2.565647,-0.565619 2.662786,-0.468872 2.036126,2.02794 -0.965713,3.84771 -2.248839,4.972699 -5.541598,4.858635 -1.61844,-0.05606 -3.787249,0.156426 -4.819574,0.4722 -1.234811,0.377712 -2.827623,-0.212266 -4.655712,-1.724478 z m 0.432563,-9.889497 c 0,-0.516162 0.422315,-0.938477 0.938478,-0.938477 0.516162,0 0.938477,0.422315 0.938477,0.938477 0,0.516163 -0.422315,0.938478 -0.938477,0.938478 -0.516163,0 -0.938478,-0.422315 -0.938478,-0.938478 z m 10.323253,0 c 0,-0.516162 0.422315,-0.938477 0.938478,-0.938477 0.516162,0 0.938477,0.422315 0.938477,0.938477 0,0.516163 -0.422315,0.938478 -0.938477,0.938478 -0.516163,0 -0.938478,-0.422315 -0.938478,-0.938478 z m 2.060222,20.940165 c 3.694199,-3.539268 3.476356,-5.863236 -0.255271,-2.723277 -1.588091,1.33629 -3.277351,2.429618 -3.753911,2.429618 -0.476559,0 -0.866472,0.633473 -0.866472,1.407717 0,2.136305 1.947471,1.691319 4.875654,-1.114058 z"
       id="path4170"
       inkscape:connector-curvature="0" />
    <path
       style="fill:#a4e72b"
       d="M 0,46.923878 0,0 5.1616265,0 c 4.8396005,0 5.1616265,0.14219357 5.1616265,2.2791597 0,3.1815532 2.388292,5.2286607 6.100104,5.2286607 3.711812,0 6.100104,-2.0471075 6.100104,-5.2286607 C 22.523461,0.09969176 22.790284,0 28.623565,0 c 5.833282,0 6.100104,0.09969176 6.100104,2.2791597 0,3.1815532 2.388292,5.2286607 6.100104,5.2286607 3.711812,0 6.100105,-2.0471075 6.100105,-5.2286607 C 46.923878,0.09969176 47.1907,0 53.023982,0 c 5.833281,0 6.100104,0.09969176 6.100104,2.2791597 0,3.1815532 2.388292,5.2286607 6.100104,5.2286607 3.711812,0 6.100104,-2.0471075 6.100104,-5.2286607 C 71.324294,0.09969176 71.591116,0 77.424398,0 c 5.833282,0 6.100104,0.09969176 6.100104,2.2791597 0,3.5430025 2.539008,5.4521689 6.720532,5.0533965 l 3.602721,-0.3435747 0,43.4293865 0,43.429387 -46.923877,0 -46.923878,0 0,-46.923877 z m 29.759359,39.416057 c 0.467277,-1.786873 1.280098,-1.876955 16.935895,-1.876955 14.574071,0 16.583109,0.186851 17.658439,1.642335 0.972164,1.315847 1.449815,1.40913 2.402729,0.469239 0.654145,-0.645203 2.613958,-1.173097 4.355141,-1.173097 2.484934,0 3.099145,-0.346055 2.855913,-1.609059 C 73.797044,82.907415 72.309467,81.796699 70.661749,81.32414 67.299699,80.359917 67.359706,80.526768 65.2454,66.263808 64.154817,58.906802 63.456737,56.667041 61.881642,55.471316 60.788476,54.641445 58.689351,52.995171 57.216921,51.812931 l -2.677145,-2.149529 2.292154,-3.377679 c 1.260686,-1.857724 2.292156,-3.952219 2.292156,-4.654434 0,-0.863896 1.213888,-1.276754 3.75391,-1.276754 2.06465,0 3.75391,-0.422315 3.75391,-0.938478 0,-0.516163 -1.042533,-0.938477 -2.31674,-0.938477 -1.673758,0 -2.166817,-0.390694 -1.776548,-1.407717 0.330703,-0.861799 1.753581,-1.407716 3.66907,-1.407716 1.720883,0 3.412646,-0.459146 3.759472,-1.020323 0.412467,-0.667384 -0.326856,-0.919892 -2.137335,-0.729985 -1.554288,0.163035 -3.923367,-0.466732 -5.40311,-1.436298 -2.416769,-1.583527 -2.706514,-1.599172 -3.495823,-0.188754 -1.306437,2.334473 -2.622239,0.85705 -2.622239,-2.944331 0,-3.328881 -0.03316,-3.359094 -1.741535,-1.58695 -0.957845,0.993596 -1.578392,2.250366 -1.378995,2.792824 0.206482,0.561734 -1.063732,1.026717 -2.950853,1.080209 -1.822366,0.05166 -3.313392,-0.286594 -3.313392,-0.751668 0,-0.465074 -0.633473,-0.845589 -1.407717,-0.845589 -0.774244,0 -1.407716,0.36818 -1.407716,0.818179 0,0.449998 -1.691623,0.773824 -3.759161,0.719611 -4.057781,-0.1064 -4.556309,-1.581708 -0.863649,-2.555822 2.293205,-0.604941 2.143938,-0.751882 -2.181152,-2.147154 -1.346603,-0.434414 -1.642336,0.04637 -1.642336,2.670015 0,3.683725 -1.345822,5.031506 -2.666931,2.670815 -0.763899,-1.365013 -1.139441,-1.42345 -2.403873,-0.374065 -2.05835,1.708279 -1.879498,5.070573 0.378416,7.113957 1.032325,0.934242 1.876955,2.207708 1.876955,2.829924 0,0.622216 1.057904,2.690211 2.350897,4.595543 l 2.350897,3.464239 -3.032512,2.769773 c -4.897045,4.47276 -10.066633,14.886338 -10.094969,20.335227 -0.01134,2.179883 -0.92762,5.830324 -2.036188,8.11209 -2.654105,5.462946 -1.939044,7.163276 3.012461,7.163276 3.08196,0 3.971295,-0.382673 4.362059,-1.876955 z m 9.224135,-41.726769 c -1.528316,-1.264239 -2.516292,-2.56108 -2.195501,-2.881872 0.320792,-0.32079 2.62702,-0.693199 5.124951,-0.827574 2.497933,-0.134375 5.175167,-0.488797 5.949411,-0.787606 0.774244,-0.298809 2.620098,-0.810569 4.101897,-1.137245 2.565647,-0.565619 2.662786,-0.468872 2.036126,2.02794 -0.965713,3.84771 -2.248839,4.972699 -5.541598,4.858635 -1.61844,-0.05606 -3.787249,0.156426 -4.819574,0.4722 -1.234811,0.377712 -2.827623,-0.212266 -4.655712,-1.724478 z m 0.432563,-9.889497 c 0,-0.516162 0.422315,-0.938477 0.938478,-0.938477 0.516162,0 0.938477,0.422315 0.938477,0.938477 0,0.516163 -0.422315,0.938478 -0.938477,0.938478 -0.516163,0 -0.938478,-0.422315 -0.938478,-0.938478 z m 10.323253,0 c 0,-0.516162 0.422315,-0.938477 0.938478,-0.938477 0.516162,0 0.938477,0.422315 0.938477,0.938477 0,0.516163 -0.422315,0.938478 -0.938477,0.938478 -0.516163,0 -0.938478,-0.422315 -0.938478,-0.938478 z"
       id="path4168"
       inkscape:connector-curvature="0" />
    <path
       style="fill:#ba8d5f"
       d="M 0,46.923878 0,0 5.1616265,0 c 4.8396005,0 5.1616265,0.14219357 5.1616265,2.2791597 0,3.1815532 2.388292,5.2286607 6.100104,5.2286607 3.711812,0 6.100104,-2.0471075 6.100104,-5.2286607 C 22.523461,0.09969176 22.790284,0 28.623565,0 c 5.833282,0 6.100104,0.09969176 6.100104,2.2791597 0,3.1815532 2.388292,5.2286607 6.100104,5.2286607 3.711812,0 6.100105,-2.0471075 6.100105,-5.2286607 C 46.923878,0.09969176 47.1907,0 53.023982,0 c 5.833281,0 6.100104,0.09969176 6.100104,2.2791597 0,3.1815532 2.388292,5.2286607 6.100104,5.2286607 3.711812,0 6.100104,-2.0471075 6.100104,-5.2286607 C 71.324294,0.09969176 71.591116,0 77.424398,0 c 5.833282,0 6.100104,0.09969176 6.100104,2.2791597 0,3.5430025 2.539008,5.4521689 6.720532,5.0533965 l 3.602721,-0.3435747 0,43.4293865 0,43.429387 -46.923877,0 -46.923878,0 0,-46.923877 z m 29.759359,39.416057 c 0.467277,-1.786873 1.280098,-1.876955 16.935895,-1.876955 14.574071,0 16.583109,0.186851 17.658439,1.642335 0.972164,1.315847 1.449815,1.40913 2.402729,0.469239 0.654145,-0.645203 2.613958,-1.173097 4.355141,-1.173097 2.484934,0 3.099145,-0.346055 2.855913,-1.609059 C 73.797044,82.907415 72.309467,81.796699 70.661749,81.32414 67.299699,80.359917 67.359706,80.526768 65.2454,66.263808 64.154817,58.906802 63.456737,56.667041 61.881642,55.471316 60.788476,54.641445 58.689351,52.995171 57.216921,51.812931 l -2.677145,-2.149529 2.292154,-3.377679 c 1.260686,-1.857724 2.292156,-3.952219 2.292156,-4.654434 0,-0.863896 1.213888,-1.276754 3.75391,-1.276754 2.06465,0 3.75391,-0.422315 3.75391,-0.938478 0,-0.516163 -1.042533,-0.938477 -2.31674,-0.938477 -1.673758,0 -2.166817,-0.390694 -1.776548,-1.407717 0.330703,-0.861799 1.753581,-1.407716 3.66907,-1.407716 1.720883,0 3.412646,-0.459146 3.759472,-1.020323 0.412467,-0.667384 -0.326856,-0.919892 -2.137335,-0.729985 -1.554288,0.163035 -3.923367,-0.466732 -5.40311,-1.436298 -2.416769,-1.583527 -2.706514,-1.599172 -3.495823,-0.188754 -1.306437,2.334473 -2.622239,0.85705 -2.622239,-2.944331 0,-3.328881 -0.03316,-3.359094 -1.741535,-1.58695 -0.957845,0.993596 -1.578392,2.250366 -1.378995,2.792824 0.206482,0.561734 -1.063732,1.026717 -2.950853,1.080209 -1.822366,0.05166 -3.313392,-0.286594 -3.313392,-0.751668 0,-0.465074 -0.633473,-0.845589 -1.407717,-0.845589 -0.774244,0 -1.407716,0.36818 -1.407716,0.818179 0,0.449998 -1.691623,0.773824 -3.759161,0.719611 -4.057781,-0.1064 -4.556309,-1.581708 -0.863649,-2.555822 2.293205,-0.604941 2.143938,-0.751882 -2.181152,-2.147154 -1.346603,-0.434414 -1.642336,0.04637 -1.642336,2.670015 0,3.683725 -1.345822,5.031506 -2.666931,2.670815 -0.763899,-1.365013 -1.139441,-1.42345 -2.403873,-0.374065 -2.05835,1.708279 -1.879498,5.070573 0.378416,7.113957 1.032325,0.934242 1.876955,2.207708 1.876955,2.829924 0,0.622216 1.057904,2.690211 2.350897,4.595543 l 2.350897,3.464239 -3.032512,2.769773 c -4.897045,4.47276 -10.066633,14.886338 -10.094969,20.335227 -0.01134,2.179883 -0.92762,5.830324 -2.036188,8.11209 -2.654105,5.462946 -1.939044,7.163276 3.012461,7.163276 3.08196,0 3.971295,-0.382673 4.362059,-1.876955 z m 9.224135,-41.726769 c -1.528316,-1.264239 -2.516292,-2.56108 -2.195501,-2.881872 0.320792,-0.32079 2.62702,-0.693199 5.124951,-0.827574 2.497933,-0.134375 5.175167,-0.488797 5.949411,-0.787606 0.774244,-0.298809 2.620098,-0.810569 4.101897,-1.137245 2.565647,-0.565619 2.662786,-0.468872 2.036126,2.02794 -0.965713,3.84771 -2.248839,4.972699 -5.541598,4.858635 -1.61844,-0.05606 -3.787249,0.156426 -4.819574,0.4722 -1.234811,0.377712 -2.827623,-0.212266 -4.655712,-1.724478 z m 0.432563,-9.889497 c 0,-0.516162 0.422315,-0.938477 0.938478,-0.938477 0.516162,0 0.938477,0.422315 0.938477,0.938477 0,0.516163 -0.422315,0.938478 -0.938477,0.938478 -0.516163,0 -0.938478,-0.422315 -0.938478,-0.938478 z m 10.323253,0 c 0,-0.516162 0.422315,-0.938477 0.938478,-0.938477 0.516162,0 0.938477,0.422315 0.938477,0.938477 0,0.516163 -0.422315,0.938478 -0.938477,0.938478 -0.516163,0 -0.938478,-0.422315 -0.938478,-0.938478 z m 35.662147,23.461939 c 0,-0.552045 -3.284671,-0.938477 -7.977059,-0.938477 -4.692388,0 -7.977059,0.386432 -7.977059,0.938477 0,0.552045 3.284671,0.938478 7.977059,0.938478 4.692388,0 7.977059,-0.386433 7.977059,-0.938478 z m 3.335254,-4.774233 c 0.410721,-0.66456 -0.306422,-0.922036 -2.056752,-0.738438 -1.47804,0.155038 -3.109407,0.06033 -3.62526,-0.210462 -1.973604,-1.036024 -12.974931,-0.380944 -13.370018,0.796126 -0.516368,1.538392 18.103395,1.6877 19.05203,0.152774 z"
       id="path4166"
       inkscape:connector-curvature="0" />
    <path
       style="fill:#fa5754"
       d="m 0,89.155367 0,-3.75391 10.323253,0 c 6.256517,0 10.323253,0.369703 10.323253,0.938478 0,0.563086 -3.75391,0.938477 -9.384775,0.938477 -8.7591242,0 -9.3847759,0.12513 -9.3847759,1.876955 0,1.850886 0.6256517,1.876955 45.0469229,1.876955 44.42127,0 45.046922,-0.02607 45.046922,-1.876955 0,-1.784669 -0.625652,-1.876955 -12.724833,-1.876955 -8.244245,0 -12.520604,-0.330451 -12.144822,-0.938477 0.341795,-0.553037 5.953437,-0.938478 13.66331,-0.938478 l 13.0833,0 0,3.75391 0,3.75391 -46.923877,0 -46.923878,0 0,-3.75391 z m 30.031282,-2.815432 c 0,-0.59078 6.238054,-0.938478 16.837209,-0.938478 10.212481,0 17.06542,0.369252 17.417221,0.938478 0.378716,0.612775 -5.464707,0.938477 -16.83721,0.938477 -10.985828,0 -17.41722,-0.346537 -17.41722,-0.938477 z M 0.93847755,46.585623 c 0,-20.832546 -0.26856017,-39.8367161 -0.59680038,-42.2314895 L -0.25512321,0 5.0340649,0 c 4.9746651,0 5.2891881,0.13553085 5.2891881,2.2791597 0,3.1815532 2.388292,5.2286607 6.100104,5.2286607 3.711812,0 6.100104,-2.0471075 6.100104,-5.2286607 C 22.523461,0.09969176 22.790284,0 28.623565,0 c 5.833282,0 6.100104,0.09969176 6.100104,2.2791597 0,3.1815532 2.388292,5.2286607 6.100104,5.2286607 3.711812,0 6.100105,-2.0471075 6.100105,-5.2286607 C 46.923878,0.09969176 47.1907,0 53.023982,0 c 5.833281,0 6.100104,0.09969176 6.100104,2.2791597 0,3.1815532 2.388292,5.2286607 6.100104,5.2286607 3.711812,0 6.100104,-2.0471075 6.100104,-5.2286607 C 71.324294,0.09969176 71.591116,0 77.424398,0 c 5.833282,0 6.100104,0.09969176 6.100104,2.2791597 0,3.1992326 2.393685,5.2286607 6.167139,5.2286607 l 3.217636,0 0,38.4775796 0,38.47758 -9.284368,0 c -7.110234,0 -9.402915,-0.308925 -9.790603,-1.319222 -0.278427,-0.725572 -1.801712,-1.603757 -3.385077,-1.951522 -1.583365,-0.347765 -2.879423,-0.704325 -2.880128,-0.792353 -7.06e-4,-0.08803 -0.633601,-3.749729 -1.406434,-8.137112 -0.772832,-4.387382 -1.405727,-8.082638 -1.406433,-8.211678 -7.06e-4,-0.129041 6.122283,-0.23462 13.606641,-0.23462 l 13.607925,0 -0.108864,-3.988529 c -0.05988,-2.193691 -0.316479,-3.1439 -0.570228,-2.111575 -0.961536,3.911809 -1.957743,4.223149 -13.512983,4.223149 l -11.146819,0 0,-2.815432 c 0,-2.209177 -0.4127,-2.815433 -1.916564,-2.815433 -1.054112,0 -2.426635,-0.415948 -3.050052,-0.92433 -0.623419,-0.508382 -2.496695,-2.016186 -4.162836,-3.350675 l -3.02935,-2.426346 2.032741,-2.749429 2.03274,-2.749428 16.716107,0 16.716108,0 0,-3.75391 0,-3.753911 -9.854014,0 c -9.656798,0 -9.854015,0.0432 -9.854015,2.158499 0,3.371171 -1.813898,4.410844 -7.695516,4.410844 -4.212721,0 -5.443169,-0.318219 -5.443169,-1.407716 0,-1.016684 1.042752,-1.407716 3.75391,-1.407716 2.06465,0 3.75391,-0.422315 3.75391,-0.938478 0,-0.516163 -1.042533,-0.938477 -2.31674,-0.938477 -1.673758,0 -2.166817,-0.390694 -1.776548,-1.407717 0.330703,-0.861799 1.753581,-1.407716 3.66907,-1.407716 1.720883,0 3.412646,-0.459146 3.759472,-1.020323 0.412467,-0.667384 -0.326856,-0.919892 -2.137335,-0.729985 -1.554288,0.163035 -3.923367,-0.466732 -5.40311,-1.436298 -2.416769,-1.583527 -2.706514,-1.599172 -3.495823,-0.188754 -1.306437,2.334473 -2.622239,0.85705 -2.622239,-2.944331 0,-3.328881 -0.03316,-3.359094 -1.741535,-1.58695 -0.957845,0.993596 -1.578392,2.250366 -1.378995,2.792824 0.206482,0.561734 -1.063732,1.026717 -2.950853,1.080209 -1.822366,0.05166 -3.313392,-0.286594 -3.313392,-0.751668 0,-0.465074 -0.633473,-0.845589 -1.407717,-0.845589 -0.774244,0 -1.407716,0.36818 -1.407716,0.818179 0,0.449998 -1.691623,0.773824 -3.759161,0.719611 -4.057781,-0.1064 -4.556309,-1.581708 -0.863649,-2.555822 2.293205,-0.604941 2.143938,-0.751882 -2.181152,-2.147154 -1.346603,-0.434414 -1.642336,0.04637 -1.642336,2.670015 0,3.683725 -1.345822,5.031506 -2.666931,2.670815 -0.763899,-1.365013 -1.139441,-1.42345 -2.403873,-0.374065 -0.824197,0.684022 -1.498539,2.036596 -1.498539,3.00572 0,1.136391 -0.666453,1.762043 -1.876955,1.762043 -1.350657,0 -1.876955,0.625652 -1.876955,2.231282 0,1.227206 -0.5536,2.69073 -1.230221,3.252276 -0.676622,0.561546 -6.061137,1.156456 -11.965589,1.322023 -8.7483717,0.245312 -7.7716803,0.338159 5.276882,0.501635 l 16.012248,0.200605 2.093562,2.831694 2.093561,2.831693 -3.067926,2.802119 c -1.68736,1.541165 -3.71304,4.173315 -4.50151,5.849223 -1.283097,2.727245 -1.901142,3.077131 -5.887728,3.333145 -4.403576,0.282792 -4.454144,0.253492 -4.454144,-2.580813 l 0,-2.866853 -8.915537,0 -8.9155369,0 0,3.75391 0,3.75391 12.3006149,0 c 11.346497,0 12.24823,0.127391 11.62526,1.642336 -0.371444,0.903285 -0.968443,4.176225 -1.326663,7.273201 -0.35822,3.096976 -1.377284,7.003389 -2.264585,8.680917 l -1.613276,3.050053 -9.829914,0 -9.82991445,0 0,-37.877357 z M 85.401457,58.185608 c 0,-0.552045 -3.284671,-0.938477 -7.977059,-0.938477 -4.692388,0 -7.977059,0.386432 -7.977059,0.938477 0,0.552045 3.284671,0.938478 7.977059,0.938478 4.692388,0 7.977059,-0.386433 7.977059,-0.938478 z m 3.335254,-4.774233 c 0.410721,-0.66456 -0.306422,-0.922036 -2.056752,-0.738438 -1.47804,0.155038 -3.109407,0.06033 -3.62526,-0.210462 -1.973604,-1.036024 -12.974931,-0.380944 -13.370018,0.796126 -0.516368,1.538392 18.103395,1.6877 19.05203,0.152774 z M 38.983494,44.613166 c -1.528316,-1.264239 -2.516292,-2.56108 -2.195501,-2.881872 0.320792,-0.32079 2.62702,-0.693199 5.124951,-0.827574 2.497933,-0.134375 5.175167,-0.488797 5.949411,-0.787606 0.774244,-0.298809 2.620098,-0.810569 4.101897,-1.137245 2.565647,-0.565619 2.662786,-0.468872 2.036126,2.02794 -0.965713,3.84771 -2.248839,4.972699 -5.541598,4.858635 -1.61844,-0.05606 -3.787249,0.156426 -4.819574,0.4722 -1.234811,0.377712 -2.827623,-0.212266 -4.655712,-1.724478 z m 0.432563,-9.889497 c 0,-0.516162 0.422315,-0.938477 0.938478,-0.938477 0.516162,0 0.938477,0.422315 0.938477,0.938477 0,0.516163 -0.422315,0.938478 -0.938477,0.938478 -0.516163,0 -0.938478,-0.422315 -0.938478,-0.938478 z m 10.323253,0 c 0,-0.516162 0.422315,-0.938477 0.938478,-0.938477 0.516162,0 0.938477,0.422315 0.938477,0.938477 0,0.516163 -0.422315,0.938478 -0.938477,0.938478 -0.516163,0 -0.938478,-0.422315 -0.938478,-0.938478 z"
       id="path4164"
       inkscape:connector-curvature="0" />
    <path
       style="fill:#e77b2b"
       d="m 0,89.155367 0,-3.75391 10.323253,0 c 6.256517,0 10.323253,0.369703 10.323253,0.938478 0,0.563086 -3.75391,0.938477 -9.384775,0.938477 -8.7591242,0 -9.3847759,0.12513 -9.3847759,1.876955 0,1.850886 0.6256517,1.876955 45.0469229,1.876955 44.42127,0 45.046922,-0.02607 45.046922,-1.876955 0,-1.784669 -0.625652,-1.876955 -12.724833,-1.876955 -8.244245,0 -12.520604,-0.330451 -12.144822,-0.938477 0.341795,-0.553037 5.953437,-0.938478 13.66331,-0.938478 l 13.0833,0 0,3.75391 0,3.75391 -46.923877,0 -46.923878,0 0,-3.75391 z m 30.031282,-2.815432 c 0,-0.59078 6.238054,-0.938478 16.837209,-0.938478 10.212481,0 17.06542,0.369252 17.417221,0.938478 0.378716,0.612775 -5.464707,0.938477 -16.83721,0.938477 -10.985828,0 -17.41722,-0.346537 -17.41722,-0.938477 z M 0.93847755,45.498281 l 0,-38.964698 2.29896665,0.577004 C 4.9426578,7.5385683 6.1545589,7.0694432 7.929832,5.2941699 9.2462136,3.9777882 10.323253,3.2737022 10.323253,3.7295342 c 0,3.6563403 8.24593,5.1298159 10.961156,1.9586627 1.541647,-1.8005131 1.582306,-1.8005131 3.871287,0 3.040632,2.3917616 4.484977,2.2955482 7.264438,-0.4839123 1.266945,-1.2669447 2.303535,-1.9305824 2.303535,-1.4747504 0,3.6563403 8.245931,5.1298159 10.961156,1.9586627 1.541648,-1.8005131 1.582306,-1.8005131 3.871288,0 3.040631,2.3917616 4.484976,2.2955482 7.264437,-0.4839123 1.266945,-1.2669447 2.303536,-1.9305824 2.303536,-1.4747504 0,3.6563403 8.24593,5.1298159 10.961156,1.9586627 1.541647,-1.8005131 1.582306,-1.8005131 3.871287,0 3.040632,2.3917616 4.484977,2.2955482 7.264438,-0.4839123 1.266944,-1.2669447 2.303535,-1.9305824 2.303535,-1.4747504 0,1.8528721 3.142773,3.7782862 6.167139,3.7782862 l 3.217636,0 0,38.4775796 0,38.47758 -9.284368,0 c -7.110234,0 -9.402915,-0.308925 -9.790603,-1.319222 -0.278427,-0.725572 -1.801712,-1.603757 -3.385077,-1.951522 -1.583365,-0.347765 -2.879423,-0.704325 -2.880128,-0.792353 -7.06e-4,-0.08803 -0.633601,-3.749729 -1.406434,-8.137112 -0.772832,-4.387382 -1.405727,-8.082638 -1.406433,-8.211678 -7.06e-4,-0.129041 6.122283,-0.23462 13.606641,-0.23462 l 13.607925,0 -0.108864,-3.988529 c -0.05988,-2.193691 -0.316479,-3.1439 -0.570228,-2.111575 -0.961536,3.911809 -1.957743,4.223149 -13.512983,4.223149 l -11.146819,0 0,-2.815432 c 0,-2.209177 -0.4127,-2.815433 -1.916564,-2.815433 -1.054112,0 -2.426635,-0.415948 -3.050052,-0.92433 -0.623419,-0.508382 -2.496695,-2.016186 -4.162836,-3.350675 l -3.02935,-2.426346 2.032741,-2.749429 2.03274,-2.749428 16.716107,0 16.716108,0 0,-3.75391 0,-3.753911 -9.854014,0 c -9.656798,0 -9.854015,0.0432 -9.854015,2.158499 0,3.371171 -1.813898,4.410844 -7.695516,4.410844 -4.212721,0 -5.443169,-0.318219 -5.443169,-1.407716 0,-1.016684 1.042752,-1.407716 3.75391,-1.407716 2.06465,0 3.75391,-0.422315 3.75391,-0.938478 0,-0.516163 -1.042533,-0.938477 -2.31674,-0.938477 -1.673758,0 -2.166817,-0.390694 -1.776548,-1.407717 0.330703,-0.861799 1.753581,-1.407716 3.66907,-1.407716 1.720883,0 3.412646,-0.459146 3.759472,-1.020323 0.412467,-0.667384 -0.326856,-0.919892 -2.137335,-0.729985 -1.554288,0.163035 -3.923367,-0.466732 -5.40311,-1.436298 -2.416769,-1.583527 -2.706514,-1.599172 -3.495823,-0.188754 -1.306437,2.334473 -2.622239,0.85705 -2.622239,-2.944331 0,-3.328881 -0.03316,-3.359094 -1.741535,-1.58695 -0.957845,0.993596 -1.578392,2.250366 -1.378995,2.792824 0.206482,0.561734 -1.063732,1.026717 -2.950853,1.080209 -1.822366,0.05166 -3.313392,-0.286594 -3.313392,-0.751668 0,-0.465074 -0.633473,-0.845589 -1.407717,-0.845589 -0.774244,0 -1.407716,0.36818 -1.407716,0.818179 0,0.449998 -1.691623,0.773824 -3.759161,0.719611 -4.057781,-0.1064 -4.556309,-1.581708 -0.863649,-2.555822 2.293205,-0.604941 2.143938,-0.751882 -2.181152,-2.147154 -1.346603,-0.434414 -1.642336,0.04637 -1.642336,2.670015 0,3.683725 -1.345822,5.031506 -2.666931,2.670815 -0.763899,-1.365013 -1.139441,-1.42345 -2.403873,-0.374065 -0.824197,0.684022 -1.498539,2.036596 -1.498539,3.00572 0,1.136391 -0.666453,1.762043 -1.876955,1.762043 -1.350657,0 -1.876955,0.625652 -1.876955,2.231282 0,1.227206 -0.5536,2.69073 -1.230221,3.252276 -0.676622,0.561546 -6.061137,1.156456 -11.965589,1.322023 -8.7483717,0.245312 -7.7716803,0.338159 5.276882,0.501635 l 16.012248,0.200605 2.093562,2.831694 2.093561,2.831693 -3.067926,2.802119 c -1.68736,1.541165 -3.71304,4.173315 -4.50151,5.849223 -1.283097,2.727245 -1.901142,3.077131 -5.887728,3.333145 -4.403576,0.282792 -4.454144,0.253492 -4.454144,-2.580813 l 0,-2.866853 -8.915537,0 -8.9155369,0 0,3.75391 0,3.75391 12.3006149,0 c 11.346497,0 12.24823,0.127391 11.62526,1.642336 -0.371444,0.903285 -0.968443,4.176225 -1.326663,7.273201 -0.35822,3.096976 -1.377284,7.003389 -2.264585,8.680917 l -1.613276,3.050053 -9.829914,0 -9.82991445,0 0,-38.964699 z M 85.401457,58.185608 c 0,-0.552045 -3.284671,-0.938477 -7.977059,-0.938477 -4.692388,0 -7.977059,0.386432 -7.977059,0.938477 0,0.552045 3.284671,0.938478 7.977059,0.938478 4.692388,0 7.977059,-0.386433 7.977059,-0.938478 z m 3.335254,-4.774233 c 0.410721,-0.66456 -0.306422,-0.922036 -2.056752,-0.738438 -1.47804,0.155038 -3.109407,0.06033 -3.62526,-0.210462 -1.973604,-1.036024 -12.974931,-0.380944 -13.370018,0.796126 -0.516368,1.538392 18.103395,1.6877 19.05203,0.152774 z M 38.983494,44.613166 c -1.528316,-1.264239 -2.516292,-2.56108 -2.195501,-2.881872 0.320792,-0.32079 2.62702,-0.693199 5.124951,-0.827574 2.497933,-0.134375 5.175167,-0.488797 5.949411,-0.787606 0.774244,-0.298809 2.620098,-0.810569 4.101897,-1.137245 2.565647,-0.565619 2.662786,-0.468872 2.036126,2.02794 -0.965713,3.84771 -2.248839,4.972699 -5.541598,4.858635 -1.61844,-0.05606 -3.787249,0.156426 -4.819574,0.4722 -1.234811,0.377712 -2.827623,-0.212266 -4.655712,-1.724478 z m 0.432563,-9.889497 c 0,-0.516162 0.422315,-0.938477 0.938478,-0.938477 0.516162,0 0.938477,0.422315 0.938477,0.938477 0,0.516163 -0.422315,0.938478 -0.938477,0.938478 -0.516163,0 -0.938478,-0.422315 -0.938478,-0.938478 z m 10.323253,0 c 0,-0.516162 0.422315,-0.938477 0.938478,-0.938477 0.516162,0 0.938477,0.422315 0.938477,0.938477 0,0.516163 -0.422315,0.938478 -0.938477,0.938478 -0.516163,0 -0.938478,-0.422315 -0.938478,-0.938478 z"
       id="path4162"
       inkscape:connector-curvature="0" />
    <path
       style="fill:#e72b58"
       d="m 0,89.155367 0,-3.75391 10.323253,0 c 6.256517,0 10.323253,0.369703 10.323253,0.938478 0,0.563086 -3.75391,0.938477 -9.384775,0.938477 -8.7591242,0 -9.3847759,0.12513 -9.3847759,1.876955 0,1.850886 0.6256517,1.876955 45.0469229,1.876955 44.42127,0 45.046922,-0.02607 45.046922,-1.876955 0,-1.784669 -0.625652,-1.876955 -12.724833,-1.876955 -8.244245,0 -12.520604,-0.330451 -12.144822,-0.938477 0.341795,-0.553037 5.953437,-0.938478 13.66331,-0.938478 l 13.0833,0 0,3.75391 0,3.75391 -46.923877,0 -46.923878,0 0,-3.75391 z m 30.031282,-2.815432 c 0,-0.59078 6.238054,-0.938478 16.837209,-0.938478 10.212481,0 17.06542,0.369252 17.417221,0.938478 0.378716,0.612775 -5.464707,0.938477 -16.83721,0.938477 -10.985828,0 -17.41722,-0.346537 -17.41722,-0.938477 z M 0.93847755,45.498281 l 0,-38.964698 2.29896665,0.577004 C 4.9426578,7.5385683 6.1545589,7.0694432 7.929832,5.2941699 9.2462136,3.9777882 10.323253,3.2737022 10.323253,3.7295342 c 0,3.6563403 8.24593,5.1298159 10.961156,1.9586627 1.541647,-1.8005131 1.582306,-1.8005131 3.871287,0 3.040632,2.3917616 4.484977,2.2955482 7.264438,-0.4839123 1.266945,-1.2669447 2.303535,-1.9305824 2.303535,-1.4747504 0,3.6563403 8.245931,5.1298159 10.961156,1.9586627 1.541648,-1.8005131 1.582306,-1.8005131 3.871288,0 3.040631,2.3917616 4.484976,2.2955482 7.264437,-0.4839123 1.266945,-1.2669447 2.303536,-1.9305824 2.303536,-1.4747504 0,3.6563403 8.24593,5.1298159 10.961156,1.9586627 1.541647,-1.8005131 1.582306,-1.8005131 3.871287,0 3.040632,2.3917616 4.484977,2.2955482 7.264438,-0.4839123 1.266944,-1.2669447 2.303535,-1.9305824 2.303535,-1.4747504 0,1.8528721 3.142773,3.7782862 6.167139,3.7782862 l 3.217636,0 0,38.4775796 0,38.47758 -9.284368,0 c -7.110234,0 -9.402915,-0.308925 -9.790603,-1.319222 -0.278427,-0.725572 -1.801712,-1.603757 -3.385077,-1.951522 -1.583365,-0.347765 -2.879423,-0.704325 -2.880128,-0.792353 -7.06e-4,-0.08803 -0.633601,-3.749729 -1.406434,-8.137112 -0.772832,-4.387382 -1.405727,-8.082638 -1.406433,-8.211678 -7.06e-4,-0.129041 6.122283,-0.23462 13.606641,-0.23462 l 13.607925,0 -0.108864,-3.988529 c -0.05988,-2.193691 -0.316479,-3.1439 -0.570228,-2.111575 -0.961536,3.911809 -1.957743,4.223149 -13.512983,4.223149 l -11.146819,0 0,-2.815432 c 0,-2.209177 -0.4127,-2.815433 -1.916564,-2.815433 -1.054112,0 -2.426635,-0.415948 -3.050052,-0.92433 -0.623419,-0.508382 -2.496695,-2.016186 -4.162836,-3.350675 l -3.02935,-2.426346 2.032741,-2.749429 2.03274,-2.749428 16.716107,0 16.716108,0 0,-3.75391 0,-3.753911 -9.854014,0 c -9.656798,0 -9.854015,0.0432 -9.854015,2.158499 0,3.371171 -1.813898,4.410844 -7.695516,4.410844 -4.212721,0 -5.443169,-0.318219 -5.443169,-1.407716 0,-1.016684 1.042752,-1.407716 3.75391,-1.407716 2.06465,0 3.75391,-0.422315 3.75391,-0.938478 0,-0.516163 -1.042533,-0.938477 -2.31674,-0.938477 -1.673758,0 -2.166817,-0.390694 -1.776548,-1.407717 0.330703,-0.861799 1.753581,-1.407716 3.66907,-1.407716 1.720883,0 3.412646,-0.459146 3.759472,-1.020323 0.412467,-0.667384 -0.326856,-0.919892 -2.137335,-0.729985 -1.554288,0.163035 -3.923367,-0.466732 -5.40311,-1.436298 -2.416769,-1.583527 -2.706514,-1.599172 -3.495823,-0.188754 -1.306437,2.334473 -2.622239,0.85705 -2.622239,-2.944331 0,-3.328881 -0.03316,-3.359094 -1.741535,-1.58695 -0.957845,0.993596 -1.578392,2.250366 -1.378995,2.792824 0.206482,0.561734 -1.063732,1.026717 -2.950853,1.080209 -1.822366,0.05166 -3.313392,-0.286594 -3.313392,-0.751668 0,-0.465074 -0.633473,-0.845589 -1.407717,-0.845589 -0.774244,0 -1.407716,0.36818 -1.407716,0.818179 0,0.449998 -1.691623,0.773824 -3.759161,0.719611 -4.057781,-0.1064 -4.556309,-1.581708 -0.863649,-2.555822 2.293205,-0.604941 2.143938,-0.751882 -2.181152,-2.147154 -1.346603,-0.434414 -1.642336,0.04637 -1.642336,2.670015 0,3.683725 -1.345822,5.031506 -2.666931,2.670815 -0.763899,-1.365013 -1.139441,-1.42345 -2.403873,-0.374065 -0.824197,0.684022 -1.498539,2.036596 -1.498539,3.00572 0,1.136391 -0.666453,1.762043 -1.876955,1.762043 -1.350657,0 -1.876955,0.625652 -1.876955,2.231282 0,1.227206 -0.5536,2.69073 -1.230221,3.252276 -0.676622,0.561546 -6.061137,1.156456 -11.965589,1.322023 -8.7483717,0.245312 -7.7716803,0.338159 5.276882,0.501635 l 16.012248,0.200605 2.093562,2.831694 2.093561,2.831693 -3.067926,2.802119 c -1.68736,1.541165 -3.71304,4.173315 -4.50151,5.849223 -1.283097,2.727245 -1.901142,3.077131 -5.887728,3.333145 -4.403576,0.282792 -4.454144,0.253492 -4.454144,-2.580813 l 0,-2.866853 -8.915537,0 -8.9155369,0 0,3.75391 0,3.75391 12.3006149,0 c 11.346497,0 12.24823,0.127391 11.62526,1.642336 -0.371444,0.903285 -0.968443,4.176225 -1.326663,7.273201 -0.35822,3.096976 -1.377284,7.003389 -2.264585,8.680917 l -1.613276,3.050053 -9.829914,0 -9.82991445,0 0,-38.964699 z M 85.401457,58.185608 c 0,-0.552045 -3.284671,-0.938477 -7.977059,-0.938477 -4.692388,0 -7.977059,0.386432 -7.977059,0.938477 0,0.552045 3.284671,0.938478 7.977059,0.938478 4.692388,0 7.977059,-0.386433 7.977059,-0.938478 z m 3.335254,-4.774233 c 0.410721,-0.66456 -0.306422,-0.922036 -2.056752,-0.738438 -1.47804,0.155038 -3.109407,0.06033 -3.62526,-0.210462 -1.973604,-1.036024 -12.974931,-0.380944 -13.370018,0.796126 -0.516368,1.538392 18.103395,1.6877 19.05203,0.152774 z M 19.708029,39.416057 c 0,-0.552045 -3.284672,-0.938477 -7.97706,-0.938477 -4.6923874,0 -7.9770588,0.386432 -7.9770588,0.938477 0,0.552045 3.2846714,0.938478 7.9770588,0.938478 4.692388,0 7.97706,-0.386433 7.97706,-0.938478 z m 3.335254,-4.774233 c 0.410721,-0.66456 -0.306422,-0.922036 -2.056752,-0.738438 -1.478041,0.155038 -3.109407,0.06033 -3.62526,-0.210462 C 15.387666,32.6569 4.3863399,33.31198 3.9912519,34.48905 3.4748847,36.027442 22.094647,36.17675 23.043283,34.641824 Z m 15.940211,9.971342 c -1.528316,-1.264239 -2.516292,-2.56108 -2.195501,-2.881872 0.320792,-0.32079 2.62702,-0.693199 5.124951,-0.827574 2.497933,-0.134375 5.175167,-0.488797 5.949411,-0.787606 0.774244,-0.298809 2.620098,-0.810569 4.101897,-1.137245 2.565647,-0.565619 2.662786,-0.468872 2.036126,2.02794 -0.965713,3.84771 -2.248839,4.972699 -5.541598,4.858635 -1.61844,-0.05606 -3.787249,0.156426 -4.819574,0.4722 -1.234811,0.377712 -2.827623,-0.212266 -4.655712,-1.724478 z m 0.432563,-9.889497 c 0,-0.516162 0.422315,-0.938477 0.938478,-0.938477 0.516162,0 0.938477,0.422315 0.938477,0.938477 0,0.516163 -0.422315,0.938478 -0.938477,0.938478 -0.516163,0 -0.938478,-0.422315 -0.938478,-0.938478 z m 10.323253,0 c 0,-0.516162 0.422315,-0.938477 0.938478,-0.938477 0.516162,0 0.938477,0.422315 0.938477,0.938477 0,0.516163 -0.422315,0.938478 -0.938477,0.938478 -0.516163,0 -0.938478,-0.422315 -0.938478,-0.938478 z"
       id="path4160"
       inkscape:connector-curvature="0" />
    <path
       style="fill:#95704c"
       d="m 0,89.155367 0,-3.75391 10.323253,0 c 6.256517,0 10.323253,0.369703 10.323253,0.938478 0,0.563086 -3.75391,0.938477 -9.384775,0.938477 -8.7591242,0 -9.3847759,0.12513 -9.3847759,1.876955 0,1.850886 0.6256517,1.876955 45.0469229,1.876955 44.42127,0 45.046922,-0.02607 45.046922,-1.876955 0,-1.784669 -0.625652,-1.876955 -12.724833,-1.876955 -8.244245,0 -12.520604,-0.330451 -12.144822,-0.938477 0.341795,-0.553037 5.953437,-0.938478 13.66331,-0.938478 l 13.0833,0 0,3.75391 0,3.75391 -46.923877,0 -46.923878,0 0,-3.75391 z m 30.031282,-2.815432 c 0,-0.59078 6.238054,-0.938478 16.837209,-0.938478 10.212481,0 17.06542,0.369252 17.417221,0.938478 0.378716,0.612775 -5.464707,0.938477 -16.83721,0.938477 -10.985828,0 -17.41722,-0.346537 -17.41722,-0.938477 z M 0.93847755,45.646302 l 0,-38.8166783 2.39411905,0.4576649 C 4.9424609,7.5950336 6.4162788,7.0971423 7.831767,5.7673602 9.926872,3.7991113 9.9443399,3.798551 11.528567,5.6487937 c 2.141221,2.5007645 7.522959,2.4852178 9.864841,-0.028497 l 1.758496,-1.8875243 1.708186,1.8875243 c 2.182406,2.4115312 5.344544,2.4115312 7.52695,0 l 1.708186,-1.8875243 1.758497,1.8875243 c 2.340659,2.5124027 7.599442,2.5124027 9.940101,0 l 1.758497,-1.8875243 1.708185,1.8875243 c 2.182406,2.4115312 5.344545,2.4115312 7.526951,0 l 1.708186,-1.8875243 1.758496,1.8875243 c 2.340659,2.5124027 7.599442,2.5124027 9.940101,0 l 1.758497,-1.8875243 1.708186,1.8875243 c 2.182406,2.4115312 5.344544,2.4115312 7.52695,0 l 1.708186,-1.8875243 1.758497,1.8875243 c 1.107489,1.1887505 2.960968,1.8875242 5.006608,1.8875242 l 3.248113,0 0,38.4775796 0,38.47758 -9.284368,0 c -7.110234,0 -9.402915,-0.308925 -9.790603,-1.319222 -0.278427,-0.725572 -1.801712,-1.603757 -3.385077,-1.951522 -1.583365,-0.347765 -2.879423,-0.704325 -2.880128,-0.792353 -7.06e-4,-0.08803 -0.633601,-3.749729 -1.406434,-8.137112 -0.772832,-4.387382 -1.405727,-8.082638 -1.406433,-8.211678 -7.06e-4,-0.129041 6.122283,-0.23462 13.606641,-0.23462 l 13.607925,0 -0.108864,-3.988529 c -0.05988,-2.193691 -0.316479,-3.1439 -0.570228,-2.111575 -0.961536,3.911809 -1.957743,4.223149 -13.512983,4.223149 l -11.146819,0 0,-2.815432 c 0,-2.209177 -0.4127,-2.815433 -1.916564,-2.815433 -1.054112,0 -2.426635,-0.415948 -3.050052,-0.92433 -0.623419,-0.508382 -2.496695,-2.016186 -4.162836,-3.350675 l -3.02935,-2.426346 2.032741,-2.749429 2.03274,-2.749428 16.716107,0 16.716108,0 0,-3.75391 0,-3.753911 -9.854014,0 c -9.656798,0 -9.854015,0.0432 -9.854015,2.158499 0,3.371171 -1.813898,4.410844 -7.695516,4.410844 -4.212721,0 -5.443169,-0.318219 -5.443169,-1.407716 0,-1.016684 1.042752,-1.407716 3.75391,-1.407716 2.06465,0 3.75391,-0.422315 3.75391,-0.938478 0,-0.516163 -1.042533,-0.938477 -2.31674,-0.938477 -1.673758,0 -2.166817,-0.390694 -1.776548,-1.407717 0.330703,-0.861799 1.753581,-1.407716 3.66907,-1.407716 1.720883,0 3.412646,-0.459146 3.759472,-1.020323 0.412467,-0.667384 -0.326856,-0.919892 -2.137335,-0.729985 -1.554288,0.163035 -3.923367,-0.466732 -5.40311,-1.436298 -2.416769,-1.583527 -2.706514,-1.599172 -3.495823,-0.188754 -1.306437,2.334473 -2.622239,0.85705 -2.622239,-2.944331 0,-3.328881 -0.03316,-3.359094 -1.741535,-1.58695 -0.957845,0.993596 -1.578392,2.250366 -1.378995,2.792824 0.206482,0.561734 -1.063732,1.026717 -2.950853,1.080209 -1.822366,0.05166 -3.313392,-0.286594 -3.313392,-0.751668 0,-0.465074 -0.633473,-0.845589 -1.407717,-0.845589 -0.774244,0 -1.407716,0.36818 -1.407716,0.818179 0,0.449998 -1.691623,0.773824 -3.759161,0.719611 -4.057781,-0.1064 -4.556309,-1.581708 -0.863649,-2.555822 2.293205,-0.604941 2.143938,-0.751882 -2.181152,-2.147154 -1.346603,-0.434414 -1.642336,0.04637 -1.642336,2.670015 0,3.683725 -1.345822,5.031506 -2.666931,2.670815 -0.763899,-1.365013 -1.139441,-1.42345 -2.403873,-0.374065 -0.824197,0.684022 -1.498539,2.036596 -1.498539,3.00572 0,1.136391 -0.666453,1.762043 -1.876955,1.762043 -1.350657,0 -1.876955,0.625652 -1.876955,2.231282 0,1.227206 -0.5536,2.69073 -1.230221,3.252276 -0.676622,0.561546 -6.061137,1.156456 -11.965589,1.322023 -8.7483717,0.245312 -7.7716803,0.338159 5.276882,0.501635 l 16.012248,0.200605 1.968612,2.662689 c 2.9518,3.992523 1.570235,5.219887 -5.933435,5.271186 -4.185921,0.02861 -6.448781,0.438886 -6.70847,1.216281 -0.279061,0.835386 0.973008,1.173097 4.349268,1.173097 3.82878,0 4.637188,0.270893 4.200948,1.407716 -0.366734,0.955697 -1.864011,1.407717 -4.662934,1.407717 -2.267508,0 -4.122742,0.422314 -4.122742,0.938477 0,0.516163 1.74097,0.938478 3.868822,0.938478 3.332546,0 3.706878,0.19513 2.700521,1.407716 -0.712904,0.858997 -2.769668,1.407716 -5.276538,1.407716 -3.939056,0 -4.108237,-0.115942 -4.108237,-2.815432 l 0,-2.815433 -8.915537,0 -8.9155369,0 0,3.75391 0,3.75391 12.3006149,0 c 11.346497,0 12.24823,0.127391 11.62526,1.642336 -0.371444,0.903285 -0.968443,4.176225 -1.326663,7.273201 -0.35822,3.096976 -1.377284,7.003389 -2.264585,8.680917 l -1.613276,3.050053 -9.829914,0 -9.82991445,0 0,-38.816678 z M 85.401457,58.185608 c 0,-0.552045 -3.284671,-0.938477 -7.977059,-0.938477 -4.692388,0 -7.977059,0.386432 -7.977059,0.938477 0,0.552045 3.284671,0.938478 7.977059,0.938478 4.692388,0 7.977059,-0.386433 7.977059,-0.938478 z m 3.335254,-4.774233 c 0.410721,-0.66456 -0.306422,-0.922036 -2.056752,-0.738438 -1.47804,0.155038 -3.109407,0.06033 -3.62526,-0.210462 -1.973604,-1.036024 -12.974931,-0.380944 -13.370018,0.796126 -0.516368,1.538392 18.103395,1.6877 19.05203,0.152774 z M 19.708029,39.416057 c 0,-0.552045 -3.284672,-0.938477 -7.97706,-0.938477 -4.6923874,0 -7.9770588,0.386432 -7.9770588,0.938477 0,0.552045 3.2846714,0.938478 7.9770588,0.938478 4.692388,0 7.97706,-0.386433 7.97706,-0.938478 z m 3.335254,-4.774233 c 0.410721,-0.66456 -0.306422,-0.922036 -2.056752,-0.738438 -1.478041,0.155038 -3.109407,0.06033 -3.62526,-0.210462 C 15.387666,32.6569 4.3863399,33.31198 3.9912519,34.48905 3.4748847,36.027442 22.094647,36.17675 23.043283,34.641824 Z m 15.940211,9.971342 c -1.528316,-1.264239 -2.516292,-2.56108 -2.195501,-2.881872 0.320792,-0.32079 2.62702,-0.693199 5.124951,-0.827574 2.497933,-0.134375 5.175167,-0.488797 5.949411,-0.787606 0.774244,-0.298809 2.620098,-0.810569 4.101897,-1.137245 2.565647,-0.565619 2.662786,-0.468872 2.036126,2.02794 -0.965713,3.84771 -2.248839,4.972699 -5.541598,4.858635 -1.61844,-0.05606 -3.787249,0.156426 -4.819574,0.4722 -1.234811,0.377712 -2.827623,-0.212266 -4.655712,-1.724478 z m 0.432563,-9.889497 c 0,-0.516162 0.422315,-0.938477 0.938478,-0.938477 0.516162,0 0.938477,0.422315 0.938477,0.938477 0,0.516163 -0.422315,0.938478 -0.938477,0.938478 -0.516163,0 -0.938478,-0.422315 -0.938478,-0.938478 z m 10.323253,0 c 0,-0.516162 0.422315,-0.938477 0.938478,-0.938477 0.516162,0 0.938477,0.422315 0.938477,0.938477 0,0.516163 -0.422315,0.938478 -0.938477,0.938478 -0.516163,0 -0.938478,-0.422315 -0.938478,-0.938478 z"
       id="path4158"
       inkscape:connector-curvature="0" />
    <path
       style="fill:#706f54"
       d="m 1.8769551,75.078204 0,-9.384775 11.6419759,0 11.641975,0 -0.509197,5.865484 c -0.280059,3.226017 -1.304382,7.449166 -2.276274,9.384776 l -1.767076,3.519291 -9.365702,0 -9.3657019,0 0,-9.384776 z m 71.9573509,8.065554 c -0.278427,-0.725572 -1.788319,-1.600816 -3.355315,-1.944985 -2.276186,-0.499935 -2.953939,-1.22539 -3.37055,-3.607786 -0.286807,-1.640111 -0.879149,-4.988018 -1.316317,-7.43979 l -0.794848,-4.457768 13.486762,0 13.486762,0 0,9.384775 0,9.384776 -8.81513,0 c -6.707123,0 -8.936189,-0.315473 -9.321364,-1.319222 z m -54.126277,-24.019672 0,-2.815433 -8.915537,0 -8.9155369,0 0,-5.161627 0,-5.161626 16.2779039,0 c 14.390797,0 16.452462,0.192881 17.783596,1.66377 2.654239,2.9329 0.574253,4.344984 -6.471064,4.39315 -4.185921,0.02861 -6.448781,0.438886 -6.70847,1.216281 -0.279061,0.835386 0.973008,1.173097 4.349268,1.173097 3.82878,0 4.637188,0.270893 4.200948,1.407716 -0.366734,0.955697 -1.864011,1.407717 -4.662934,1.407717 -2.267508,0 -4.122742,0.422314 -4.122742,0.938477 0,0.516163 1.74097,0.938478 3.868822,0.938478 3.332546,0 3.706878,0.19513 2.700521,1.407716 -0.712904,0.858997 -2.769668,1.407716 -5.276538,1.407716 -3.939056,0 -4.108237,-0.115942 -4.108237,-2.815432 z m 46.923877,0 c 0,-2.209177 -0.4127,-2.815433 -1.916564,-2.815433 -1.054112,0 -2.426635,-0.415948 -3.050052,-0.92433 C 61.041871,54.875941 59.141408,53.345261 57.442037,51.98281 54.503575,49.626933 54.430274,49.419438 55.945153,47.745515 57.393318,46.14531 59.11364,45.9854 74.880518,45.9854 l 17.342484,0 -0.469054,6.555637 c -0.257979,3.605601 -0.999908,7.195278 -1.648729,7.977059 -0.93249,1.123582 -3.515339,1.421422 -12.326494,1.421422 l -11.146819,0 0,-2.815432 z m 18.769551,-0.938478 c 0,-0.552045 -3.284671,-0.938477 -7.977059,-0.938477 -4.692388,0 -7.977059,0.386432 -7.977059,0.938477 0,0.552045 3.284671,0.938478 7.977059,0.938478 4.692388,0 7.977059,-0.386433 7.977059,-0.938478 z m 3.335254,-4.774233 c 0.410721,-0.66456 -0.306422,-0.922036 -2.056752,-0.738438 -1.47804,0.155038 -3.109407,0.06033 -3.62526,-0.210462 -1.973604,-1.036024 -12.974931,-0.380944 -13.370018,0.796126 -0.516368,1.538392 18.103395,1.6877 19.05203,0.152774 z M 38.983494,44.613166 c -1.528316,-1.264239 -2.516292,-2.56108 -2.195501,-2.881872 0.320792,-0.32079 2.62702,-0.693199 5.124951,-0.827574 2.497933,-0.134375 5.175167,-0.488797 5.949411,-0.787606 0.774244,-0.298809 2.620098,-0.810569 4.101897,-1.137245 2.565647,-0.565619 2.662786,-0.468872 2.036126,2.02794 -0.965713,3.84771 -2.248839,4.972699 -5.541598,4.858635 -1.61844,-0.05606 -3.787249,0.156426 -4.819574,0.4722 -1.234811,0.377712 -2.827623,-0.212266 -4.655712,-1.724478 z M 1.8769551,25.338894 l 0,-17.8310736 2.3461939,0 c 1.2904066,0 3.1402611,-0.7940673 4.1107877,-1.7645938 1.7271393,-1.72714 1.7966633,-1.72714 3.2754853,0 2.019015,2.3580374 7.608855,2.3580374 9.62787,0 1.478823,-1.72714 1.548346,-1.72714 3.275485,0 2.258445,2.2584442 5.963132,2.2584442 8.221576,0 1.72714,-1.72714 1.796663,-1.72714 3.275486,0 2.019014,2.3580374 7.608855,2.3580374 9.627869,0 1.478823,-1.72714 1.548346,-1.72714 3.275486,0 2.258444,2.2584442 5.963131,2.2584442 8.221575,0 1.72714,-1.72714 1.796663,-1.72714 3.275486,0 2.019014,2.3580374 7.608855,2.3580374 9.627869,0 1.478823,-1.72714 1.548347,-1.72714 3.275486,0 2.258444,2.2584442 5.963131,2.2584442 8.221576,0 1.727139,-1.72714 1.796662,-1.72714 3.275485,0 0.857616,1.0016212 2.732198,1.7645938 4.335511,1.7645938 l 2.824618,0 0,14.5464016 0,14.546402 -9.854014,0 c -9.656798,0 -9.854015,0.0432 -9.854015,2.158499 0,3.371171 -1.813898,4.410844 -7.695516,4.410844 -4.212721,0 -5.443169,-0.318219 -5.443169,-1.407716 0,-1.016684 1.042752,-1.407716 3.75391,-1.407716 2.06465,0 3.75391,-0.422315 3.75391,-0.938478 0,-0.516163 -1.042533,-0.938477 -2.31674,-0.938477 -1.673758,0 -2.166817,-0.390694 -1.776548,-1.407717 0.330703,-0.861799 1.753581,-1.407716 3.66907,-1.407716 1.720883,0 3.412646,-0.459146 3.759472,-1.020323 0.412467,-0.667384 -0.326856,-0.919892 -2.137335,-0.729985 -1.554288,0.163035 -3.923367,-0.466732 -5.40311,-1.436298 -2.416769,-1.583527 -2.706514,-1.599172 -3.495823,-0.188754 -1.306437,2.334473 -2.622239,0.85705 -2.622239,-2.944331 0,-3.328881 -0.03316,-3.359094 -1.741535,-1.58695 -0.957845,0.993596 -1.578392,2.250366 -1.378995,2.792824 0.206482,0.561734 -1.063732,1.026717 -2.950853,1.080209 -1.822366,0.05166 -3.313392,-0.286594 -3.313392,-0.751668 0,-0.465074 -0.633473,-0.845589 -1.407717,-0.845589 -0.774244,0 -1.407716,0.36818 -1.407716,0.818179 0,0.449998 -1.691623,0.773824 -3.759161,0.719611 -4.057781,-0.1064 -4.556309,-1.581708 -0.863649,-2.555822 2.142842,-0.565276 2.166326,-0.641017 0.399661,-1.289015 -4.083346,-1.497734 -4.223149,-1.437754 -4.223149,1.811876 0,3.683725 -1.345822,5.031506 -2.666931,2.670815 -0.763899,-1.365013 -1.139441,-1.42345 -2.403873,-0.374065 -0.824197,0.684022 -1.498539,2.036596 -1.498539,3.00572 0,1.136391 -0.666453,1.762043 -1.876955,1.762043 -1.33291,0 -1.876955,0.625652 -1.876955,2.158499 0,3.862163 -1.599346,4.410844 -12.857143,4.410844 l -10.6047959,0 0,-17.831073 z M 19.708029,39.416057 c 0,-0.552045 -3.284672,-0.938477 -7.97706,-0.938477 -4.6923874,0 -7.9770588,0.386432 -7.9770588,0.938477 0,0.552045 3.2846714,0.938478 7.9770588,0.938478 4.692388,0 7.97706,-0.386433 7.97706,-0.938478 z m 3.335254,-4.774233 c 0.410721,-0.66456 -0.306422,-0.922036 -2.056752,-0.738438 -1.478041,0.155038 -3.109407,0.06033 -3.62526,-0.210462 C 15.387666,32.6569 4.3863399,33.31198 3.9912519,34.48905 3.4748847,36.027442 22.094647,36.17675 23.043283,34.641824 Z m 16.372774,0.08185 c 0,-0.516162 0.422315,-0.938477 0.938478,-0.938477 0.516162,0 0.938477,0.422315 0.938477,0.938477 0,0.516163 -0.422315,0.938478 -0.938477,0.938478 -0.516163,0 -0.938478,-0.422315 -0.938478,-0.938478 z m 10.323253,0 c 0,-0.516162 0.422315,-0.938477 0.938478,-0.938477 0.516162,0 0.938477,0.422315 0.938477,0.938477 0,0.516163 -0.422315,0.938478 -0.938477,0.938478 -0.516163,0 -0.938478,-0.422315 -0.938478,-0.938478 z"
       id="path4156"
       inkscape:connector-curvature="0" />
    <path
       style="fill:#67504e"
       d="m 1.8769551,75.078204 0,-9.384775 11.6419759,0 11.641975,0 -0.509197,5.865484 c -0.280059,3.226017 -1.304382,7.449166 -2.276274,9.384776 l -1.767076,3.519291 -9.365702,0 -9.3657019,0 0,-9.384776 z m 71.9573509,8.065554 c -0.278427,-0.725572 -1.788319,-1.600816 -3.355315,-1.944985 -2.276186,-0.499935 -2.953939,-1.22539 -3.37055,-3.607786 -0.286807,-1.640111 -0.879149,-4.988018 -1.316317,-7.43979 l -0.794848,-4.457768 13.486762,0 13.486762,0 0,9.384775 0,9.384776 -8.81513,0 c -6.707123,0 -8.936189,-0.315473 -9.321364,-1.319222 z m -54.126277,-24.019672 0,-2.815433 -8.915537,0 -8.9155369,0 0,-5.161627 0,-5.161626 16.2779039,0 c 14.390797,0 16.452462,0.192881 17.783596,1.66377 2.668235,2.948365 0.56418,4.425812 -6.085177,4.272953 -3.242007,-0.07453 -6.745385,0.354057 -7.785284,0.952414 -1.619338,0.931765 -1.015138,1.165701 4.209377,1.6298 l 6.100104,0.541878 -5.865484,0.16198 c -5.829384,0.160984 -5.865485,0.178976 -5.865485,2.923453 0,2.566787 0.281192,2.786798 3.98853,3.120712 l 3.988529,0.359241 -4.457768,0.163959 c -4.36386,0.160505 -4.457768,0.104647 -4.457768,-2.651474 z m 46.923877,0 c 0,-2.209177 -0.4127,-2.815433 -1.916564,-2.815433 -1.054112,0 -2.426635,-0.415948 -3.050052,-0.92433 C 61.041871,54.875941 59.141408,53.345261 57.442037,51.98281 54.503575,49.626933 54.430274,49.419438 55.945153,47.745515 57.393318,46.14531 59.11364,45.9854 74.880518,45.9854 l 17.342484,0 -0.469054,6.555637 c -0.257979,3.605601 -0.999908,7.195278 -1.648729,7.977059 -0.93249,1.123582 -3.515339,1.421422 -12.326494,1.421422 l -11.146819,0 0,-2.815432 z m 20.646506,-0.938478 0,-2.815433 -9.854014,0 -9.854014,0 0,2.815433 0,2.815433 9.854014,0 9.854014,0 0,-2.815433 z m -18.769551,0 c 0,-1.745239 0.625652,-1.876955 8.915537,-1.876955 8.289885,0 8.915537,0.131716 8.915537,1.876955 0,1.745239 -0.625652,1.876955 -8.915537,1.876955 -8.289885,0 -8.915537,-0.131716 -8.915537,-1.876955 z m 16.892596,0 c 0,-0.552045 -3.284671,-0.938477 -7.977059,-0.938477 -4.692388,0 -7.977059,0.386432 -7.977059,0.938477 0,0.552045 3.284671,0.938478 7.977059,0.938478 4.692388,0 7.977059,-0.386433 7.977059,-0.938478 z m 4.692388,-1.407716 c 0,-1.745644 -0.361879,-3.397553 -0.804175,-3.670907 -0.442296,-0.273354 -4.800989,-0.716861 -9.685985,-0.985571 -7.019003,-0.386096 -9.261501,-0.193603 -10.692175,0.917801 -1.63414,1.269465 -0.759376,1.38285 8.986479,1.164804 l 10.796846,-0.24156 -0.349333,3.642883 c -0.241146,2.514705 -0.02451,3.442135 0.699505,2.994666 0.576861,-0.356519 1.048838,-2.076472 1.048838,-3.822116 z m -68.508861,1.407716 c 0,-1.660092 0.569265,-1.85741 4.927007,-1.707796 l 4.927007,0.169158 -4.457768,0.351501 c -5.537361,0.436627 -5.825171,1.894534 -0.469239,2.376934 l 3.988529,0.359241 -4.457768,0.163959 c -3.88677,0.142957 -4.457768,-0.07646 -4.457768,-1.712997 z m 17.39851,-13.572442 c -1.528316,-1.264239 -2.516292,-2.56108 -2.195501,-2.881872 0.320792,-0.32079 2.62702,-0.693199 5.124951,-0.827574 2.497933,-0.134375 5.175167,-0.488797 5.949411,-0.787606 0.774244,-0.298809 2.620098,-0.810569 4.101897,-1.137245 2.565647,-0.565619 2.662786,-0.468872 2.036126,2.02794 -0.965713,3.84771 -2.248839,4.972699 -5.541598,4.858635 -1.61844,-0.05606 -3.787249,0.156426 -4.819574,0.4722 -1.234811,0.377712 -2.827623,-0.212266 -4.655712,-1.724478 z M 11.49635,42.469663 21.584984,42.16799 l 0,-2.751933 0,-2.751932 L 11.49635,36.392863 1.4077163,36.121602 12.204561,35.657256 23.001406,35.192908 22.652074,38.835791 c -0.241147,2.514705 -0.02451,3.442135 0.699504,2.994666 1.226623,-0.758094 1.422909,-6.764827 0.244852,-7.492906 C 21.949603,33.319756 5.3990945,32.904716 3.6561613,33.837505 1.9474692,34.75197 1.8769551,34.249085 1.8769551,21.148764 l 0,-13.6409436 2.3461939,0 c 1.2904066,0 3.0756468,-0.7390511 3.9672005,-1.6423357 1.5429146,-1.5632159 1.7217049,-1.5406102 3.7112515,0.4692388 1.149635,1.1613659 3.184426,2.1115745 4.521756,2.1115745 1.337331,0 3.372121,-0.9502086 4.521756,-2.1115745 1.989547,-2.009849 2.168337,-2.0324547 3.711251,-0.4692388 2.077614,2.1049505 5.856788,2.1049505 7.934402,0 1.542914,-1.5632159 1.721705,-1.5406102 3.711252,0.4692388 1.149635,1.1613659 3.184425,2.1115745 4.521755,2.1115745 1.337331,0 3.372121,-0.9502086 4.521756,-2.1115745 1.989547,-2.009849 2.168337,-2.0324547 3.711252,-0.4692388 2.077614,2.1049505 5.856788,2.1049505 7.934401,0 1.542915,-1.5632159 1.721705,-1.5406102 3.711252,0.4692388 2.668884,2.6961171 6.374628,2.6961171 9.043511,0 1.989547,-2.009849 2.168338,-2.0324547 3.711252,-0.4692388 2.077614,2.1049505 5.856788,2.1049505 7.934402,0 1.542914,-1.5632159 1.721704,-1.5406102 3.711251,0.4692388 1.149635,1.1613659 3.165229,2.1115745 4.479098,2.1115745 l 2.388852,0 0,14.077163 0,14.077163 -9.854014,0 c -9.656798,0 -9.854015,0.0432 -9.854015,2.158499 0,3.478399 -1.772556,4.425515 -7.930135,4.237243 l -5.677789,-0.173603 4.927007,-0.344681 c 4.725247,-0.330566 4.927007,-0.455529 4.927007,-3.051609 0,-2.363198 -0.387299,-2.747239 -3.050052,-3.024386 -2.969351,-0.309059 -2.950657,-0.329326 0.70654,-0.766 l 3.756591,-0.448541 -0.333425,3.756591 c -0.253544,2.856599 -0.06918,3.504134 0.769538,2.70283 0.606629,-0.57957 0.966622,-2.479987 0.799982,-4.223149 -0.281465,-2.944328 -0.58044,-3.206423 -4.210289,-3.690927 -2.149021,-0.286847 -4.618201,-1.111528 -5.487069,-1.832624 -1.369077,-1.136232 -1.700497,-1.095335 -2.485093,0.306659 -1.346451,2.405974 -2.666931,0.987686 -2.666931,-2.86447 0,-3.328881 -0.03316,-3.359094 -1.741535,-1.58695 -0.957845,0.993596 -1.578392,2.250366 -1.378995,2.792824 0.206482,0.561734 -1.063732,1.026717 -2.950853,1.080209 -1.822366,0.05166 -3.313392,-0.286594 -3.313392,-0.751668 0,-0.465074 -0.633473,-0.845589 -1.407717,-0.845589 -0.774244,0 -1.407716,0.36818 -1.407716,0.818179 0,0.449998 -1.691623,0.773824 -3.759161,0.719611 -4.057781,-0.1064 -4.556309,-1.581708 -0.863649,-2.555822 2.142842,-0.565276 2.166326,-0.641017 0.399661,-1.289015 -4.083346,-1.497734 -4.223149,-1.437754 -4.223149,1.811876 0,3.683725 -1.345822,5.031506 -2.666931,2.670815 -0.763899,-1.365013 -1.139441,-1.42345 -2.403873,-0.374065 -0.824197,0.684022 -1.498539,2.036596 -1.498539,3.00572 0,1.136391 -0.666453,1.762043 -1.876955,1.762043 -1.33291,0 -1.876955,0.625652 -1.876955,2.158499 0,3.928921 -1.538866,4.423964 -13.091762,4.211529 L 1.4077163,42.771337 11.49635,42.469663 Z M 2.8154327,39.416057 c 0,-1.745239 0.6256517,-1.876955 8.9155363,-1.876955 8.289885,0 8.915537,0.131716 8.915537,1.876955 0,1.745239 -0.625652,1.876955 -8.915537,1.876955 -8.2898846,0 -8.9155363,-0.131716 -8.9155363,-1.876955 z m 16.8925963,0 c 0,-0.552045 -3.284672,-0.938477 -7.97706,-0.938477 -4.6923874,0 -7.9770588,0.386432 -7.9770588,0.938477 0,0.552045 3.2846714,0.938478 7.9770588,0.938478 4.692388,0 7.97706,-0.386433 7.97706,-0.938478 z m 42.935347,1.189797 c 4.496491,-0.404991 5.317895,-1.802221 1.407717,-2.394564 -2.402087,-0.363885 -2.369591,-0.400698 0.469239,-0.531574 2.471271,-0.113931 3.050052,0.215559 3.050052,1.736341 0,1.636535 -0.570999,1.855954 -4.457769,1.712997 l -4.457768,-0.163959 3.988529,-0.359241 z M 39.416057,34.723669 c 0,-0.516162 0.422315,-0.938477 0.938478,-0.938477 0.516162,0 0.938477,0.422315 0.938477,0.938477 0,0.516163 -0.422315,0.938478 -0.938477,0.938478 -0.516163,0 -0.938478,-0.422315 -0.938478,-0.938478 z m 10.323253,0 c 0,-0.516162 0.422315,-0.938477 0.938478,-0.938477 0.516162,0 0.938477,0.422315 0.938477,0.938477 0,0.516163 -0.422315,0.938478 -0.938477,0.938478 -0.516163,0 -0.938478,-0.422315 -0.938478,-0.938478 z"
       id="path4154"
       inkscape:connector-curvature="0" />
    <path
       style="fill:#586448"
       d="m 1.8769551,75.078204 0,-9.384775 11.6419759,0 11.641975,0 -0.509197,5.865484 c -0.280059,3.226017 -1.304382,7.449166 -2.276274,9.384776 l -1.767076,3.519291 -9.365702,0 -9.3657019,0 0,-9.384776 z m 71.9573509,8.065554 c -0.278427,-0.725572 -1.788319,-1.600816 -3.355315,-1.944985 -2.276186,-0.499935 -2.953939,-1.22539 -3.37055,-3.607786 -0.286807,-1.640111 -0.879149,-4.988018 -1.316317,-7.43979 l -0.794848,-4.457768 13.486762,0 13.486762,0 0,9.384775 0,9.384776 -8.81513,0 c -6.707123,0 -8.936189,-0.315473 -9.321364,-1.319222 z m -7.2024,-24.019672 c 0,-2.209177 -0.4127,-2.815433 -1.916564,-2.815433 -1.054112,0 -2.426635,-0.415948 -3.050052,-0.92433 C 61.041871,54.875941 59.141408,53.345261 57.442037,51.98281 54.503575,49.626933 54.430274,49.419438 55.945153,47.745515 57.393318,46.14531 59.11364,45.9854 74.880518,45.9854 l 17.342484,0 -0.469054,6.555637 c -0.257979,3.605601 -0.999908,7.195278 -1.648729,7.977059 -0.93249,1.123582 -3.515339,1.421422 -12.326494,1.421422 l -11.146819,0 0,-2.815432 z m 20.646506,-0.938478 0,-2.815433 -9.854014,0 -9.854014,0 0,2.815433 0,2.815433 9.854014,0 9.854014,0 0,-2.815433 z m -18.769551,0 c 0,-1.745239 0.625652,-1.876955 8.915537,-1.876955 8.289885,0 8.915537,0.131716 8.915537,1.876955 0,1.745239 -0.625652,1.876955 -8.915537,1.876955 -8.289885,0 -8.915537,-0.131716 -8.915537,-1.876955 z m 16.892596,0 c 0,-0.552045 -3.284671,-0.938477 -7.977059,-0.938477 -4.692388,0 -7.977059,0.386432 -7.977059,0.938477 0,0.552045 3.284671,0.938478 7.977059,0.938478 4.692388,0 7.977059,-0.386433 7.977059,-0.938478 z m 4.692388,-1.407716 c 0,-1.745644 -0.361879,-3.397553 -0.804175,-3.670907 -0.442296,-0.273354 -4.800989,-0.716861 -9.685985,-0.985571 -7.019003,-0.386096 -9.261501,-0.193603 -10.692175,0.917801 -1.63414,1.269465 -0.759376,1.38285 8.986479,1.164804 l 10.796846,-0.24156 -0.349333,3.642883 c -0.241146,2.514705 -0.02451,3.442135 0.699505,2.994666 0.576861,-0.356519 1.048838,-2.076472 1.048838,-3.822116 z m -88.2168899,-5.630866 0,-5.161626 16.2779039,0 c 14.390797,0 16.452462,0.192881 17.783596,1.66377 2.526053,2.791256 0.634898,3.862181 -7.343587,4.158532 -6.720691,0.249631 -7.573066,0.49193 -8.405521,2.389377 -0.864782,1.971132 -1.504575,2.111574 -9.619394,2.111574 l -8.6929979,0 0,-5.161627 z M 63.581854,42.478082 c 4.725247,-0.330566 4.927007,-0.455529 4.927007,-3.051609 0,-2.363198 -0.387299,-2.747239 -3.050052,-3.024386 -2.969351,-0.309059 -2.950657,-0.329326 0.70654,-0.766 l 3.756591,-0.448541 -0.333425,3.756591 c -0.253544,2.856599 -0.06918,3.504134 0.769538,2.70283 0.606629,-0.57957 0.966622,-2.479987 0.799982,-4.223149 -0.278869,-2.917165 -0.601719,-3.210893 -4.05689,-3.690928 -4.910852,-0.682279 -7.977059,-2.711675 -7.977059,-5.279687 0,-3.131718 -1.471814,-3.400159 -4.295328,-0.783415 -2.86171,2.652145 -9.245523,3.254349 -12.893584,1.216291 -3.180755,-1.776988 -8.02716,-3.357182 -8.58512,-2.799221 -0.276837,0.276836 -0.50334,1.387154 -0.50334,2.467373 0,1.080217 -0.84463,2.491513 -1.876955,3.13621 -1.032325,0.644698 -1.876955,2.01323 -1.876955,3.041181 0,1.24335 -0.628313,1.869002 -1.876955,1.869002 -1.268686,0 -1.876955,-0.625652 -1.876955,-1.930591 0,-1.860893 -0.423581,-1.920186 -11.732678,-1.642336 l -11.7326782,0.288256 0.00171,-12.904066 0.00171,-12.9040666 2.700521,0 c 1.4852866,0 3.2028043,-0.6052142 3.816706,-1.3449205 0.9565195,-1.1525355 1.375693,-1.085413 2.9303439,0.4692387 2.395257,2.3952573 7.802405,2.3952573 10.197662,0 1.554651,-1.5546517 1.973825,-1.6217742 2.930344,-0.4692387 1.442704,1.7383513 6.899363,1.7383513 8.342067,0 0.956519,-1.1525355 1.375692,-1.085413 2.930343,0.4692387 2.395258,2.3952573 7.802405,2.3952573 10.197663,0 1.55465,-1.5546517 1.973824,-1.6217742 2.930343,-0.4692387 1.442704,1.7383513 6.899363,1.7383513 8.342067,0 0.956519,-1.1525355 1.375693,-1.085413 2.930344,0.4692387 2.395257,2.3952573 7.802404,2.3952573 10.197662,0 1.554651,-1.5546517 1.973825,-1.6217742 2.930343,-0.4692387 0.613903,0.7397063 2.490867,1.3449205 4.171034,1.3449205 1.680167,0 3.557131,-0.6052142 4.171033,-1.3449205 0.956519,-1.1525355 1.375693,-1.085413 2.930344,0.4692387 0.997788,0.9977877 3.081104,1.8141594 4.629592,1.8141594 l 2.815433,0 0,14.077163 0,14.077163 -9.854014,0 c -9.656798,0 -9.854015,0.0432 -9.854015,2.158499 0,3.478399 -1.772556,4.425515 -7.930135,4.237243 l -5.677789,-0.173603 4.927007,-0.344681 z m -0.938478,-1.872228 c 4.496491,-0.404991 5.317895,-1.802221 1.407717,-2.394564 -2.402087,-0.363885 -2.369591,-0.400698 0.469239,-0.531574 2.471271,-0.113931 3.050052,0.215559 3.050052,1.736341 0,1.636535 -0.570999,1.855954 -4.457769,1.712997 l -4.457768,-0.163959 3.988529,-0.359241 z"
       id="path4152"
       inkscape:connector-curvature="0" />
    <path
       style="fill:#453b31"
       d="m 1.8769551,75.078204 0,-9.384775 11.6419759,0 11.641975,0 -0.509197,5.865484 c -0.280059,3.226017 -1.304382,7.449166 -2.276274,9.384776 l -1.767076,3.519291 -9.365702,0 -9.3657019,0 0,-9.384776 z m 71.9573509,8.065554 c -0.278427,-0.725572 -1.788319,-1.600816 -3.355315,-1.944985 -2.276186,-0.499935 -2.953939,-1.22539 -3.37055,-3.607786 -0.286807,-1.640111 -0.879149,-4.988018 -1.316317,-7.43979 l -0.794848,-4.457768 13.486762,0 13.486762,0 0,9.384775 0,9.384776 -8.81513,0 c -6.707123,0 -8.936189,-0.315473 -9.321364,-1.319222 z M 1.8769551,51.147026 l 0,-5.161626 16.2779039,0 c 14.390797,0 16.452462,0.192881 17.783596,1.66377 2.526053,2.791256 0.634898,3.862181 -7.343587,4.158532 -6.720691,0.249631 -7.573066,0.49193 -8.405521,2.389377 -0.864782,1.971132 -1.504575,2.111574 -9.619394,2.111574 l -8.6929979,0 0,-5.161627 z M 61.47028,55.33221 C 60.954117,54.846784 59.141408,53.337219 57.442037,51.977622 54.503546,49.626656 54.430259,49.419454 55.945153,47.745515 57.392517,46.146197 59.110849,45.9854 74.754418,45.9854 l 17.216382,0 -0.140614,5.396246 c -0.07734,2.967935 -0.317778,4.222117 -0.534312,2.78707 L 90.902177,51.559539 79.470899,51.822522 C 68.638809,52.07172 67.991064,52.196185 67.113225,54.197079 66.164788,56.358885 63.1968,56.955924 61.47028,55.33221 Z M 25.338894,34.670033 c 0,-1.860893 -0.423581,-1.920186 -11.732678,-1.642336 l -11.7326782,0.288256 0.00171,-12.904066 0.00171,-12.9040666 2.700521,0 c 1.4852866,0 3.2028043,-0.6052142 3.816706,-1.3449205 0.9565195,-1.1525355 1.375693,-1.085413 2.9303439,0.4692387 2.395257,2.3952573 7.802405,2.3952573 10.197662,0 1.554651,-1.5546517 1.973825,-1.6217742 2.930344,-0.4692387 1.442704,1.7383513 6.899363,1.7383513 8.342067,0 0.956519,-1.1525355 1.375692,-1.085413 2.930343,0.4692387 1.10212,1.1021191 3.103363,1.8141594 5.098831,1.8141594 1.995469,0 3.996712,-0.7120403 5.098832,-1.8141594 1.55465,-1.5546517 1.973824,-1.6217742 2.930343,-0.4692387 0.613902,0.7397063 2.490867,1.3449205 4.171034,1.3449205 1.680166,0 3.557131,-0.6052142 4.171033,-1.3449205 0.956519,-1.1525355 1.375693,-1.085413 2.930344,0.4692387 2.395257,2.3952573 7.802404,2.3952573 10.197662,0 1.554651,-1.5546517 1.973825,-1.6217742 2.930343,-0.4692387 1.442704,1.7383513 6.899364,1.7383513 8.342067,0 0.956519,-1.1525355 1.375693,-1.085413 2.930344,0.4692387 0.997788,0.9977877 3.081104,1.8141594 4.629592,1.8141594 l 2.815433,0 0,14.077163 0,14.077163 -9.854014,0 c -9.228363,0 -9.854015,-0.119171 -9.854015,-1.876955 0,-1.634821 -0.6356,-1.880805 -4.927007,-1.906801 -5.470138,-0.03314 -8.211678,-1.527488 -8.211678,-4.475997 0,-3.022669 -1.504324,-3.257698 -4.295328,-0.671083 -2.86171,2.652145 -9.245523,3.254349 -12.893584,1.216291 -3.180755,-1.776988 -8.02716,-3.357182 -8.58512,-2.799221 -0.276837,0.276836 -0.50334,1.387154 -0.50334,2.467373 0,1.080217 -0.84463,2.491513 -1.876955,3.13621 -1.032325,0.644698 -1.876955,2.01323 -1.876955,3.041181 0,1.24335 -0.628313,1.869002 -1.876955,1.869002 -1.268686,0 -1.876955,-0.625652 -1.876955,-1.930591 z"
       id="path4150"
       inkscape:connector-curvature="0" />
    <path
       style="fill:#37292c"
       d="m 41.293012,28.700223 c -1.290406,-0.704612 -3.50756,-1.740108 -4.927007,-2.301101 -1.419447,-0.560994 -2.580813,-1.644713 -2.580813,-2.408264 0,-2.300872 7.64305,-6.159785 12.200208,-6.159785 4.232809,0 12.200208,3.801647 12.200208,5.821334 0,0.577403 -1.343007,2.248861 -2.98446,3.71435 -2.370044,2.115973 -3.867392,2.659384 -7.273201,2.639553 -2.358808,-0.01374 -5.344528,-0.601474 -6.634935,-1.306087 z"
       id="path4148"
       inkscape:connector-curvature="0" />
  </g>
</svg>
