<?xml version="1.0" encoding="UTF-8" standalone="no"?>
<!-- Created with Inkscape (http://www.inkscape.org/) -->

<svg
   xmlns:dc="http://purl.org/dc/elements/1.1/"
   xmlns:cc="http://creativecommons.org/ns#"
   xmlns:rdf="http://www.w3.org/1999/02/22-rdf-syntax-ns#"
   xmlns:svg="http://www.w3.org/2000/svg"
   xmlns="http://www.w3.org/2000/svg"
   xmlns:sodipodi="http://sodipodi.sourceforge.net/DTD/sodipodi-0.dtd"
   xmlns:inkscape="http://www.inkscape.org/namespaces/inkscape"
   sodipodi:docname="shovel.svg"
   viewBox="0 0 23.4375 85.38781"
   height="85.38781"
   width="23.4375"
   inkscape:version="0.91 r13725"
   version="1.1"
   id="svg4136">
  <metadata
     id="metadata4142">
    <rdf:RDF>
      <cc:Work
         rdf:about="">
        <dc:format>image/svg+xml</dc:format>
        <dc:type
           rdf:resource="http://purl.org/dc/dcmitype/StillImage" />
        <dc:title />
      </cc:Work>
    </rdf:RDF>
  </metadata>
  <defs
     id="defs4140" />
  <sodipodi:namedview
     inkscape:current-layer="svg4136"
     inkscape:window-maximized="1"
     inkscape:window-y="-4"
     inkscape:window-x="-4"
     inkscape:cy="43.669062"
     inkscape:cx="12.1875"
     inkscape:zoom="9.5253333"
     fit-margin-bottom="0"
     fit-margin-right="0"
     fit-margin-left="0"
     fit-margin-top="0"
     showgrid="false"
     id="namedview4138"
     inkscape:window-height="1061"
     inkscape:window-width="2560"
     inkscape:pageshadow="2"
     inkscape:pageopacity="0"
     guidetolerance="10"
     gridtolerance="10"
     objecttolerance="10"
     borderopacity="1"
     bordercolor="#666666"
     pagecolor="#ffffff" />
  <g
     id="g4162"
     transform="translate(-11.25,-5.15625)">
    <path
       style="fill:#e4e4e4"
       d="m 16.124301,90.070044 c -1.701947,-0.434606 -3.389447,-1.083982 -3.75,-1.443059 C 12.013748,88.267909 11.578875,82.734629 11.407915,76.330809 11.136597,66.167692 11.287193,64.6875 12.592511,64.6875 c 0.822487,0 2.299199,0.501962 3.281584,1.115471 1.399037,0.873713 2.104607,0.851177 3.255501,-0.10398 1.267474,-1.05191 1.503339,-5.294663 1.716751,-30.881096 C 21.087849,5.8637176 21.138472,5.15625 22.96875,5.15625 c 1.830278,0 1.880901,0.7074676 2.122402,29.661645 0.213413,25.586433 0.449278,29.829186 1.716752,30.881096 1.150894,0.955157 1.856464,0.977693 3.255501,0.10398 4.191463,-2.617612 4.624933,-1.775107 4.611293,8.962654 -0.01451,11.42231 -0.462167,13.918781 -2.646151,14.756855 -2.671183,1.025028 -12.684425,1.369773 -15.904246,0.547564 z"
       id="path4180"
       inkscape:connector-curvature="0" />
    <path
       style="fill:#bfbfbf"
       d="m 16.124301,90.070044 c -1.701947,-0.434606 -3.389447,-1.083982 -3.75,-1.443059 C 12.013748,88.267909 11.578875,82.734629 11.407915,76.330809 11.136597,66.167692 11.287193,64.6875 12.592511,64.6875 c 0.822487,0 2.299199,0.501962 3.281584,1.115471 2.79398,1.74487 4.750905,-0.499609 4.750905,-5.449013 0,-2.65051 0.415028,-4.109042 1.171875,-4.118314 0.92473,-0.01132 0.921378,-0.173356 -0.0159,-0.768277 -0.920285,-0.584139 -1.13141,-6.334071 -0.9375,-25.53252 C 21.086595,5.8646738 21.147356,5.15625 22.96875,5.15625 c 1.830278,0 1.880901,0.7074676 2.122402,29.661645 0.213413,25.586433 0.449278,29.829186 1.716752,30.881096 1.150894,0.955157 1.856464,0.977693 3.255501,0.10398 4.191463,-2.617612 4.624933,-1.775107 4.611293,8.962654 -0.01451,11.42231 -0.462167,13.918781 -2.646151,14.756855 -2.671183,1.025028 -12.684425,1.369773 -15.904246,0.547564 z M 22.5,84.84375 c 0,-2.835938 -0.421875,-5.15625 -0.9375,-5.15625 -0.515625,0 -0.9375,2.320312 -0.9375,5.15625 C 20.625,87.679687 21.046875,90 21.5625,90 22.078125,90 22.5,87.679687 22.5,84.84375 Z m 0,-7.03125 c 0,-0.515625 -0.421875,-0.9375 -0.9375,-0.9375 -0.515625,0 -0.9375,0.421875 -0.9375,0.9375 0,0.515625 0.421875,0.9375 0.9375,0.9375 0.515625,0 0.9375,-0.421875 0.9375,-0.9375 z M 22.202919,58.886719 c -0.299274,-0.747875 -0.521421,-0.525728 -0.566406,0.566406 -0.04071,0.988281 0.18087,1.541992 0.492394,1.230469 0.311522,-0.311524 0.344829,-1.120117 0.07401,-1.796875 z"
       id="path4178"
       inkscape:connector-curvature="0" />
    <path
       style="fill:#b4b4b4"
       d="m 16.124301,90.070044 c -1.701947,-0.434606 -3.389447,-1.083982 -3.75,-1.443059 C 12.013748,88.267909 11.578875,82.734629 11.407915,76.330809 11.117348,65.446681 11.212097,64.6875 12.86104,64.6875 c 0.970179,0 2.241852,0.477893 2.825944,1.061984 0.621991,0.621991 1.767821,0.758448 2.765625,0.329357 0.937002,-0.402945 2.65286,-0.639709 3.813016,-0.526141 1.959809,0.191844 2.109375,-0.163877 2.109375,-5.016857 0,-4.612447 -0.221081,-5.223343 -1.890312,-5.223343 -1.85453,0 -1.885586,-0.474729 -1.640625,-25.078125 C 21.086699,5.8644792 21.146702,5.15625 22.96875,5.15625 c 1.830278,0 1.880901,0.7074676 2.122402,29.661645 0.213413,25.586433 0.449278,29.829186 1.716752,30.881096 1.150894,0.955157 1.856464,0.977693 3.255501,0.10398 4.191463,-2.617612 4.624933,-1.775107 4.611293,8.962654 -0.01451,11.42231 -0.462167,13.918781 -2.646151,14.756855 -2.671183,1.025028 -12.684425,1.369773 -15.904246,0.547564 z M 26.953125,89.409107 C 28.983983,88.864858 29.0625,88.446578 29.0625,78.171908 29.0625,72.302359 28.886066,67.5 28.670425,67.5 c -0.21564,0 -1.033414,-0.246106 -1.817276,-0.546902 -1.116827,-0.428566 -1.488406,0.332124 -1.717301,3.515625 -0.24016,3.340161 -0.625496,4.062527 -2.167098,4.062527 -1.535663,0 -1.927173,-0.721093 -2.163279,-3.984375 -0.158554,-2.191406 -0.440456,-3.984375 -0.626449,-3.984375 -0.185994,0 -1.005487,0.256073 -1.821097,0.569052 -1.231383,0.472526 -1.482925,2.369149 -1.482925,11.181259 0,9.318533 0.199999,10.664471 1.640625,11.040946 2.516583,0.657652 6.102245,0.681174 8.4375,0.05535 z"
       id="path4176"
       inkscape:connector-curvature="0" />
    <path
       style="fill:#acacac"
       d="m 16.124301,90.070044 c -1.701947,-0.434606 -3.389447,-1.083982 -3.75,-1.443059 C 12.013748,88.267909 11.578875,82.734629 11.407915,76.330809 11.117348,65.446681 11.212097,64.6875 12.86104,64.6875 c 0.970179,0 2.241852,0.477893 2.825944,1.061984 0.621991,0.621991 1.767821,0.758448 2.765625,0.329357 0.937002,-0.402945 2.65286,-0.639709 3.813016,-0.526141 1.959809,0.191844 2.109375,-0.163877 2.109375,-5.016857 0,-4.612447 -0.221081,-5.223343 -1.890312,-5.223343 -1.85453,0 -1.885586,-0.474729 -1.640625,-25.078125 C 21.086699,5.8644792 21.146702,5.15625 22.96875,5.15625 c 1.830278,0 1.880901,0.7074676 2.122402,29.661645 0.213413,25.586433 0.449278,29.829186 1.716752,30.881096 1.150894,0.955157 1.856464,0.977693 3.255501,0.10398 4.191463,-2.617612 4.624933,-1.775107 4.611293,8.962654 -0.01451,11.42231 -0.462167,13.918781 -2.646151,14.756855 -2.671183,1.025028 -12.684425,1.369773 -15.904246,0.547564 z M 31.326486,88.494633 C 32.561147,88.020849 32.8125,86.138081 32.8125,77.36362 l 0,-10.560774 -3.706717,0.09719 c -3.637577,0.09538 -3.711896,0.167459 -3.984375,3.864203 -0.224769,3.049455 -0.634815,3.767008 -2.152658,3.767008 -1.517843,0 -1.927889,-0.717553 -2.152658,-3.767008 -0.272866,-3.701998 -0.342124,-3.768699 -4.013094,-3.864955 l -3.735436,-0.09795 0.263095,10.896206 0.263093,10.896205 3.28125,0.629725 c 3.459054,0.663849 11.936347,0.236307 14.451486,-0.728842 z"
       id="path4174"
       inkscape:connector-curvature="0" />
    <path
       style="fill:#9f9f9f"
       d="m 16.124301,90.070044 c -4.446723,-1.135507 -4.826472,-1.984871 -0.537335,-1.201828 4.714625,0.860722 10.194099,0.837925 14.881784,-0.06192 2.789229,-0.535416 3.335878,-0.466257 2.133634,0.269938 -2.186986,1.3392 -12.653509,1.970445 -16.478083,0.993808 z M 21.282409,74.407409 C 20.920834,74.045834 20.625,72.158857 20.625,70.214128 c 0,-3.075566 -0.274602,-3.52105 -2.109375,-3.422015 C 14.258028,67.021927 11.25,66.538733 11.25,65.625 c 0,-1.275802 3.124354,-1.188146 4.436984,0.124484 0.605656,0.605656 1.794027,0.759093 2.765625,0.357084 0.937002,-0.387693 2.969266,-0.704898 4.516141,-0.704898 1.546875,0 3.579139,0.317205 4.516141,0.704898 0.971598,0.402009 2.159969,0.248572 2.765625,-0.357084 1.31263,-1.31263 4.436984,-1.400286 4.436984,-0.124484 0,0.908173 -2.984146,1.393776 -7.214888,1.17406 -1.766139,-0.09172 -2.099148,0.448845 -2.34375,3.804552 -0.272212,3.734491 -2.104143,5.546107 -3.846453,3.803797 z M 20.844063,30.234375 C 21.086699,5.8644792 21.146702,5.15625 22.96875,5.15625 c 1.822048,0 1.882051,0.7082292 2.124687,25.078125 l 0.249688,25.078125 -2.374375,0 -2.374375,0 0.249688,-25.078125 z"
       id="path4172"
       inkscape:connector-curvature="0" />
    <path
       style="fill:#b49b82"
       d="M 21.282409,74.407409 C 20.920834,74.045834 20.625,71.921875 20.625,69.6875 c 0,-3.731567 0.195107,-4.0625 2.395117,-4.0625 2.271874,0 2.380413,0.228704 2.109375,4.444693 -0.200084,3.11228 -0.721006,4.527196 -1.737708,4.719909 -0.798582,0.151368 -1.7478,-0.02062 -2.109375,-0.382193 z M 20.844063,30.234375 C 21.086699,5.8644792 21.146702,5.15625 22.96875,5.15625 c 1.822048,0 1.882051,0.7082292 2.124687,25.078125 l 0.249688,25.078125 -2.374375,0 -2.374375,0 0.249688,-25.078125 z"
       id="path4170"
       inkscape:connector-curvature="0" />
    <path
       style="fill:#8d8d8d"
       d="M 21.282409,74.407409 C 20.920834,74.045834 20.625,71.921875 20.625,69.6875 c 0,-3.731567 0.195107,-4.0625 2.395117,-4.0625 2.271874,0 2.380413,0.228704 2.109375,4.444693 -0.200084,3.11228 -0.721006,4.527196 -1.737708,4.719909 -0.798582,0.151368 -1.7478,-0.02062 -2.109375,-0.382193 z M 21.03536,30.46875 c -5.03e-4,-13.921875 0.129967,-19.747879 0.289934,-12.946675 0.159966,6.801203 0.160377,18.191828 9.14e-4,25.3125 -0.159464,7.120671 -0.290346,1.55605 -0.290848,-12.365825 z m 1.46464,0 C 22.5,9.0104167 22.691628,5.625 23.90625,5.625 c 1.214622,0 1.40625,3.3854167 1.40625,24.84375 0,21.458333 -0.191628,24.84375 -1.40625,24.84375 C 22.691628,55.3125 22.5,51.927083 22.5,30.46875 Z"
       id="path4168"
       inkscape:connector-curvature="0" />
    <path
       style="fill:#8d7a66"
       d="m 21.03536,30.46875 c -5.03e-4,-13.921875 0.129967,-19.747879 0.289934,-12.946675 0.159966,6.801203 0.160377,18.191828 9.14e-4,25.3125 -0.159464,7.120671 -0.290346,1.55605 -0.290848,-12.365825 z m 1.46464,0 C 22.5,9.0104167 22.691628,5.625 23.90625,5.625 c 1.214622,0 1.40625,3.3854167 1.40625,24.84375 0,21.458333 -0.191628,24.84375 -1.40625,24.84375 C 22.691628,55.3125 22.5,51.927083 22.5,30.46875 Z"
       id="path4166"
       inkscape:connector-curvature="0" />
    <path
       style="fill:#5b4f42"
       d="m 24.78536,30.46875 c -5.03e-4,-13.921875 0.129967,-19.747879 0.289934,-12.946675 0.159966,6.801203 0.160377,18.191828 9.14e-4,25.3125 -0.159464,7.120671 -0.290346,1.55605 -0.290848,-12.365825 z"
       id="path4164"
       inkscape:connector-curvature="0" />
  </g>
</svg>
