<?xml version="1.0" encoding="UTF-8" standalone="no"?>
<!-- Created with Inkscape (http://www.inkscape.org/) -->

<svg
   xmlns:dc="http://purl.org/dc/elements/1.1/"
   xmlns:cc="http://creativecommons.org/ns#"
   xmlns:rdf="http://www.w3.org/1999/02/22-rdf-syntax-ns#"
   xmlns:svg="http://www.w3.org/2000/svg"
   xmlns="http://www.w3.org/2000/svg"
   xmlns:sodipodi="http://sodipodi.sourceforge.net/DTD/sodipodi-0.dtd"
   xmlns:inkscape="http://www.inkscape.org/namespaces/inkscape"
   id="svg4136"
   version="1.1"
   inkscape:version="0.91 r13725"
   width="93.75"
   height="93.75"
   viewBox="0 0 93.75 93.75"
   sodipodi:docname="soil.svg">
  <metadata
     id="metadata4142">
    <rdf:RDF>
      <cc:Work
         rdf:about="">
        <dc:format>image/svg+xml</dc:format>
        <dc:type
           rdf:resource="http://purl.org/dc/dcmitype/StillImage" />
        <dc:title></dc:title>
      </cc:Work>
    </rdf:RDF>
  </metadata>
  <defs
     id="defs4140" />
  <sodipodi:namedview
     pagecolor="#ffffff"
     bordercolor="#666666"
     borderopacity="1"
     objecttolerance="10"
     gridtolerance="10"
     guidetolerance="10"
     inkscape:pageopacity="0"
     inkscape:pageshadow="2"
     inkscape:window-width="2560"
     inkscape:window-height="1061"
     id="namedview4138"
     showgrid="false"
     inkscape:zoom="9.5253333"
     inkscape:cx="46.875"
     inkscape:cy="46.875"
     inkscape:window-x="-4"
     inkscape:window-y="-4"
     inkscape:window-maximized="1"
     inkscape:current-layer="svg4136" />
  <g
     id="g4146">
    <path
       style="fill:#8c715d"
       d="M 0,46.875 0,0 46.875,0 93.75,0 l 0,46.875 0,46.875 -46.875,0 L 0,93.75 0,46.875 Z"
       id="path4162"
       inkscape:connector-curvature="0" />
    <path
       style="fill:#846b58"
       d="M 0,46.875 0,0 46.875,0 93.75,0 l 0,46.875 0,46.875 -46.875,0 L 0,93.75 0,46.875 Z m 90.9375,40.630793 0,-4.369207 -24.609375,0.617287 c -13.535156,0.33951 -33.574219,0.618152 -44.53125,0.619208 L 1.875,84.375 l 0,3.75 0,3.75 44.53125,0 44.53125,0 0,-4.369207 z m -12.80448,-6.557385 12.80448,-0.614092 0,-3.135908 0,-3.135908 -44.53125,0 -44.53125,0 0,3.75 0,3.75 31.72677,0 c 17.449724,0 37.488787,-0.276341 44.53125,-0.614092 z m 12.80448,-13.773087 0,-4.074678 -11.397189,-0.612822 C 73.271858,62.150769 53.232795,61.875 35.009061,61.875 l -33.134061,0 0,4.6875 0,4.6875 44.53125,0 44.53125,0 0,-4.074679 z M 91.141842,56.015625 C 91.367934,53.770737 91.103956,51.730549 90.537187,51.342481 89.983922,50.963658 69.808594,50.647252 45.703125,50.639356 L 1.875,50.625 l 0,4.205003 0,4.205004 28.359375,0.262392 c 15.597656,0.144316 35.592407,0.361439 44.43278,0.482497 L 90.740558,60 91.141842,56.015625 Z M 91.875,43.59375 l 0,-5.15625 -45,0 -45,0 0,4.675658 0,4.675658 33.515625,0.25844 c 18.433594,0.142142 38.683594,0.358408 45,0.480591 L 91.875,48.75 l 0,-5.15625 z m 0,-12.65625 0,-4.6875 -45,0 -45,0 0,4.6875 0,4.6875 45,0 45,0 0,-4.6875 z m 0,-13.269071 0,-5.769072 -11.397189,0.612822 c -6.268453,0.337052 -26.518453,0.612821 -45,0.612821 l -33.602811,0 0,5.15625 0,5.15625 45,0 45,0 0,-5.769071 z m 0,-11.574679 0,-4.21875 -45,0 -45,0 0,4.21875 0,4.21875 45,0 45,0 0,-4.21875 z"
       id="path4160"
       inkscape:connector-curvature="0" />
    <path
       style="fill:#7b6352"
       d="M 0,46.875 0,0 46.875,0 93.75,0 l 0,46.875 0,46.875 -46.875,0 L 0,93.75 0,46.875 Z m 90.9375,40.78125 0,-4.21875 -25.546875,0.0024 c -14.050781,0.0013 -34.089844,0.279254 -44.53125,0.617553 L 1.875,84.672605 l 0,3.601198 0,3.601197 44.53125,0 44.53125,0 0,-4.21875 z m 0.0128,-7.734375 c 0.007,-0.902344 0.267182,-2.589844 0.578091,-3.75 l 0.565296,-2.109375 -45.109342,0 -45.109342,0 0,3.75 0,3.75 44.53125,0 c 41.780838,0 44.53204,-0.101331 44.544052,-1.640625 z M 91.875,66.5625 l 0,-4.6875 -45,0 -45,0 0,4.6875 0,4.6875 45,0 45,0 0,-4.6875 z m 0,-11.25 0,-4.6875 -45,0 -45,0 0,4.188046 0,4.188046 10.546875,0.299058 c 5.800781,0.164481 26.050781,0.389236 45,0.499454 L 91.875,60 l 0,-4.6875 z m 0,-11.71875 0,-5.15625 -45,0 -45,0 0,4.661044 0,4.661044 12.890625,0.28957 c 7.089844,0.159262 27.339844,0.382105 45,0.495205 L 91.875,48.75 l 0,-5.15625 z m 0,-12.65625 0,-4.6875 -45,0 -45,0 0,4.6875 0,4.6875 45,0 45,0 0,-4.6875 z m 0,-13.125 0,-5.625 -18.984375,0.0018 c -10.441406,0.001 -30.691406,0.279781 -45,0.619512 L 1.875,13.426523 l 0,5.005489 0,5.005488 45,0 45,0 0,-5.625 z m 0,-11.71875 0,-4.21875 -45,0 -45,0 0,4.21875 0,4.21875 45,0 45,0 0,-4.21875 z"
       id="path4158"
       inkscape:connector-curvature="0" />
    <path
       style="fill:#77604f"
       d="M 0,46.875 0,0 46.875,0 93.75,0 l 0,46.875 0,46.875 -46.875,0 L 0,93.75 0,46.875 Z m 91.284107,42.890625 c 0.31091,-1.160156 0.571051,-3.058594 0.578091,-4.21875 l 0.0128,-2.109375 -37.827302,0 c -20.805017,0 -41.055017,0.272842 -45.0000002,0.606315 L 1.875,84.65013 l 0,3.612435 0,3.612435 44.421908,0 44.421908,0 0.565291,-2.109375 z m 0.41311,-12.1875 0.290968,-3.515625 -45.056593,0 -45.056592,0 0,3.759091 0,3.759091 44.765625,-0.243466 44.765625,-0.243466 0.290967,-3.515625 z M 91.875,66.5625 l 0,-4.6875 -45,0 -45,0 0,4.6875 0,4.6875 45,0 45,0 0,-4.6875 z m 0,-11.25 0,-4.6875 -45,0 -45,0 0,4.150009 c 0,3.164059 0.3897758,4.251867 1.640625,4.578748 0.9023437,0.235807 21.152344,0.477679 45,0.537492 L 91.875,60 l 0,-4.6875 z m 0,-11.71875 0,-5.15625 -45,0 -45,0 0,4.622296 c 0,4.048112 0.2620277,4.672764 2.109375,5.028579 1.1601562,0.223456 21.410156,0.463736 45,0.533954 L 91.875,48.75 l 0,-5.15625 z m 0,-12.65625 0,-4.6875 -45,0 -45,0 0,4.6875 0,4.6875 45,0 45,0 0,-4.6875 z m 0,-13.125 0,-5.625 -33.602811,0 c -18.481547,0 -38.731547,0.275769 -45,0.612821 L 1.875,13.413143 l 0,5.012178 0,5.012179 45,0 45,0 0,-5.625 z m 0,-11.71875 0,-4.21875 -45,0 -45,0 0,4.21875 0,4.21875 45,0 45,0 0,-4.21875 z"
       id="path4156"
       inkscape:connector-curvature="0" />
    <path
       style="fill:#725c4b"
       d="M 0,46.875 0,0 l 46.905101,0 46.905105,0 -0.0949,46.875 -0.0949,46.875 -46.810203,0 L 0,93.75 0,46.875 Z M 91.692361,87.88159 91.978472,83.41943 46.692361,83.66284 1.40625,83.90625 1.1058202,87.042371 C 0.51267461,93.234089 -2.60062,92.854761 46.614697,92.587232 L 91.40625,92.34375 91.692361,87.88159 Z m -37.590759,-6.31909 37.881207,0 -0.28828,-3.984375 -0.288279,-3.984375 -45,0 -45,0 -0.3004298,3.136121 C 0.55486989,82.481122 1.0835545,82.842032 9.0703291,82.166902 13.002865,81.834481 33.266938,81.5625 54.101602,81.5625 Z M 91.689619,66.796875 91.972987,61.875 48.330244,61.71875 C 24.326735,61.632813 3.9492188,61.527344 3.046875,61.484375 1.7647908,61.423325 1.3421044,62.300431 1.1127301,65.497879 0.59111462,72.769129 -3.1831568,72.232927 46.614697,71.962232 L 91.40625,71.71875 91.689619,66.796875 Z M 91.875,55.3125 91.875,50.625 48.75,50.45759 C 25.03125,50.365513 4.6757812,50.260044 3.515625,50.223215 1.7299712,50.166527 1.3606939,50.710915 1.1094051,53.770463 0.55923422,60.469028 -2.8842908,60 46.845577,60 l 45.029423,0 0,-4.6875 z m 0,-12.196504 0,-5.634003 L 46.640625,37.725371 1.40625,37.96875 1.1127301,42.060379 C 0.59345684,49.298978 -3.1595749,48.75 46.845577,48.75 l 45.029423,0 0,-5.634004 z m 0,-12.1875 0,-5.634004 L 46.640625,25.537871 1.40625,25.78125 1.1127301,29.872879 C 0.59345684,37.111478 -3.1595749,36.5625 46.845577,36.5625 l 45.029423,0 0,-5.634004 z m 0,-12.65625 0,-6.102754 L 46.640625,12.412871 1.40625,12.65625 1.1158011,17.224631 c -0.15974694,2.51261 -0.067519,5.149329 0.2049517,5.859375 0.4111846,1.07153 8.150221,1.290994 45.5248242,1.290994 l 45.029423,0 0,-6.102754 z M 91.686555,9.8481506 c 0.154167,-0.1388803 0.365105,-2.095123 0.46875,-4.3472054 L 92.34375,1.40625 l -45.46875,0 -45.46875,0 -0.2968449,3.6142138 C 0.94614038,7.0082813 1.0058139,9.1382888 1.2420129,9.7538137 1.5693779,10.606913 12.337171,10.781157 46.538858,10.486806 71.215924,10.274426 91.532387,9.9870319 91.686555,9.8481506 Z"
       id="path4154"
       inkscape:connector-curvature="0" />
    <path
       style="fill:#6c5748"
       d="M 0,46.875 0,0 46.96131,0 93.922622,0 93.624862,46.875 93.327104,93.75 46.663552,93.75 0,93.75 0,46.875 Z M 91.692361,87.88159 91.978472,83.41943 46.692361,83.66284 1.40625,83.90625 1.1058202,87.042371 C 0.51267461,93.234089 -2.60062,92.854761 46.614697,92.587232 L 91.40625,92.34375 91.692361,87.88159 Z m -26.385353,-6.31909 26.567992,0 0,-4.227754 0,-4.227754 L 46.640625,73.350371 1.40625,73.59375 1.1058202,76.729871 C 0.50282271,83.024431 -0.06952172,82.862238 20.334242,82.178895 30.456867,81.839877 50.694612,81.5625 65.307008,81.5625 Z M 91.875,67.03125 91.875,61.875 57.1875,61.659375 C 38.109375,61.540781 17.753906,61.435313 11.953125,61.425 L 1.40625,61.40625 1.1127301,65.497879 C 0.59345684,72.736478 -3.1595749,72.1875 46.845577,72.1875 l 45.029423,0 0,-5.15625 z m 0,-11.71875 0,-4.6875 -32.34375,-0.21875 C 41.742187,50.285937 21.386719,50.180468 14.296875,50.171875 L 1.40625,50.15625 1.1094051,53.770463 C 0.55923422,60.469028 -2.8842908,60 46.845577,60 l 45.029423,0 0,-4.6875 z m 0,-12.196504 0,-5.634003 L 46.640625,37.725371 1.40625,37.96875 1.1127301,42.060379 C 0.59345684,49.298978 -3.1595749,48.75 46.845577,48.75 l 45.029423,0 0,-5.634004 z m 0,-12.1875 0,-5.634004 L 46.640625,25.537871 1.40625,25.78125 1.1127301,29.872879 C 0.59345684,37.111478 -3.1595749,36.5625 46.845577,36.5625 l 45.029423,0 0,-5.634004 z m 0,-8.297648 c 0,-0.959284 0.268836,-3.705519 0.597412,-6.102745 L 93.069823,12.16951 47.238037,12.412881 1.40625,12.65625 1.1158011,17.224631 C 0.95605416,19.737241 1.0482823,22.37396 1.3207528,23.084006 1.7319374,24.155536 9.4709738,24.375 46.845577,24.375 90.123949,24.375 91.875,24.307176 91.875,22.630848 Z M 73.410742,10.314319 92.915233,10.3125 92.629492,5.859375 92.34375,1.40625 l -45.46875,0 -45.46875,0 -0.2968449,3.6142138 C 0.53812208,11.976078 -1.0698428,11.621448 27.918799,10.933163 42.211897,10.5938 62.683271,10.315319 73.410742,10.314319 Z"
       id="path4152"
       inkscape:connector-curvature="0" />
    <path
       style="fill:#665243"
       d="M 0,46.875 0,0 46.990852,0 93.981703,0 93.631477,46.873924 93.28125,93.747848 46.640625,93.748924 0,93.75 0,46.875 Z M 91.689619,87.890625 C 91.503845,84.663891 91.002645,83.001038 90.234375,83.0625 89.589844,83.114063 69.234375,83.219531 45,83.296875 L 0.9375,83.4375 l 0,4.6875 0,4.6875 45.517744,0 45.517743,0 -0.283368,-4.921875 z m -14.19283,-6.328125 14.378211,0 0,-4.21875 0,-4.21875 -45.46875,0 -45.46875,0 0,4.839127 0,4.839126 31.090539,-0.620376 C 49.127837,81.84167 69.588774,81.5625 77.496789,81.5625 Z M 91.875,67.03125 l 0,-5.15625 -15.784615,0 c -8.681539,0 -29.142477,-0.279073 -45.46875,-0.620162 L 0.9375,60.634675 l 0,5.776413 0,5.776412 45.46875,0 45.46875,0 0,-5.15625 z m 0,-11.566844 0,-4.535595 -33.046875,-0.619214 C 40.652344,49.969029 20.191406,49.689735 13.359375,49.688942 L 0.9375,49.6875 l 0,5.15625 0,5.15625 45.46875,0 45.46875,0 0,-4.535594 z m 0,-12.339406 0,-5.625 -45.46875,0 -45.46875,0 0,5.625 0,5.625 45.46875,0 45.46875,0 0,-5.625 z m 0.309996,-11.385102 c 0.314141,-2.652431 0.348006,-5.183681 0.07525,-5.625 C 91.987502,25.673579 71.328304,25.3125 46.350922,25.3125 l -45.413422,0 0,5.625 0,5.625 45.338165,0 45.338164,0 0.571167,-4.822602 z m 0.437864,-13.693023 0.27911,-5.859375 -45.982235,0 -45.982235,0 0,6.102668 0,6.102668 45.703125,-0.243293 45.703125,-0.243293 0.27911,-5.859375 z M 65.941226,10.630333 92.8125,10.010665 l 0,-4.5365822 0,-4.5365828 -45.9375,0 -45.9375,0 0,5.15625 0,5.15625 19.066226,0 c 10.486425,0 31.1583,-0.27885 45.9375,-0.619667 z"
       id="path4150"
       inkscape:connector-curvature="0" />
    <path
       style="fill:#624f41"
       d="M 0,46.875 0,0 46.985231,0 93.970462,0 93.625856,46.872435 93.28125,93.744871 46.640625,93.747435 0,93.75 0,46.875 Z m 91.875,40.63542 0,-5.30208 -13.359375,0.611151 c -7.347656,0.336133 -27.808594,0.612693 -45.46875,0.61458 L 0.9375,83.4375 l 0,4.6875 0,4.6875 45.46875,0 45.46875,0 0,-5.30208 z M 66.410188,81.88062 91.875,81.261241 l 0,-4.068121 0,-4.06812 -45.46875,0 -45.46875,0 0,4.6875 0,4.6875 20.003938,0 c 11.002165,0 31.463103,-0.278721 45.46875,-0.61938 z M 91.875,67.18188 l 0,-5.005621 L 66.410188,61.55688 C 52.404541,61.216221 31.943603,60.9375 20.941438,60.9375 l -20.003938,0 0,5.625 0,5.625 45.46875,0 45.46875,0 0,-5.00562 z m 0,-11.252686 0,-5.008305 -17.025288,-0.616695 C 65.485804,49.965012 45.024866,49.6875 29.380962,49.6875 l -28.443462,0 0,5.145615 0,5.145614 37.734375,0.255949 c 20.753906,0.140772 41.214844,0.356494 45.46875,0.479385 L 91.875,60.9375 l 0,-5.008306 z m 0,-9.405757 c 0,-1.740234 0.263672,-4.482421 0.585937,-6.09375 L 93.046875,37.5 l -46.054688,0 -46.054687,0 0,5.615909 0,5.615909 44.765625,0.252774 c 24.621094,0.139026 45.082031,0.354055 45.46875,0.477841 C 91.558594,49.58622 91.875,48.263672 91.875,46.523437 Z m 0.9375,-15.585937 0,-5.625 -45.9375,0 -45.9375,0 0,5.625 0,5.625 45.9375,0 45.9375,0 0,-5.625 z m 0,-12.65625 0,-6.09375 -45.9375,0 -45.9375,0 0,6.09375 0,6.09375 45.9375,0 45.9375,0 0,-6.09375 z M 81.415311,10.637179 92.8125,10.024357 l 0,-4.5434287 0,-4.5434283 -45.9375,0 -45.9375,0 0,5.15625 0,5.15625 34.540311,0 c 18.997172,0 39.669047,-0.275769 45.9375,-0.612821 z"
       id="path4148"
       inkscape:connector-curvature="0" />
  </g>
</svg>
