<?xml version="1.0" encoding="UTF-8" standalone="no"?>
<!-- Created with Inkscape (http://www.inkscape.org/) -->

<svg
   xmlns:dc="http://purl.org/dc/elements/1.1/"
   xmlns:cc="http://creativecommons.org/ns#"
   xmlns:rdf="http://www.w3.org/1999/02/22-rdf-syntax-ns#"
   xmlns:svg="http://www.w3.org/2000/svg"
   xmlns="http://www.w3.org/2000/svg"
   xmlns:sodipodi="http://sodipodi.sourceforge.net/DTD/sodipodi-0.dtd"
   xmlns:inkscape="http://www.inkscape.org/namespaces/inkscape"
   id="svg4136"
   version="1.1"
   inkscape:version="0.91 r13725"
   width="300"
   height="300"
   viewBox="0 0 300 300"
   sodipodi:docname="table.svg">
  <metadata
     id="metadata4142">
    <rdf:RDF>
      <cc:Work
         rdf:about="">
        <dc:format>image/svg+xml</dc:format>
        <dc:type
           rdf:resource="http://purl.org/dc/dcmitype/StillImage" />
        <dc:title></dc:title>
      </cc:Work>
    </rdf:RDF>
  </metadata>
  <defs
     id="defs4140" />
  <sodipodi:namedview
     pagecolor="#ffffff"
     bordercolor="#666666"
     borderopacity="1"
     objecttolerance="10"
     gridtolerance="10"
     guidetolerance="10"
     inkscape:pageopacity="0"
     inkscape:pageshadow="2"
     inkscape:window-width="2560"
     inkscape:window-height="1061"
     id="namedview4138"
     showgrid="false"
     inkscape:zoom="1.4883333"
     inkscape:cx="239.00981"
     inkscape:cy="114.64762"
     inkscape:window-x="-4"
     inkscape:window-y="-4"
     inkscape:window-maximized="1"
     inkscape:current-layer="svg4136" />
  <g
     id="g4170">
    <path
       style="fill:#c6a694"
       d="m 5.5600408,298.75 c -0.2074543,-0.6875 -1.6138889,-4.76569 -3.1254103,-9.06264 l -2.74822065,-7.81265 0.65304068,-20.68735 C 0.6986229,249.80931 1.6348174,232.85 2.4198827,223.5 5.8612199,182.51423 7.5024115,160.79012 12.941646,84.225595 16.117253,39.524673 19.000422,2.6662443 19.34869,2.3179769 19.929306,1.737361 111.61913,1.9093732 118.5,2.5039871 c 1.65,0.1425855 36.975,0.5681339 78.5,0.945663 l 75.5,0.6864166 2.27017,2.2248637 c 2.52394,2.4735721 3.14738,6.3391916 5.74778,35.6390696 0.80542,9.075 1.91906,20.55 2.47477,25.5 0.5557,4.95 2.35375,24.75 3.99567,44 1.64192,19.25 5.23173,61.39326 7.97737,93.65168 l 4.99206,58.65168 -3.04023,10.84832 c -1.67213,5.96658 -3.80184,12.15805 -4.7327,13.75883 -1.92255,3.3062 1.83091,2.92204 -39.18489,4.01051 -65.89486,1.74872 -114.5349,3.82589 -115.21694,4.92035 -0.5441,0.87311 -1.20462,0.85962 -2.68034,-0.0547 -1.38877,-0.86049 -5.68746,-1.06686 -14.78052,-0.7096 C 88.125131,297.84205 21.00735,300 13.858937,300 8.3894061,300 5.8204708,299.61306 5.5600408,298.75 Z"
       id="path4176"
       inkscape:connector-curvature="0" />
    <path
       style="fill:#ad907c"
       d="M 5.1293902,296.75 C 4.5988504,294.9625 3.2355716,290.94614 2.0998816,287.82476 0.235109,282.69953 0.07263728,280.42204 0.42344149,264.32476 0.63708944,254.52114 1.2770176,242 1.8455041,236.5 2.4139906,231 3.3700674,219.975 3.9701192,212 c 1.7343849,-23.05088 4.026329,-55.37867 4.0281831,-56.81739 0.00112,-0.86898 0.7675485,-1.12247 2.2516977,-0.74473 2.188457,0.557 2.185588,0.5397 -0.104894,-0.63223 -2.090102,-1.06941 -2.2781573,-1.66033 -1.67244,-5.25527 C 8.8480162,146.32267 9.1570506,143.6 9.1594091,142.5 c 0.0092,-4.29118 2.0765849,-33.02089 2.4012309,-33.36905 0.189267,-0.20297 1.143565,0.4304 2.120663,1.4075 3.279747,3.27974 9.988466,5.43331 19.938709,6.40053 15.500329,1.50671 38.085461,3.04235 47.186205,3.20835 8.959846,0.16343 13.193646,0.71512 13.194017,1.71925 1.29e-4,0.34838 -8.437371,0.52914 -18.75,0.40168 -24.814592,-0.30668 -63.826417,0.82979 -62.077703,1.80842 4.259684,2.38384 30.485561,5.62577 51.827469,6.4067 29.420505,1.07654 40.71136,1.67249 49.5,2.61272 10.72335,1.14721 21.2317,2.73078 24,3.61671 1.85127,0.59246 1.81409,0.69389 -0.5,1.36394 -5.30679,1.53661 -16.58644,0.85652 -28.88527,-1.7416 C 95.098348,133.3742 95.005068,133.37101 44.765386,134.13688 15.624965,134.5811 9.5876882,134.98529 11.083333,136.39185 11.3125,136.60736 20.725,137.2927 32,137.91481 c 24.494918,1.35154 30.678198,2.03987 28.832794,3.20969 C 60.099757,141.58918 50.5,142.00789 39.5,142.05497 c -11,0.0471 -20.9,0.47234 -22,0.94503 -2,0.85943 -2,0.85943 0,0.95399 1.1,0.052 4.25,0.31488 7,0.58417 5.669352,0.55515 62.769934,4.41863 67.144529,4.54306 l 2.855471,0.0812 -3,1.42492 c -2.16582,1.0287 -6.614782,1.39254 -16,1.30848 -17.435592,-0.15616 -38.742802,1.31228 -39.202168,2.70171 -0.238321,0.72084 3.118534,1.3257 9.780378,1.76228 12.152108,0.79637 15.719701,2.12968 8.381736,3.13248 C 51.731976,159.86512 47.475,160.49874 45,160.90036 l -4.5,0.73022 6.5,0.67689 c 3.575,0.37229 7.175,0.60951 8,0.52717 0.825,-0.0823 3.075,-0.034 5,0.10751 7.265113,0.53391 -1.194987,1.85398 -13,2.02846 -6.325,0.0935 -12.4,0.53677 -13.5,0.98509 -1.879727,0.76612 -1.848806,0.85505 0.514187,1.47894 1.382803,0.36509 6.332803,0.47908 11,0.25331 4.667197,-0.22577 9.610813,-0.0678 10.985813,0.3511 3.13736,0.95575 3.105554,0.96263 -6.279185,1.35814 -7.741184,0.32624 -12.151704,1.59068 -5.637482,1.61619 4.004321,0.0157 48.515655,1.67473 67.666667,2.52211 12.90346,0.57094 13.25,0.53237 13.25,-1.47461 0,-2.84254 2.60495,-2.59344 4.59196,0.43912 1.2207,1.86304 2.5642,2.5254 5.27305,2.59968 1.99924,0.0548 4.75999,0.49848 6.13499,0.98589 2.79903,0.99222 -34.56762,0.31179 -39.5,-0.71928 -5.941526,-1.24201 -50.87505,-0.94248 -53,0.3533 -1.6878,1.02921 -0.751199,1.23849 6,1.34064 40.048981,0.60597 80.5,2.58866 80.5,3.94568 0,0.86476 -8.52874,2.52592 -11.31594,2.20402 -0.99877,-0.11534 -2.7129,0.27032 -3.80919,0.85704 -1.67064,0.8941 -1.94321,0.77632 -1.68406,-0.72767 0.17005,-0.98693 -0.14081,-1.84338 -0.69081,-1.90322 -0.55,-0.0599 -1.77265,-0.4499 -2.71701,-0.86678 -3.7995,-1.67726 -10.66949,2.9442 -8.13873,5.47496 0.62141,0.62141 7.34984,1.41253 15.47752,1.81982 8.24492,0.41317 15.23136,1.24001 16.37822,1.93836 1.61914,0.98592 4.8e-4,1.10836 -8.5,0.64295 -17.28332,-0.94626 -66.652466,-1.0066 -79.248121,-0.0969 C 37.353323,191.31627 35.923339,193 48.5,193 c 4.610081,0 8.660081,0.45 9,1 0.339919,0.55 0.253976,1.04082 -0.190983,1.09072 -3.067337,0.34396 -11.255378,0.72862 -19.57239,0.91949 -5.369856,0.12323 -9.966019,0.55194 -10.213697,0.95269 -0.247678,0.40075 4.509229,1.75607 10.570905,3.01183 6.061676,1.25575 11.670339,2.9323 12.463697,3.72566 C 51.38378,204.52664 52,204.67701 52,204.05238 c 0,-0.65057 0.964522,-0.8484 2.390906,-0.4904 1.314998,0.33004 2.691555,0.11361 3.059017,-0.48095 1.057582,-1.71121 4.357428,-1.25706 4.860751,0.66897 0.435546,1.66667 0.462847,1.66667 0.573325,0 0.0638,-0.9625 0.817559,-1.75 1.675018,-1.75 0.857459,0 1.280902,0.45 0.940983,1 -0.360575,0.58342 0.656282,1 2.440983,1 C 69.623442,204 71,203.57584 71,203.05742 71,202.539 70.1,202.28816 69,202.5 c -1.1,0.21184 -2,0.0151 -2,-0.43714 0,-1.23923 23.921038,-2.36653 33.05677,-1.55783 6.53916,0.57884 7.80589,0.95552 6.89683,2.05087 -2.40254,2.89489 -8.564888,3.77181 -27.4536,3.90671 -19.16312,0.13687 -24.912034,1.03747 -26.79969,4.19832 C 52.26048,211.39742 51.274538,212 50.509327,212 c -2.047453,0 -2.982277,-2.08634 -1.387442,-3.09649 1.931373,-1.22331 -9.740303,-1.16013 -14.050643,0.0761 -2.478606,0.71085 -3.831166,0.64227 -4.930629,-0.25 -1.258774,-1.02157 -1.408321,-0.94446 -0.884021,0.45582 0.34708,0.92697 0.09383,1.9112 -0.562769,2.18718 -2.132466,0.89632 2.475132,3.62743 6.119751,3.62743 2.982301,0 3.263388,0.20234 2.148033,1.54626 -1.148781,1.3842 0.23857,1.52795 13.236761,1.37152 15.085322,-0.18155 19.295113,0.59785 16.36482,3.02978 C 65.511252,221.82059 65,221.87779 65,221.12244 c 0,-1.49032 -3.285196,-1.43724 -4.8,0.0776 -1.272774,1.27277 -1.661313,4.8 -0.528741,4.8 0.369193,0 1.553998,-0.7875 2.632901,-1.75 1.900999,-1.6959 1.938954,-1.67271 1.227766,0.75 -0.403632,1.375 -1.363438,2.99961 -2.132901,3.61024 C 60.629561,229.22088 60,230.76687 60,232.04579 c 0,1.27892 -0.98404,3.37277 -2.186756,4.653 -3.149072,3.35204 -1.236927,4.9229 3.55516,2.92064 4.065145,-1.69852 4.299522,-2.2239 2.08417,-4.67183 -2.512107,-2.77585 0.49951,-4.94674 6.868855,-4.95134 3.446576,-0.002 6.297443,-0.68588 8.523938,-2.0433 2.66865,-1.62698 3.639832,-1.79517 4.801065,-0.83143 2.203889,1.82906 1.363707,7.34182 -1.146432,7.52217 -3.915384,0.28132 -3.958935,0.45255 -0.5,1.96581 2.696672,1.17978 5.312598,1.37343 11.397258,0.84374 l 7.897262,-0.68748 -0.63361,2.36711 c -0.34848,1.30192 -0.65343,3.49212 -0.677664,4.86712 -0.03933,2.23124 -0.156977,2.3059 -1.094377,0.69455 -0.694098,-1.19313 -1.446876,-1.4933 -2.219591,-0.88505 C 95.456533,244.76411 87,246.13772 87,245.38009 c 0,-0.23627 1.125,-0.85732 2.5,-1.38009 3.59939,-1.36849 3.114867,-3.186 -0.75,-2.81336 -2.604406,0.25111 -3.235723,0.74639 -3.178125,2.49331 0.04312,1.30798 -0.656863,2.37052 -1.75,2.65638 C 82.697156,246.63045 82,246.2746 82,245.40638 c 0,-1.72296 -1.195316,-1.81106 -2.8,-0.20638 -0.933333,0.93333 -1.2,0.79027 -1.2,-0.6438 0,-1.26148 -1.132328,-0.36084 -3.585267,2.85168 -2.724101,3.56764 -3.894635,4.43873 -4.873252,3.62655 -0.708391,-0.58792 -2.086566,-0.76249 -3.06261,-0.38795 -1.488877,0.57134 -1.692633,0.25208 -1.26542,-1.98275 C 65.612603,246.57571 65.333128,246 63.920345,246 c -0.991271,0 -2.084963,0.45734 -2.430426,1.01631 -0.345464,0.55897 -1.115288,0.71522 -1.710721,0.34723 -0.595433,-0.368 -1.689339,0.16067 -2.430902,1.17481 C 56.562171,249.61345 56,249.85355 56,249.11421 c 0,-0.69743 -1.35,0.0819 -3,1.73194 -4.007203,4.00721 -4.039823,6.54114 -0.07299,5.66988 1.846262,-0.40551 4.043324,-0.0656 5.95034,0.92055 3.647679,1.88628 3.859798,1.90137 4.405801,0.31342 0.236391,-0.6875 0.309975,-0.45661 0.163521,0.51309 C 63.19439,259.93351 65.65834,262 67.902321,262 c 0.568593,0 1.711403,-1.2375 2.539579,-2.75 1.4385,-2.62714 1.532887,-2.65561 2.112641,-0.63739 0.537946,1.87269 1.603164,2.18783 9.379578,2.77487 4.824992,0.36424 9.401175,0.42749 10.169297,0.14056 1.275008,-0.47627 87.621134,-2.59412 123.396584,-3.0266 8.25,-0.0997 16.10516,-0.63507 17.45592,-1.18963 1.41915,-0.58265 3.92442,-0.6771 5.93455,-0.22375 2.33156,0.52586 4.57787,0.32527 6.81223,-0.60831 1.83348,-0.76607 3.66293,-1.41241 4.06545,-1.43631 0.40252,-0.0239 0.73185,-1.50594 0.73185,-3.29344 0,-2.8 -0.34615,-3.25 -2.5,-3.25 -1.98776,0 -2.5,-0.50301 -2.5,-2.45492 0,-1.77659 0.69078,-2.63657 2.5,-3.11235 2.89772,-0.76202 1.80265,-1.42757 -4.5,-2.73495 -3.51376,-0.72887 -3.96754,-1.13983 -3.73301,-3.38071 0.14685,-1.40304 -0.14431,-3.62335 -0.64701,-4.93402 l -0.91401,-2.38305 -1.0413,2.65286 c -0.57272,1.45907 -1.45892,2.91096 -1.96934,3.22642 -1.51179,0.93433 -4.38327,-3.02215 -4.02569,-5.54681 0.27917,-1.97103 1.05991,-2.41635 5.03833,-2.87377 5.28227,-0.60734 6.28972,-1.21935 5.48014,-3.32908 -0.41396,-1.07877 -1.61333,-1.31521 -4.62353,-0.91146 -3.23894,0.43444 -4.06458,0.23035 -4.06458,-1.0047 0,-3.38423 1.16598,-4.70991 3.60426,-4.09794 2.03276,0.51019 2.39574,0.23505 2.39574,-1.81598 0,-1.32951 -0.5625,-3.18645 -1.25,-4.12654 -1.16978,-1.59956 -2.10323,-1.60981 -14.54477,-0.15978 -7.31212,0.85221 -13.73225,1.2791 -14.26696,0.94863 -1.21484,-0.75081 2.21153,6.78641 3.50906,7.71912 0.52103,0.37454 2.39682,0.0753 4.16844,-0.66489 1.77161,-0.74023 3.51359,-1.05339 3.87106,-0.69592 0.35748,0.35748 1.50917,-0.46832 2.55933,-1.8351 1.05015,-1.36678 1.91937,-1.94912 1.9316,-1.29408 0.0122,0.65504 -0.4351,1.47364 -0.99407,1.8191 -1.78962,1.10604 0.0328,2.48886 3.32533,2.52319 l 3.19098,0.0333 -2.36078,1.96673 c -1.40878,1.17363 -3.8485,1.96673 -6.05,1.96673 -4.82286,0 -6.65336,1.71915 -4.43755,4.16759 1.19895,1.32483 1.33964,2.13796 0.53718,3.10486 -0.81592,0.98312 -0.60085,1.61367 0.86199,2.52723 2.32508,1.45203 2.50635,3.49301 0.46099,5.1905 -1.20697,1.0017 -1.60777,0.92337 -2.12118,-0.41454 -0.34816,-0.90729 -1.89928,-2.30442 -3.44694,-3.10475 -2.61771,-1.35367 -2.85928,-1.31226 -3.46426,0.59386 -0.78634,2.47754 -4.11622,2.16043 -3.68561,-0.351 0.41515,-2.42131 -3.00489,-2.2067 -4.56177,0.28625 -1.56685,2.50893 -10.84459,3.0386 -9.89536,0.56492 0.42038,-1.09548 -0.75065,-1.59767 -4.94852,-2.12216 -4.83715,-0.60436 -5.78262,-0.42084 -7.85319,1.52436 -2.20483,2.07133 -2.38403,2.09491 -2.82848,0.37216 -0.31101,-1.20552 -0.54883,-0.80558 -0.6902,1.16072 -0.21344,2.96888 -0.22398,2.97407 -1.01632,0.5 -0.61771,-1.9288 -0.82341,-2.06475 -0.90032,-0.59501 -0.0956,1.82694 -0.17979,1.83248 -2.05507,0.13538 -1.40465,-1.27119 -2.88332,-1.60471 -5.25,-1.18417 C 157.13798,238.07211 156,238.16279 156,237.21639 c 0,-1.672 3.04932,-2.4007 13.14504,-3.1413 6.62968,-0.48633 10.50068,-1.26816 12.38189,-2.50078 1.50941,-0.989 2.28666,-2.08052 1.73305,-2.43378 -0.5521,-0.35229 -0.94895,-2.89053 -0.88189,-5.64053 0.0671,-2.75 -0.25143,-6.46287 -0.70773,-8.25083 -0.66393,-2.60152 -0.5007,-3.37704 0.81722,-3.88278 0.90577,-0.34757 2.17911,-0.0919 2.82964,0.56815 0.91242,0.92579 0.75506,1.5159 -0.68846,2.58167 -1.45795,1.07644 -1.69682,2.00023 -1.08153,4.18268 0.43434,1.54061 0.88264,3.13861 0.99624,3.55111 0.11359,0.4125 0.26278,1.8 0.33153,3.08333 0.13255,2.47436 3.125,3.37543 3.125,0.94099 0,-0.7658 -0.45,-1.11424 -1,-0.77432 -3.28455,2.02996 1.1799,-13.06707 4.6778,-15.81852 3.25885,-2.56341 3.16721,-7.33934 -0.16998,-8.85987 -4.17775,-1.90351 -1.41719,-3.52709 4.82822,-2.83966 2.97646,0.32762 6.69473,0.25255 8.26283,-0.16682 2.07315,-0.55445 3.07554,-0.3614 3.67373,0.7075 0.45246,0.8085 2.38674,2.53282 4.29841,3.83183 2.85473,1.93984 3.22738,2.56797 2.08566,3.51552 -0.76455,0.63452 -2.23758,1.03585 -3.27338,0.89185 -1.03581,-0.14401 -2.00097,0.18817 -2.14479,0.73817 -0.1444,0.55218 2.20667,1.1343 5.25,1.2999 4.72869,0.25731 5.52271,0.0443 5.59045,-1.5 0.046,-1.04888 0.2894,-1.27833 0.58333,-0.5499 0.73588,1.82371 14.37799,1.67621 16.89659,-0.18268 1.55582,-1.14829 1.69301,-1.68424 0.69113,-2.7 -1.70496,-1.72858 -1.57102,-4.85512 0.29639,-6.91858 1.42573,-1.57542 1.26967,-1.76066 -2,-2.37406 -4.66648,-0.87544 -4.49298,-2.2427 0.45361,-3.57468 2.2,-0.5924 4,-1.55789 4,-2.14553 0,-0.58765 -0.73585,-0.78608 -1.63522,-0.44096 -0.89937,0.34512 -5.73687,0.83629 -10.75,1.09148 -9.46158,0.48164 -8.43028,-0.74323 1.71415,-2.03588 3.45184,-0.43985 4.68302,-0.99559 4.31725,-1.94876 -0.30769,-0.80182 0.64751,-1.81357 2.39594,-2.5378 3.26904,-1.35408 7.52,-4.75377 6.81972,-5.45405 -0.25235,-0.25234 -3.13699,0.6111 -6.41033,1.91877 -5.75175,2.29777 -10.19182,2.9861 -17.36818,2.69251 -5.60144,-0.22916 -2.62016,-1.4155 4.65315,-1.85162 7.86792,-0.47178 9.61279,-0.91401 8.79936,-2.23017 -0.35566,-0.57547 -5.71808,-0.73505 -13.46924,-0.40083 C 207.3235,178.20663 193,176.78233 193,174.96571 c 0,-0.46947 4.79594,-0.582 10.65765,-0.25005 7.20206,0.40785 10.45128,0.26961 10.02115,-0.42635 -0.35008,-0.56644 -4.14227,-1.23284 -8.42709,-1.48088 -4.28482,-0.24805 -8.64427,-0.92874 -9.68767,-1.51265 -1.37302,-0.76838 2.38131,-0.91788 13.59061,-0.54115 C 224.37422,171.26612 236,170.56209 236,169.12893 236,168.27185 230.0472,166 227.80145,166 c -0.85611,0 -2.11676,-0.675 -2.80145,-1.5 -0.92848,-1.11875 -3.43773,-1.50389 -9.87244,-1.51531 C 210.3824,162.97627 205.825,162.53316 205,162 c -1.49196,-0.96418 14.9844,-1.67409 24.89564,-1.07268 6.20177,0.37633 15.86839,-0.92916 14.05637,-1.89833 -2.14191,-1.14561 -13.54987,-1.97092 -29.93418,-2.16559 -18.17378,-0.21593 -20.09006,-0.63648 -13.48708,-2.95986 5.9197,-2.08297 9.90614,-2.41946 8.87376,-0.74903 -0.40773,0.65972 -0.27755,0.88506 0.30375,0.5258 0.5595,-0.3458 3.80192,-0.13821 7.20537,0.4613 6.13858,1.08129 8.85783,0.57124 6.08637,-1.14161 -2.68613,-1.66012 -0.20603,-2.15886 13.66346,-2.74766 12.03179,-0.51079 13.45719,-0.74358 10.92812,-1.7847 -1.72571,-0.71041 -11.6886,-1.48551 -24.5,-1.90608 -11.87537,-0.38984 -30.26331,-1.30613 -40.86209,-2.03619 -10.59878,-0.73007 -20.06647,-1.11925 -21.03932,-0.86485 -1.74534,0.45642 -6.02459,-3.15943 -4.97787,-4.20616 0.29336,-0.29335 3.6281,-0.0237 7.41054,0.59918 7.42492,1.22276 91.6293,1.47169 105.75257,0.31264 15.77228,-1.29438 4.39973,-2.34825 -36.51031,-3.38334 C 187.62062,135.83809 188,135.85545 188,134.92931 c 0,-0.94657 11.02061,-1.78681 33,-2.516 10.725,-0.35582 21.3,-0.74629 23.5,-0.86771 2.2,-0.12143 6.8875,-0.29386 10.41667,-0.38319 3.52916,-0.0893 6.07886,-0.49991 5.666,-0.91241 -0.41286,-0.4125 -20.17536,-0.76527 -43.91667,-0.78394 -30.7217,-0.0242 -45.03988,-0.4005 -49.666,-1.30544 -3.575,-0.69932 -7.175,-1.40358 -8,-1.56502 -0.825,-0.16143 -2.175,-0.55083 -3,-0.86533 -0.825,-0.3145 -2.85,-1.05866 -4.5,-1.6537 -2.4421,-0.88069 -1.51227,-0.99007 5,-0.58819 4.4,0.27152 9.8,0.93698 12,1.4788 7.48636,1.84372 10.56863,1.25891 18.49733,-3.50954 7.75869,-4.66622 10.24156,-5.17126 10.81384,-2.19966 0.24704,1.28279 -0.14093,1.58432 -1.48852,1.15688 -1.65582,-0.52521 -1.64498,-0.43336 0.11848,1.0035 2.40083,1.95621 6.55887,2.08101 6.55887,0.19686 0,-1.66631 9.52002,-3.09919 14.02176,-2.11044 2.90817,0.63874 4.21223,2.31883 1.72824,2.22657 -3.04389,-0.11304 -4.75,0.34263 -4.75,1.26865 0,1.21805 12.66545,1.21805 15.5,0 1.72345,-0.74059 1.58517,-0.87127 -1,-0.94503 -1.65,-0.0471 -3.66239,-0.5045 -4.47197,-1.01649 -1.29597,-0.81958 -1.29597,-0.99376 0,-1.45672 C 226.6702,118.63792 242.30017,117 248.66475,117 c 3.41947,0 6.47485,-0.41686 6.78974,-0.92636 1.01715,-1.64578 -9.65159,-2.2113 -21.45449,-1.13724 -13.44548,1.22353 -28.8381,1.29813 -24.96252,0.12097 2.79332,-0.84844 7.78232,-1.35536 31.17059,-3.16718 9.8407,-0.76234 15.47919,-1.5872 15.0953,-2.20834 -0.40224,-0.65085 -8.20362,-0.68291 -22.70806,-0.0933 -12.15242,0.49398 -31.54531,0.89242 -43.09531,0.88542 -20.82794,-0.0126 -21.04506,-0.035 -26.5,-2.7334 -3.025,-1.49637 -4.47987,-2.4674 -3.23305,-2.15784 4.05579,1.00696 23.57865,2.14764 29.73305,1.73723 18.70958,-1.24765 42.01999,-3.52389 43.40203,-4.23816 0.87888,-0.45422 5.36714,-1.14431 9.9739,-1.53353 C 252.51635,100.73375 254,100.31293 254,98.393011 c 0,-1.848 -2.7059,-1.761555 -19,0.606989 -7.425,1.07931 -18.45,2.01312 -24.5,2.07514 -6.05,0.062 -15.08828,0.40797 -20.08506,0.7688 -9.67072,0.69835 -16.65366,0.10519 -12.91494,-1.09705 5.01272,-1.611915 15.15763,-2.744031 28.5,-3.180446 7.975,-0.260854 15.175,-0.647753 16,-0.859777 0.825,-0.212023 3.3,-0.720179 5.5,-1.129235 2.2,-0.409057 6.025,-1.357292 8.5,-2.10719 2.475,-0.749898 8.42726,-2.122026 13.22723,-3.049173 4.79998,-0.927147 8.52246,-2.017066 8.27217,-2.422043 -1.08642,-1.757855 -8.69691,-1.97505 -13.55276,-0.386781 -2.90134,0.948981 -6.6184,1.426863 -8.81096,1.132779 -2.1961,-0.294559 -5.23276,0.09713 -7.21409,0.930529 -2.35042,0.988646 -7.33488,1.445178 -15.92159,1.458276 -6.875,0.01049 -12.95,-0.08388 -13.5,-0.209695 -0.55,-0.12582 -1.55866,-0.277465 -2.24146,-0.33699 -2.1281,-0.185521 -1.49137,-2.054812 0.93244,-2.737464 1.26996,-0.357676 5.31996,-0.695176 9,-0.75 C 209.87102,87.044856 213.16008,86.55 213.5,86 c 0.33992,-0.55 2.41382,-1 4.60868,-1 5.05222,0 9.19869,-2.083799 14.89132,-7.483611 3.86214,-3.663482 6.20095,-4.798657 16.5,-8.008544 6.6,-2.057009 12.675,-3.95785 13.5,-4.22409 3.08629,-0.995996 -3.19991,-2.369735 -6.40683,-1.4001 -1.70125,0.514381 -5.84065,1.187292 -9.19868,1.495357 -6.01109,0.551457 -6.09847,0.523305 -5.65045,-1.820358 0.25028,-1.309262 -0.005,-3.201706 -0.56624,-4.205431 -0.92116,-1.646021 -1.08862,-1.556707 -1.70796,0.910911 -0.80518,3.208102 -2.43497,3.585231 -3.18009,0.735866 -0.29379,-1.123455 -1.36402,-2 -2.44192,-2 -2.308,0 -6.22041,-8.270625 -5.55616,-11.74542 C 228.61898,45.542369 228.25638,45 226.78441,45 c -1.06604,0 -3.28826,-1.35 -4.93826,-3 -1.65,-1.65 -3.52788,-3.001682 -4.17307,-3.003738 C 215.43218,38.989121 210,35.019934 210,33.389698 c 0,-2.646671 4.5054,-1.144175 14.78653,4.931131 5.08403,3.004242 10.75636,5.746038 12.60519,6.092879 4.27746,0.802457 8.24418,-0.691168 9.11402,-3.431784 0.94888,-2.98967 0.0874,-3.416671 -2.91898,-1.446817 C 241.0338,41.207872 241,41.196151 241,38.638063 c 0,-2.988361 -2.77599,-5.110195 -8,-6.114827 -1.925,-0.370197 -6.65,-2.167443 -10.5,-3.99388 -3.85,-1.826437 -10.15,-3.872976 -14,-4.547865 -7.83248,-1.373001 -15.78062,-4.40379 -17.71851,-6.756439 -1.39253,-1.690555 -2.16244,-1.730798 14.21851,0.743193 3.575,0.539927 10.01497,2.342492 14.31105,4.005701 5.9768,2.313898 10.177,3.179067 17.88642,3.684295 8.42567,0.552167 9.99872,0.429532 9.60724,-0.748981 -0.49783,-1.498651 -2.06213,-2.065564 -10.80471,-3.915698 -3.025,-0.640161 -10.34518,-2.50383 -16.26707,-4.141487 -5.92189,-1.637657 -13.79689,-3.354428 -17.5,-3.815048 -3.70311,-0.460619 -8.68791,-1.569806 -11.07733,-2.464861 -4.96944,-1.8615034 -9.88777,-1.360525 -14.9333,1.521099 C 171.96223,14.526292 145,35.927342 145,36.87571 c 0,0.705738 -4.94552,8.706776 -11.35356,18.368192 -3.9297,5.924819 -4.72115,4.41058 -1.20722,-2.309691 6.78076,-12.967953 15.67953,-23.312058 27.99277,-32.539334 5.53741,-4.149611 10.86065,-8.186026 11.82944,-8.969812 C 173.23022,10.641279 174.30561,10 174.65119,10 c 0.34558,0 1.19285,-0.772029 1.88282,-1.7156201 1.13961,-1.5585105 2.01967,-1.6042236 9.61024,-0.4991819 4.59566,0.669041 9.39917,1.4211872 10.67447,1.671436 1.27529,0.2502487 11.48582,1.614871 22.69007,3.032493 22.88738,2.895838 45.86306,3.285904 39.99121,0.678946 -3.47828,-1.544273 -7.92079,-2.063371 -22.67234,-2.649221 -5.86978,-0.233115 -13.29478,-1.0758005 -16.5,-1.8726338 C 217.12245,7.8493849 212.8125,6.9076177 210.75,6.5534021 208.6875,6.1991866 207,5.4551951 207,4.9000877 c 0,-0.667983 11.03875,-0.8512009 32.64331,-0.5418036 l 32.6433,0.4674826 2.3567,2.7426558 C 275.93949,9.0768832 277,10.789258 277,11.373701 c 0,0.584442 0.67992,6.92695 1.51093,14.094461 2.01517,17.38101 3.2687,30.976679 10.92874,118.531838 3.58483,40.975 7.39614,84.44688 8.46959,96.60417 l 1.95171,22.10417 -2.49492,9.82535 c -1.3722,5.40394 -3.47842,11.82458 -4.68048,14.26809 l -2.18557,4.44275 -14,0.3221 c -65.66949,1.51089 -137.72673,4.37665 -139.1199,5.53288 -1.04135,0.86424 -1.74273,0.84442 -2.85746,-0.0807 -1.09263,-0.9068 -4.93384,-1.05941 -14.75,-0.58601 C 106.05632,297.09427 16.521894,300 9.8557319,300 6.4762726,300 5.9959839,299.66974 5.1293902,296.75 Z M 58.956195,261.47293 C 59.530288,261.82774 60,261.64148 60,261.05902 60,260.47656 59.586804,260 59.081787,260 57.261172,260 55,261.23503 55,262.22943 c 0,0.59888 0.597382,0.51968 1.456195,-0.19308 0.800907,-0.66469 1.925907,-0.91823 2.5,-0.56342 z M 41,256 c 0,-0.55 -0.423442,-1 -0.940983,-1 -0.517541,0 -1.219098,0.45 -1.559017,1 -0.339919,0.55 0.08352,1 0.940983,1 C 40.298442,257 41,256.55 41,256 Z m 7,-1.11803 c 0,-0.55 -0.45,-0.72189 -1,-0.38197 -0.55,0.33992 -1,1.06803 -1,1.61803 0,0.55 0.45,0.72189 1,0.38197 0.55,-0.33992 1,-1.06803 1,-1.61803 z m 212,-1.77432 c 0,-0.42587 -0.6321,-0.77432 -1.40466,-0.77432 -0.77256,0 -1.17541,0.59742 -0.89521,1.32759 0.51073,1.33096 2.29987,0.90055 2.29987,-0.55327 z m -7.31689,-4.29515 c -0.31922,-0.79773 -0.55618,-0.56078 -0.60416,0.60417 -0.0434,1.05416 0.19292,1.64479 0.52522,1.3125 0.33229,-0.3323 0.36781,-1.1948 0.0789,-1.91667 z m -179.87061,-3.75 c 0.25,-0.75 -0.125,-1.125 -0.875,-0.875 -0.721875,0.24062 -1.509375,1.02812 -1.75,1.75 -0.25,0.75 0.125,1.125 0.875,0.875 0.721875,-0.24063 1.509375,-1.02813 1.75,-1.75 z m -23.317425,-6.06063 c 3.794057,-1.4425 2.095808,-3.19788 -2.323056,-2.40121 -4.508474,0.81282 -5.368968,1.27165 -4.629314,2.46844 0.749295,1.21238 3.660788,1.18423 6.95237,-0.0672 z m 25.082272,-1.06606 c 2.071506,-1.7192 0.119243,-2.9003 -4.827347,-2.9205 -3.713301,-0.0152 -4.249511,0.51941 -3.217809,3.20798 0.647514,1.6874 5.891356,1.50001 8.045156,-0.28748 z M 57.692991,229.26903 C 57.439447,228.29606 57.215328,228.85 57.194949,230.5 c -0.02038,1.65 0.187065,2.44606 0.460988,1.76903 0.273923,-0.67703 0.290597,-2.02703 0.03705,-3 z M 52,228.94098 C 52,228.42344 51.55,228 51,228 c -0.55,0 -1,0.70156 -1,1.55902 0,0.85746 0.45,1.2809 1,0.94098 0.55,-0.33992 1,-1.04148 1,-1.55902 z m 148.99506,-1.11766 c 0.0101,-1.38507 3.56355,-1.42119 5.18778,-0.0527 1.72495,1.45331 7.81716,0.88827 7.81716,-0.72504 0,-0.91495 -5.21778,-2.29761 -9.22735,-2.44517 -3.86238,-0.14214 -3.66945,-1.76514 0.49035,-4.1249 3.08733,-1.75137 3.42308,-2.29108 2.48839,-4 -2.1339,-3.90151 -4.69509,-4.54604 -4.8697,-1.22547 -0.0915,1.74065 -0.26354,1.57087 -0.75983,-0.75 -0.74701,-3.49343 -2.15094,-3.69823 -3.75869,-0.5483 -0.81256,1.59198 -1.30042,1.84521 -1.71032,0.8878 -0.5596,-1.30708 -0.17662,1.63778 0.8662,6.6605 0.32331,1.55718 0.0702,2.5 -0.67126,2.5 -1.41623,0 -4.84779,2.94783 -4.84779,4.16443 0,0.46994 2.02278,0.7377 4.49506,0.59501 2.47229,-0.14269 4.49729,-0.56394 4.5,-0.93612 z m -1.91611,-4.40665 c 0.048,-1.16495 0.28494,-1.4019 0.60416,-0.60417 0.28887,0.72187 0.25335,1.58437 -0.0789,1.91667 -0.3323,0.33229 -0.56864,-0.25834 -0.52522,-1.3125 z m -147.573419,1.57438 c 1.017824,-1.64687 -0.476107,-4.93957 -1.979404,-4.3627 -1.632399,0.62641 -2.761118,3.18241 -1.970354,4.46189 0.752843,1.21813 3.173177,1.15735 3.949758,-0.0992 z m 5.177583,-1.17855 c -0.319226,-0.79773 -0.556183,-0.56078 -0.604167,0.60417 -0.04342,1.05416 0.192928,1.64479 0.52522,1.3125 0.332291,-0.3323 0.367818,-1.1948 0.07895,-1.91667 z M 56,220.88197 c 0,-0.55 -0.45,-0.72189 -1,-0.38197 -0.55,0.33992 -1,1.06803 -1,1.61803 0,0.55 0.45,0.72189 1,0.38197 0.55,-0.33992 1,-1.06803 1,-1.61803 z M 31,218 c 0,-0.55 -0.198442,-1 -0.440983,-1 -0.242541,0 -0.719098,0.45 -1.059017,1 -0.339919,0.55 -0.141476,1 0.440983,1 C 30.523442,219 31,218.55 31,218 Z m 173.88989,-8.36732 c 1.24881,-1.50472 0.26162,-2.69381 -3.38989,-4.08321 -1.94575,-0.74035 -1.93897,-0.78939 0.25,-1.80805 3.17418,-1.47712 2.81991,-3.09739 -0.5,-2.28678 -4.15668,1.01493 -6.98128,4.16249 -5.64148,6.28651 0.97231,1.54143 3.96716,2.88937 7.01904,3.15917 0.62015,0.0548 1.6382,-0.51561 2.26233,-1.26764 z m 40.48511,-3.43043 c 0.27117,-0.43876 0.0796,-1.45126 -0.42567,-2.25 -0.63044,-0.99657 -0.92351,-1.06003 -0.93402,-0.20225 -0.008,0.6875 -0.52156,1.1375 -1.14031,1 -0.61875,-0.1375 -1.33125,0.3125 -1.58333,1 -0.50217,1.36954 3.25896,1.78611 4.08333,0.45225 z m 4.4375,-2.13975 c 0.25,-0.75 -0.125,-1.125 -0.875,-0.875 -0.72188,0.24062 -1.50938,1.02812 -1.75,1.75 -0.25,0.75 0.125,1.125 0.875,0.875 0.72187,-0.24063 1.50937,-1.02813 1.75,-1.75 z M 209,202 c 0,-0.55 -0.19844,-1 -0.44098,-1 -0.24254,0 -0.7191,0.45 -1.05902,1 -0.33992,0.55 -0.14148,1 0.44098,1 C 208.52344,203 209,202.55 209,202 Z M 36.25,201.33772 c -0.6875,-0.27741 -1.8125,-0.27741 -2.5,0 -0.6875,0.27741 -0.125,0.50439 1.25,0.50439 1.375,0 1.9375,-0.22698 1.25,-0.50439 z M 244,195.05902 c 0,-0.51754 -0.45,-1.2191 -1,-1.55902 -0.55,-0.33992 -1,0.0835 -1,0.94098 0,0.85746 0.45,1.55902 1,1.55902 0.55,0 1,-0.42344 1,-0.94098 z M 33.856763,193.10969 c 0.954361,-0.60472 1.025854,-1.0642 0.241051,-1.54924 C 32.71277,190.70445 29,191.80196 29,193.06739 c 0,1.16475 3.043461,1.19126 4.856763,0.0423 z M 100,186.05536 c 3.63564,-0.0939 4.15544,-0.31667 2.70617,-1.15999 -1.17845,-0.68572 -1.58415,-1.70446 -1.18261,-2.96959 C 102.01317,180.38314 101.64829,180 99.689512,180 c -1.344895,0 -4.060766,0.675 -6.035269,1.5 -3.979491,1.66274 -8.151908,2.10153 -5.79748,0.60969 2.392396,-1.5159 -0.493285,-2.27843 -10.764173,-2.84438 -10.537809,-0.58067 -19.487275,0.28706 -18.552927,1.79887 0.318104,0.5147 3.551813,0.93582 7.186021,0.93582 13.990866,0 3.871611,1.42926 -21.129109,2.98432 -8.746885,0.54406 -16.114298,1.20007 -16.37203,1.4578 -0.376758,0.37676 53.431789,0.0868 71.775455,-0.38676 z m -20.25,-3.71764 c 0.6875,-0.27741 1.8125,-0.27741 2.5,0 0.6875,0.27741 0.125,0.50439 -1.25,0.50439 -1.375,0 -1.9375,-0.22698 -1.25,-0.50439 z M 242,184.39301 C 242,184.17686 241.325,184 240.5,184 c -0.825,0 -1.5,0.43588 -1.5,0.96862 0,0.53273 0.675,0.70959 1.5,0.39301 0.825,-0.31659 1.5,-0.75246 1.5,-0.96862 z M 40.856763,182.10969 c 0.851113,-0.53929 0.977917,-1.09383 0.340242,-1.48793 -1.371192,-0.84745 -4.326749,0.35929 -3.632244,1.48302 0.686526,1.11083 1.544614,1.11211 3.292002,0.005 z M 54.5,181 c -0.339919,-0.55 -1.716476,-1 -3.059017,-1 C 50.098442,180 49,180.45 49,181 c 0,0.55 1.376558,1 3.059017,1 1.784701,0 2.801558,-0.41658 2.440983,-1 z M 40,177 c 0,-0.55 -0.9,-1 -2,-1 -1.1,0 -2,0.45 -2,1 0,0.55 0.9,1 2,1 1.1,0 2,-0.45 2,-1 z m 88,-3 c 0,-0.55 -0.45,-1 -1,-1 -0.55,0 -1,0.45 -1,1 0,0.55 0.45,1 1,1 0.55,0 1,-0.45 1,-1 z m 105.41247,0.39522 c 0.86682,-0.33264 1.34046,-0.98597 1.05252,-1.45187 -0.63382,-1.02554 -13.35586,-0.1004 -15.46499,1.12461 -1.7185,0.99813 11.8607,1.30646 14.41247,0.32726 z m 12.08753,-5.182 3,-1.05533 -2.81574,-0.0789 c -3.42551,-0.096 -6.96892,1.65145 -6.12324,3.01978 0.37821,0.61196 1.0664,0.64451 1.77801,0.0841 0.63853,-0.50286 2.51097,-1.38918 4.16097,-1.96961 z m -210.25,1.1245 c -0.6875,-0.27741 -1.8125,-0.27741 -2.5,0 -0.6875,0.27741 -0.125,0.50439 1.25,0.50439 1.375,0 1.9375,-0.22698 1.25,-0.50439 z M 28,161 c 0,-0.55 -0.675,-1 -1.5,-1 -0.825,0 -1.5,0.45 -1.5,1 0,0.55 0.675,1 1.5,1 0.825,0 1.5,-0.45 1.5,-1 z m -8,-7.06215 C 20,153.42203 19.1,153 18,153 c -1.1,0 -2,0.35424 -2,0.7872 0,0.43295 0.9,0.85499 2,0.93785 1.1,0.0829 2,-0.27138 2,-0.7872 z M 24,154 c 0,-0.55 -0.675,-1 -1.5,-1 -0.825,0 -1.5,0.45 -1.5,1 0,0.55 0.675,1 1.5,1 0.825,0 1.5,-0.45 1.5,-1 z m 8,0 c 0,-0.55 -1.098442,-1 -2.440983,-1 -1.342541,0 -2.719098,0.45 -3.059017,1 -0.360575,0.58342 0.656282,1 2.440983,1 C 30.623442,155 32,154.55 32,154 Z m 232.5,-4 c 0.33992,-0.55 -0.28197,-1 -1.38197,-1 -1.1,0 -2.27811,0.45 -2.61803,1 -0.33992,0.55 0.28197,1 1.38197,1 1.1,0 2.27811,-0.45 2.61803,-1 z m -7.85622,-1.79411 c -1.02092,-0.2164 -2.29254,0.0429 -2.82582,0.57615 -0.62614,0.62614 0.0314,0.76551 1.85622,0.39346 2.09296,-0.42673 2.34442,-0.67819 0.9696,-0.96961 z M 277.5,130 c -0.33992,-0.55 -1.06803,-1 -1.61803,-1 -0.55,0 -0.72189,0.45 -0.38197,1 0.33992,0.55 1.06803,1 1.61803,1 0.55,0 0.72189,-0.45 0.38197,-1 z m -69.7,-7.2 c 0.93333,-0.93333 1.2,-0.93333 1.2,0 0,0.66 0.76101,1.2 1.69113,1.2 1.49208,0 1.46863,-0.1627 -0.19924,-1.38227 -2.1691,-1.58608 -4.70432,-1.48044 -5.27101,0.21964 -0.50534,1.516 1.04827,1.49348 2.57912,-0.0374 z m 33.7,-0.8 c -0.33992,-0.55 -1.04148,-1 -1.55902,-1 -0.51754,0 -0.94098,0.45 -0.94098,1 0,0.55 0.70156,1 1.55902,1 0.85746,0 1.2809,-0.45 0.94098,-1 z m 4,0 c -0.33992,-0.55 -1.04148,-1 -1.55902,-1 -0.51754,0 -0.94098,0.45 -0.94098,1 0,0.55 0.70156,1 1.55902,1 0.85746,0 1.2809,-0.45 0.94098,-1 z m 8.5,0.55902 c 0,-0.24254 -0.45,-0.7191 -1,-1.05902 -0.55,-0.33992 -1,-0.14148 -1,0.44098 0,0.58246 0.45,1.05902 1,1.05902 0.55,0 1,-0.19844 1,-0.44098 z M 262.5,116 c 0.33992,-0.55 -0.30852,-1 -1.44098,-1 -1.13246,0 -2.05902,0.45 -2.05902,1 0,0.55 0.64844,1 1.44098,1 0.79254,0 1.7191,-0.45 2.05902,-1 z m 6,-6.01675 c 1.7783,-0.0392 1.81479,-0.15214 0.32921,-1.01902 -1.08633,-0.63391 -2.57303,-0.63193 -4.25,0.006 -3.17123,1.20569 -3.42593,2.49028 -0.32921,1.6604 1.2375,-0.33164 3.15,-0.62281 4.25,-0.64704 z M 275.5,109 c -0.33992,-0.55 -1.04148,-1 -1.55902,-1 -0.51754,0 -0.94098,0.45 -0.94098,1 0,0.55 0.70156,1 1.55902,1 0.85746,0 1.2809,-0.45 0.94098,-1 z M 261,100 c 0,-0.55 -0.19844,-1 -0.44098,-1 -0.24254,0 -0.7191,0.45 -1.05902,1 -0.33992,0.55 -0.14148,1 0.44098,1 0.58246,0 1.05902,-0.45 1.05902,-1 z m 12.55887,-11.42858 c 1.71678,-1.263471 1.75399,-1.501186 0.32193,-2.056796 -0.89056,-0.345518 -4.03634,-0.490158 -6.99063,-0.32142 -4.17292,0.238341 -5.44567,0.69727 -5.70413,2.056796 -0.28347,1.491111 0.46353,1.75 5.04951,1.75 3.09206,0 6.20814,-0.607863 7.32332,-1.42858 z M 282,88 c 0,-0.55 -0.45,-1 -1,-1 -0.55,0 -1,0.45 -1,1 0,0.55 0.45,1 1,1 0.55,0 1,-0.45 1,-1 z m -6,-21.468615 c 0,-0.929147 -0.5818,-1.245359 -1.58385,-0.860837 -1.27522,0.489349 -1.32393,0.772535 -0.25,1.453303 C 275.94227,68.249732 276,68.231083 276,66.531385 Z M 252.42053,45.346503 c 0.57203,-1.490689 0.77636,-1.466073 2.07518,0.25 1.69728,2.242525 1.88294,1.529623 0.52904,-2.031403 -1.28817,-3.388146 -2.59325,-3.24167 -3.87491,0.4349 -1.07053,3.070933 0.12345,4.336155 1.27069,1.346503 z M 274.66228,40.75 c -0.27741,-0.6875 -0.50439,-0.125 -0.50439,1.25 0,1.375 0.22698,1.9375 0.50439,1.25 0.27741,-0.6875 0.27741,-1.8125 0,-2.5 z m 2.02083,0.0625 c -0.31922,-0.797733 -0.55618,-0.560776 -0.60416,0.604167 -0.0434,1.054166 0.19293,1.644791 0.52522,1.3125 0.33229,-0.332292 0.36781,-1.194792 0.0789,-1.916667 z m -26,-2 c -0.31922,-0.797733 -0.55618,-0.560776 -0.60416,0.604167 -0.0434,1.054166 0.19292,1.644791 0.52522,1.3125 0.33229,-0.332292 0.36781,-1.194792 0.0789,-1.916667 z m 18.33695,-11.336666 c 0.69572,-0.838291 0.99677,-1.792335 0.66901,-2.120096 C 268.59896,24.265629 264,26.01442 264,27.519052 c 0,1.936942 3.40097,1.907663 5.02006,-0.04322 z m 4.66305,-0.663334 c -0.31922,-0.797733 -0.55618,-0.560776 -0.60416,0.604167 -0.0434,1.054166 0.19293,1.644791 0.52522,1.3125 0.33229,-0.332292 0.36781,-1.194792 0.0789,-1.916667 z m -9.95394,-3.416667 c -0.33229,-0.332291 -1.1948,-0.367818 -1.91667,-0.07895 -0.79773,0.319226 -0.56078,0.556183 0.60417,0.604167 1.05416,0.04342 1.64479,-0.192928 1.3125,-0.52522 z m 6.57365,-8.882138 C 270.41127,13.971227 269.7125,13.375731 268.75,13.190371 267.6554,12.97957 267,13.470042 267,14.5 c 0,1.739789 2.9553,1.752043 3.30282,0.0137 z M 76,257 c 0,-0.55 0.45,-1 1,-1 0.55,0 1,0.45 1,1 0,0.55 -0.45,1 -1,1 -0.55,0 -1,-0.45 -1,-1 z m 3,0 c 0,-0.55 0.9,-1 2,-1 1.1,0 2,0.45 2,1 0,0.55 -0.9,1 -2,1 -1.1,0 -2,-0.45 -2,-1 z m 9,0.20578 c 0,-0.52849 0.726903,-1.56417 1.615339,-2.3015 1.397537,-1.15986 1.56608,-1.08641 1.25,0.54469 C 90.488698,257.39259 88,258.91847 88,257.20578 Z m 7.428571,-0.63435 c -1.058984,-0.77435 -1.57792,-1.75541 -1.153189,-2.18015 0.42473,-0.42473 1.522237,-0.0222 2.438904,0.89443 2.161429,2.16143 1.21129,3.11157 -1.285715,1.28572 z M 113.5,257 c 0.33992,-0.55 0.81648,-1 1.05902,-1 0.24254,0 0.44098,0.45 0.44098,1 0,0.55 -0.47656,1 -1.05902,1 -0.58246,0 -0.7809,-0.45 -0.44098,-1 z M 85,256 c 0,-0.55 0.476558,-1 1.059017,-1 0.582459,0 0.780902,0.45 0.440983,1 -0.339919,0.55 -0.816476,1 -1.059017,1 C 85.198442,257 85,256.55 85,256 Z m 128.17759,0.10976 c -0.8305,-0.51328 -0.72169,-1.31563 0.39452,-2.90925 1.8007,-2.57086 3.42789,-2.86948 3.42789,-0.62908 0,2.1588 -2.42396,4.40261 -3.82241,3.53833 z M 119.5,247 c 0.33992,-0.55 0.81648,-1 1.05902,-1 0.24254,0 0.44098,0.45 0.44098,1 0,0.55 -0.47656,1 -1.05902,1 -0.58246,0 -0.7809,-0.45 -0.44098,-1 z m -5,-1 c 0.33992,-0.55 1.26648,-1 2.05902,-1 0.79254,0 1.44098,0.45 1.44098,1 0,0.55 -0.92656,1 -2.05902,1 -1.13246,0 -1.7809,-0.45 -1.44098,-1 z m 36.5,-2 c 0,-0.55 0.45,-1 1,-1 0.55,0 1,0.45 1,1 0,0.55 -0.45,1 -1,1 -0.55,0 -1,-0.45 -1,-1 z m -4.5,-1 c 0.33992,-0.55 0.81648,-1 1.05902,-1 0.24254,0 0.44098,0.45 0.44098,1 0,0.55 -0.47656,1 -1.05902,1 -0.58246,0 -0.7809,-0.45 -0.44098,-1 z m 9.19828,-0.65612 C 156.2652,240.86652 160,240.46675 160,241.88342 c 0,0.48589 -1.08392,1.09063 -2.4087,1.34388 -1.72525,0.3298 -2.26238,0.0791 -1.89302,-0.88342 z M 163,241.44098 c 0,-0.85746 0.45,-1.2809 1,-0.94098 0.55,0.33992 1,1.04148 1,1.55902 0,0.51754 -0.45,0.94098 -1,0.94098 -0.55,0 -1,-0.70156 -1,-1.55902 z m 64.66667,-0.10765 c -0.36667,-0.36666 -0.63815,-1.60416 -0.60328,-2.75 0.0583,-1.91559 0.14052,-1.89048 1.02148,0.31185 0.97931,2.44822 0.77617,3.63253 -0.4182,2.43815 z M 104.5,240 c 0.33992,-0.55 1.94148,-1 3.55902,-1 1.61754,0 2.94098,0.45 2.94098,1 0,0.55 -1.60156,1 -3.55902,1 -2.11803,0 -3.30878,-0.40488 -2.94098,-1 z m 9,0 c -1.02826,-1.66376 5.21649,-1.58867 6.95,0.0836 0.58195,0.56139 -0.4606,0.91643 -2.69098,0.91643 -2.00254,0 -3.9191,-0.45 -4.25902,-1 z m 56.5,0 c 0,-0.55 0.45,-1 1,-1 0.55,0 1,0.45 1,1 0,0.55 -0.45,1 -1,1 -0.55,0 -1,-0.45 -1,-1 z m -34.29638,-1.10362 c 0.79095,-0.79095 1.62674,-0.79957 2.95,-0.0304 1.61863,0.94083 1.48249,1.07696 -1.10362,1.10362 -2.15133,0.0222 -2.65121,-0.26838 -1.84638,-1.07321 z M 143.5,239 c -0.33992,-0.55 0.0835,-1 0.94098,-1 0.85746,0 1.55902,0.45 1.55902,1 0,0.55 -0.42344,1 -0.94098,1 -0.51754,0 -1.2191,-0.45 -1.55902,-1 z m 6.5,-1.05902 c 0,-0.58246 0.45,-0.7809 1,-0.44098 0.55,0.33992 1,0.81648 1,1.05902 0,0.24254 -0.45,0.44098 -1,0.44098 -0.55,0 -1,-0.47656 -1,-1.05902 z M 224,235 c 0,-0.55 0.47656,-1 1.05902,-1 0.58246,0 0.7809,0.45 0.44098,1 -0.33992,0.55 -0.81648,1 -1.05902,1 C 224.19844,236 224,235.55 224,235 Z m -109.83415,-3.06029 c 0.18378,-1.25568 0.93452,-2.48092 1.6683,-2.72276 0.9065,-0.29877 1.22704,0.29208 1,1.84334 -0.18378,1.25568 -0.93452,2.48092 -1.6683,2.72276 -0.9065,0.29877 -1.22704,-0.29208 -1,-1.84334 z m -20.124387,0.0859 c -1.169778,-0.72297 -1.187794,-1.14439 -0.104716,-2.44941 1.431215,-1.72451 3.637538,-2.07406 4.480655,-0.70987 0.904035,1.46276 -2.79725,4.13496 -4.375939,3.15928 z m 7.089657,-0.36764 C 99.810003,230.06614 100.62648,229 103.16667,229 c 1.16666,0 1.83333,0.72727 1.83333,2 0,2.28027 -2.2105,2.65622 -3.86888,0.65799 z M 108,231 c 0,-2.20213 0.12382,-2.27345 2.41821,-1.39301 C 112.68424,230.47655 112.37321,233 110,233 c -1.33333,0 -2,-0.66667 -2,-2 z m 13,1.05902 c 0,-0.51754 0.45,-1.2191 1,-1.55902 0.55,-0.33992 1,0.0835 1,0.94098 0,0.85746 -0.45,1.55902 -1,1.55902 -0.55,0 -1,-0.42344 -1,-0.94098 z M 129,232 c 0,-0.55 0.47656,-1 1.05902,-1 0.58246,0 0.7809,0.45 0.44098,1 -0.33992,0.55 -0.81648,1 -1.05902,1 C 129.19844,233 129,232.55 129,232 Z m 93.55,-2.91643 c 1.71911,-1.65835 6.45,-1.71965 6.45,-0.0836 0,0.55 -1.665,1 -3.7,1 -2.26614,0 -3.33185,-0.35514 -2.75,-0.91643 z m -50.96705,-1.94936 c -0.43077,-0.697 -0.51316,-1.53733 -0.18309,-1.86741 0.89497,-0.89496 1.87077,0.4213 1.38739,1.87145 -0.33872,1.01617 -0.57427,1.01538 -1.2043,-0.004 z m 7.1109,0.22631 C 177.89492,226.56159 178.79804,225 180.05902,225 c 0.51754,0 0.94098,0.675 0.94098,1.5 0,1.54641 -1.17996,1.9867 -2.30615,0.86052 z M 96.194949,223.5 c 0.02038,-1.65 0.244498,-2.20394 0.498042,-1.23097 0.253543,0.97297 0.236869,2.32297 -0.03705,3 C 96.382014,225.94606 96.174569,225.15 96.194949,223.5 Z M 179,219.44098 c 0,-0.85746 0.45,-1.2809 1,-0.94098 0.55,0.33992 1,1.04148 1,1.55902 0,0.51754 -0.45,0.94098 -1,0.94098 -0.55,0 -1,-0.70156 -1,-1.55902 z M 73.078947,218.41667 c 0.04798,-1.16495 0.284941,-1.4019 0.604167,-0.60417 0.288871,0.72187 0.253344,1.58437 -0.07895,1.91667 -0.332292,0.33229 -0.568641,-0.25834 -0.52522,-1.3125 z M 89,216.84736 c 0,-1.08097 -0.408034,-1.71322 -0.906741,-1.405 -0.498708,0.30822 -0.644839,-0.44112 -0.324737,-1.66519 0.402739,-1.54007 0.719125,-1.77151 1.027178,-0.75138 0.244845,0.81082 1.348153,2.19427 2.451795,3.07435 2.001609,1.59615 2.001308,1.60153 -0.120436,2.15638 C 89.490472,218.6845 89,218.35957 89,216.84736 Z M 98.5,218 c -0.351909,-0.5694 0.509288,-1 2,-1 1.49071,0 2.35191,0.4306 2,1 -0.33992,0.55 -1.23992,1 -2,1 -0.760081,0 -1.660081,-0.45 -2,-1 z m 19,-1 c -0.33992,-0.55 0.057,-1 0.88197,-1 0.825,0 1.77811,0.45 2.11803,1 0.33992,0.55 -0.057,1 -0.88197,1 -0.825,0 -1.77811,-0.45 -2.11803,-1 z m 43.5,-0.98948 c -1.33333,-0.89824 -1.33333,-1.11993 0,-1.99521 0.825,-0.54158 2.9955,-0.99158 4.82332,-1 2.62896,-0.0121 3.25406,0.35033 2.99181,1.73469 -0.38362,2.02506 -5.46393,2.84447 -7.81513,1.26052 z m 11,-2.64919 C 172,212.6126 172.87344,212 173.94098,212 c 2.95436,0 3.37027,1.70735 0.54737,2.24698 C 172.82286,214.56536 172,214.27249 172,213.36133 Z M 43.8125,210.31689 c 0.721875,-0.28887 1.584375,-0.25335 1.916667,0.0789 0.332291,0.33229 -0.258334,0.56864 -1.3125,0.52522 -1.164943,-0.048 -1.4019,-0.28494 -0.604167,-0.60416 z M 62,210 c 0,-0.55 0.45,-1 1,-1 0.55,0 1,0.45 1,1 0,0.55 -0.45,1 -1,1 -0.55,0 -1,-0.45 -1,-1 z m 50.72917,-0.60417 c -0.40104,-0.40104 -0.71549,-1.66666 -0.69876,-2.8125 0.0281,-1.92359 0.11018,-1.94626 1.07077,-0.29565 1.11861,1.92211 0.83248,4.31265 -0.37201,3.10815 z m 7.75796,-2.64583 c -0.81699,-1.86219 -1.90682,-2.30261 -6.32292,-2.55523 -4.30178,-0.24609 -5.22228,-0.60107 -4.75,-1.83179 0.32218,-0.83961 0.58549,-1.60225 0.58512,-1.69477 -0.002,-0.47205 21.58042,0.26048 23.75508,0.80629 3.44163,0.86379 1.69617,2.31656 -3.25441,2.70867 -2.54191,0.20134 -3.90887,0.77248 -3.75,1.56683 0.1375,0.6875 -0.45156,1.25 -1.30902,1.25 -0.85746,0 -1.2809,-0.45 -0.94098,-1 0.33992,-0.55 -0.13601,-1 -1.05761,-1 -1.18332,0 -1.52198,0.58763 -1.15264,2 0.71045,2.71676 -0.57952,2.53785 -1.80262,-0.25 z m 55.32648,-2.90728 c -0.30567,-3.20521 0.0569,-4.71323 1.47383,-6.13016 2.63255,-2.63255 3.14013,-1.5636 2.10692,4.43709 -1.12523,6.53513 -3.03296,7.43716 -3.58075,1.69307 z m 6.1028,0.87318 c -1.45242,-3.18772 -0.5216,-5.98656 1.83057,-5.50426 1.29014,0.26453 1.66908,1.1422 1.43514,3.3239 -0.45821,4.27313 -1.87974,5.22222 -3.26571,2.18036 z m 39.65385,0.39779 c -0.30127,-0.48747 0.34673,-1.12022 1.43999,-1.40612 2.40732,-0.62953 3.62416,0.835 1.40222,1.68765 -2.04445,0.78452 -2.19241,0.76987 -2.84221,-0.28153 z M 139.5,204 c -0.33992,-0.55 0.30852,-1 1.44098,-1 1.13246,0 2.05902,0.45 2.05902,1 0,0.55 -0.64844,1 -1.44098,1 -0.79254,0 -1.7191,-0.45 -2.05902,-1 z m 78.5,0 c 0,-0.55 0.45,-1 1,-1 0.55,0 1,0.45 1,1 0,0.55 -0.45,1 -1,1 -0.55,0 -1,-0.45 -1,-1 z m 10.07895,-2.58333 c 0.048,-1.16495 0.28494,-1.4019 0.60416,-0.60417 0.28887,0.72187 0.25335,1.58437 -0.0789,1.91667 -0.3323,0.33229 -0.56864,-0.25834 -0.52522,-1.3125 z m 4.63508,-0.18017 C 230.49538,198.78491 230.55042,198 232.94098,198 c 2.39265,0 3.00868,0.95083 2.14792,3.31524 -0.63336,1.73976 -0.73211,1.73649 -2.37487,-0.0787 z M 45.8125,199.31689 c 0.721875,-0.28887 1.584375,-0.25335 1.916667,0.0789 0.332291,0.33229 -0.258334,0.56864 -1.3125,0.52522 -1.164943,-0.048 -1.4019,-0.28494 -0.604167,-0.60416 z M 120.2,195.8 c -1.35634,-1.35634 -1.61356,-3.8 -0.4,-3.8 1.24622,0 3.2,2.25905 3.2,3.7 0,1.62639 -1.22969,1.67031 -2.8,0.1 z m 93.58622,-1.20371 c -2.59259,-0.6978 -5.06759,-0.93944 -5.5,-0.53699 -0.43242,0.40246 -1.91122,0.22228 -3.28622,-0.40039 -2.20715,-0.99952 -1.71216,-1.16828 4.22553,-1.44066 7.00649,-0.3214 14.77447,1.16142 14.77447,2.82029 0,1.29641 -4.4737,1.1027 -10.21378,-0.44225 z m 15.79673,0.53792 c -0.43077,-0.697 -0.51316,-1.53733 -0.18309,-1.86741 0.89497,-0.89496 1.87077,0.4213 1.38739,1.87145 -0.33872,1.01617 -0.57427,1.01538 -1.2043,-0.004 z M 97.596556,194.15623 c -0.346049,-0.55992 -0.1419,-1.31919 0.453663,-1.68727 1.537485,-0.95021 2.529471,0.35135 1.245982,1.63484 -0.71818,0.71818 -1.277526,0.73543 -1.699645,0.0524 z M 113,194 c 0,-0.55 0.47656,-1 1.05902,-1 0.58246,0 0.7809,0.45 0.44098,1 -0.33992,0.55 -0.81648,1 -1.05902,1 C 113.19844,195 113,194.55 113,194 Z m 54.5,0 c -0.33992,-0.55 0.30852,-1 1.44098,-1 1.13246,0 2.05902,0.45 2.05902,1 0,0.55 -0.64844,1 -1.44098,1 -0.79254,0 -1.7191,-0.45 -2.05902,-1 z m 9.05355,0.0977 c -1.85785,-0.72704 -1.84647,-0.78786 0.25,-1.3361 1.49303,-0.39043 2.19645,-0.12398 2.19645,0.832 0,0.77351 -0.1125,1.37475 -0.25,1.33609 -0.1375,-0.0386 -1.1259,-0.41305 -2.19645,-0.83199 z M 77.5,193 c 0.339919,-0.55 0.816476,-1 1.059017,-1 C 78.801558,192 79,192.45 79,193 c 0,0.55 -0.476558,1 -1.059017,1 -0.582459,0 -0.780902,-0.45 -0.440983,-1 z m 102.5,0 c 0,-0.55 0.45,-1 1,-1 0.55,0 1,0.45 1,1 0,0.55 -0.45,1 -1,1 -0.55,0 -1,-0.45 -1,-1 z m 5.5,0 c -1.46503,-0.62955 -0.57992,-0.87823 3.30902,-0.92971 3.30064,-0.0437 5.07522,0.308 4.69098,0.92971 -0.74024,1.19774 -5.21271,1.19774 -8,0 z m -36,-2 c 0.33992,-0.55 1.29303,-1 2.11803,-1 0.825,0 1.22189,0.45 0.88197,1 -0.33992,0.55 -1.29303,1 -2.11803,1 -0.825,0 -1.22189,-0.45 -0.88197,-1 z m 7,-1 c 0.33992,-0.55 1.06803,-1 1.61803,-1 0.55,0 0.72189,0.45 0.38197,1 -0.33992,0.55 -1.06803,1 -1.61803,1 -0.55,0 -0.72189,-0.45 -0.38197,-1 z m 9,-1 c 0.33992,-0.55 1.29303,-1 2.11803,-1 0.825,0 1.22189,0.45 0.88197,1 -0.33992,0.55 -1.29303,1 -2.11803,1 -0.825,0 -1.22189,-0.45 -0.88197,-1 z m 4.65,0.05 c 0.42971,-1.28914 1.80131,-1.5207 1.925,-0.325 0.0413,0.39875 -0.465,0.905 -1.125,1.125 -0.66,0.22 -1.02,-0.14 -0.8,-0.8 z M 192,189.042 c -11.6605,-0.43582 -13.72953,-0.71739 -10.56559,-1.43784 3.24724,-0.73941 23.81143,-0.25842 32.29522,0.75538 4.70029,0.56167 3.34735,1.63066 -1.81296,1.43246 C 208.9375,189.67757 199.975,189.34007 192,189.042 Z m -42.33333,-3.70862 c -0.36667,-0.36666 -0.63815,-1.60416 -0.60328,-2.75 0.0583,-1.91559 0.14052,-1.89048 1.02148,0.31185 0.97931,2.44822 0.77617,3.63253 -0.4182,2.43815 z M 222.5,185 c 0.33992,-0.55 0.81648,-1 1.05902,-1 0.24254,0 0.44098,0.45 0.44098,1 0,0.55 -0.47656,1 -1.05902,1 -0.58246,0 -0.7809,-0.45 -0.44098,-1 z m 4.5,0 c 0,-0.55 0.45,-1 1,-1 0.55,0 1,0.45 1,1 0,0.55 -0.45,1 -1,1 -0.55,0 -1,-0.45 -1,-1 z m -23.11943,-2.26812 c -1.31711,-1.78399 -1.89435,-1.96533 -3.09201,-0.97136 -0.80992,0.67217 -1.75702,0.93768 -2.10468,0.59003 -0.34766,-0.34766 -6.49551,-0.61457 -13.66189,-0.59313 -7.16639,0.0214 -13.24428,-0.30808 -13.50644,-0.73226 -1.33296,-2.15678 25.76229,-2.65209 34.69452,-0.63422 4.77253,1.07815 6.6881,3.18931 2.74899,3.02966 -1.07748,-0.0437 -1.95906,0.29383 -1.95906,0.75 0,1.48059 -1.46194,0.80632 -3.11943,-1.43872 z m -58.2139,0.60145 C 145.3,182.96667 145,182.20167 145,181.63333 c 0,-0.6266 0.46577,-0.56756 1.18333,0.15 0.65084,0.65084 0.95084,1.41584 0.66667,1.7 -0.28417,0.28417 -0.81667,0.21667 -1.18333,-0.15 z M 147,176.94098 c 0,-0.58246 0.45,-0.7809 1,-0.44098 0.55,0.33992 1,0.81648 1,1.05902 0,0.24254 -0.45,0.44098 -1,0.44098 -0.55,0 -1,-0.47656 -1,-1.05902 z M 166,177 c 0,-0.55 0.45,-1 1,-1 0.55,0 1,0.45 1,1 0,0.55 -0.45,1 -1,1 -0.55,0 -1,-0.45 -1,-1 z m -33,-5 c 0,-0.55 0.92656,-1 2.05902,-1 1.13246,0 1.7809,0.45 1.44098,1 -0.33992,0.55 -1.26648,1 -2.05902,1 C 133.64844,173 133,172.55 133,172 Z m -29,-2 c 0,-0.55 0.45,-1 1,-1 0.55,0 1,0.45 1,1 0,0.55 -0.45,1 -1,1 -0.55,0 -1,-0.45 -1,-1 z m 85.5,0 c 0.33992,-0.55 1.29303,-1 2.11803,-1 0.825,0 1.22189,0.45 0.88197,1 -0.33992,0.55 -1.29303,1 -2.11803,1 -0.825,0 -1.22189,-0.45 -0.88197,-1 z M 93,169 c 0,-0.55 0.675,-1 1.5,-1 0.825,0 1.5,0.45 1.5,1 0,0.55 -0.675,1 -1.5,1 -0.825,0 -1.5,-0.45 -1.5,-1 z m -29.730968,-0.69299 c 0.972967,-0.25354 2.322967,-0.23687 3,0.0371 0.677032,0.27393 -0.119032,0.48137 -1.769032,0.46099 -1.65,-0.0204 -2.203936,-0.2445 -1.230968,-0.49804 z m 74.809918,-0.89034 c 0.048,-1.16495 0.28494,-1.4019 0.60416,-0.60417 0.28887,0.72187 0.25335,1.58437 -0.0789,1.91667 -0.3323,0.33229 -0.56864,-0.25834 -0.52522,-1.3125 z M 203.5,167.08911 c -4.49659,-0.5366 -4.69795,-0.66058 -2,-1.23138 3.21298,-0.67976 13.02426,0.3332 14.1522,1.46113 0.76674,0.76675 -4.66194,0.66411 -12.1522,-0.22975 z m 19.3125,-0.77222 c 0.72187,-0.28887 1.58437,-0.25335 1.91667,0.0789 0.33229,0.33229 -0.25834,0.56864 -1.3125,0.52522 -1.16495,-0.048 -1.4019,-0.28494 -0.60417,-0.60416 z M 100.5,164 c 0.33992,-0.55 0.81648,-1 1.05902,-1 0.24254,0 0.44098,0.45 0.44098,1 0,0.55 -0.47656,1 -1.05902,1 -0.58246,0 -0.7809,-0.45 -0.44098,-1 z m 54.3125,0.31689 c 0.72187,-0.28887 1.58437,-0.25335 1.91667,0.0789 0.33229,0.33229 -0.25834,0.56864 -1.3125,0.52522 -1.16495,-0.048 -1.4019,-0.28494 -0.60417,-0.60416 z m 6.9375,-0.97917 c 0.6875,-0.27741 1.8125,-0.27741 2.5,0 0.6875,0.27741 0.125,0.50439 -1.25,0.50439 -1.375,0 -1.9375,-0.22698 -1.25,-0.50439 z m -25.00469,-0.92574 c -0.16593,-0.16593 -4.339,-0.40903 -9.2735,-0.54022 -4.9345,-0.1312 -11.22181,-0.80071 -13.97181,-1.48781 -4.43346,-1.10771 -3.35704,-1.1824 9.5,-0.65914 7.975,0.32457 15.625,0.89227 17,1.26156 l 2.5,0.67144 -2.7265,0.52793 c -1.49957,0.29036 -2.86226,0.39217 -3.02819,0.22624 z M 175.5,162 c 0.33992,-0.55 1.29303,-1 2.11803,-1 0.825,0 1.22189,0.45 0.88197,1 -0.33992,0.55 -1.29303,1 -2.11803,1 -0.825,0 -1.22189,-0.45 -0.88197,-1 z m 19.1124,0.18186 c -0.83176,-1.34581 3.41184,-2.27591 5.31213,-1.16429 1.40846,0.82392 1.39863,0.92484 -0.0927,0.95202 -0.91752,0.0167 -2.3345,0.28609 -3.14885,0.59858 -0.81435,0.3125 -1.7461,0.13866 -2.07054,-0.38631 z M 84,159.05425 c -8.625812,-0.45532 -9.824637,-0.69734 -6.716326,-1.35588 5.252585,-1.11284 17.414625,-0.64973 22.216326,0.84596 l 4,1.24596 -4.5,-0.0909 c -2.475,-0.05 -9.225,-0.34031 -15,-0.64515 z M 105,159 c 0,-0.55 0.675,-1 1.5,-1 0.825,0 1.5,0.45 1.5,1 0,0.55 -0.675,1 -1.5,1 -0.825,0 -1.5,-0.45 -1.5,-1 z m 45.5,-2 c -1.75921,-0.75596 -1.6618,-0.86789 0.80902,-0.92971 1.63221,-0.0408 2.5501,0.34865 2.19098,0.92971 -0.33992,0.55 -0.70398,0.96837 -0.80902,0.92971 C 152.58594,157.89106 151.6,157.47269 150.5,157 Z m -9.18045,-1.40588 c -2.29924,-0.60177 -4.51174,-1.43162 -4.91666,-1.84412 -1.32204,-1.34679 7.1641,-0.78711 9.05747,0.59736 2.64644,1.93512 0.71328,2.51718 -4.14081,1.24676 z M 115.5,153.53611 c -2.88546,-1.32123 -2.72632,-1.37677 4.16821,-1.45489 7.59059,-0.086 10.67577,0.55319 9.76703,2.02356 -0.84854,1.37297 -10.56039,0.97665 -13.93524,-0.56867 z M 103.5,152 c 0.33992,-0.55 1.04148,-1 1.55902,-1 0.51754,0 0.94098,0.45 0.94098,1 0,0.55 -0.70156,1 -1.55902,1 -0.85746,0 -1.2809,-0.45 -0.94098,-1 z m 4.25,0.33772 c 0.6875,-0.27741 1.8125,-0.27741 2.5,0 0.6875,0.27741 0.125,0.50439 -1.25,0.50439 -1.375,0 -1.9375,-0.22698 -1.25,-0.50439 z M 198,152 c 0,-0.55 0.70156,-1 1.55902,-1 0.85746,0 1.2809,0.45 0.94098,1 -0.33992,0.55 -1.04148,1 -1.55902,1 C 198.42344,153 198,152.55 198,152 Z M 96.229167,150.8125 c 0.61598,-1.84794 2.169935,-1.9769 4.311273,-0.35778 1.85857,1.40531 1.78777,1.48331 -1.373773,1.51348 -2.139178,0.0204 -3.191528,-0.39362 -2.9375,-1.1557 z M 121,147 c 0,-0.55 0.42344,-1 0.94098,-1 0.51754,0 1.2191,0.45 1.55902,1 0.33992,0.55 -0.0835,1 -0.94098,1 C 121.70156,148 121,147.55 121,147 Z m -14.97104,-1.96094 c -0.80907,-0.51167 -1.2107,-1.19066 -0.8925,-1.50885 0.3182,-0.3182 1.14776,0.10733 1.84348,0.94562 1.4426,1.73822 1.16599,1.90204 -0.95098,0.56323 z M 100.5,144 c -0.33992,-0.55 -0.14148,-1 0.44098,-1 0.58246,0 1.05902,0.45 1.05902,1 0,0.55 -0.19844,1 -0.44098,1 -0.24254,0 -0.7191,-0.45 -1.05902,-1 z M 85,143.04531 c 0,-0.57492 0.3375,-0.97387 0.75,-0.88655 0.4125,0.0873 1.5375,-0.18583 2.5,-0.60699 1.589618,-0.69557 5.574516,0.0246 4.643128,0.83911 C 91.723864,143.41343 85,143.97092 85,143.04531 Z m 9,-0.10433 c 0,-0.58246 0.45,-0.7809 1,-0.44098 0.55,0.33992 1,0.81648 1,1.05902 C 96,143.80156 95.55,144 95,144 c -0.55,0 -1,-0.47656 -1,-1.05902 z M 144.5,139 c -0.33992,-0.55 0.30852,-1 1.44098,-1 1.13246,0 2.05902,0.45 2.05902,1 0,0.55 -0.64844,1 -1.44098,1 -0.79254,0 -1.7191,-0.45 -2.05902,-1 z m 30.5,-3.55013 c -2.475,-0.7089 -5.53906,-1.32513 -6.80902,-1.36939 -1.26996,-0.0443 -2.07657,-0.45659 -1.79246,-0.91627 0.60848,-0.98456 11.07607,-0.28228 14.41165,0.96689 1.2706,0.47584 2.03154,1.316 1.69099,1.86703 -0.74094,1.19885 -1.62774,1.13404 -7.50116,-0.54826 z m -15.1875,-2.13298 c 0.72187,-0.28887 1.58437,-0.25335 1.91667,0.0789 0.33229,0.33229 -0.25834,0.56864 -1.3125,0.52522 -1.16495,-0.048 -1.4019,-0.28494 -0.60417,-0.60416 z m -1,-2 c 0.72187,-0.28887 1.58437,-0.25335 1.91667,0.0789 0.33229,0.33229 -0.25834,0.56864 -1.3125,0.52522 -1.16495,-0.048 -1.4019,-0.28494 -0.60417,-0.60416 z M 145.5,130 c -0.35052,-0.56716 0.48962,-1 1.94098,-1 1.40746,0 2.55902,0.45 2.55902,1 0,0.55 -0.87344,1 -1.94098,1 -1.06754,0 -2.2191,-0.45 -2.55902,-1 z m -25.36888,-2.34201 c -2.13551,-2.57313 0.75635,-3.41167 5.5199,-1.60057 2.22659,0.84654 2.48884,1.24233 1.3151,1.98468 -2.13857,1.35258 -5.55292,1.1607 -6.835,-0.38411 z M 129.5,128 c -0.33992,-0.55 -0.14148,-1 0.44098,-1 0.58246,0 1.05902,0.45 1.05902,1 0,0.55 -0.19844,1 -0.44098,1 -0.24254,0 -0.7191,-0.45 -1.05902,-1 z m 6,0 c 0.33992,-0.55 0.81648,-1 1.05902,-1 0.24254,0 0.44098,0.45 0.44098,1 0,0.55 -0.47656,1 -1.05902,1 -0.58246,0 -0.7809,-0.45 -0.44098,-1 z m 4.3125,0.31689 c 0.72187,-0.28887 1.58437,-0.25335 1.91667,0.0789 0.33229,0.33229 -0.25834,0.56864 -1.3125,0.52522 -1.16495,-0.048 -1.4019,-0.28494 -0.60417,-0.60416 z m 2.62863,-5.84629 c -1.87978,-1.48106 -1.8646,-1.52057 0.48054,-1.25 1.33192,0.15367 2.60692,0.8419 2.83334,1.5294 0.56018,1.701 -0.96337,1.57255 -3.31388,-0.2794 z m -41.62863,-0.15371 c 0.72187,-0.28887 1.58437,-0.25335 1.91667,0.0789 0.33229,0.3323 -0.25834,0.56864 -1.3125,0.52522 -1.16495,-0.048 -1.4019,-0.28494 -0.60417,-0.60416 z M 124.5,120.29566 c -2.2,-0.20247 -9.74595,-1.46863 -16.76877,-2.81369 C 100.7084,116.13691 91.258404,115.0214 86.731228,115.00305 82.204053,114.9847 77.15,114.75889 75.5,114.50125 72.724879,114.06793 54.95298,113.3066 30.337643,112.56654 21.881374,112.3123 19.672977,111.90333 17.183272,110.1305 15.537665,108.95873 13.467908,108 12.583812,108 c -1.278706,0 -1.506354,-0.76692 -1.11313,-3.75 0.271875,-2.0625 0.967112,-10.95 1.544972,-19.75 1.397074,-21.275502 1.894436,-24.531393 3.859816,-25.267561 0.893492,-0.334673 2.109467,-1.254919 2.702167,-2.04499 0.608829,-0.811571 3.03678,-1.521571 5.581065,-1.632057 2.725831,-0.11837 6.403238,-1.257388 9.31648,-2.88563 2.647179,-1.479537 9.662463,-4.22565 15.58952,-6.102473 C 62.798934,42.534949 79.175507,35.740746 98.5,26.472776 125.05438,13.737377 131.52192,10.762307 138,8.3027698 c 9.33093,-3.5426775 10.44037,-3.8243126 9.57979,-2.4318648 -0.94183,1.5239016 -14.24927,8.196392 -36.29699,18.199687 -9.6081,4.3593 -18.664816,8.76977 -20.126036,9.801045 C 86.543907,37.127221 76.580472,41.788584 61.18055,47.895918 36.646415,57.625719 28.561946,62.392351 26.838714,68.143987 25.942376,71.135698 25.178469,72 23.430606,72 21.038923,72 16,77.13801 16,79.576725 16,80.473858 17.050497,81 18.841712,81 c 2.432513,0 3.008503,0.556698 4,3.86602 0.637059,2.12631 1.158288,5.05131 1.158288,6.5 0,3.045799 1.946102,3.376161 8.5,1.442927 2.2,-0.648944 4.45,-1.236543 5,-1.305775 1.82639,-0.2299 3.389287,1.619236 2.806026,3.319941 -0.441154,1.286344 -0.177141,1.211092 1.133599,-0.323113 0.939779,-1.1 1.455274,-1.488488 1.145543,-0.863307 -0.309731,0.625181 0.106898,1.692782 0.925842,2.372445 C 45.419123,97.592731 48,95.703167 48,92.722568 c 0,-1.906729 0.113348,-1.929964 1.831152,-0.375374 1.007133,0.911443 2.100152,1.388168 2.428932,1.059389 0.32878,-0.32878 3.353124,1.695238 6.720765,4.497818 C 62.34849,100.70698 65.649634,103 66.316725,103 c 0.667091,0 2.966841,0.94006 5.110554,2.08902 2.143713,1.14896 6.412049,2.29744 9.485191,2.55216 3.073141,0.25473 6.93753,1.07862 8.58753,1.83086 1.65,0.75225 8.625,2.32307 15.5,3.49071 13.79375,2.34271 25.32546,5.70162 24.44814,7.12116 -0.3114,0.50385 -0.65212,0.84044 -0.75716,0.74799 C 128.58594,120.7394 126.7,120.49813 124.5,120.29566 Z M 134,120 c 0,-0.55 0.42344,-1 0.94098,-1 0.51754,0 1.2191,0.45 1.55902,1 0.33992,0.55 -0.0835,1 -0.94098,1 C 134.70156,121 134,120.55 134,120 Z m -11.62784,-8.02784 c -0.56531,-0.56531 -3.91227,-1.49236 -7.43769,-2.06012 C 108.45574,108.86867 105,106.89495 105,104.23802 c 0,-0.99539 0.55032,-1.22152 1.75,-0.71909 0.9625,0.4031 5.27576,1.96808 9.58502,3.47773 8.2666,2.89601 12.96603,6.00334 9.07927,6.00334 -1.10786,0 -2.47682,-0.46253 -3.04213,-1.02784 z m -23.019833,-8.96547 c -3.875586,-1.56371 -3.834698,-3.805649 0.05603,-3.072325 0.499598,0.09418 1.280213,-0.415046 1.734693,-1.131579 0.53391,-0.84177 0.83174,-0.152712 0.84164,1.947214 0.008,1.7875 -0.0972,3.22148 -0.23469,3.18661 -0.1375,-0.0349 -1.21645,-0.45332 -2.397675,-0.92992 z m 65.851363,-3.029014 c -3.98871,-2.425678 -4.1116,-3.764543 -0.29411,-3.204255 1.90654,0.279821 3.09944,1.153087 3.46034,2.533137 0.74866,2.862892 0.51818,2.911742 -3.16623,0.671118 z M 89,99 c 0,-1.866667 0.266667,-2.133333 1.2,-1.2 0.933333,0.933333 0.933333,1.466667 0,2.4 -0.933333,0.93333 -1.2,0.66667 -1.2,-1.2 z m 28.05982,-2.090099 c -5.68123,-2.843544 -8.07851,-4.570738 -7.86579,-5.667134 0.56436,-2.90884 2.4528,-2.334469 8.89855,2.706508 3.52408,2.756049 6.96992,5.019936 7.65742,5.030861 C 126.4375,98.991061 127,99.45 127,100 c 0,1.62918 -1.34957,1.20964 -9.94018,-3.090099 z M 85.25,97.915664 C 82.780426,96.98138 82.187544,95 84.377555,95 c 1.398311,0 4.234175,2.749262 3.514946,3.407606 C 87.676625,98.605207 86.4875,98.383833 85.25,97.915664 Z M 72.729167,93.395833 C 72.328125,92.994792 72,91.976667 72,91.133333 c 0,-1.125593 0.295833,-1.2375 1.1125,-0.420833 0.611875,0.611875 0.94,1.63 0.729167,2.2625 -0.210834,0.6325 -0.711459,0.821875 -1.1125,0.420833 z m 63.341783,-0.810346 c -0.74577,-0.8986 -1.05933,-1.930444 -0.69678,-2.292986 0.93392,-0.933929 2.93161,1.290161 2.45178,2.729652 -0.27581,0.827424 -0.81782,0.692564 -1.755,-0.436666 z m 38.13962,-1.059084 C 173.50139,90.686882 171.84045,90 170.51959,90 c -2.56135,0 -4.01164,-1.394824 -3.05677,-2.939848 0.34431,-0.557099 1.98425,-0.353476 4.0269,0.5 1.98056,0.827528 6.96816,1.474539 11.72816,1.521422 7.88526,0.07766 8.13288,0.147029 5.1676,1.447585 -5.13355,2.251551 -12.66758,2.781591 -14.17491,0.997244 z M 65,91.274463 c 0,-0.490712 0.688229,-1.765712 1.529398,-2.833333 1.481064,-1.879783 1.520569,-1.864596 1.25,0.480542 C 67.521583,91.156275 65,93.290822 65,91.274463 Z m 63.75,-2.887172 c -2.9151,-1.538289 -3.45573,-2.833089 -1.64913,-3.94963 1.29378,-0.799601 5.30455,2.88323 4.76719,4.3774 -0.23091,0.642046 -1.3928,0.482645 -3.11806,-0.42777 z m 34.69615,-2.474423 c -0.36954,-0.597923 -0.17109,-1.587923 0.44098,-2.2 C 164.70429,82.895711 165,83.184583 165,84.8 c 0,2.414511 -0.51946,2.786548 -1.55385,1.112868 z M 45.509917,84.016046 c -1.121697,-1.814943 9.861381,-19.978082 11.244311,-18.595151 0.303739,0.303739 1.581892,-0.843345 2.84034,-2.549075 2.9193,-3.956888 4.755459,-5.179722 10.845198,-7.222621 2.716871,-0.911417 5.866871,-2.470425 7,-3.464463 C 81.882872,48.287022 111.2353,29.74771 124.5,22.460978 142.68353,12.472176 152.07837,7.4956611 154.25,6.702187 c 2.80431,-1.0246427 2.016,1.0127052 -1,2.584459 -1.5125,0.788221 -7.925,4.571602 -14.25,8.407513 -6.325,3.83591 -16.675,9.816632 -23,13.290493 -14.08587,7.736341 -32.00001,18.981734 -37.849311,23.759468 -3.367823,2.750852 -4.537061,3.248751 -5.181294,2.20636 -0.624372,-1.010255 -1.136533,-0.677759 -2.052445,1.332451 -0.671255,1.473244 -1.972943,2.917453 -2.892639,3.209353 -0.919696,0.2919 -2.981002,1.896849 -4.580679,3.566552 -2.358459,2.4617 -2.638904,3.202446 -1.482924,3.91688 1.12756,0.69687 1.192357,1.392927 0.309958,3.329582 -1.566985,3.439157 -7.306132,9.790817 -8.294638,9.179886 -0.452368,-0.279578 -2.392442,0.417972 -4.311276,1.550111 -2.323704,1.371019 -3.711216,1.698542 -4.154835,0.980751 z M 171.28955,79.5773 c 0.24508,-4.568161 1.89896,-5.653752 3.44475,-2.261107 1.15737,2.540156 0.15399,5.350834 -1.53709,4.305692 -0.56451,-0.348891 -1.27203,-0.06904 -1.57225,0.621884 -0.30023,0.690927 -0.45116,-0.508984 -0.33541,-2.666469 z M 202,81.142456 C 202,78.821606 206.01916,76 209.32503,76 c 1.91108,0 3.98248,-0.744183 4.87106,-1.75 0.85032,-0.9625 3.40405,-3.644475 5.67497,-5.959945 C 222.34292,65.769696 224,63.137412 224,61.731185 c 0,-3.346574 2.33493,-6.200375 4.41877,-5.400728 0.9394,0.36048 1.42791,1.108596 1.0856,1.66248 C 229.16205,58.546822 229.35852,59 229.94098,59 230.52344,59 231,60.17 231,61.6 c 0,2.917517 -5.79286,9.4 -8.4,9.4 -0.88,0 -1.6,0.464123 -1.6,1.031385 0,1.923164 3.00353,2.196323 5.58091,0.507561 2.52584,-1.654999 2.54749,-1.647372 1.4015,0.493924 -0.64018,1.196184 -4.05505,3.485761 -7.5886,5.087948 C 213.48308,81.254296 202,83.140675 202,81.142456 Z M 86.547769,78.75 c -0.41896,-0.9625 -0.41896,-2.5375 0,-3.5 0.725474,-1.666667 0.781679,-1.666667 1.180313,0 0.230212,0.9625 0.230212,2.5375 0,3.5 -0.398634,1.666667 -0.454839,1.666667 -1.180313,0 z M 178.5,79 c -0.33992,-0.55 0.30852,-1 1.44098,-1 1.13246,0 2.05902,0.45 2.05902,1 0,0.55 -0.64844,1 -1.44098,1 -0.79254,0 -1.7191,-0.45 -2.05902,-1 z m 17.5,0 c 0,-0.55 0.92656,-1 2.05902,-1 1.13246,0 1.7809,0.45 1.44098,1 -0.33992,0.55 -1.26648,1 -2.05902,1 C 196.64844,80 196,79.55 196,79 Z m -11,-0.940983 c 0,-0.517541 0.44485,-1.215913 0.98855,-1.551938 0.56686,-0.350339 0.7345,0.05106 0.39301,0.940983 C 185.71677,79.180479 185,79.497449 185,78.059017 Z m 3,0.547972 c 0,-0.948631 2.99338,-1.42672 3.52699,-0.563315 C 191.85207,78.569653 191.19148,79 190.05902,79 188.92656,79 188,78.823145 188,78.606989 Z m -58.59568,-3.99572 C 128.75234,72.912237 129.62854,71 131.05902,71 c 1.26114,0 1.2066,3.717803 -0.0661,4.504365 -0.55389,0.34232 -1.26876,-0.05957 -1.58862,-0.893096 z M 107,69.420345 c 0,-2.693668 1.18318,-3.67102 3.40976,-2.816601 2.53671,0.97343 1.92396,4.099307 -0.90976,4.641007 -2.08114,0.397835 -2.5,0.09217 -2.5,-1.824406 z M 88.529041,67.75 c 2.980508,-10.102415 8.847907,-18.091378 17.225319,-23.453733 2.88989,-1.849815 7.50448,-5.36173 10.25464,-7.804257 2.75015,-2.442526 7.6398,-5.75056 10.86588,-7.351186 3.22608,-1.600626 11.43649,-6.680148 18.24536,-11.287827 C 158.33864,8.9078788 162.70118,6.3678443 163.49049,7.1571531 164.3012,7.9678686 150.63971,17.721567 138.16243,25.240256 131.74809,29.105475 123.575,34.331691 120,36.85407 111.45389,42.883869 95.069539,59.252271 91.576403,65.25 c -2.999906,5.150851 -4.094332,6.048698 -3.047362,2.5 z M 202,66.10638 C 202,65.146324 204.21101,63 205.2,63 c 1.70995,0 0.69026,2.795435 -1.2,3.289749 -1.1,0.287656 -2,0.205141 -2,-0.183369 z M 143.19495,62.5 c 0.0204,-1.65 0.2445,-2.203936 0.49804,-1.230968 0.25354,0.972967 0.23687,2.322967 -0.0371,3 C 143.38201,64.946064 143.17457,64.15 143.19495,62.5 Z m -31.80704,-2.090593 c -1.17942,-4.699175 1.27184,-9.897752 7.23825,-15.350712 6.39396,-5.843727 10.12461,-8.73939 30.60704,-23.756644 C 168.57647,7.119998 173.59176,3.9926919 171.19563,7.6072799 170.18034,9.1388492 153.69016,22.438037 148.20131,26.152001 134.02526,35.744048 115.49798,54.383142 114.30785,60.25 c -0.70247,3.462923 -2.07205,3.537691 -2.91994,0.159407 z M 217.6,60.4 c -0.35589,-0.927441 -0.42208,-1.911256 -0.14708,-2.186256 0.275,-0.275 0.79119,0.258815 1.14708,1.186256 0.35589,0.927441 0.42208,1.911256 0.14708,2.186256 -0.275,0.275 -0.79119,-0.258815 -1.14708,-1.186256 z m -73.56392,-4.219518 c -0.0616,-5.667765 5.74516,-17.946976 11.04804,-23.362642 5.81494,-5.938619 7.65746,-4.603282 2.20124,1.595314 -4.44057,5.044756 -8.66675,12.457102 -11.34601,19.899884 -1.75451,4.873917 -1.86938,4.986621 -1.90327,1.867444 z M 15,52.806549 c 0,-1.839203 1.160878,-4.484469 2.970987,-6.769918 2.530655,-3.195212 3.716195,-3.839436 7.999011,-4.346672 2.765413,-0.327522 7.165968,-1.543073 9.779012,-2.701223 C 38.362055,37.830585 45.45,35.58025 51.5,33.987992 70.563887,28.970699 86.01375,23.492231 101.50257,16.257254 c 12.91437,-6.032426 20.14155,-9.0143576 26.4694,-10.9212626 1.29597,-0.390541 1.29597,-0.5548909 0,-1.3744736 -0.98147,-0.6206962 1.16606,-0.9359948 6.4447,-0.946205 4.35416,-0.00842 7.72916,0.1698542 7.5,0.3961694 C 141.6875,3.6377975 136.775,5.6246799 131,7.8267765 125.225,10.028873 113.5652,15.031659 105.08934,18.944079 84.413146,28.488116 69.362855,34.299906 58.5,36.934927 42.274605,40.870747 39.635494,41.880475 27.25,48.89123 L 15,55.825289 15,52.806549 Z M 155.54616,45.5 c 3.08615,-7.479368 9.69462,-14.780167 17.18441,-18.984702 5.05811,-2.839467 12.4337,-5.68436 13.07486,-5.043198 0.40395,0.403946 -7.34087,5.5279 -8.35538,5.5279 -0.32434,0 -2.4782,1.2375 -4.78637,2.75 -2.30817,1.5125 -5.08925,3.228654 -6.18018,3.813675 -1.09092,0.585021 -3.8812,3.92272 -6.20061,7.41711 -5.44837,8.208426 -6.78528,9.483952 -4.73673,4.519215 z m 14.1006,-1.537038 c 3.79365,-6.540645 14.08224,-11.633943 17.21429,-8.521827 1.14558,1.138295 0.50065,1.602508 -4.07399,2.932391 -2.98927,0.869004 -6.30068,2.536532 -7.35869,3.705619 -1.058,1.169088 -3.20867,2.790124 -4.77925,3.602304 l -2.85561,1.47669 1.85325,-3.195177 z m 36.2637,-2.0978 c -4.96979,-4.410434 -6.00833,-6.766485 -1.46933,-3.333359 C 205.50875,39.339312 207.12651,40 208.03614,40 c 1.7617,0 4.29843,2.471965 5.21652,5.083333 1.02233,2.907877 -1.86552,1.642098 -7.3422,-3.218171 z M 200,45 c 0,-0.55 0.45,-1 1,-1 0.55,0 1,0.45 1,1 0,0.55 -0.45,1 -1,1 -0.55,0 -1,-0.45 -1,-1 z m -1.884,-1.221408 C 198.04477,42.7215 196.74637,41.732335 194.75153,41.215421 191.44659,40.359025 189.54961,37 192.37091,37 c 2.63415,0 6.90407,4.395867 6.35783,6.545347 -0.40335,1.587187 -0.51855,1.631036 -0.61274,0.233245 z M 164,43 c 0,-0.55 0.47656,-1 1.05902,-1 0.58246,0 0.7809,0.45 0.44098,1 -0.33992,0.55 -0.81648,1 -1.05902,1 C 164.19844,44 164,43.55 164,43 Z M 17.294843,26.139053 C 17.732007,17.537574 18.422346,8.7 18.82893,6.5 l 0.739244,-4 20.465913,0.4419248 C 51.290339,3.1849834 62.75,3.4099834 65.5,3.4419248 68.943181,3.4819175 70.422159,3.8892047 70.25,4.75 69.923774,6.3811287 73.200333,6.3222521 79.747354,4.5793415 85.758282,2.9791465 87.96064,4.2923169 82.821969,6.4126006 80.994886,7.1664791 75.9,8.5392104 71.5,9.4631147 55.428367,12.837808 26.540424,20.070766 19.082783,22.587329 c -0.987667,0.333285 -1.099722,0.795732 -0.369705,1.525749 0.730017,0.730017 2.458314,0.568534 5.702165,-0.532783 C 26.975301,22.711133 29.954168,22 31.034947,22 33.471641,22 33.621636,23.852199 31.25,24.655559 25.761746,26.514633 19,30.050474 19,31.061308 c 0,0.663788 0.75881,0.928027 1.75,0.609397 0.9625,-0.309406 3.775,-1.212972 6.25,-2.007923 2.475,-0.794951 9,-2.445273 14.5,-3.667384 5.5,-1.22211 11.35,-2.624727 13,-3.116926 1.65,-0.4922 7.275,-2.073862 12.5,-3.514805 5.225,-1.440943 17.6,-5.457881 27.5,-8.926528 9.9,-3.4686478 20.35716,-6.50939 23.23814,-6.7572052 5.43424,-0.467441 6.33786,0.5901175 1.52131,1.7804742 C 117.74175,5.8354898 107.5,9.7798283 96.5,14.225605 76.069263,22.482921 64.72003,26.291855 55.054821,28.135086 46.641007,29.739667 28.757834,35.588562 22.308411,38.845172 L 16.5,41.778106 17.294843,26.139053 Z M 25,14.848185 C 25,14.34072 24.104923,14.408663 23,15 c -1.1,0.588702 -2,1.237406 -2,1.441564 0,0.204158 0.9,0.135841 2,-0.151815 1.1,-0.287656 2,-0.93636 2,-1.441564 z M 28.5,14 c -0.339919,-0.55 -1.068034,-1 -1.618034,-1 -0.55,0 -0.721885,0.45 -0.381966,1 0.339919,0.55 1.068034,1 1.618034,1 0.55,0 0.721885,-0.45 0.381966,-1 z m 10,-1 C 40.054839,12.331863 39.56717,12.124926 36.309017,12.070285 34.003976,12.031628 31.839919,12.45 31.5,13 c -0.751031,1.215193 4.172093,1.215193 7,0 z m 8.154923,-1.543128 C 46.980608,10.608151 47.005026,9.6716924 46.709185,9.3758516 45.957743,8.6244094 42,10.859393 42,12.035184 c 0,1.588084 4.015011,1.089272 4.654923,-0.578312 z M 56,7.9723678 C 56,7.4720888 55.327585,7.3207996 54.505744,7.6361696 53.683903,7.9515396 53.264997,8.6197568 53.574842,9.1210967 54.222903,10.169682 56,9.3279217 56,7.9723678 Z M 36,8 C 36,6.7470776 34.938759,6.7470776 33,8 31.787041,8.7838742 31.930562,8.9723047 33.75,8.9846872 34.9875,8.9931093 36,8.55 36,8 Z M 65.45,6.9292373 C 66.041785,6.3503862 65.601288,6 64.281787,6 61.395638,6 59,7.0048281 59,8.2153968 59,9.3613911 63.978399,8.3686754 65.45,6.9292373 Z M 43.5,7 C 43.839919,6.45 43.191476,6 42.059017,6 40.926558,6 40,6.45 40,7 40,7.55 40.648442,8 41.440983,8 42.233524,8 43.160081,7.55 43.5,7 Z m 125.05301,30.75 c 1.50193,-1.7875 4.86877,-4.692023 7.48187,-6.454496 4.00958,-2.704368 5.34782,-3.10766 8.57457,-2.58403 l 3.82349,0.620467 -5.36011,1.821958 C 177.30457,33.114591 168,38.639707 168,40.104246 168,40.596911 167.51,41 166.91111,41 c -0.5989,0 0.13996,-1.4625 1.6419,-3.25 z M 192.5,32 c -0.33992,-0.55 -0.16803,-1 0.38197,-1 0.55,0 1.27811,0.45 1.61803,1 0.33992,0.55 0.16803,1 -0.38197,1 -0.55,0 -1.27811,-0.45 -1.61803,-1 z m 9.72648,-0.09389 c -1.88656,-0.712845 -4.56659,-4.750028 -3.76346,-5.669236 0.12644,-0.144719 1.87399,0.42382 3.88344,1.26342 5.09511,2.128873 4.98062,6.333108 -0.11998,4.405816 z M 193.5,27 c 0.33992,-0.55 1.04148,-1 1.55902,-1 0.51754,0 0.94098,0.45 0.94098,1 0,0.55 -0.70156,1 -1.55902,1 -0.85746,0 -1.2809,-0.45 -0.94098,-1 z m -25,-3.896328 c 4.80961,-5.197174 11.57655,-9.235235 14.91306,-8.899126 C 186.83174,14.548934 188.25389,17 185.03503,17 182.73669,17 178.40991,18.926618 170.5,23.472119 l -5,2.873294 3,-3.241741 z M 36,23.118034 c 0,-0.55 0.45,-1.278115 1,-1.618034 0.55,-0.339919 1,-0.168034 1,0.381966 0,0.55 -0.45,1.278115 -1,1.618034 -0.55,0.339919 -1,0.168034 -1,-0.381966 z m 4,-1.433106 C 40,19.790169 43.678264,18 47.571429,18 52.614016,18 53.492625,19.46776 49,20.386501 c -1.65,0.337424 -4.35,0.889574 -6,1.226998 -1.65,0.337425 -3,0.369568 -3,0.07143 z m 15.40704,-3.534516 c 1.339023,-2.166584 6.520027,-4.175588 12.320441,-4.777415 3.174885,-0.329414 8.130494,-1.412448 11.012463,-2.406745 2.881969,-0.9942956 5.44905,-1.4694703 5.704624,-1.0559433 0.585127,0.9467553 -10.099108,4.7536403 -18.541798,6.6066023 -3.521524,0.772887 -7.485637,1.718649 -8.809142,2.101693 -1.706359,0.493848 -2.196987,0.357651 -1.686588,-0.468192 z M 89,9.059017 C 89,8.5414763 89.45,7.8399187 90,7.5 90.55,7.1600813 91,7.5835237 91,8.440983 91,9.2984424 90.55,10 90,10 89.45,10 89,9.5765576 89,9.059017 Z m 9.078947,-3.6423503 c 0.04798,-1.164943 0.284941,-1.4018994 0.604167,-0.6041667 0.288871,0.721875 0.253344,1.584375 -0.07895,1.9166667 -0.332292,0.3322916 -0.568641,-0.2583334 -0.52522,-1.3125 z M 201,5 C 199.86174,4.264402 200.28378,4.0269327 202.75,4.0153128 204.5375,4.0068907 206,4.45 206,5 c 0,1.2701997 -3.03451,1.2701997 -5,0 z"
       id="path4174"
       inkscape:connector-curvature="0" />
    <path
       style="fill:#634833"
       d="M 5.0990902,296.25 C 1.6311658,282.95272 1,279.62871 1,274.66236 c 0,-6.7522 2.0722242,-8.88652 7.4503137,-7.67357 1.8376353,0.41446 17.2255743,0.17341 34.1954203,-0.53565 C 59.61558,265.74407 99.6,264.67688 131.5,264.08159 c 80.92283,-1.51009 147.29628,-3.17502 158.36977,-3.97258 l 9.36977,-0.67486 -0.59516,5.69413 c -0.84833,8.1164 -6.31849,24.62694 -8.55596,25.8244 -1.004,0.53732 -2.06294,0.73946 -2.35321,0.4492 -0.29026,-0.29026 -22.96193,0.1755 -50.38148,1.03502 -27.41955,0.85952 -60.20373,1.84722 -72.85373,2.19487 -15.264,0.4195 -24.08578,1.07202 -26.22816,1.94002 -2.26858,0.91913 -3.42657,0.98687 -3.89565,0.22789 -0.46382,-0.75049 -6.34394,-0.87354 -19.27184,-0.40329 C 97.712709,297.029 9.9563876,299.94925 7.2885441,299.98415 6.6222433,299.99287 5.6369891,298.3125 5.0990902,296.25 Z"
       id="path4172"
       inkscape:connector-curvature="0" />
  </g>
</svg>
