<?xml version="1.0" encoding="UTF-8" standalone="no"?>
<!-- Created with Inkscape (http://www.inkscape.org/) -->

<svg
   xmlns:dc="http://purl.org/dc/elements/1.1/"
   xmlns:cc="http://creativecommons.org/ns#"
   xmlns:rdf="http://www.w3.org/1999/02/22-rdf-syntax-ns#"
   xmlns:svg="http://www.w3.org/2000/svg"
   xmlns="http://www.w3.org/2000/svg"
   xmlns:sodipodi="http://sodipodi.sourceforge.net/DTD/sodipodi-0.dtd"
   xmlns:inkscape="http://www.inkscape.org/namespaces/inkscape"
   id="svg4136"
   version="1.1"
   inkscape:version="0.91 r13725"
   width="34.679855"
   height="55.704948"
   viewBox="0 0 34.679855 55.704948"
   sodipodi:docname="ear.svg">
  <metadata
     id="metadata4142">
    <rdf:RDF>
      <cc:Work
         rdf:about="">
        <dc:format>image/svg+xml</dc:format>
        <dc:type
           rdf:resource="http://purl.org/dc/dcmitype/StillImage" />
        <dc:title></dc:title>
      </cc:Work>
    </rdf:RDF>
  </metadata>
  <defs
     id="defs4140" />
  <sodipodi:namedview
     pagecolor="#ffffff"
     bordercolor="#666666"
     borderopacity="1"
     objecttolerance="10"
     gridtolerance="10"
     guidetolerance="10"
     inkscape:pageopacity="0"
     inkscape:pageshadow="2"
     inkscape:window-width="2560"
     inkscape:window-height="1061"
     id="namedview4138"
     showgrid="false"
     fit-margin-top="0"
     fit-margin-left="0"
     fit-margin-right="0"
     fit-margin-bottom="0"
     inkscape:zoom="9.5253333"
     inkscape:cx="16.837218"
     inkscape:cy="28.517447"
     inkscape:window-x="-4"
     inkscape:window-y="-4"
     inkscape:window-maximized="1"
     inkscape:current-layer="svg4136" />
  <g
     id="g4162"
     transform="translate(-30.037782,-19.6875)">
    <path
       style="fill:#eac93a"
       d="M 38.4375,74.194355 31.40625,72.566047 30.818002,62.767399 C 30.494467,57.378142 30.178061,45.691406 30.114877,36.796875 29.982756,18.197372 29.010637,19.606657 40.225598,22.139316 c 6.439706,1.454269 7.019109,1.435682 14.612321,-0.46875 4.3487,-1.090687 8.34387,-1.983066 8.878155,-1.983066 0.647023,0 0.971426,8.734642 0.971426,26.155893 l 0,26.155893 -6.796875,1.49446 C 47.085406,75.86954 45.861508,75.913618 38.4375,74.194355 Z"
       id="path4166"
       inkscape:connector-curvature="0" />
    <path
       style="fill:#757144"
       d="M 36.725629,73.575085 C 33.979412,72.905418 31.558536,72.183535 31.345903,71.970903 31.133272,71.758271 30.687523,60.118457 30.355351,46.10465 29.849287,24.754579 29.961478,20.623053 31.047577,20.612984 c 0.712895,-0.0067 4.343025,0.700572 8.066956,1.571514 6.343294,1.483551 7.232515,1.48431 14.083919,0.01202 4.022225,-0.864335 8.259496,-1.571517 9.41616,-1.571517 l 2.103023,0 L 64.468192,46.171875 64.21875,71.71875 58.125,73.295416 c -7.205363,1.864279 -14.50964,1.959739 -21.399371,0.279669 z m 10.149371,-7.37004 0,-6.919954 -4.165144,-1.048796 C 40.419027,57.659458 37.254965,57.1875 35.678606,57.1875 l -2.866106,0 0,6.898048 0,6.898048 3.984375,0.958117 c 2.191406,0.526964 5.355469,1.00878 7.03125,1.070702 L 46.875,73.125 l 0,-6.919955 z m 10.3125,5.640215 5.15625,-1.200297 0.27381,-7.197481 c 0.312185,-8.206192 0.514162,-8.068662 -8.71131,-5.931678 l -4.6875,1.085811 -0.27381,7.261693 c -0.312112,8.277491 -0.629413,8.047213 8.24256,5.981952 z m -10.78125,-22.618994 0,-6.554983 -3.434888,-1.128742 c -1.889188,-0.620808 -5.05325,-1.257003 -7.03125,-1.413767 l -3.596362,-0.285024 0,6.946643 0,6.946644 3.75,1.18008 c 2.0625,0.649043 5.226562,1.108991 7.03125,1.022106 l 3.28125,-0.157973 0,-6.554984 z m 10.78125,5.743994 5.15625,-1.200297 0.27381,-7.197481 c 0.312185,-8.206192 0.514162,-8.068662 -8.71131,-5.931678 l -4.6875,1.085811 -0.27381,7.261693 c -0.312112,8.277491 -0.629413,8.047213 8.24256,5.981952 z m -11.25,-22.608649 c 0,-6.885212 -0.04712,-7.024 -2.578125,-7.594013 -1.417969,-0.319344 -4.16989,-0.979075 -6.115381,-1.466071 -1.945491,-0.486996 -3.949397,-0.63073 -4.453125,-0.319408 C 32.287141,23.29344 31.875,26.627381 31.875,30.390877 l 0,6.842719 3.984375,0.958117 c 2.191406,0.526964 5.355469,1.00878 7.03125,1.070702 L 45.9375,39.375 l 0,-7.013389 z m 11.25,5.733649 5.15625,-1.200297 0.27381,-7.197481 c 0.313694,-8.245874 0.274168,-8.272867 -8.71131,-5.949023 l -4.6875,1.212292 -0.27381,7.207125 c -0.312131,8.21578 -0.624131,7.991415 8.24256,5.927384 z"
       id="path4164"
       inkscape:connector-curvature="0" />
  </g>
</svg>
